<?xml version="1.0" encoding="utf-8"?>
<svg version="1.1" xmlns:xlink="http://www.w3.org/1999/xlink" width="60px" height="57px" xmlns="http://www.w3.org/2000/svg">
  <g transform="matrix(1 0 0 1 -579 -257 )">
    <path d="M 609 257  C 625.8 257  639 269.54  639 285.5  C 639 301.46  625.8 314  609 314  C 592.2 314  579 301.46  579 285.5  C 579 269.54  592.2 257  609 257  Z " fill-rule="nonzero" fill="#00cc00" stroke="none" />
    <path d="M 609 257.5  C 625.52 257.5  638.5 269.82  638.5 285.5  C 638.5 301.18  625.52 313.5  609 313.5  C 592.48 313.5  579.5 301.18  579.5 285.5  C 579.5 269.82  592.48 257.5  609 257.5  Z " stroke-width="1" stroke="#797979" fill="none" />
  </g>
</svg>