<?xml version="1.0" encoding="utf-8"?>
<svg version="1.1" xmlns:xlink="http://www.w3.org/1999/xlink" width="50px" height="35px" xmlns="http://www.w3.org/2000/svg">
  <g transform="matrix(1 0 0 1 -584 -269 )">
    <path d="M 49.0967741935484 3.10774410774411  C 49.6989247311828 3.68911335578002  50 4.39506172839506  50 5.22558922558923  C 50 6.05611672278337  49.6989247311828 6.76206509539844  49.0967741935484 7.34343434343435  L 25.741935483871 29.8922558922559  L 21.3548387096774 34.1279461279461  C 20.752688172043 34.709315375982  20.0215053763441 35  19.1612903225807 35  C 18.3010752688172 35  17.5698924731183 34.709315375982  16.9677419354839 34.1279461279461  L 12.5806451612903 29.8922558922559  L 0.903225806451587 18.6178451178451  C 0.301075268817215 18.0364758698092  0 17.3305274971942  0 16.5  C 0 15.6694725028058  0.301075268817215 14.9635241301908  0.903225806451587 14.3821548821549  L 3.80000000000001 11  C 4.40215053763438 10.4186307519641  4.43010752688173 12.0666666666667  5.29032258064518 12.0666666666667  C 6.15053763440864 12.0666666666667  4.68817204301075 12.5519640852974  5.29032258064518 13.1333333333333  L 19.1612903225807 27.2666666666667  L 44.7096774193548 1.93333333333331  C 45.3118279569892 1.3519640852974  45.0731182795699 0.599999999999994  45.9333333333333 0.599999999999994  C 46.7935483870968 0.599999999999994  45.331182795699 0.018630751964082  45.9333333333333 0.599999999999994  L 49.0967741935484 3.10774410774411  Z " fill-rule="nonzero" fill="#ffffff" stroke="none" transform="matrix(1 0 0 1 584 269 )" />
  </g>
</svg>