<?xml version="1.0" encoding="utf-8"?>
<svg version="1.1" xmlns:xlink="http://www.w3.org/1999/xlink" width="12px" height="14px" xmlns="http://www.w3.org/2000/svg">
  <g transform="matrix(1 0 0 1 -308 -191 )">
    <path d="M 0.923076923076962 10.0155279503106  L 0.923076923076962 12.111801242236  L 3 12.111801242236  L 3 10.0155279503106  L 0.923076923076962 10.0155279503106  Z M 3.4615384615384 10.0155279503106  L 3.4615384615384 12.111801242236  L 5.76923076923083 12.111801242236  L 5.76923076923083 10.0155279503106  L 3.4615384615384 10.0155279503106  Z M 0.923076923076962 7.22049689440996  L 0.923076923076962 9.5496894409938  L 3 9.5496894409938  L 3 7.22049689440996  L 0.923076923076962 7.22049689440996  Z M 3.4615384615384 7.22049689440996  L 3.4615384615384 9.5496894409938  L 5.76923076923083 9.5496894409938  L 5.76923076923083 7.22049689440996  L 3.4615384615384 7.22049689440996  Z M 0.923076923076962 4.65838509316771  L 0.923076923076962 6.75465838509317  L 3 6.75465838509317  L 3 4.65838509316771  L 0.923076923076962 4.65838509316771  Z M 6.23076923076917 10.0155279503106  L 6.23076923076917 12.111801242236  L 8.5384615384616 12.111801242236  L 8.5384615384616 10.0155279503106  L 6.23076923076917 10.0155279503106  Z M 3.4615384615384 4.65838509316771  L 3.4615384615384 6.75465838509317  L 5.76923076923083 6.75465838509317  L 5.76923076923083 4.65838509316771  L 3.4615384615384 4.65838509316771  Z M 9 10.0155279503106  L 9 12.111801242236  L 11.076923076923 12.111801242236  L 11.076923076923 10.0155279503106  L 9 10.0155279503106  Z M 6.23076923076917 7.22049689440996  L 6.23076923076917 9.5496894409938  L 8.5384615384616 9.5496894409938  L 8.5384615384616 7.22049689440996  L 6.23076923076917 7.22049689440996  Z M 3.62379807692304 3.42464091614906  C 3.66947115384619 3.37854231366461  3.69230769230762 3.32395186335401  3.69230769230762 3.2608695652174  L 3.69230769230762 1.16459627329192  C 3.69230769230762 1.10151397515529  3.66947115384619 1.04692352484471  3.62379807692304 1.00082492236027  C 3.578125 0.954726319875789  3.52403846153845 0.931677018633536  3.4615384615384 0.931677018633536  L 3 0.931677018633536  C 2.9375 0.931677018633536  2.8834134615384 0.954726319875789  2.83774038461542 1.00082492236027  C 2.79206730769238 1.04692352484471  2.76923076923083 1.10151397515529  2.76923076923083 1.16459627329192  L 2.76923076923083 3.2608695652174  C 2.76923076923083 3.32395186335401  2.79206730769238 3.37854231366461  2.83774038461542 3.42464091614906  C 2.8834134615384 3.47073951863354  2.9375 3.49378881987579  3 3.49378881987579  L 3.4615384615384 3.49378881987579  C 3.52403846153845 3.49378881987579  3.578125 3.47073951863354  3.62379807692304 3.42464091614906  Z M 9 7.22049689440996  L 9 9.5496894409938  L 11.076923076923 9.5496894409938  L 11.076923076923 7.22049689440996  L 9 7.22049689440996  Z M 6.23076923076917 4.65838509316771  L 6.23076923076917 6.75465838509317  L 8.5384615384616 6.75465838509317  L 8.5384615384616 4.65838509316771  L 6.23076923076917 4.65838509316771  Z M 9 4.65838509316771  L 9 6.75465838509317  L 11.076923076923 6.75465838509317  L 11.076923076923 4.65838509316771  L 9 4.65838509316771  Z M 9.16225961538458 3.42464091614906  C 9.20793269230762 3.37854231366461  9.23076923076917 3.32395186335401  9.23076923076917 3.2608695652174  L 9.23076923076917 1.16459627329192  C 9.23076923076917 1.10151397515529  9.20793269230762 1.04692352484471  9.16225961538458 1.00082492236027  C 9.1165865384616 0.954726319875789  9.0625 0.931677018633536  9 0.931677018633536  L 8.5384615384616 0.931677018633536  C 8.47596153846155 0.931677018633536  8.421875 0.954726319875789  8.37620192307696 1.00082492236027  C 8.33052884615381 1.04692352484471  8.30769230769238 1.10151397515529  8.30769230769238 1.16459627329192  L 8.30769230769238 3.2608695652174  C 8.30769230769238 3.32395186335401  8.33052884615381 3.37854231366461  8.37620192307696 3.42464091614906  C 8.421875 3.47073951863354  8.47596153846155 3.49378881987579  8.5384615384616 3.49378881987579  L 9 3.49378881987579  C 9.0625 3.49378881987579  9.1165865384616 3.47073951863354  9.16225961538458 3.42464091614906  Z M 11.7259615384616 2.13994565217391  C 11.9086538461538 2.32434006211182  12 2.54270186335404  12 2.79503105590064  L 12 12.111801242236  C 12 12.3641304347826  11.9086538461538 12.5824922360248  11.7259615384616 12.7668866459627  C 11.5432692307692 12.9512810559006  11.326923076923 13.0434782608696  11.076923076923 13.0434782608696  L 0.923076923076962 13.0434782608696  C 0.673076923076962 13.0434782608696  0.456730769230774 12.9512810559006  0.274038461538396 12.7668866459627  C 0.0913461538461888 12.5824922360248  0 12.3641304347826  0 12.111801242236  L 0 2.79503105590064  C 0 2.54270186335404  0.0913461538461888 2.32434006211182  0.274038461538396 2.13994565217391  C 0.456730769230774 1.95555124223603  0.673076923076962 1.86335403726707  0.923076923076962 1.86335403726707  L 1.84615384615381 1.86335403726707  L 1.84615384615381 1.16459627329192  C 1.84615384615381 0.844332298136663  1.95913461538458 0.570166925465827  2.18509615384619 0.342100155279496  C 2.41105769230762 0.114033385093165  2.68269230769238 0  3 0  L 3.4615384615384 0  C 3.77884615384619 0  4.05048076923077 0.114033385093165  4.27644230769238 0.342100155279496  C 4.50240384615381 0.570166925465827  4.61538461538458 0.844332298136663  4.61538461538458 1.16459627329192  L 4.61538461538458 1.86335403726707  L 7.38461538461542 1.86335403726707  L 7.38461538461542 1.16459627329192  C 7.38461538461542 0.844332298136663  7.49759615384619 0.570166925465827  7.72355769230762 0.342100155279496  C 7.94951923076923 0.114033385093165  8.22115384615381 0  8.5384615384616 0  L 9 0  C 9.31730769230762 0  9.58894230769238 0.114033385093165  9.81490384615381 0.342100155279496  C 10.0408653846154 0.570166925465827  10.1538461538462 0.844332298136663  10.1538461538462 1.16459627329192  L 10.1538461538462 1.86335403726707  L 11.076923076923 1.86335403726707  C 11.326923076923 1.86335403726707  11.5432692307692 1.95555124223603  11.7259615384616 2.13994565217391  Z " fill-rule="nonzero" fill="#666666" stroke="none" transform="matrix(1 0 0 1 308 191 )" />
  </g>
</svg>