<?xml version="1.0" encoding="utf-8"?>
<svg version="1.1" xmlns:xlink="http://www.w3.org/1999/xlink" width="12px" height="12px" xmlns="http://www.w3.org/2000/svg">
  <g transform="matrix(1 0 0 1 -308 -266 )">
    <path d="M 7.4140625 7.4140625  C 7.8046875 7.0234375  8 6.55208333333334  8 6  C 8 5.44791666666666  7.8046875 4.9765625  7.4140625 4.5859375  C 7.0234375 4.1953125  6.55208333333326 4  6 4  C 5.44791666666674 4  4.9765625 4.1953125  4.5859375 4.5859375  C 4.1953125 4.9765625  4 5.44791666666666  4 6  C 4 6.55208333333334  4.1953125 7.0234375  4.5859375 7.4140625  C 4.9765625 7.8046875  5.44791666666674 8  6 8  C 6.55208333333326 8  7.0234375 7.8046875  7.4140625 7.4140625  Z M 11.9375 4.96484375  C 11.9791666666667 5.01953125  12 5.08072916666666  12 5.1484375  L 12 6.8828125  C 12 6.9453125  11.9791666666667 7.00520833333334  11.9375 7.0625  C 11.8958333333333 7.11979166666666  11.84375 7.15364583333334  11.78125 7.1640625  L 10.3359375 7.3828125  C 10.2369791666667 7.6640625  10.1354166666667 7.90104166666666  10.03125 8.09375  C 10.2135416666667 8.35416666666666  10.4921875 8.71354166666666  10.8671875 9.171875  C 10.9192708333333 9.234375  10.9453125 9.29947916666666  10.9453125 9.3671875  C 10.9453125 9.43489583333334  10.921875 9.49479166666666  10.875 9.546875  C 10.734375 9.73958333333334  10.4765625 10.0208333333333  10.1015625 10.390625  C 9.7265625 10.7604166666667  9.48177083333326 10.9453125  9.3671875 10.9453125  C 9.3046875 10.9453125  9.23697916666674 10.921875  9.1640625 10.875  L 8.0859375 10.03125  C 7.85677083333326 10.1510416666667  7.61979166666674 10.25  7.375 10.328125  C 7.29166666666674 11.0364583333333  7.21614583333326 11.5208333333333  7.1484375 11.78125  C 7.11197916666674 11.9270833333333  7.01822916666674 12  6.8671875 12  L 5.1328125 12  C 5.05989583333326 12  4.99609375 11.9778645833333  4.94140625 11.93359375  C 4.88671875 11.8893229166667  4.85677083333326 11.8333333333333  4.8515625 11.765625  L 4.6328125 10.328125  C 4.37760416666674 10.2447916666667  4.14322916666674 10.1484375  3.9296875 10.0390625  L 2.828125 10.875  C 2.77604166666674 10.921875  2.7109375 10.9453125  2.6328125 10.9453125  C 2.55989583333326 10.9453125  2.49479166666674 10.9166666666667  2.4375 10.859375  C 1.78125 10.265625  1.3515625 9.828125  1.1484375 9.546875  C 1.11197916666674 9.49479166666666  1.09375 9.43489583333334  1.09375 9.3671875  C 1.09375 9.3046875  1.11458333333326 9.24479166666666  1.15625 9.1875  C 1.234375 9.078125  1.3671875 8.90494791666666  1.5546875 8.66796875  C 1.7421875 8.43098958333334  1.8828125 8.24739583333334  1.9765625 8.1171875  C 1.8359375 7.85677083333334  1.72916666666674 7.59895833333334  1.65625 7.34375  L 0.2265625 7.1328125  C 0.158854166666742 7.12239583333334  0.104166666666742 7.08984375  0.0625 7.03515625  C 0.0208333333332575 6.98046875  0 6.91927083333334  0 6.8515625  L 0 5.1171875  C 0 5.0546875  0.0208333333332575 4.99479166666666  0.0625 4.9375  C 0.104166666666742 4.88020833333334  0.153645833333258 4.84635416666666  0.2109375 4.8359375  L 1.6640625 4.6171875  C 1.73697916666674 4.37760416666666  1.83854166666674 4.13802083333334  1.96875 3.8984375  C 1.76041666666674 3.6015625  1.48177083333326 3.2421875  1.1328125 2.8203125  C 1.08072916666674 2.7578125  1.0546875 2.6953125  1.0546875 2.6328125  C 1.0546875 2.58072916666666  1.078125 2.52083333333334  1.125 2.453125  C 1.26041666666674 2.265625  1.51692708333326 1.98567708333334  1.89453125 1.61328125  C 2.27213541666674 1.24088541666666  2.51822916666674 1.0546875  2.6328125 1.0546875  C 2.70052083333326 1.0546875  2.76822916666674 1.08072916666666  2.8359375 1.1328125  L 3.9140625 1.96875  C 4.14322916666674 1.84895833333334  4.38020833333326 1.75  4.625 1.671875  C 4.70833333333326 0.963541666666657  4.78385416666674 0.479166666666657  4.8515625 0.21875  C 4.88802083333326 0.0729166666666572  4.98177083333326 0  5.1328125 0  L 6.8671875 0  C 6.94010416666674 0  7.00390625 0.0221354166666572  7.05859375 0.06640625  C 7.11328125 0.110677083333343  7.14322916666674 0.166666666666657  7.1484375 0.234375  L 7.3671875 1.671875  C 7.62239583333326 1.75520833333334  7.85677083333326 1.8515625  8.0703125 1.9609375  L 9.1796875 1.125  C 9.2265625 1.078125  9.2890625 1.0546875  9.3671875 1.0546875  C 9.43489583333326 1.0546875  9.5 1.08072916666666  9.5625 1.1328125  C 10.234375 1.75260416666666  10.6640625 2.1953125  10.8515625 2.4609375  C 10.8880208333333 2.50260416666666  10.90625 2.55989583333334  10.90625 2.6328125  C 10.90625 2.6953125  10.8854166666667 2.75520833333334  10.84375 2.8125  C 10.765625 2.921875  10.6328125 3.09505208333334  10.4453125 3.33203125  C 10.2578125 3.56901041666666  10.1171875 3.75260416666666  10.0234375 3.8828125  C 10.1588541666667 4.14322916666666  10.265625 4.3984375  10.34375 4.6484375  L 11.7734375 4.8671875  C 11.8411458333333 4.87760416666666  11.8958333333333 4.91015625  11.9375 4.96484375  Z " fill-rule="nonzero" fill="#cccccc" stroke="none" transform="matrix(1 0 0 1 308 266 )" />
  </g>
</svg>