<?xml version="1.0" encoding="utf-8"?>
<svg version="1.1" xmlns:xlink="http://www.w3.org/1999/xlink" width="20px" height="20px" xmlns="http://www.w3.org/2000/svg">
  <g transform="matrix(1 0 0 1 -536 -60 )">
    <path d="M 19.0651558073654 0  C 19.4617563739376 0  19.7403210576015 0.184659090909093  19.900849858357 0.553977272727273  C 20.0613786591124 0.942234848484844  19.9952785646836 1.27367424242424  19.7025495750709 1.54829545454545  L 12.7195467422097 8.55113636363636  L 12.7195467422097 19.0909090909091  C 12.7195467422097 19.4886363636364  12.5354107648725 19.7679924242424  12.1671388101983 19.9289772727273  C 12.0443814919736 19.9763257575758  11.9263456090652 20  11.8130311614731 20  C 11.5580736543909 20  11.3456090651558 19.9100378787879  11.1756373937677 19.7301136363636  L 7.54957507082156 16.09375  C 7.37016052880074 15.9138257575758  7.28045325779033 15.7007575757576  7.28045325779033 15.4545454545455  L 7.28045325779033 8.55113636363636  L 0.297450424929139 1.54829545454545  C 0.00472143531635538 1.27367424242424  -0.0613786591123926 0.942234848484844  0.0991501416430083 0.553977272727273  C 0.259678942398523 0.184659090909093  0.538243626062354 0  0.934844192634614 0  L 19.0651558073654 0  Z " fill-rule="nonzero" fill="#333333" stroke="none" transform="matrix(1 0 0 1 536 60 )" />
  </g>
</svg>