<?xml version="1.0" encoding="utf-8"?>
<svg version="1.1" xmlns:xlink="http://www.w3.org/1999/xlink" width="12px" height="12px" viewBox="423 429  12 12" xmlns="http://www.w3.org/2000/svg">
  <path d="M 429 429  C 432.36 429  435 431.64  435 435  C 435 438.36  432.36 441  429 441  C 425.64 441  423 438.36  423 435  C 423 431.64  425.64 429  429 429  Z " fill-rule="nonzero" fill="#ffffff" stroke="none" />
  <path d="M 429 429.5  C 432.08 429.5  434.5 431.92  434.5 435  C 434.5 438.08  432.08 440.5  429 440.5  C 425.92 440.5  423.5 438.08  423.5 435  C 423.5 431.92  425.92 429.5  429 429.5  Z " stroke-width="1" stroke="#797979" fill="none" />
  <path d="M 429 438  C 427.32 438  426 436.68  426 435  C 426 433.32  427.32 432  429 432  C 430.68 432  432 433.32  432 435  C 432 436.68  430.68 438  429 438  " fill-rule="nonzero" fill="#797979" stroke="none" />
</svg>