<?xml version="1.0" encoding="utf-8"?>
<svg version="1.1" xmlns:xlink="http://www.w3.org/1999/xlink" width="160px" height="184px" xmlns="http://www.w3.org/2000/svg">
  <g transform="matrix(1 0 0 1 -328 -432 )">
    <path d="M 329 440  A 7 7 0 0 1 336 433 L 480 433  A 7 7 0 0 1 487 440 L 487 608  A 7 7 0 0 1 480 615 L 336 615  A 7 7 0 0 1 329 608 L 329 440  Z " fill-rule="nonzero" fill="#ffffff" stroke="none" fill-opacity="0" />
    <path d="M 328.5 440  A 7.5 7.5 0 0 1 336 432.5 L 480 432.5  A 7.5 7.5 0 0 1 487.5 440 L 487.5 608  A 7.5 7.5 0 0 1 480 615.5 L 336 615.5  A 7.5 7.5 0 0 1 328.5 608 L 328.5 440  Z " stroke-width="1" stroke-dasharray="17,8" stroke="#ec808d" fill="none" stroke-dashoffset="0.5" />
  </g>
</svg>