<?xml version="1.0" encoding="utf-8"?>
<svg version="1.1" xmlns:xlink="http://www.w3.org/1999/xlink" width="12px" height="12px" viewBox="649 364  12 12" xmlns="http://www.w3.org/2000/svg">
  <path d="M 655 364  C 658.36 364  661 366.64  661 370  C 661 373.36  658.36 376  655 376  C 651.64 376  649 373.36  649 370  C 649 366.64  651.64 364  655 364  Z " fill-rule="nonzero" fill="#ffffff" stroke="none" />
  <path d="M 655 364.5  C 658.08 364.5  660.5 366.92  660.5 370  C 660.5 373.08  658.08 375.5  655 375.5  C 651.92 375.5  649.5 373.08  649.5 370  C 649.5 366.92  651.92 364.5  655 364.5  Z " stroke-width="1" stroke="#666666" fill="none" />
  <path d="M 655 373  C 653.32 373  652 371.68  652 370  C 652 368.32  653.32 367  655 367  C 656.68 367  658 368.32  658 370  C 658 371.68  656.68 373  655 373  " fill-rule="nonzero" fill="#666666" stroke="none" />
</svg>