<?xml version="1.0" encoding="utf-8"?>
<svg version="1.1" xmlns:xlink="http://www.w3.org/1999/xlink" width="12px" height="12px" viewBox="600 364  12 12" xmlns="http://www.w3.org/2000/svg">
  <path d="M 606 364  C 609.36 364  612 366.64  612 370  C 612 373.36  609.36 376  606 376  C 602.64 376  600 373.36  600 370  C 600 366.64  602.64 364  606 364  Z " fill-rule="nonzero" fill="#ffffff" stroke="none" />
  <path d="M 606 364.5  C 609.08 364.5  611.5 366.92  611.5 370  C 611.5 373.08  609.08 375.5  606 375.5  C 602.92 375.5  600.5 373.08  600.5 370  C 600.5 366.92  602.92 364.5  606 364.5  Z " stroke-width="1" stroke="#666666" fill="none" />
  <path d="M 606 373  C 604.32 373  603 371.68  603 370  C 603 368.32  604.32 367  606 367  C 607.68 367  609 368.32  609 370  C 609 371.68  607.68 373  606 373  " fill-rule="nonzero" fill="#666666" stroke="none" />
</svg>