<?xml version="1.0" encoding="utf-8"?>
<svg version="1.1" xmlns:xlink="http://www.w3.org/1999/xlink" width="32px" height="25px" xmlns="http://www.w3.org/2000/svg">
  <g transform="matrix(1 0 0 1 -600 -520 )">
    <path d="M 8.52859461054287 6.96193045563552  C 8.78470856281145 6.71712629896081  8.91276553894574 6.38988808952843  8.91276553894574 5.98021582733816  C 8.91276553894574 5.57054356514789  8.78470856281145 5.24080735411667  8.52859461054287 4.99100719424462  C 8.27248065827435 4.74120703437245  7.93441024127981 4.61630695443648  7.51438335955942 4.61630695443648  C 7.07386736165749 4.61630695443648  6.68457415420926 4.74370503597117  6.34650373721477 4.99850119904079  C 6.00843332022029 5.25329736211029  5.83939811172305 5.58053557154278  5.83939811172305 5.98021582733816  C 5.83939811172305 6.36990407673864  6.00843332022029 6.69214628297357  6.34650373721477 6.94694244604318  C 6.68457415420926 7.20173860911268  7.07386736165749 7.32913669064749  7.51438335955942 7.32913669064749  C 7.93441024127981 7.32913669064749  8.27248065827435 7.20673461231013  8.52859461054287 6.96193045563552  Z M 19.938471184107 14.3435251798561  C 20.1997074154209 14.1237010391686  20.3303255310779 13.8689048760991  20.3303255310779 13.5791366906475  C 20.3303255310779 13.2993605115907  20.1997074154209 13.0495603517186  19.938471184107 12.8297362110312  C 19.6772349527931 12.6099120703437  19.3417256753213 12.5  18.9319433516916 12.5  C 18.6553402832416 12.5  18.4017874704957 12.6124100719425  18.171284913454 12.8372302158274  C 17.9407823564123 13.0620503597122  17.8255310778914 13.3093525179856  17.8255310778914 13.5791366906475  C 17.8255310778914 13.8589128697042  17.9407823564123 14.111211031175  18.171284913454 14.3360311750599  C 18.4017874704957 14.5608513189449  18.6553402832416 14.6732613908873  18.9319433516916 14.6732613908873  C 19.3417256753213 14.6732613908873  19.6772349527931 14.5633493205436  19.938471184107 14.3435251798561  Z M 16.3272644571204 6.96193045563552  C 16.5782561303435 6.71712629896081  16.7037519669551 6.38988808952843  16.7037519669551 5.98021582733816  C 16.7037519669551 5.57054356514789  16.5782561303435 5.24080735411667  16.3272644571204 4.99100719424462  C 16.0762727838972 4.74120703437245  15.7407635064254 4.61630695443648  15.3207366247049 4.61630695443648  C 14.8802206268031 4.61630695443648  14.4909274193548 4.74370503597117  14.1528570023604 4.99850119904079  C 13.8147865853659 5.25329736211029  13.6457513768686 5.58053557154278  13.6457513768686 5.98021582733816  C 13.6457513768686 6.36990407673864  13.8147865853659 6.69214628297357  14.1528570023604 6.94694244604318  C 14.4909274193548 7.20173860911268  14.8802206268031 7.32913669064749  15.3207366247049 7.32913669064749  C 15.7407635064254 7.32913669064749  16.0762727838972 7.20673461231013  16.3272644571204 6.96193045563552  Z M 26.0621557828482 14.3435251798561  C 26.3285142932074 14.1237010391686  26.4616935483871 13.8689048760991  26.4616935483871 13.5791366906475  C 26.4616935483871 13.2993605115907  26.3285142932074 13.0495603517186  26.0621557828482 12.8297362110312  C 25.7957972724889 12.6099120703437  25.4628491345398 12.5  25.0633113690008 12.5  C 24.7867083005508 12.5  24.5331554878049 12.6124100719425  24.3026529307632 12.8372302158274  C 24.0721503737215 13.0620503597122  23.9568990952006 13.3093525179856  23.9568990952006 13.5791366906475  C 23.9568990952006 13.8589128697042  24.0721503737215 14.111211031175  24.3026529307632 14.3360311750599  C 24.5331554878049 14.5608513189449  24.7867083005508 14.6732613908873  25.0633113690008 14.6732613908873  C 25.4628491345398 14.6732613908873  25.7957972724889 14.5633493205436  26.0621557828482 14.3435251798561  Z M 20.2765416011015 3.72452038369306  C 21.3573424796748 4.88858912869705  22.056533569368 6.19004796163074  22.374114870181 7.62889688249402  C 22.056533569368 7.58892885691444  21.697974036192 7.56894484412464  21.298436270653 7.56894484412464  C 19.5671059533176 7.56894484412464  17.9740771702072 7.95363709032779  16.5193499213218 8.72302158273385  C 15.0646226724364 9.49240607513991  13.9197933057959 10.5340727418065  13.0848618214005 11.8480215827338  C 12.249930337005 13.161970423661  11.8324645948072 14.5983213429256  11.8324645948072 16.1570743405276  C 11.8324645948072 16.9364508393286  11.9502770128508 17.6958433253398  12.1859018489378 18.4352517985611  C 11.8273423157619 18.4652278177458  11.4790273406766 18.4802158273382  11.1409569236822 18.4802158273382  C 10.8745984133228 18.4802158273382  10.6184844610543 18.472721822542  10.3726150668765 18.4577338129496  C 10.1267456726986 18.4427458033573  9.84502032520328 18.4102717825739  9.52743902439027 18.3603117505995  C 9.20985772357727 18.310351718625  8.98191630605822 18.275379696243  8.84361477183319 18.2553956834532  C 8.70531323760817 18.2354116706634  8.42614902963549 18.1829536370903  8.00612214791504 18.0980215827338  C 7.58609526619459 18.0130895283773  7.32998131392607 17.9606314948041  7.23778029110937 17.9406474820144  L 3.34997049567268 19.8441247002398  L 4.45638276947284 16.5767386091127  C 1.48546092315759 14.5483613109512  0 12.1003197442046  0 9.23261390887285  C 0 7.54396482813752  0.499422206923672 5.99020783373305  1.49826662077108 4.57134292565945  C 2.49711103461842 3.15247801758596  3.84939270259636 2.03587130295762  5.55511162470494 1.22152278177452  C 7.26083054681353 0.407174260591546  9.12277897980593 0  11.1409569236822 0  C 12.9439991476528 0  14.6471569302387 0.329736211031218  16.2504302714398 0.98920863309354  C 17.853703612641 1.64868105515586  19.1957407225282 2.56045163868907  20.2765416011015 3.72452038369306  Z M 30.1574178796224 12.087829736211  C 31.0333275963808 13.3018585131895  31.47128245476 14.6183053557154  31.47128245476 16.037170263789  C 31.47128245476 17.2062350119904  31.1204063401521 18.3228417266187  30.4186541109363 19.3869904076738  C 29.7169018817204 20.4511390887291  28.7667191188041 21.4178657074341  27.5681058221873 22.287170263789  L 28.4132818646735 25  L 25.3552812745869 23.3663069544365  C 23.8185975609756 23.7360111910472  22.7019407290847 23.9208633093525  22.0053107789143 23.9208633093525  C 20.2739804615788 23.9208633093525  18.6809516784684 23.5686450839329  17.226224429583 22.8642086330935  C 15.7714971806976 22.1597721822542  14.6266678140572 21.2030375699441  13.7917363296617 19.994004796163  C 12.9568048452662 18.7849720223821  12.5393391030685 17.4660271782574  12.5393391030685 16.037170263789  C 12.5393391030685 14.6083133493205  12.9568048452662 13.2893685051959  13.7917363296617 12.0803357314148  C 14.6266678140572 10.8713029576339  15.7714971806976 9.91456834532369  17.226224429583 9.21013189448445  C 18.6809516784684 8.5056954436451  20.2739804615788 8.15347721822536  22.0053107789143 8.15347721822536  C 23.6546846315237 8.15347721822536  25.2067351822712 8.5056954436451  26.6614624311566 9.21013189448445  C 28.116189680042 9.91456834532369  29.2815081628639 10.8738009592327  30.1574178796224 12.087829736211  Z " fill-rule="nonzero" fill="#999999" stroke="none" transform="matrix(1 0 0 1 600 520 )" />
  </g>
</svg>