<?xml version="1.0" encoding="utf-8"?>
<svg version="1.1" xmlns:xlink="http://www.w3.org/1999/xlink" width="25px" height="25px" xmlns="http://www.w3.org/2000/svg">
  <g transform="matrix(1 0 0 1 -600 -558 )">
    <path d="M 0 17.7455357142857  C 0 15.1878720238095  1.17198177676539 13.0208333333334  3.51594533029612 11.2444196428571  C 3.44153378891417 11.0677083333334  3.40432801822323 10.8258928571429  3.40432801822323 10.5189732142857  C 3.40432801822323 10.3329613095239  3.45548595292331 10.1050967261905  3.55780182232348 9.83537946428567  C 3.6601176917236 9.56566220238096  3.77173500379649 9.35639880952385  3.89265375854217 9.20758928571433  C 3.88335231586939 9.00297619047615  3.91823272589215 8.75651041666663  3.99729498861046 8.46819196428567  C 4.07635725132877 8.17987351190482  4.18099848139713 7.97991071428567  4.31121867881546 7.86830357142855  C 4.31121867881546 6.57552083333337  4.74141040242978 5.23390997023807  5.60179384965829 3.84347098214289  C 6.46217729688686 2.45303199404759  7.47370918754746 1.47879464285711  8.63638952164007 0.920758928571445  C 9.92929005315108 0.30691964285711  11.4361237661352 0  13.1568906605922 0  C 14.3939825360668 0  15.6310744115414 0.255766369047592  16.8681662870159 0.76729910714289  C 17.3239369779803 0.96261160714289  17.7425018982536 1.18582589285711  18.123861047836 1.43694196428567  C 18.5052201974184 1.68805803571433  18.8354214123007 1.94847470238096  19.1144646924829 2.21819196428567  C 19.3935079726651 2.48790922619048  19.6492976461655 2.80412946428567  19.8818337129841 3.16685267857144  C 20.1143697798026 3.52957589285711  20.3097000759302 3.87369791666663  20.4678246013667 4.19921875  C 20.6259491268033 4.52473958333337  20.7770975702354 4.91768973214289  20.9212699316629 5.37806919642856  C 21.0654422930904 5.83844866071433  21.1840356871678 6.25465029761904  21.2770501138952 6.62667410714289  C 21.3700645406226 6.99869791666663  21.4723804100228 7.45442708333337  21.5839977220957 7.99386160714289  L 21.5979498861048 8.06361607142856  C 22.1095292331055 8.83556547619048  22.3653189066059 9.53311011904759  22.3653189066059 10.15625  C 22.3653189066059 10.2864583333334  22.3234624145786 10.4724702380952  22.2397494305239 10.7142857142857  C 22.1560364464693 10.9561011904761  22.1141799544419 11.1328125  22.1141799544419 11.2444196428571  C 22.1141799544419 11.2537202380952  22.1211560364465 11.2699962797619  22.1351082004556 11.2932477678571  C 22.1490603644647 11.3164992559524  22.165337889142 11.3397507440476  22.1839407744875 11.3630022321429  C 22.2025436598329 11.3862537202381  22.2118451025057 11.4025297619048  22.2118451025057 11.4118303571429  C 22.9280561883068 12.4720982142857  23.4884681093394 13.4695870535714  23.8930808656036 14.404296875  C 24.2976936218679 15.3390066964286  24.5 16.30859375  24.5 17.3130580357143  C 24.5 17.7129836309524  24.4093109339408 18.1780133928571  24.2279328018223 18.7081473214286  C 24.0465546697039 19.23828125  23.7884396355353 19.5033482142857  23.4535876993166 19.5033482142857  C 23.369874715262 19.5033482142857  23.2791856492028 19.4684709821429  23.1815205011389 19.3987165178571  C 23.0838553530752 19.3289620535714  22.9954916476842 19.2475818452381  22.9164293849659 19.1545758928571  C 22.8373671222475 19.0615699404761  22.7490034168565 18.940662202381  22.6513382687927 18.7918526785714  C 22.5536731207289 18.6430431547619  22.479261579347 18.5198102678571  22.4281036446469 18.4221540178571  C 22.3769457099468 18.3244977678571  22.3141609719058 18.2035900297619  22.2397494305239 18.0594308035714  C 22.165337889142 17.915271577381  22.1234813971146 17.8338913690476  22.1141799544419 17.8152901785714  C 22.1048785117692 17.8059895833334  22.09092634776 17.8013392857143  22.0723234624146 17.8013392857143  L 22.002562642369 17.8571428571429  C 21.4537775246773 19.2894345238095  20.8398823082764 20.3264508928571  20.1608769931663 20.9681919642857  C 20.3469058466211 21.1542038690476  20.6329252088079 21.333240327381  21.0189350797266 21.5053013392857  C 21.4049449506454 21.6773623511905  21.725844722855 21.870349702381  21.9816343963553 22.0842633928571  C 22.2374240698557 22.2981770833334  22.4025246772969 22.6004464285714  22.4769362186788 22.9910714285714  C 22.4583333333333 23.0282738095239  22.4397304479879 23.1026785714286  22.4211275626424 23.2142857142857  C 22.4025246772969 23.3258928571429  22.3699696279423 23.4095982142857  22.3234624145786 23.4654017857143  C 21.7281700835231 24.3675595238095  20.3236522399392 24.8186383928571  18.1099088838269 24.8186383928571  C 17.6169324221716 24.8186383928571  17.1030277145027 24.7767857142857  16.5681947608201 24.6930803571429  C 16.0333618071375 24.609375  15.5775911161731 24.516369047619  15.2008826879271 24.4140625  C 14.8241742596811 24.311755952381  14.3381738800304 24.1722470238095  13.7428815489749 23.9955357142857  C 13.6033599088838 23.9490327380952  13.4963933181473 23.9164806547619  13.4219817767654 23.8978794642857  C 13.291761579347 23.8606770833334  13.077828397874 23.8397507440476  12.7801822323462 23.8351004464286  C 12.4825360668185 23.8304501488095  12.2965072133637 23.823474702381  12.2220956719818 23.8141741071429  C 11.8407365223994 24.2327008928571  11.2477695520121 24.5349702380952  10.4431947608201 24.7209821428571  C 9.63861996962794 24.906994047619  8.8549734244495 25  8.09225512528474 25  C 7.76670463173878 25  7.44580485952923 24.9930245535714  7.12955580865605 24.9790736607143  C 6.81330675778281 24.9651227678571  6.38078967350037 24.9232700892857  5.83200455580868 24.853515625  C 5.28321943811693 24.7837611607143  4.81349658314349 24.6884300595239  4.42283599088836 24.5675223214286  C 4.03217539863329 24.4466145833334  3.68569665907364 24.2606026785714  3.38339977220954 24.0094866071429  C 3.0811028853455 23.7583705357143  2.92995444191342 23.4607514880952  2.92995444191342 23.1166294642857  C 2.92995444191342 22.7446056547619  2.97646165527715 22.4679129464286  3.06947608200454 22.2865513392857  C 3.16249050873199 22.1051897321429  3.35317008352314 21.879650297619  3.64151480637815 21.6099330357143  C 3.74383067577827 21.5913318452381  3.93218488990129 21.5308779761905  4.20657744874717 21.4285714285714  C 4.48097000759299 21.3262648809524  4.71118071374337 21.2704613095239  4.89720956719816 21.2611607142857  C 4.93441533788916 21.2611607142857  4.99952543659833 21.2518601190476  5.09253986332573 21.2332589285714  C 5.11114274867123 21.2146577380952  5.12044419134395 21.196056547619  5.12044419134395 21.1774553571429  L 5.09253986332573 21.1356026785714  C 4.64607061503415 21.0332961309524  4.14379271070612 20.5426897321429  3.58570615034171 19.6637834821429  C 3.02761958997723 18.7848772321429  2.68811693242219 18.0571056547619  2.56719817767652 17.48046875  L 2.49743735763099 17.4386160714286  C 2.46023158694004 17.4386160714286  2.40442293090359 17.5316220238095  2.33001138952164 17.7176339285714  C 2.1625854214123 18.0989583333334  1.90912110858011 18.4454055059524  1.56961845102506 18.7569754464286  C 1.23011579347002 19.0685453869048  0.869684889901293 19.242931547619  0.488325740318885 19.2801339285714  L 0.474373576309802 19.2801339285714  C 0.437167805618856 19.2801339285714  0.409263477600632 19.2592075892857  0.390660592255131 19.2173549107143  C 0.372057706909629 19.1755022321429  0.348804100227767 19.1499255952381  0.320899772209543 19.140625  C 0.106966590736533 18.6383928571429  0 18.1733630952381  0 17.7455357142857  Z " fill-rule="nonzero" fill="#999999" stroke="none" transform="matrix(1 0 0 1 600 558 )" />
  </g>
</svg>