<?xml version="1.0" encoding="utf-8"?>
<svg version="1.1" xmlns:xlink="http://www.w3.org/1999/xlink" width="32px" height="25px" xmlns="http://www.w3.org/2000/svg">
  <g transform="matrix(1 0 0 1 -600 -480 )">
    <path d="M 10.6751952035694 19.9982782369146  C 11.1457752370329 19.8433195592287  11.5088771147053 19.570707070707  11.7645008365867 19.1804407713498  C 12.0085052983826 18.7901744719926  12.072411228853 18.3941689623508  11.9562186279978 17.9924242424242  C 11.8400260271426 17.5906795224977  11.5785926752184 17.3037190082645  11.1719185722253 17.1315426997245  C 10.7768637293177 16.9708448117539  10.3527607361963 16.9651056014692  9.89960959286114 17.1143250688705  C 9.44645844952592 17.2635445362719  9.09788064696039 17.5275482093664  8.85387618516452 17.9063360881543  C 8.59825246328313 18.2966023875115  8.52272727272728 18.689738292011  8.62730061349694 19.0857438016529  C 8.7318739542666 19.4817493112947  8.98168804610523 19.7715794306704  9.37674288901283 19.9552341597796  C 9.77179773192043 20.1388888888889  10.204615170106 20.1532369146006  10.6751952035694 19.9982782369146  Z M 13.0193809258226 17.4156336088155  C 13.1936698271054 17.3525022956841  13.3214816880461 17.2463269054178  13.4028165086447 17.0971074380166  C 13.4957705893289 16.9478879706153  13.5161042944785 16.7957988980717  13.4638176240937 16.6408402203857  C 13.4115309537089 16.4858815426998  13.3098624279606 16.3797061524334  13.1588120468489 16.3223140495868  C 12.9961424056516 16.2649219467402  12.830567949433 16.2677915518825  12.662088678193 16.3309228650138  C 12.493609406953 16.3940541781451  12.3687023610337 16.5002295684114  12.287367540435 16.6494490358127  C 12.0898401189812 17.0052800734619  12.1653653095371 17.2635445362719  12.5139431121026 17.4242424242424  C 12.6766127532999 17.4816345270891  12.8450920245399 17.4787649219468  13.0193809258226 17.4156336088155  Z M 16.3918711656442 15.659435261708  C 16.9437860197063 16.6982323232323  16.9583100948132 17.791551882461  16.4354433909648 18.939393939394  C 15.9125766871166 20.1101928374655  14.9946551403607 20.9710743801653  13.6816787506972 21.5220385674932  C 12.3687023610337 22.0730027548209  11.0673452314556 22.141873278237  9.77760736196319 21.7286501377411  C 8.53434653281278 21.3383838383838  7.67742610150586 20.6123737373738  7.20684606804238 19.5506198347107  C 6.73626603457893 18.4888659320477  6.77402862985684 17.4127640036731  7.32013385387617 16.3223140495868  C 7.86623907789553 15.2548209366391  8.74639802937349 14.4570707070707  9.9606107083101 13.9290633608815  C 11.1748233872467 13.4010560146924  12.3977505112474 13.2920110192838  13.6293920803123 13.6019283746557  C 14.9191299498048 13.9348025711662  15.8399563115821 14.6206382001836  16.3918711656442 15.659435261708  Z M 19.5639291689905 20.7386363636364  C 21.2661507715189 19.3784435261708  22.0359267521844 17.860422405877  21.8732571109872 16.1845730027549  C 21.7686837702175 15.0826446280992  21.251626696412 14.1069788797062  20.3220858895706 13.2575757575758  C 19.3925450827291 12.4081726354453  18.1812372188139 11.7825987144168  16.6881622978249 11.3808539944904  C 15.1950873768358 10.9791092745638  13.6003439300985 10.8585858585859  11.9039319576129 11.0192837465564  C 9.31283695854248 11.2832874196511  7.16617865774307 12.0953856749311  5.46395705521473 13.4555785123966  C 3.76173545268637 14.8157713498623  2.99195947202082 16.3337924701561  3.15462911321808 18.0096418732783  C 3.25920245398774 19.1115702479339  3.77625952779326 20.0872359963269  4.70580033463469 20.9366391184573  C 5.63534114147612 21.7860422405877  6.84664900539133 22.4116161616162  8.33972392638037 22.8133608815427  C 9.83279884736939 23.2151056014692  11.4275422941067 23.3356290174472  13.1239542665923 23.1749311294766  C 15.7150492656628 22.910927456382  17.8617075664622 22.0988292011019  19.5639291689905 20.7386363636364  Z M 26.648773006135 14.2475895316804  C 27.0438278490426 14.8502066115702  27.2413552704964 15.5188246097337  27.2413552704964 16.2534435261708  C 27.2413552704964 17.0339761248852  27.0263989589143 17.834595959596  26.5964863357501 18.655303030303  C 26.166573712586 19.4760101010102  25.5333240379253 20.2622819100092  24.696737311768 21.0141184573002  C 23.8601505856107 21.7659550045913  22.8812279234058 22.4403122130395  21.7599693251534 23.0371900826447  C 20.6387107269009 23.6340679522498  19.3257343372374 24.110422405877  17.8210401561629 24.4662534435262  C 16.3163459750883 24.8220844811754  14.744841048522 25  13.106525376464 25  C 11.468209704406 25  9.87056144264733 24.8077364554638  8.31358059118796 24.4232093663912  C 6.75659973972859 24.0386822773187  5.35938371444507 23.5049357208449  4.12193251533742 22.8219696969697  C 2.8844813162298 22.1390036730946  1.88812976389664 21.2723829201102  1.13287785833799 20.2221074380166  C 0.37762595277934 19.1718319559228  0 18.0268595041323  0 16.7871900826447  C 0 15.4671717171717  0.403769287971755 14.0610651974289  1.21130786391524 12.568870523416  C 2.01884643985872 11.0766758494032  3.16624837330357 9.59595959595958  4.65351366424986 8.12672176308536  C 6.61716861870235 6.18686868686871  8.60115727830453 4.83241505968783  10.6054796430563 4.06336088154274  C 12.6098020078082 3.29430670339764  14.0418758133482 3.33448117539024  14.9017010596765 4.18388429752065  C 15.6569529652352 4.91850321395771  15.7731455660904 6.11799816345274  15.2502788622421 7.78236914600552  C 15.2038018219 7.94306703397615  15.1979921918572 8.05785123966939  15.2328499721138 8.12672176308536  C 15.2677077523703 8.19559228650132  15.3258040527979 8.23576675849404  15.4071388733965 8.24724517906338  C 15.4884736939952 8.25872359963273  15.5727133296152 8.25585399449039  15.6598577802565 8.23863636363637  C 15.7470022308979 8.22141873278235  15.8254322364752 8.201331496786  15.8951477969883 8.17837465564742  L 15.9997211377579 8.14393939393938  C 17.6147982896449 7.46671258034894  19.0439672801636 7.12809917355366  20.287228109314 7.12809917355366  C 21.5304889384644 7.12809917355366  22.4193623350065 7.47819100091829  22.9538482989403 8.17837465564742  C 23.4767150027886 8.90151515151513  23.4767150027886 9.92309458218551  22.9538482989403 11.2431129476583  C 22.9306097787693 11.3923324150597  22.9044664435769 11.507116620753  22.8754182933631 11.5874655647383  C 22.8463701431493 11.6678145087236  22.8725134783417 11.7395546372819  22.9538482989403 11.8026859504132  C 23.0351831195389 11.8658172635445  23.1048986800521 11.9088613406796  23.1629949804797 11.9318181818181  C 23.2210912809072 11.9547750229568  23.3198549916341 11.9892102846649  23.4592861126604 12.0351239669421  C 24.1215839375349 12.24173553719  24.719975831939 12.5114784205693  25.2544617958728 12.8443526170798  C 25.7889477598067 13.1772268135904  26.2537181632274 13.6449724517906  26.648773006135 14.2475895316804  Z M 24.191299498048 4.38188705234165  C 24.8768358430935 4.59423783287423  25.4636084774122 4.97015610651977  25.9516174010039 5.50964187327827  C 26.4396263245957 6.04912764003677  26.756251161926 6.67183195592281  26.901491912995 7.37775482093662  C 27.0467326640639 8.08367768595042  27.008970068786 8.75803489439852  26.7882041271612 9.40082644628103  C 26.695250046477 9.66483011937555  26.5238659602157 9.85996326905422  26.274051868377 9.98622589531681  C 26.0242377765384 10.1124885215794  25.7657092396356 10.1354453627181  25.4984662576687 10.0550964187328  C 25.2312232757018 9.96326905417811  25.033695854248 9.79396235078048  24.9058839933073 9.54717630853997  C 24.7780721323666 9.30039026629936  24.7548336121956 9.04499540863173  24.8361684327942 8.78099173553721  C 25.0685536345046 8.05785123966939  24.9291225134783 7.42079889807167  24.4178750697156 6.86983471074382  C 23.9066276259528 6.31887052341597  23.2849972113776 6.11799816345274  22.55298382599 6.26721763085402  C 22.2741215839375 6.32460973370064  22.0126882320134 6.27869605142337  21.7686837702175 6.12947658402209  C 21.5246793084216 5.98025711662081  21.3794385573527 5.76790633608812  21.3329615170106 5.49242424242425  C 21.274865216583 5.21694214876038  21.3213422569251 4.96154729109276  21.4723926380368 4.72623966942149  C 21.6234430191485 4.49093204775022  21.8383993307306 4.34458218549128  22.117261572783 4.28719008264466  C 22.8144171779141 4.13797061524338  23.5057631530024 4.16953627180897  24.191299498048 4.38188705234165  Z M 25.4810373675404 0.387396694214885  C 26.8869678378881 0.817837465564707  28.0953708867819 1.58976124885214  29.106246514222 2.70316804407719  C 30.117122141662 3.80509641873277  30.7707055214724 5.08207070707067  31.0669966536531 6.53409090909088  C 31.3632877858338 7.98611111111109  31.2848577802565 9.37213039485766  30.8317066369214 10.6921487603306  C 30.7271332961517 11.0020661157025  30.5296058746979 11.2316345270891  30.23912437256 11.3808539944904  C 29.948642870422 11.5300734618917  29.6465421081986 11.5530303030303  29.3328220858896 11.4497245179064  C 29.0191020635806 11.3464187327824  28.7867168618702 11.1512855831038  28.6356664807585 10.8643250688705  C 28.4846160996468 10.5773645546373  28.455567949433 10.2789256198347  28.5485220301171 9.96900826446279  C 28.8738613125116 9.02777777777783  28.9319576129392 8.04063360881537  28.7228109313999 7.00757575757575  C 28.5136642498606 5.97451790633613  28.0488938464399 5.0677226813591  27.3284997211377 4.28719008264466  C 26.6081055958357 3.49517906336087  25.7482803495074 2.94708448117535  24.7490239821528 2.64290633608812  C 23.7497676147983 2.33872819100088  22.744701617401 2.28994490358127  21.733825989961 2.49655647382917  C 21.4084867075665 2.56542699724514  21.106385945343 2.51090449954086  20.8275237032906 2.33298898071621  C 20.5486614612381 2.15507346189167  20.3743725599554 1.90541781450872  20.3046569994423 1.58402203856747  C 20.2349414389292 1.26262626262621  20.2901329243354 0.967056932965988  20.4702314556609 0.697314049586794  C 20.6503299869864 0.427571166207485  20.9030488938464 0.258264462809962  21.2283881762409 0.189393939393995  C 22.6575571667596 -0.109044995408681  24.0751068971928 -0.0430440771349367  25.4810373675404 0.387396694214885  Z " fill-rule="nonzero" fill="#e4e4e4" stroke="none" transform="matrix(1 0 0 1 600 480 )" />
  </g>
</svg>