<?xml version="1.0" encoding="utf-8"?>
<svg version="1.1" xmlns:xlink="http://www.w3.org/1999/xlink" width="12px" height="12px" viewBox="649 804  12 12" xmlns="http://www.w3.org/2000/svg">
  <path d="M 655 804  C 658.36 804  661 806.64  661 810  C 661 813.36  658.36 816  655 816  C 651.64 816  649 813.36  649 810  C 649 806.64  651.64 804  655 804  Z " fill-rule="nonzero" fill="#ffffff" stroke="none" />
  <path d="M 655 804.5  C 658.08 804.5  660.5 806.92  660.5 810  C 660.5 813.08  658.08 815.5  655 815.5  C 651.92 815.5  649.5 813.08  649.5 810  C 649.5 806.92  651.92 804.5  655 804.5  Z " stroke-width="1" stroke="#666666" fill="none" />
  <path d="M 655 813  C 653.32 813  652 811.68  652 810  C 652 808.32  653.32 807  655 807  C 656.68 807  658 808.32  658 810  C 658 811.68  656.68 813  655 813  " fill-rule="nonzero" fill="#666666" stroke="none" />
</svg>