<?xml version="1.0" encoding="utf-8"?>
<svg version="1.1" xmlns:xlink="http://www.w3.org/1999/xlink" width="12px" height="12px" viewBox="600 804  12 12" xmlns="http://www.w3.org/2000/svg">
  <path d="M 606 804  C 609.36 804  612 806.64  612 810  C 612 813.36  609.36 816  606 816  C 602.64 816  600 813.36  600 810  C 600 806.64  602.64 804  606 804  Z " fill-rule="nonzero" fill="#ffffff" stroke="none" />
  <path d="M 606 804.5  C 609.08 804.5  611.5 806.92  611.5 810  C 611.5 813.08  609.08 815.5  606 815.5  C 602.92 815.5  600.5 813.08  600.5 810  C 600.5 806.92  602.92 804.5  606 804.5  Z " stroke-width="1" stroke="#666666" fill="none" />
  <path d="M 606 813  C 604.32 813  603 811.68  603 810  C 603 808.32  604.32 807  606 807  C 607.68 807  609 808.32  609 810  C 609 811.68  607.68 813  606 813  " fill-rule="nonzero" fill="#666666" stroke="none" />
</svg>