<?xml version="1.0" encoding="utf-8"?>
<svg version="1.1" xmlns:xlink="http://www.w3.org/1999/xlink" width="80px" height="80px" xmlns="http://www.w3.org/2000/svg">
  <defs>
    <mask fill="white" id="clip77">
      <path d="M 540 290  C 517.8 290  500 272.2  500 250  L 500 250  C 500 227.8  517.8 210  540 210  L 540 210  C 562.2 210  580 227.8  580 250  L 580 250  C 580 272.2  562.2 290  540 290  " fill-rule="evenodd" />
    </mask>
  </defs>
  <g transform="matrix(1 0 0 1 -500 -210 )">
    <path d="M 500 210  L 580 210  L 580 290  L 500 290  L 500 210  " fill-rule="nonzero" fill="#cccccc" stroke="none" mask="url(#clip77)" />
    <path d="M 506 216  L 574 216  L 574 284  L 506 284  L 506 216  " fill-rule="nonzero" fill="#ffffff" stroke="none" mask="url(#clip77)" />
    <path d="M 547.6 234  C 544.24 234  541.6 231.36  541.6 228  C 541.6 224.64  544.24 222  547.6 222  C 550.96 222  553.6 224.64  553.6 228  C 553.6 231.36  550.96 234  547.6 234  " fill-rule="nonzero" fill="#cccccc" stroke="none" mask="url(#clip77)" />
    <path d="M 508 282  L 508 246.8  L 524 230.8  L 546.4 243.6  L 559.2 240.4  L 572 243.6  L 572 282  L 508 282  " fill-rule="nonzero" fill="#169bd5" stroke="none" mask="url(#clip77)" />
  </g>
</svg>