<?xml version="1.0" encoding="utf-8"?>
<svg version="1.1" xmlns:xlink="http://www.w3.org/1999/xlink" width="600px" height="300px" xmlns="http://www.w3.org/2000/svg">
  <g transform="matrix(1 0 0 1 -300 -420 )">
    <path d="M 300 420  L 900 420  L 900 720  L 300 720  L 300 420  " fill-rule="nonzero" fill="#cccccc" stroke="none" />
    <path d="M 321 441  L 879 441  L 879 699  L 321 699  L 321 441  " fill-rule="nonzero" fill="#ffffff" stroke="none" />
    <path d="M 634.5 510  C 621.9 510  612 500.1  612 487.5  C 612 474.9  621.9 465  634.5 465  C 647.1 465  657 474.9  657 487.5  C 657 500.1  647.1 510  634.5 510  " fill-rule="nonzero" fill="#cccccc" stroke="none" />
    <path d="M 329 692  L 329 558.35  L 464.75 497.6  L 654.8 619.1  L 763.4 534.05  L 872 619.1  L 872 692  L 329 692  " fill-rule="nonzero" fill="#169bd5" stroke="none" />
  </g>
</svg>