<?xml version="1.0" encoding="utf-8"?>
<svg version="1.1" xmlns:xlink="http://www.w3.org/1999/xlink" width="12px" height="12px" viewBox="840 913  12 12" xmlns="http://www.w3.org/2000/svg">
  <path d="M 846 913  C 849.36 913  852 915.64  852 919  C 852 922.36  849.36 925  846 925  C 842.64 925  840 922.36  840 919  C 840 915.64  842.64 913  846 913  Z " fill-rule="nonzero" fill="#ffffff" stroke="none" />
  <path d="M 846 913.5  C 849.08 913.5  851.5 915.92  851.5 919  C 851.5 922.08  849.08 924.5  846 924.5  C 842.92 924.5  840.5 922.08  840.5 919  C 840.5 915.92  842.92 913.5  846 913.5  Z " stroke-width="1" stroke="#666666" fill="none" />
  <path d="M 846 922  C 844.32 922  843 920.68  843 919  C 843 917.32  844.32 916  846 916  C 847.68 916  849 917.32  849 919  C 849 920.68  847.68 922  846 922  " fill-rule="nonzero" fill="#666666" stroke="none" />
</svg>