<?xml version="1.0" encoding="utf-8"?>
<svg version="1.1" xmlns:xlink="http://www.w3.org/1999/xlink" width="12px" height="12px" viewBox="840 833  12 12" xmlns="http://www.w3.org/2000/svg">
  <path d="M 846 833  C 849.36 833  852 835.64  852 839  C 852 842.36  849.36 845  846 845  C 842.64 845  840 842.36  840 839  C 840 835.64  842.64 833  846 833  Z " fill-rule="nonzero" fill="#ffffff" stroke="none" />
  <path d="M 846 833.5  C 849.08 833.5  851.5 835.92  851.5 839  C 851.5 842.08  849.08 844.5  846 844.5  C 842.92 844.5  840.5 842.08  840.5 839  C 840.5 835.92  842.92 833.5  846 833.5  Z " stroke-width="1" stroke="#666666" fill="none" />
  <path d="M 846 842  C 844.32 842  843 840.68  843 839  C 843 837.32  844.32 836  846 836  C 847.68 836  849 837.32  849 839  C 849 840.68  847.68 842  846 842  " fill-rule="nonzero" fill="#666666" stroke="none" />
</svg>