<?xml version="1.0" encoding="utf-8"?>
<svg version="1.1" xmlns:xlink="http://www.w3.org/1999/xlink" width="12px" height="12px" viewBox="840 873  12 12" xmlns="http://www.w3.org/2000/svg">
  <path d="M 846 873  C 849.36 873  852 875.64  852 879  C 852 882.36  849.36 885  846 885  C 842.64 885  840 882.36  840 879  C 840 875.64  842.64 873  846 873  Z " fill-rule="nonzero" fill="#ffffff" stroke="none" />
  <path d="M 846 873.5  C 849.08 873.5  851.5 875.92  851.5 879  C 851.5 882.08  849.08 884.5  846 884.5  C 842.92 884.5  840.5 882.08  840.5 879  C 840.5 875.92  842.92 873.5  846 873.5  Z " stroke-width="1" stroke="#666666" fill="none" />
  <path d="M 846 882  C 844.32 882  843 880.68  843 879  C 843 877.32  844.32 876  846 876  C 847.68 876  849 877.32  849 879  C 849 880.68  847.68 882  846 882  " fill-rule="nonzero" fill="#666666" stroke="none" />
</svg>