<?xml version="1.0" encoding="utf-8"?>
<svg version="1.1" xmlns:xlink="http://www.w3.org/1999/xlink" width="12px" height="12px" viewBox="840 793  12 12" xmlns="http://www.w3.org/2000/svg">
  <path d="M 846 793  C 849.36 793  852 795.64  852 799  C 852 802.36  849.36 805  846 805  C 842.64 805  840 802.36  840 799  C 840 795.64  842.64 793  846 793  Z " fill-rule="nonzero" fill="#ffffff" stroke="none" />
  <path d="M 846 793.5  C 849.08 793.5  851.5 795.92  851.5 799  C 851.5 802.08  849.08 804.5  846 804.5  C 842.92 804.5  840.5 802.08  840.5 799  C 840.5 795.92  842.92 793.5  846 793.5  Z " stroke-width="1" stroke="#666666" fill="none" />
  <path d="M 846 802  C 844.32 802  843 800.68  843 799  C 843 797.32  844.32 796  846 796  C 847.68 796  849 797.32  849 799  C 849 800.68  847.68 802  846 802  " fill-rule="nonzero" fill="#666666" stroke="none" />
</svg>