<?xml version="1.0" encoding="utf-8"?>
<svg version="1.1" xmlns:xlink="http://www.w3.org/1999/xlink" width="52px" height="46px" xmlns="http://www.w3.org/2000/svg">
  <g transform="matrix(1 0 0 1 -305 -86 )">
    <path d="M 27.2767857142857 45.4609375  C 26.9285714285715 45.8203125  26.5029761904761 46  26 46  C 25.4970238095239 46  25.0714285714286 45.8203125  24.7232142857143 45.4609375  L 6.61607142857145 27.4322916666667  C 6.42261904761909 27.2725694444445  6.15662202380952 27.0130208333333  5.81808035714283 26.6536458333333  C 5.47953869047615 26.2942708333333  4.94270833333331 25.6404079861111  4.20758928571428 24.6920572916667  C 3.47247023809518 23.7437065972222  2.81473214285717 22.7703993055555  2.234375 21.7721354166667  C 1.65401785714283 20.7738715277778  1.13653273809518 19.5659722222222  0.681919642857167 18.1484375  C 0.227306547619094 16.7309027777778  0 15.3532986111111  0 14.015625  C 0 9.62326388888891  1.22842261904759 6.18923611111108  3.68526785714283 3.71354166666669  C 6.14211309523807 1.23784722222223  9.53720238095241 0  13.8705357142857 0  C 15.0699404761905 0  16.2935267857143 0.214626736111086  17.5412946428572 0.643880208333314  C 18.7890625 1.07313368055554  19.9497767857143 1.65212673611109  21.0234375 2.380859375  C 22.0970982142857 3.10959201388891  23.0208333333333 3.79340277777777  23.7946428571428 4.43229166666669  C 24.5684523809524 5.07118055555554  25.3035714285714 5.75  26 6.46875  C 26.6964285714285 5.75  27.4315476190476 5.07118055555554  28.2053571428572 4.43229166666669  C 28.9791666666667 3.79340277777777  29.9029017857143 3.10959201388891  30.9765625 2.380859375  C 32.0502232142857 1.65212673611109  33.2109375 1.07313368055554  34.4587053571428 0.643880208333314  C 35.7064732142857 0.214626736111086  36.9300595238095 0  38.1294642857143 0  C 42.4627976190476 0  45.8578869047619 1.23784722222223  48.3147321428572 3.71354166666669  C 50.7715773809524 6.18923611111108  52 9.62326388888891  52 14.015625  C 52 18.4279513888889  49.7849702380952 22.9201388888889  45.3549107142857 27.4921875  L 27.2767857142857 45.4609375  Z " fill-rule="nonzero" fill="#ff0000" stroke="none" transform="matrix(1 0 0 1 305 86 )" />
  </g>
</svg>