<?xml version="1.0" encoding="utf-8"?>
<svg version="1.1" xmlns:xlink="http://www.w3.org/1999/xlink" width="610px" height="117px" xmlns="http://www.w3.org/2000/svg">
  <g transform="matrix(1 0 0 1 -200 -55 )">
    <path d="M 200 55  L 810 55  L 810 172  L 200 172  L 200 55  " fill-rule="nonzero" fill="#cccccc" stroke="none" />
    <path d="M 208 63  L 802 63  L 802 164  L 208 164  L 208 63  " fill-rule="nonzero" fill="#ffffff" stroke="none" />
    <path d="M 525.975 90.1  C 521.061 90.1  517.2 86.239  517.2 81.325  C 517.2 76.411  521.061 72.55  525.975 72.55  C 530.889 72.55  534.75 76.411  534.75 81.325  C 534.75 86.239  530.889 90.1  525.975 90.1  " fill-rule="nonzero" fill="#cccccc" stroke="none" />
    <path d="M 211 161  L 211 108.75  L 358 85  L 563.8 150.067213114754  L 681.4 99.25  L 799 150.067213114754  L 799 161  L 211 161  " fill-rule="nonzero" fill="#169bd5" stroke="none" />
  </g>
</svg>