<?xml version="1.0" encoding="utf-8"?>
<svg version="1.1" xmlns:xlink="http://www.w3.org/1999/xlink" width="12px" height="12px" viewBox="410 324  12 12" xmlns="http://www.w3.org/2000/svg">
  <path d="M 416 324  C 419.36 324  422 326.64  422 330  C 422 333.36  419.36 336  416 336  C 412.64 336  410 333.36  410 330  C 410 326.64  412.64 324  416 324  Z " fill-rule="nonzero" fill="#ffffff" stroke="none" />
  <path d="M 416 324.5  C 419.08 324.5  421.5 326.92  421.5 330  C 421.5 333.08  419.08 335.5  416 335.5  C 412.92 335.5  410.5 333.08  410.5 330  C 410.5 326.92  412.92 324.5  416 324.5  Z " stroke-width="1" stroke="#666666" fill="none" />
  <path d="M 416 333  C 414.32 333  413 331.68  413 330  C 413 328.32  414.32 327  416 327  C 417.68 327  419 328.32  419 330  C 419 331.68  417.68 333  416 333  " fill-rule="nonzero" fill="#666666" stroke="none" />
</svg>