<?xml version="1.0" encoding="utf-8"?>
<svg version="1.1" xmlns:xlink="http://www.w3.org/1999/xlink" width="12px" height="12px" viewBox="270 324  12 12" xmlns="http://www.w3.org/2000/svg">
  <path d="M 276 324  C 279.36 324  282 326.64  282 330  C 282 333.36  279.36 336  276 336  C 272.64 336  270 333.36  270 330  C 270 326.64  272.64 324  276 324  Z " fill-rule="nonzero" fill="#ffffff" stroke="none" />
  <path d="M 276 324.5  C 279.08 324.5  281.5 326.92  281.5 330  C 281.5 333.08  279.08 335.5  276 335.5  C 272.92 335.5  270.5 333.08  270.5 330  C 270.5 326.92  272.92 324.5  276 324.5  Z " stroke-width="1" stroke="#666666" fill="none" />
  <path d="M 276 333  C 274.32 333  273 331.68  273 330  C 273 328.32  274.32 327  276 327  C 277.68 327  279 328.32  279 330  C 279 331.68  277.68 333  276 333  " fill-rule="nonzero" fill="#666666" stroke="none" />
</svg>