<?xml version="1.0" encoding="utf-8"?>
<svg version="1.1" xmlns:xlink="http://www.w3.org/1999/xlink" width="50px" height="44px" xmlns="http://www.w3.org/2000/svg">
  <g transform="matrix(1 0 0 1 -72 -434 )">
    <path d="M 49.69482421875 21.1037946428571  C 49.8982747395833 21.3575148809524  50 21.6480654761905  50 21.9754464285714  C 50 22.3191964285714  49.8942057291667 22.617931547619  49.6826171875 22.8716517857143  C 49.4710286458333 23.1253720238095  49.2024739583333 23.2849702380952  48.876953125 23.3504464285714  L 43.8720703125 32.0915178571429  C 43.9208984375 32.2388392857143  43.9453125 32.3861607142857  43.9453125 32.5334821428571  C 43.9453125 32.8608630952381  43.8435872395833 33.1514136904762  43.64013671875 33.4051339285714  C 43.4366861979167 33.6588541666667  43.1722005208333 33.8184523809524  42.8466796875 33.8839285714286  L 38.134765625 42.1584821428571  C 38.18359375 42.2894345238095  38.2080078125 42.4203869047619  38.2080078125 42.5513392857143  C 38.2080078125 42.9278273809524  38.07373046875 43.2552083333333  37.80517578125 43.5334821428571  C 37.53662109375 43.8117559523809  37.20703125 43.9508928571429  36.81640625 43.9508928571429  C 36.4095052083333 43.9508928571429  36.0758463541667 43.8035714285714  35.8154296875 43.5089285714286  L 26.0498046875 43.5089285714286  C 25.7731119791667 43.8363095238095  25.4231770833333 44  25 44  C 24.5768229166667 44  24.2268880208333 43.8363095238095  23.9501953125 43.5089285714286  L 14.208984375 43.5089285714286  C 13.9322916666667 43.8363095238095  13.5823567708333 44  13.1591796875 44  C 12.7848307291667 44  12.4593098958333 43.8649553571429  12.1826171875 43.5948660714286  C 11.9059244791667 43.3247767857143  11.767578125 42.9933035714286  11.767578125 42.6004464285714  C 11.767578125 42.4694940476191  11.8001302083333 42.3058035714286  11.865234375 42.109375  L 7.1533203125 33.8839285714286  C 6.82779947916667 33.8184523809524  6.56331380208333 33.6588541666667  6.35986328125 33.4051339285714  C 6.15641276041667 33.1514136904762  6.0546875 32.8608630952381  6.0546875 32.5334821428571  C 6.0546875 32.3861607142857  6.0791015625 32.2388392857143  6.1279296875 32.0915178571429  L 1.0986328125 23.3504464285714  C 0.773111979166667 23.2686011904762  0.508626302083333 23.100818452381  0.30517578125 22.8470982142857  C 0.101725260416667 22.5933779761905  0 22.3028273809524  0 21.9754464285714  C 0 21.6316964285714  0.10986328125 21.3329613095238  0.32958984375 21.0792410714286  C 0.54931640625 20.8255208333333  0.821940104166667 20.6659226190476  1.1474609375 20.6004464285714  L 6.005859375 12.1540178571429  C 6.005859375 12.1376488095238  6.00179036458333 12.1130952380952  5.99365234375 12.0803571428571  C 5.98551432291667 12.047619047619  5.9814453125 12.0230654761905  5.9814453125 12.0066964285714  C 5.9814453125 11.4174107142857  6.25813802083333 11  6.8115234375 10.7544642857143  L 11.9140625 1.84151785714286  C 11.8489583333333 1.67782738095238  11.81640625 1.53050595238095  11.81640625 1.39955357142857  C 11.81640625 1.00669642857143  11.9547526041667 0.675223214285712  12.2314453125 0.405133928571429  C 12.5081380208333 0.135044642857141  12.8336588541667 0  13.2080078125 0  C 13.6311848958333 0  13.9892578125 0.171875  14.2822265625 0.515625  L 23.9501953125 0.515625  C 24.2106119791667 0.171875  24.560546875 0  25 0  C 25.439453125 0  25.7893880208333 0.171875  26.0498046875 0.515625  L 35.7666015625 0.515625  C 36.0595703125 0.171875  36.4176432291667 0  36.8408203125 0  C 37.2151692708333 0  37.5406901041667 0.135044642857141  37.8173828125 0.405133928571429  C 38.0940755208333 0.675223214285712  38.232421875 1.00669642857143  38.232421875 1.39955357142857  C 38.232421875 1.49776785714286  38.1998697916667 1.64508928571429  38.134765625 1.84151785714286  L 43.1884765625 10.6316964285714  C 43.5628255208333 10.6480654761905  43.8802083333333 10.7912946428571  44.140625 11.0613839285714  C 44.4010416666667 11.3314732142857  44.53125 11.6465773809524  44.53125 12.0066964285714  C 44.53125 12.219494047619  44.4742838541667 12.4404761904762  44.3603515625 12.6696428571429  L 48.92578125 20.625  C 49.2350260416667 20.6904761904762  49.4913736979167 20.8500744047619  49.69482421875 21.1037946428571  Z M 25 41.2008928571429  C 25.341796875 41.2008928571429  25.6591796875 41.3318452380952  25.9521484375 41.59375  L 35.44921875 41.59375  L 27.099609375 32.9017857142857  L 23.6083984375 32.9017857142857  L 15.2587890625 41.59375  L 24.0478515625 41.59375  C 24.3408203125 41.3318452380952  24.658203125 41.2008928571429  25 41.2008928571429  Z M 7.470703125 13.40625  L 2.734375 21.65625  C 2.75065104166667 21.7217261904762  2.7587890625 21.828125  2.7587890625 21.9754464285714  C 2.7587890625 22.1391369047619  2.74251302083333 22.2619047619048  2.7099609375 22.34375  L 7.7880859375 31.1830357142857  C 7.82063802083333 31.1830357142857  7.85725911458333 31.1912202380952  7.89794921875 31.2075892857143  C 7.93863932291667 31.2239583333333  7.9833984375 31.2444196428571  8.0322265625 31.2689732142857  L 8.154296875 31.3303571428571  L 12.744140625 26.4441964285714  L 12.744140625 17.9241071428571  L 8.1787109375 13.1607142857143  C 7.96712239583333 13.2916666666667  7.73111979166667 13.3735119047619  7.470703125 13.40625  Z M 25 2.79910714285714  C 24.6419270833333 2.79910714285714  24.3326822916667 2.66815476190476  24.072265625 2.40625  L 14.599609375 2.40625  L 19.23828125 7.31696428571429  L 32.763671875 2.40625  L 25.927734375 2.40625  C 25.6673177083333 2.66815476190476  25.3580729166667 2.79910714285714  25 2.79910714285714  Z M 39.3798828125 32.1651785714286  L 41.2353515625 32.1651785714286  C 41.2516276041667 32.0669642857143  41.2923177083333 31.9769345238095  41.357421875 31.8950892857143  L 39.794921875 30.2254464285714  L 39.3798828125 32.1651785714286  Z M 27.34375 32  L 38.6474609375 32  L 39.1845703125 29.5870535714286  L 33.0322265625 23.0558035714286  L 25.8056640625 30.59375  L 27.34375 32  Z M 36.181640625 41.3236607142857  C 36.3118489583333 41.2581845238095  36.4176432291667 41.2172619047619  36.4990234375 41.2008928571429  L 36.8896484375 40.5133928571429  L 38.4765625 33  L 28.0517578125 33  L 36.181640625 41.3236607142857  Z M 13.57421875 41.2745535714286  C 13.8020833333333 41.3563988095238  13.9811197916667 41.4627976190476  14.111328125 41.59375  L 14.2333984375 41.59375  L 22.5830078125 32.9017857142857  L 13.4765625 32.9017857142857  L 13.4765625 41.1272321428571  L 13.57421875 41.2745535714286  Z M 13.4765625 26.7388392857143  L 13.4765625 32.1651785714286  L 23.291015625 32.1651785714286  L 24.853515625 30.5446428571429  L 17.3095703125 22.6629464285714  L 13.4765625 26.7388392857143  Z M 8.642578125 31.8705357142857  C 8.70768229166667 32.0014880952381  8.74837239583333 32.0997023809524  8.7646484375 32.1651785714286  L 12.744140625 32.1651785714286  L 12.744140625 27.5245535714286  L 8.642578125 31.8705357142857  Z M 12.744140625 10.4598214285714  L 8.740234375 11.9084821428571  C 8.740234375 11.9248511904762  8.74430338541667 11.9412202380952  8.75244140625 11.9575892857143  C 8.76057942708333 11.9739583333333  8.7646484375 11.9903273809524  8.7646484375 12.0066964285714  C 8.7646484375 12.2686011904762  8.69954427083333 12.5059523809524  8.5693359375 12.71875  L 12.744140625 17.0647321428571  L 12.744140625 10.4598214285714  Z M 19.0185546875 8.17633928571429  L 13.4765625 10.1897321428571  L 13.4765625 17.8258928571429  L 17.2119140625 21.6808035714286  L 24.462890625 13.9709821428571  L 19.0185546875 8.17633928571429  Z M 13.818359375 2.65178571428571  C 13.720703125 2.68452380952381  13.6393229166667 2.70907738095238  13.57421875 2.72544642857143  L 13.4765625 2.921875  L 13.4765625 9.40401785714286  L 18.4814453125 7.58705357142857  L 13.818359375 2.65178571428571  Z M 24.9755859375 13.4308035714286  L 35.3271484375 2.40625  L 34.9365234375 2.40625  L 19.775390625 7.90625  L 24.9755859375 13.4308035714286  Z M 32.5439453125 22.515625  L 24.9755859375 14.4866071428571  L 17.724609375 22.2209821428571  L 25.3173828125 30.0535714285714  L 32.5439453125 22.515625  Z M 13.4765625 25.6584821428571  L 16.796875 22.1473214285714  L 13.4765625 18.6852678571429  L 13.4765625 25.6584821428571  Z M 26.3916015625 32.1651785714286  L 25.341796875 31.0848214285714  L 24.31640625 32.1651785714286  L 26.3916015625 32.1651785714286  Z M 42.48046875 13.234375  L 33.544921875 22.5401785714286  L 39.35546875 28.703125  L 42.578125 13.3816964285714  L 42.5048828125 13.2589285714286  L 42.48046875 13.234375  Z M 33.056640625 22  L 41.943359375 12.71875  C 41.8131510416667 12.5059523809524  41.748046875 12.2686011904762  41.748046875 12.0066964285714  L 41.748046875 11.9575892857143  L 36.474609375 2.72544642857143  C 36.3932291666667 2.70907738095238  36.2874348958333 2.66815476190476  36.1572265625 2.60267857142857  L 25.48828125 13.9709821428571  L 33.056640625 22  Z M 8.7646484375 11.1227678571429  L 12.744140625 9.67410714285714  L 12.744140625 4.19866071428571  L 8.7646484375 11.1227678571429  Z M 12.744140625 39.8504464285714  L 12.744140625 32.9017857142857  L 8.7646484375 32.9017857142857  L 12.744140625 39.8504464285714  Z M 41.2353515625 32.9017857142857  L 39.2333984375 32.9017857142857  L 38.0615234375 38.4754464285714  L 41.2353515625 32.9017857142857  Z M 41.845703125 31.3549107142857  C 41.9270833333333 31.3058035714286  42.0491536458333 31.2485119047619  42.2119140625 31.1830357142857  L 47.265625 22.3191964285714  C 47.2330729166667 22.155505952381  47.216796875 22.0409226190476  47.216796875 21.9754464285714  C 47.216796875 21.9590773809524  47.2412109375 21.828125  47.2900390625 21.5825892857143  L 43.115234375 14.3147321428571  L 39.9658203125 29.3415178571429  L 41.845703125 31.3549107142857  Z " fill-rule="nonzero" fill="#333333" stroke="none" transform="matrix(1 0 0 1 72 434 )" />
  </g>
</svg>