<?xml version="1.0" encoding="utf-8"?>
<svg version="1.1" xmlns:xlink="http://www.w3.org/1999/xlink" width="8px" height="9px" xmlns="http://www.w3.org/2000/svg">
  <defs>
    <mask fill="white" id="clip11">
      <path d="M 1.34749999999985 8.61052631578946  C 0.5929000000001 8.61052631578946  0 8.04883157894733  0 7.33394736842104  L 0 6.23973684210523  C 0 5.52485263157894  0.5929000000001 4.96315789473681  1.34749999999985 4.96315789473681  L 6.35249999999996 4.96315789473681  C 7.10709999999972 4.96315789473681  7.69999999999982 5.52485263157894  7.69999999999982 6.23973684210523  L 7.69999999999982 7.33394736842104  C 7.69999999999982 8.04883157894733  7.10709999999972 8.61052631578946  6.35249999999996 8.61052631578946  L 1.34749999999985 8.61052631578946  Z M 3.85000000000036 0.100000000000023  C 2.84280702207525 0.100000000000023  2.02631578947376 0.916491232601629  2.02631578947376 1.92368421052629  C 2.02631578947376 2.93087718845106  2.84280702207525 3.74736842105267  3.85000000000036 3.74736842105267  C 4.85719297792502 3.74736842105267  5.67368421052652 2.93087718845106  5.67368421052652 1.92368421052629  C 5.67368421052652 0.916491232601629  4.85719297792502 0.100000000000023  3.85000000000036 0.100000000000023  Z " fill-rule="evenodd" />
    </mask>
  </defs>
  <g transform="matrix(1 0 0 1 -447 -945 )">
    <path d="M 1.34749999999985 8.61052631578946  C 0.5929000000001 8.61052631578946  0 8.04883157894733  0 7.33394736842104  L 0 6.23973684210523  C 0 5.52485263157894  0.5929000000001 4.96315789473681  1.34749999999985 4.96315789473681  L 6.35249999999996 4.96315789473681  C 7.10709999999972 4.96315789473681  7.69999999999982 5.52485263157894  7.69999999999982 6.23973684210523  L 7.69999999999982 7.33394736842104  C 7.69999999999982 8.04883157894733  7.10709999999972 8.61052631578946  6.35249999999996 8.61052631578946  L 1.34749999999985 8.61052631578946  Z M 3.85000000000036 0.100000000000023  C 2.84280702207525 0.100000000000023  2.02631578947376 0.916491232601629  2.02631578947376 1.92368421052629  C 2.02631578947376 2.93087718845106  2.84280702207525 3.74736842105267  3.85000000000036 3.74736842105267  C 4.85719297792502 3.74736842105267  5.67368421052652 2.93087718845106  5.67368421052652 1.92368421052629  C 5.67368421052652 0.916491232601629  4.85719297792502 0.100000000000023  3.85000000000036 0.100000000000023  Z " fill-rule="nonzero" fill="#ffffff" stroke="none" fill-opacity="0" transform="matrix(1 0 0 1 447 945 )" />
    <path d="M 1.34749999999985 8.61052631578946  C 0.5929000000001 8.61052631578946  0 8.04883157894733  0 7.33394736842104  L 0 6.23973684210523  C 0 5.52485263157894  0.5929000000001 4.96315789473681  1.34749999999985 4.96315789473681  L 6.35249999999996 4.96315789473681  C 7.10709999999972 4.96315789473681  7.69999999999982 5.52485263157894  7.69999999999982 6.23973684210523  L 7.69999999999982 7.33394736842104  C 7.69999999999982 8.04883157894733  7.10709999999972 8.61052631578946  6.35249999999996 8.61052631578946  L 1.34749999999985 8.61052631578946  Z " stroke-width="2.1" stroke="#b0b0c2" fill="none" transform="matrix(1 0 0 1 447 945 )" mask="url(#clip11)" />
    <path d="M 3.85000000000036 0.100000000000023  C 2.84280702207525 0.100000000000023  2.02631578947376 0.916491232601629  2.02631578947376 1.92368421052629  C 2.02631578947376 2.93087718845106  2.84280702207525 3.74736842105267  3.85000000000036 3.74736842105267  C 4.85719297792502 3.74736842105267  5.67368421052652 2.93087718845106  5.67368421052652 1.92368421052629  C 5.67368421052652 0.916491232601629  4.85719297792502 0.100000000000023  3.85000000000036 0.100000000000023  Z " stroke-width="2.1" stroke="#b0b0c2" fill="none" transform="matrix(1 0 0 1 447 945 )" mask="url(#clip11)" />
  </g>
</svg>