<?xml version="1.0" encoding="utf-8"?>
<svg version="1.1" xmlns:xlink="http://www.w3.org/1999/xlink" width="16px" height="19px" xmlns="http://www.w3.org/2000/svg">
  <defs>
    <mask fill="white" id="clip10">
      <path d="M 2.89529993829456 18.0680446541801  C 1.27393197284937 18.0680446541801  0 16.8611617325331  0 15.3251289231642  L 0 13.2499989123538  C 0 11.713966102985  1.27393197284937 10.507083181338  2.89529993829456 10.507083181338  L 13.0667298377052 10.507083181338  C 14.6880978031504 10.507083181338  15.9620297759998 11.713966102985  15.9620297759998 13.2499989123538  L 15.9620297759998 15.3251289231642  C 15.9620297759998 16.8611617325331  14.6880978031504 18.0680446541801  13.0667298377052 18.0680446541801  L 2.89529993829456 18.0680446541801  Z M 7.98101488799966 0.425801217548383  C 5.89311303036175 0.425801217548383  4.20053415157872 2.11838009633141  4.20053415157872 4.20628195396944  C 4.20053415157872 6.29418381160747  5.89311303036175 7.98676269039049  7.98101488799966 7.98676269039049  C 10.0689167456376 7.98676269039049  11.7614956244206 6.29418381160747  11.7614956244206 4.20628195396944  C 11.7614956244206 2.11838009633141  10.0689167456376 0.425801217548383  7.98101488799966 0.425801217548383  Z " fill-rule="evenodd" />
    </mask>
  </defs>
  <g transform="matrix(1 0 0 1 -604 -714 )">
    <path d="M 2.89529993829456 18.0680446541801  C 1.27393197284937 18.0680446541801  0 16.8611617325331  0 15.3251289231642  L 0 13.2499989123538  C 0 11.713966102985  1.27393197284937 10.507083181338  2.89529993829456 10.507083181338  L 13.0667298377052 10.507083181338  C 14.6880978031504 10.507083181338  15.9620297759998 11.713966102985  15.9620297759998 13.2499989123538  L 15.9620297759998 15.3251289231642  C 15.9620297759998 16.8611617325331  14.6880978031504 18.0680446541801  13.0667298377052 18.0680446541801  L 2.89529993829456 18.0680446541801  Z M 7.98101488799966 0.425801217548383  C 5.89311303036175 0.425801217548383  4.20053415157872 2.11838009633141  4.20053415157872 4.20628195396944  C 4.20053415157872 6.29418381160747  5.89311303036175 7.98676269039049  7.98101488799966 7.98676269039049  C 10.0689167456376 7.98676269039049  11.7614956244206 6.29418381160747  11.7614956244206 4.20628195396944  C 11.7614956244206 2.11838009633141  10.0689167456376 0.425801217548383  7.98101488799966 0.425801217548383  Z " fill-rule="nonzero" fill="#ffffff" stroke="none" fill-opacity="0" transform="matrix(1 0 0 1 604 714 )" />
    <path d="M 2.89529993829456 18.0680446541801  C 1.27393197284937 18.0680446541801  0 16.8611617325331  0 15.3251289231642  L 0 13.2499989123538  C 0 11.713966102985  1.27393197284937 10.507083181338  2.89529993829456 10.507083181338  L 13.0667298377052 10.507083181338  C 14.6880978031504 10.507083181338  15.9620297759998 11.713966102985  15.9620297759998 13.2499989123538  L 15.9620297759998 15.3251289231642  C 15.9620297759998 16.8611617325331  14.6880978031504 18.0680446541801  13.0667298377052 18.0680446541801  L 2.89529993829456 18.0680446541801  Z " stroke-width="4.353280848" stroke="#b0b0c2" fill="none" transform="matrix(1 0 0 1 604 714 )" mask="url(#clip10)" />
    <path d="M 7.98101488799966 0.425801217548383  C 5.89311303036175 0.425801217548383  4.20053415157872 2.11838009633141  4.20053415157872 4.20628195396944  C 4.20053415157872 6.29418381160747  5.89311303036175 7.98676269039049  7.98101488799966 7.98676269039049  C 10.0689167456376 7.98676269039049  11.7614956244206 6.29418381160747  11.7614956244206 4.20628195396944  C 11.7614956244206 2.11838009633141  10.0689167456376 0.425801217548383  7.98101488799966 0.425801217548383  Z " stroke-width="4.353280848" stroke="#b0b0c2" fill="none" transform="matrix(1 0 0 1 604 714 )" mask="url(#clip10)" />
  </g>
</svg>