<?xml version="1.0" encoding="utf-8"?>
<svg version="1.1" xmlns:xlink="http://www.w3.org/1999/xlink" width="40px" height="40px" xmlns="http://www.w3.org/2000/svg">
  <defs>
    <filter x="241px" y="1643px" width="40px" height="40px" filterUnits="userSpaceOnUse" id="filter16">
      <feOffset dx="1" dy="1" in="SourceAlpha" result="shadowOffsetInner" />
      <feGaussianBlur stdDeviation="2.5" in="shadowOffsetInner" result="shadowGaussian" />
      <feComposite in2="shadowGaussian" operator="atop" in="SourceAlpha" result="shadowComposite" />
      <feColorMatrix type="matrix" values="0 0 0 0 0  0 0 0 0 0  0 0 0 0 0  0 0 0 0.698039215686274 0  " in="shadowComposite" />
    </filter>
    <g id="widget17">
      <path d="M 260 1647  C 268.4 1647  275 1653.6  275 1662  C 275 1670.4  268.4 1677  260 1677  C 251.6 1677  245 1670.4  245 1662  C 245 1653.6  251.6 1647  260 1647  Z " fill-rule="nonzero" fill="#009dd9" stroke="none" />
      <path d="M 260 1647.5  C 268.12 1647.5  274.5 1653.88  274.5 1662  C 274.5 1670.12  268.12 1676.5  260 1676.5  C 251.88 1676.5  245.5 1670.12  245.5 1662  C 245.5 1653.88  251.88 1647.5  260 1647.5  Z " stroke-width="1" stroke="#ffffff" fill="none" />
    </g>
  </defs>
  <g transform="matrix(1 0 0 1 -241 -1643 )">
    <use xlink:href="#widget17" filter="url(#filter16)" />
    <use xlink:href="#widget17" />
  </g>
</svg>