<?xml version="1.0" encoding="utf-8"?>
<svg version="1.1" xmlns:xlink="http://www.w3.org/1999/xlink" width="30px" height="30px" xmlns="http://www.w3.org/2000/svg">
  <g transform="matrix(1 0 0 1 -67 -1910 )">
    <path d="M 82 1910  C 90.4 1910  97 1916.6  97 1925  C 97 1933.4  90.4 1940  82 1940  C 73.6 1940  67 1933.4  67 1925  C 67 1916.6  73.6 1910  82 1910  Z " fill-rule="nonzero" fill="#009dd9" stroke="none" />
    <path d="M 82 1910.5  C 90.12 1910.5  96.5 1916.88  96.5 1925  C 96.5 1933.12  90.12 1939.5  82 1939.5  C 73.88 1939.5  67.5 1933.12  67.5 1925  C 67.5 1916.88  73.88 1910.5  82 1910.5  Z " stroke-width="1" stroke="#ffffff" fill="none" />
  </g>
</svg>