<?xml version="1.0" encoding="utf-8"?>
<svg version="1.1" xmlns:xlink="http://www.w3.org/1999/xlink" width="348px" height="268px" xmlns="http://www.w3.org/2000/svg">
  <g transform="matrix(1 0 0 1 -280 -1783 )">
    <path d="M 280.5 2048  C 280.5 2048  280.5 1803.97307692308  280.5 1803.97307692308  C 280.5 1802.5923650485  281.619288125423 1801.47307692308  283 1801.47307692308  C 283 1801.47307692308  551.332223270892 1801.47307692308  551.332223270892 1801.47307692308  C 551.332223270892 1801.47307692308  562.546213607616 1784.75850109553  562.546213607616 1784.75850109553  C 562.546213607616 1784.75850109553  574.047458869223 1801.47307692308  574.047458869223 1801.47307692308  C 574.047458869223 1801.47307692308  625 1801.47307692308  625 1801.47307692308  C 626.380711874577 1801.47307692308  627.5 1802.5923650485  627.5 1803.97307692308  C 627.5 1803.97307692308  627.5 2048  627.5 2048  C 627.5 2049.38071187458  626.380711874577 2050.5  625 2050.5  C 625 2050.5  283 2050.5  283 2050.5  C 281.619288125423 2050.5  280.5 2049.38071187458  280.5 2048  Z " fill-rule="nonzero" fill="#ffffff" stroke="none" />
    <path d="M 280 2048  C 280 2048  280 1803.97307692308  280 1803.97307692308  C 280 1802.31622267358  281.343145750508 1800.97307692308  283 1800.97307692308  C 283 1800.97307692308  551.065573770492 1800.97307692308  551.065573770492 1800.97307692308  C 551.065573770492 1800.97307692308  562.540983606557 1783.86885245902  562.540983606557 1783.86885245902  C 562.540983606557 1783.86885245902  574.310344827586 1800.97307692308  574.310344827586 1800.97307692308  C 574.310344827586 1800.97307692308  625 1800.97307692308  625 1800.97307692308  C 626.656854249492 1800.97307692308  628 1802.31622267358  628 1803.97307692308  C 628 1803.97307692308  628 2048  628 2048  C 628 2049.65685424949  626.656854249492 2051  625 2051  C 625 2051  283 2051  283 2051  C 281.343145750508 2051  280 2049.65685424949  280 2048  Z M 281 2048  C 281 2049.10456949966  281.895430500338 2050  283 2050  C 283 2050  625 2050  625 2050  C 626.104569499661 2050  627 2049.10456949966  627 2048  C 627 2048  627 1803.97307692308  627 1803.97307692308  C 627 1802.86850742342  626.104569499661 1801.97307692308  625 1801.97307692308  C 625 1801.97307692308  573.784572910858 1801.97307692308  573.784572910858 1801.97307692308  C 573.784572910858 1801.97307692308  562.551443608675 1785.64814973204  562.551443608675 1785.64814973204  C 562.551443608675 1785.64814973204  551.598872771292 1801.97307692308  551.598872771292 1801.97307692308  C 551.598872771292 1801.97307692308  283 1801.97307692308  283 1801.97307692308  C 281.895430500338 1801.97307692308  281 1802.86850742342  281 1803.97307692308  C 281 1803.97307692308  281 2048  281 2048  Z " fill-rule="nonzero" fill="#979797" stroke="none" />
  </g>
</svg>