<?xml version="1.0" encoding="utf-8"?>
<svg version="1.1" xmlns:xlink="http://www.w3.org/1999/xlink" width="16px" height="15px" xmlns="http://www.w3.org/2000/svg">
  <defs>
    <mask fill="white" id="clip14">
      <path d="M 12.104 0.792  C 12.104 0.792  0.5 11.948  0.5 11.948  C 0.5 11.948  2.86 14.208  2.86 14.208  C 3.053 14.395  3.317 14.5  3.591 14.5  C 3.866 14.5  4.13 14.395  4.323 14.208  C 4.323 14.208  15.195 3.753  15.195 3.753  C 15.3883846842889 3.5713838873968  15.498660100277 3.31829276873546  15.5 3.053  C 15.4992088116254 2.78701126383875  15.3888883122921 2.5330932620945  15.195 2.351  C 15.195 2.351  13.567 0.791  13.567 0.791  C 13.3697796268351 0.603040415038065  13.1074391987728 0.498749343226412  12.835 0.5  C 12.561 0.5  12.297 0.605  12.104 0.792  Z " fill-rule="evenodd" />
    </mask>
  </defs>
  <g transform="matrix(1 0 0 1 -1010 -395 )">
    <path d="M 12.104 0.792  C 12.104 0.792  0.5 11.948  0.5 11.948  C 0.5 11.948  2.86 14.208  2.86 14.208  C 3.053 14.395  3.317 14.5  3.591 14.5  C 3.866 14.5  4.13 14.395  4.323 14.208  C 4.323 14.208  15.195 3.753  15.195 3.753  C 15.3883846842889 3.5713838873968  15.498660100277 3.31829276873546  15.5 3.053  C 15.4992088116254 2.78701126383875  15.3888883122921 2.5330932620945  15.195 2.351  C 15.195 2.351  13.567 0.791  13.567 0.791  C 13.3697796268351 0.603040415038065  13.1074391987728 0.498749343226412  12.835 0.5  C 12.561 0.5  12.297 0.605  12.104 0.792  Z " fill-rule="nonzero" fill="#02c398" stroke="none" transform="matrix(1 0 0 1 1010 395 )" />
    <path d="M 12.104 0.792  C 12.104 0.792  0.5 11.948  0.5 11.948  C 0.5 11.948  2.86 14.208  2.86 14.208  C 3.053 14.395  3.317 14.5  3.591 14.5  C 3.866 14.5  4.13 14.395  4.323 14.208  C 4.323 14.208  15.195 3.753  15.195 3.753  C 15.3883846842889 3.5713838873968  15.498660100277 3.31829276873546  15.5 3.053  C 15.4992088116254 2.78701126383875  15.3888883122921 2.5330932620945  15.195 2.351  C 15.195 2.351  13.567 0.791  13.567 0.791  C 13.3697796268351 0.603040415038065  13.1074391987728 0.498749343226412  12.835 0.5  C 12.561 0.5  12.297 0.605  12.104 0.792  Z " stroke-width="2" stroke="#666666" fill="none" transform="matrix(1 0 0 1 1010 395 )" mask="url(#clip14)" />
  </g>
</svg>