<?xml version="1.0" encoding="utf-8"?>
<svg version="1.1" xmlns:xlink="http://www.w3.org/1999/xlink" width="9px" height="7px" xmlns="http://www.w3.org/2000/svg">
  <defs>
    <mask fill="white" id="clip15">
      <path d="M 8.5 6.5  C 8.5 6.5  0.5 6.5  0.5 6.5  C 0.5 6.5  6.5 0.5  6.5 0.5  C 6.5 0.5  8.5 2.5  8.5 2.5  C 8.5 2.5  8.5 6.5  8.5 6.5  Z " fill-rule="evenodd" />
    </mask>
  </defs>
  <g transform="matrix(1 0 0 1 -1005 -406 )">
    <path d="M 8.5 6.5  C 8.5 6.5  0.5 6.5  0.5 6.5  C 0.5 6.5  6.5 0.5  6.5 0.5  C 6.5 0.5  8.5 2.5  8.5 2.5  C 8.5 2.5  8.5 6.5  8.5 6.5  Z " fill-rule="nonzero" fill="#ffffff" stroke="none" fill-opacity="0" transform="matrix(1 0 0 1 1005 406 )" />
    <path d="M 8.5 6.5  C 8.5 6.5  0.5 6.5  0.5 6.5  C 0.5 6.5  6.5 0.5  6.5 0.5  C 6.5 0.5  8.5 2.5  8.5 2.5  C 8.5 2.5  8.5 6.5  8.5 6.5  Z " stroke-width="2" stroke="#666666" fill="none" transform="matrix(1 0 0 1 1005 406 )" mask="url(#clip15)" />
  </g>
</svg>