<?xml version="1.0" encoding="utf-8"?>
<svg version="1.1" xmlns:xlink="http://www.w3.org/1999/xlink" width="140px" height="36px" xmlns="http://www.w3.org/2000/svg">
  <g transform="matrix(1 0 0 1 -857 -924 )">
    <path d="M 927 925  C 965.64 925  996 932.48  996 942  C 996 951.52  965.64 959  927 959  C 888.36 959  858 951.52  858 942  C 858 932.48  888.36 925  927 925  Z " fill-rule="nonzero" fill="#ffffff" stroke="none" fill-opacity="0" />
    <path d="M 927 925  C 965.64 925  996 932.48  996 942  C 996 951.52  965.64 959  927 959  C 888.36 959  858 951.52  858 942  C 858 932.48  888.36 925  927 925  Z " stroke-width="2" stroke="#d9001b" fill="none" />
  </g>
</svg>