<?xml version="1.0" encoding="utf-8"?>
<svg version="1.1" xmlns:xlink="http://www.w3.org/1999/xlink" width="50px" height="37px" xmlns="http://www.w3.org/2000/svg">
  <g transform="matrix(1 0 0 1 -115 -182 )">
    <path d="M 33.0859375 19.9321732954545  C 33.2508680555556 19.7657433712121  33.3333333333333 19.5686553030303  33.3333333333333 19.3409090909091  C 33.3333333333333 19.0956439393939  33.2552083333333 18.8941761363636  33.0989583333333 18.7365056818182  L 23.9322916666667 9.48650568181818  C 23.7760416666667 9.32883522727272  23.5763888888889 9.25  23.3333333333333 9.25  C 23.0902777777778 9.25  22.890625 9.32883522727272  22.734375 9.48650568181818  L 13.59375 18.7102272727273  C 13.4201388888889 18.9204545454545  13.3333333333333 19.1306818181818  13.3333333333333 19.3409090909091  C 13.3333333333333 19.5861742424242  13.4114583333333 19.7876420454545  13.5677083333333 19.9453125  C 13.7239583333333 20.1029829545455  13.9236111111111 20.1818181818182  14.1666666666667 20.1818181818182  L 20 20.1818181818182  L 20 29.4318181818182  C 20 29.6595643939394  20.0824652777778 29.8566524621212  20.2473958333333 30.0230823863636  C 20.4123263888889 30.1895123106061  20.6076388888889 30.2727272727273  20.8333333333333 30.2727272727273  L 25.8333333333333 30.2727272727273  C 26.0590277777778 30.2727272727273  26.2543402777778 30.1895123106061  26.4192708333333 30.0230823863636  C 26.5842013888889 29.8566524621212  26.6666666666667 29.6595643939394  26.6666666666667 29.4318181818182  L 26.6666666666667 20.1818181818182  L 32.5 20.1818181818182  C 32.7256944444444 20.1818181818182  32.9210069444444 20.098603219697  33.0859375 19.9321732954545  Z M 47.8255208333333 20.6416903409091  C 49.2751736111111 22.4724195075758  50 24.561553030303  50 26.9090909090909  C 50 29.6946022727273  49.0234375 32.0727982954545  47.0703125 34.0436789772727  C 45.1171875 36.0145596590909  42.7604166666667 37  40 37  L 11.6666666666667 37  C 8.45486111111111 37  5.70746527777778 35.8481297348485  3.42447916666667 33.5443892045455  C 1.14149305555556 31.2406486742424  0 28.4682765151515  0 25.2272727272727  C 0 22.9498106060606  0.607638888888889 20.8475378787879  1.82291666666667 18.9204545454545  C 3.03819444444444 16.9933712121212  4.67013888888889 15.5480587121212  6.71875 14.5845170454545  C 6.68402777777778 14.0589488636364  6.66666666666667 13.6822916666667  6.66666666666667 13.4545454545455  C 6.66666666666667 9.7405303030303  7.96875 6.56960227272727  10.5729166666667 3.94176136363636  C 13.1770833333333 1.31392045454546  16.3194444444444 0  20 0  C 22.7083333333333 0  25.1866319444444 0.762073863636365  27.4348958333333 2.28622159090909  C 29.6831597222222 3.81036931818182  31.3194444444444 5.83380681818182  32.34375 8.35653409090909  C 33.5763888888889 7.27035984848485  35.0173611111111 6.72727272727273  36.6666666666667 6.72727272727273  C 38.5069444444444 6.72727272727273  40.078125 7.38423295454546  41.3802083333333 8.69815340909091  C 42.6822916666667 10.0120738636364  43.3333333333333 11.5975378787879  43.3333333333333 13.4545454545455  C 43.3333333333333 14.7859848484848  42.9774305555556 15.9947916666667  42.265625 17.0809659090909  C 44.5225694444444 17.624053030303  46.3758680555556 18.8109611742424  47.8255208333333 20.6416903409091  Z " fill-rule="nonzero" fill="#333333" stroke="none" transform="matrix(1 0 0 1 115 182 )" />
  </g>
</svg>