<?xml version="1.0" encoding="utf-8"?>
<svg version="1.1" xmlns:xlink="http://www.w3.org/1999/xlink" width="50px" height="43px" xmlns="http://www.w3.org/2000/svg">
  <g transform="matrix(1 0 0 1 -115 -94 )">
    <path d="M 46.6517857142857 8.91054001301236  C 48.8839285714286 11.6615701583171  50 14.6597267404034  50 17.9050097592713  C 50 21.1502927781392  48.8839285714286 24.1484493602255  46.6517857142857 26.8994795055303  C 44.4196428571429 29.650509650835  41.3876488095238 31.8233571893299  37.5558035714286 33.418022121015  C 33.7239583333333 35.0126870527001  29.5386904761905 35.8100195185426  25 35.8100195185426  C 23.6979166666667 35.8100195185426  22.3493303571429 35.7354153112123  20.9542410714286 35.5862068965517  C 17.2712053571429 38.8501409672522  12.992931547619 41.1069182389937  8.11941964285714 42.3565387117762  C 7.20796130952381 42.6176534374322  6.14769345238095 42.8228150075905  4.93861607142857 42.9720234222511  C 4.62239583333333 43.0093255259163  4.33872767857143 42.9253957926697  4.08761160714286 42.7202342225114  C 3.83649553571429 42.5150726523531  3.67373511904762 42.2446324007807  3.59933035714286 41.9089134677944  L 3.59933035714286 41.8809368900455  C 3.54352678571429 41.8063326827153  3.53887648809524 41.6944263717198  3.58537946428571 41.5452179570592  C 3.63188244047619 41.3960095423986  3.65048363095238 41.3027542832357  3.64118303571429 41.2654521795706  C 3.63188244047619 41.2281500759054  3.67373511904762 41.1395575797007  3.76674107142857 40.9996746909564  L 3.93415178571429 40.7478854912167  C 3.93415178571429 40.7478854912167  3.99925595238095 40.6686185209282  4.12946428571429 40.5100845803513  C 4.25967261904762 40.3515506397745  4.33407738095238 40.2676209065279  4.35267857142857 40.2582953806116  C 4.48288690476191 40.109086965951  4.77120535714286 39.7873563218391  5.21763392857143 39.2931034482759  C 5.6640625 38.7988505747126  5.98493303571429 38.4444805898937  6.18024553571429 38.2299934938191  C 6.37555803571429 38.0155063977445  6.66387648809524 37.6471481240512  7.04520089285714 37.1249186727391  C 7.42652529761905 36.602689221427  7.72879464285714 36.1270873996964  7.95200892857143 35.6981132075472  C 8.17522321428571 35.269139015398  8.42633928571429 34.718932986337  8.70535714285714 34.0474951203643  C 8.984375 33.3760572543917  9.22619047619048 32.6673172847538  9.43080357142857 31.9212752114509  C 6.51041666666667 30.2613315983518  4.20851934523809 28.2097158967686  2.52511160714286 25.7664281067014  C 0.841703869047619 23.3231403166341  0 20.7026675341574  0 17.9050097592713  C 0 15.4803730210366  0.660342261904762 13.1629798308393  1.98102678571429 10.9528301886792  C 3.30171130952381 8.7426805465192  5.078125 6.83561049663847  7.31026785714286 5.23162003903709  C 9.54241071428571 3.62762958143569  12.202380952381 2.3546952938625  15.2901785714286 1.4128171763175  C 18.3779761904762 0.470939058772497  21.6145833333333 0  25 0  C 29.5386904761905 0  33.7239583333333 0.797332465842551  37.5558035714286 2.39199739752765  C 41.3876488095238 3.98666232921275  44.4196428571429 6.15950986770765  46.6517857142857 8.91054001301236  Z " fill-rule="nonzero" fill="#333333" stroke="none" transform="matrix(1 0 0 1 115 94 )" />
  </g>
</svg>