<?xml version="1.0" encoding="utf-8"?>
<svg version="1.1" xmlns:xlink="http://www.w3.org/1999/xlink" width="43px" height="50px" xmlns="http://www.w3.org/2000/svg">
  <g transform="matrix(1 0 0 1 -33 -516 )">
    <path d="M 18.1826171875 29.2271205357143  C 18.3039279513889 29.682849702381  18.3459201388889 29.9665178571429  18.30859375 30.078125  C 18.2899305555556 30.1339285714286  18.1732855902778 30.1292782738095  17.9586588541667 30.0641741071429  C 17.7440321180556 29.9990699404762  17.4500868055556 29.8921130952381  17.0768229166667 29.7433035714286  L 16.5169270833333 29.4921875  C 15.6957465277778 29.1201636904762  14.8838975694444 28.6644345238095  14.0813802083333 28.125  C 13.9507378472222 28.031994047619  13.5681423611111 27.739025297619  12.93359375 27.24609375  C 12.2990451388889 26.753162202381  11.9444444444444 26.4880952380952  11.8697916666667 26.4508928571429  C 10.6193576388889 28.3668154761905  9.36892361111111 30.0502232142857  8.11848958333333 31.5011160714286  C 6.60677083333333 33.2682291666667  5.626953125 34.2912946428571  5.17903645833333 34.5703125  C 5.10438368055556 34.6075148809524  4.92241753472222 34.6447172619048  4.63313802083333 34.6819196428571  C 4.34385850694444 34.7191220238095  4.17122395833333 34.7191220238095  4.115234375 34.6819196428571  C 4.22721354166667 34.6075148809524  4.99240451388889 33.7518601190476  6.41080729166667 32.1149553571429  C 6.802734375 31.6685267857143  7.6005859375 30.5989583333333  8.80436197916667 28.90625  C 10.0081380208333 27.2135416666667  10.7406684027778 26.1160714285714  11.001953125 25.6138392857143  C 11.3192274305556 25.0558035714286  11.7951388888889 24.1396949404762  12.4296875 22.8655133928571  C 13.0642361111111 21.5913318452381  13.4001736111111 20.8705357142857  13.4375 20.703125  C 13.2881944444444 20.6845238095238  12.26171875 20.9914434523809  10.3580729166667 21.6238839285714  C 10.2087673611111 21.6610863095238  9.9521484375 21.7308407738095  9.58821614583333 21.8331473214286  C 9.22428385416667 21.9354538690476  8.90234375 22.0238095238095  8.62239583333333 22.0982142857143  C 8.34244791666667 22.172619047619  8.18381076388889 22.2191220238095  8.146484375 22.2377232142857  C 8.10915798611111 22.2749255952381  8.09049479166667 22.3725818452381  8.09049479166667 22.5306919642857  C 8.09049479166667 22.6888020833333  8.08116319444444 22.7771577380952  8.0625 22.7957589285714  C 7.96918402777778 22.9817708333333  7.67990451388889 23.1212797619048  7.19466145833333 23.2142857142857  C 6.76540798611111 23.344494047619  6.32682291666667 23.344494047619  5.87890625 23.2142857142857  C 5.54296875 23.1398809523809  5.28168402777778 22.9445684523809  5.09505208333333 22.6283482142857  C 5.02039930555556 22.5167410714286  4.97374131944444 22.3028273809524  4.955078125 21.9866071428571  C 5.06705729166667 21.9494047619048  5.29568142361111 21.9029017857143  5.64095052083333 21.8470982142857  C 5.98621961805556 21.7912946428571  6.26150173611111 21.7354910714286  6.466796875 21.6796875  C 7.54926215277778 21.3820684523809  8.52907986111111 21.0844494047619  9.40625 20.7868303571429  C 11.2725694444444 20.1357886904762  12.2243923611111 19.8102678571429  12.26171875 19.8102678571429  C 12.4483506944444 19.7730654761905  12.849609375 19.5917038690476  13.4654947916667 19.2661830357143  C 14.0813802083333 18.9406622023809  14.4919704861111 18.7406994047619  14.697265625 18.6662946428571  C 14.865234375 18.6104910714286  15.0658637152778 18.5360863095238  15.2991536458333 18.4430803571429  C 15.5324435763889 18.3500744047619  15.6677517361111 18.2989211309524  15.705078125 18.2896205357143  C 15.7424045138889 18.2803199404762  15.7983940972222 18.2849702380952  15.873046875 18.3035714285714  C 15.9103732638889 18.5267857142857  15.9010416666667 18.8337053571429  15.8450520833333 19.2243303571429  C 15.8450520833333 19.2615327380952  15.7284071180556 19.5126488095238  15.4951171875 19.9776785714286  C 15.2618272569444 20.4427083333333  15.0145399305556 20.9402901785714  14.7532552083333 21.4704241071429  C 14.4919704861111 22.0005580357143  14.3333333333333 22.3121279761905  14.27734375 22.4051339285714  C 13.8107638888889 23.3351934523809  13.0922309027778 24.5535714285714  12.1217447916667 26.0602678571429  L 13.9134114583333 26.8415178571429  C 14.1373697916667 26.953125  14.8325737847222 27.250744047619  15.9990234375 27.734375  C 17.1654730902778 28.218005952381  17.7953559027778 28.4784226190476  17.888671875 28.515625  C 17.9633246527778 28.5342261904762  18.0613064236111 28.7713913690476  18.1826171875 29.2271205357143  Z M 11.9817708333333 16.0435267857143  C 12.2990451388889 16.0435267857143  12.4950086805556 16.2016369047619  12.5696614583333 16.5178571428571  C 12.6256510416667 16.796875  12.5883246527778 17.0572916666667  12.4576822916667 17.2991071428571  C 12.2337239583333 17.7269345238095  11.7671440972222 18.0803571428571  11.0579427083333 18.359375  C 10.498046875 18.5825892857143  9.93815104166667 18.6941964285714  9.37825520833333 18.6941964285714  C 8.89301215277778 18.6383928571429  8.43576388888889 18.3965773809524  8.00651041666667 17.96875  C 7.74522569444444 17.6897321428571  7.57725694444444 17.3084077380952  7.50260416666667 16.8247767857143  L 7.53059895833333 16.7410714285714  C 7.58658854166667 16.796875  7.7685546875 16.8433779761905  8.07649739583333 16.8805803571429  C 8.38444010416667 16.9177827380952  8.63172743055556 16.9177827380952  8.818359375 16.8805803571429  C 9.00499131944444 16.8433779761905  9.54622395833333 16.6945684523809  10.4420572916667 16.4341517857143  C 11.1139322916667 16.2109375  11.6271701388889 16.0807291666667  11.9817708333333 16.0435267857143  Z M 29.982421875 25.2790178571429  L 32.1100260416667 20.1171875  L 33.8736979166667 26.4508928571429  L 29.982421875 25.2790178571429  Z M 1 13.671875  L 1 42.4386160714286  L 21 35.9654017857143  L 21 7.17075892857143  L 1 13.671875  Z M 34.7975260416667 29.8270089285714  L 35.8333333333333 33.59375  L 38.6888020833333 34.4587053571429  L 33.6217447916667 16.1272321428571  L 30.822265625 15.2622767857143  L 24.775390625 30.2176339285714  L 27.630859375 31.0825892857143  L 28.890625 28.0133928571429  L 34.7975260416667 29.8270089285714  Z M 37 1.28348214285715  L 21.751953125 6.75223214285715  L 37 11.8861607142857  L 37 1.28348214285715  Z M 31.662109375 45.703125  L 30.4583333333333 43.6662946428571  L 34.8815104166667 44.0290178571429  L 33.3697916666667 48.4933035714286  L 32.25 46.6517857142857  C 29.8237847222222 48.1956845238095  27.2482638888889 49.2001488095238  24.5234375 49.6651785714286  C 23.4409722222222 49.8883928571429  22.591796875 50  21.9759114583333 50  L 19.6243489583333 50  C 18.1499565972222 50  16.2883029513889 49.6372767857143  14.0393880208333 48.9118303571429  C 11.7904730902778 48.1863839285714  10.078125 47.3958333333333  8.90234375 46.5401785714286  C 8.75303819444444 46.4099702380952  8.67838541666667 46.2611607142857  8.67838541666667 46.09375  C 8.67838541666667 45.9449404761905  8.72504340277778 45.8193824404762  8.818359375 45.7170758928571  C 8.91167534722222 45.6147693452381  9.03298611111111 45.5636160714286  9.18229166666667 45.5636160714286  C 9.25694444444444 45.5636160714286  9.42491319444444 45.6333705357143  9.68619791666667 45.7728794642857  C 9.94748263888889 45.9123883928571  10.2320963541667 46.0658482142857  10.5400390625 46.2332589285714  C 10.8479817708333 46.4006696428571  11.0392795138889 46.5029761904762  11.1139322916667 46.5401785714286  C 12.4763454861111 47.2284226190476  13.9647352430556 47.8004092261905  15.5791015625 48.2561383928571  C 17.1934678819444 48.7118675595238  18.6631944444444 48.9397321428571  19.98828125 48.9397321428571  C 21.7612847222222 48.9397321428571  23.3196614583333 48.8048735119048  24.6634114583333 48.53515625  C 26.0071614583333 48.2654389880952  27.4722222222222 47.7957589285714  29.05859375 47.1261160714286  C 29.3385416666667 46.9959077380952  29.6231553819444 46.8517485119048  29.9124348958333 46.6936383928571  C 30.2017144097222 46.5355282738095  30.5189887152778 46.3588169642857  30.8642578125 46.1635044642857  C 31.2095269097222 45.9681919642857  31.4754774305556 45.8147321428571  31.662109375 45.703125  Z M 38.884765625 12.2488839285714  L 43 13.5602678571429  L 43 43.6662946428571  L 21.33203125 36.8024553571429  C 21.0707465277778 36.9140625  17.5713975694444 38.0998883928571  10.833984375 40.3599330357143  C 4.09657118055556 42.6199776785714  0.662543402777778 43.75  0.531901041666667 43.75  C 0.289279513888889 43.75  0.121310763888889 43.6290922619048  0.0279947916666667 43.3872767857143  C 0.0279947916666667 43.3686755952381  0.0186631944444444 43.3407738095238  0 43.3035714285714  L 0 13.2254464285714  C 0.0559895833333333 13.0580357142857  0.0933159722222222 12.9650297619048  0.111979166666667 12.9464285714286  C 0.205295138888889 12.8348214285714  0.391927083333333 12.7325148809524  0.671875 12.6395089285714  C 2.65017361111111 11.9884672619048  4.04058159722222 11.5234375  5 11.2444196428571  L 5 0.53013392857143  L 20.4641927083333 6.0546875  C 20.5015190972222 6.0546875  21.9992404513889 5.54315476190476  24.9573567708333 4.52008928571428  C 27.9154730902778 3.49702380952381  30.8642578125 2.48790922619047  33.8037109375 1.49274553571428  C 36.7431640625 0.497581845238099  38.2502170138889 0  38.3248697916667 0  C 38.6981336805556 0  38.884765625 0.1953125  38.884765625 0.5859375  L 38.884765625 12.2488839285714  Z " fill-rule="nonzero" fill="#333333" stroke="none" transform="matrix(1 0 0 1 33 516 )" />
  </g>
</svg>