<?xml version="1.0" encoding="utf-8"?>
<svg version="1.1" xmlns:xlink="http://www.w3.org/1999/xlink" width="46px" height="50px" xmlns="http://www.w3.org/2000/svg">
  <g transform="matrix(1 0 0 1 -32 -91 )">
    <path d="M 45.8856534090909 38.1998697916667  C 45.961884469697 39.2957899305555  46 40.4188368055555  46 41.5690104166667  C 46 44.1731770833333  45.2050189393939 46.2293836805555  43.6150568181818 47.7376302083333  C 42.0250946969697 49.2458767361111  39.9124053030303 50  37.2769886363636 50  L 8.72301136363636 50  C 6.0875946969697 50  3.9749053030303 49.2458767361111  2.38494318181818 47.7376302083333  C 0.794981060606062 46.2293836805555  0 44.1731770833333  0 41.5690104166667  C 0 40.4188368055555  0.0381155303030312 39.2957899305555  0.114346590909094 38.1998697916667  C 0.190577651515149 37.1039496527778  0.343039772727273 35.9212239583333  0.571732954545453 34.6516927083333  C 0.800426136363633 33.3821614583333  1.08901515151515 32.2048611111111  1.4375 31.1197916666667  C 1.78598484848485 30.0347222222222  2.25426136363637 28.9767795138889  2.84232954545455 27.9459635416667  C 3.43039772727273 26.9151475694444  4.10558712121212 26.0362413194444  4.86789772727273 25.3092447916667  C 5.63020833333334 24.5822482638889  6.56131628787879 24.0017361111111  7.66122159090909 23.5677083333333  C 8.76112689393939 23.1336805555556  9.97537878787879 22.9166666666667  11.3039772727273 22.9166666666667  C 11.5 22.9166666666667  11.9573863636364 23.1499565972222  12.6761363636364 23.6165364583333  C 13.3948863636364 24.0831163194444  14.2062026515152 24.6039496527778  15.1100852272727 25.1790364583333  C 16.0139678030303 25.7541232638889  17.1901041666667 26.2749565972222  18.6384943181818 26.7415364583333  C 20.086884469697 27.2081163194444  21.5407196969697 27.44140625  23 27.44140625  C 24.4592803030303 27.44140625  25.913115530303 27.2081163194444  27.3615056818182 26.7415364583333  C 28.8098958333333 26.2749565972222  29.9860321969697 25.7541232638889  30.8899147727273 25.1790364583333  C 31.7937973484849 24.6039496527778  32.6051136363636 24.0831163194444  33.3238636363636 23.6165364583333  C 34.0426136363636 23.1499565972222  34.5 22.9166666666667  34.6960227272727 22.9166666666667  C 36.0246212121212 22.9166666666667  37.2388731060606 23.1336805555556  38.3387784090909 23.5677083333333  C 39.4386837121212 24.0017361111111  40.3697916666667 24.5822482638889  41.1321022727273 25.3092447916667  C 41.8944128787879 26.0362413194444  42.5696022727273 26.9151475694444  43.1576704545455 27.9459635416667  C 43.7457386363636 28.9767795138889  44.2140151515152 30.0347222222222  44.5625 31.1197916666667  C 44.9109848484848 32.2048611111111  45.1995738636364 33.3821614583333  45.4282670454545 34.6516927083333  C 45.6569602272727 35.9212239583333  45.8094223484848 37.1039496527778  45.8856534090909 38.1998697916667  Z M 35.1477912537377 9.25882923808724  C 35.4129001148822 10.2846288388877  35.5454545454545 11.3650190928586  35.5454545454545 12.5  C 35.5454545454545 15.9505208333333  34.3203125 18.896484375  31.8700284090909 21.337890625  C 29.4197443181818 23.779296875  26.4630681818182 25  23 25  C 19.5369318181818 25  16.5802556818182 23.779296875  14.1299715909091 21.337890625  C 11.6796875 18.896484375  10.4545454545455 15.9505208333333  10.4545454545455 12.5  C 10.4545454545455 9.04947916666667  11.6796875 6.103515625  14.1299715909091 3.662109375  C 16.5802556818182 1.220703125  19.5369318181818 0  23 0  C 26.4630681818182 0  29.4197443181818 1.220703125  31.8700284090909 3.662109375  C 33.514339780349 5.30046309636222  34.6069273952312 7.16603638405797  35.1477912537377 9.25882923808724  Z " fill-rule="nonzero" fill="#cccccc" stroke="none" transform="matrix(1 0 0 1 32 91 )" />
  </g>
</svg>