<?xml version="1.0" encoding="utf-8"?>
<svg version="1.1" xmlns:xlink="http://www.w3.org/1999/xlink" width="205px" height="131px" xmlns="http://www.w3.org/2000/svg">
  <g transform="matrix(1 0 0 1 -197 -928 )">
    <path d="M 197 928  L 402 928  L 402 1059  L 197 1059  L 197 928  " fill-rule="nonzero" fill="#cccccc" stroke="none" />
    <path d="M 206 937  L 393 937  L 393 1050  L 206 1050  L 206 937  " fill-rule="nonzero" fill="#ffffff" stroke="none" />
    <path d="M 313.425 967.3  C 307.923 967.3  303.6 962.977  303.6 957.475  C 303.6 951.973  307.923 947.65  313.425 947.65  C 318.927 947.65  323.25 951.973  323.25 957.475  C 323.25 962.977  318.927 967.3  313.425 967.3  " fill-rule="nonzero" fill="#cccccc" stroke="none" />
    <path d="M 210 1047  L 210 988.7  L 255 962.2  L 318 1006.35804878049  L 354 978.1  L 390 1006.35804878049  L 390 1047  L 210 1047  " fill-rule="nonzero" fill="#169bd5" stroke="none" />
  </g>
</svg>