<?xml version="1.0" encoding="utf-8"?>
<svg version="1.1" xmlns:xlink="http://www.w3.org/1999/xlink" width="50px" height="43px" xmlns="http://www.w3.org/2000/svg">
  <g transform="matrix(1 0 0 1 -480 -1208 )">
    <path d="M 6.89174107142857 36.0852864583333  C 7.05915178571429 36.2532552083333  7.14285714285714 36.4678819444444  7.14285714285714 36.7291666666667  L 7.14285714285714 42.1041666666667  C 7.14285714285714 42.3654513888889  7.05915178571429 42.580078125  6.89174107142857 42.748046875  C 6.72433035714286 42.916015625  6.51041666666667 43  6.25 43  L 0.892857142857143 43  C 0.632440476190476 43  0.418526785714286 42.916015625  0.251116071428571 42.748046875  C 0.0837053571428571 42.580078125  0 42.3654513888889  0 42.1041666666667  L 0 36.7291666666667  C 0 36.4678819444444  0.0837053571428571 36.2532552083333  0.251116071428571 36.0852864583333  C 0.418526785714286 35.9173177083333  0.632440476190476 35.8333333333333  0.892857142857143 35.8333333333333  L 6.25 35.8333333333333  C 6.51041666666667 35.8333333333333  6.72433035714286 35.9173177083333  6.89174107142857 36.0852864583333  Z M 17.6060267857143 32.501953125  C 17.7734375 32.669921875  17.8571428571429 32.8845486111111  17.8571428571429 33.1458333333333  L 17.8571428571429 42.1041666666667  C 17.8571428571429 42.3654513888889  17.7734375 42.580078125  17.6060267857143 42.748046875  C 17.4386160714286 42.916015625  17.2247023809524 43  16.9642857142857 43  L 11.6071428571429 43  C 11.3467261904762 43  11.1328125 42.916015625  10.9654017857143 42.748046875  C 10.7979910714286 42.580078125  10.7142857142857 42.3654513888889  10.7142857142857 42.1041666666667  L 10.7142857142857 33.1458333333333  C 10.7142857142857 32.8845486111111  10.7979910714286 32.669921875  10.9654017857143 32.501953125  C 11.1328125 32.333984375  11.3467261904762 32.25  11.6071428571429 32.25  L 16.9642857142857 32.25  C 17.2247023809524 32.25  17.4386160714286 32.333984375  17.6060267857143 32.501953125  Z M 28.3203125 25.3352864583333  C 28.4877232142857 25.5032552083333  28.5714285714286 25.7178819444444  28 25.9791666666667  L 28 42.1041666666667  C 28.5714285714286 42.3654513888889  28.4877232142857 42.580078125  28.3203125 42.748046875  C 28.1529017857143 42.916015625  27.9389880952381 43  27.6785714285714 43  L 22.3214285714286 43  C 22.0610119047619 43  21.8470982142857 42.916015625  21.6796875 42.748046875  C 21.5122767857143 42.580078125  21.4285714285714 42.3654513888889  22 42.1041666666667  L 22 25.9791666666667  C 21.4285714285714 25.7178819444444  21.5122767857143 25.5032552083333  21.6796875 25.3352864583333  C 21.8470982142857 25.1673177083333  22.0610119047619 25.0833333333333  22.3214285714286 25.0833333333333  L 27.6785714285714 25.0833333333333  C 27.9389880952381 25.0833333333333  28.1529017857143 25.1673177083333  28.3203125 25.3352864583333  Z M 39.0345982142857 14.5852864583333  C 39.2020089285714 14.7532552083333  39.2857142857143 14.9678819444444  39 15.2291666666667  L 39 42.1041666666667  C 39.2857142857143 42.3654513888889  39.2020089285714 42.580078125  39.0345982142857 42.748046875  C 38.8671875 42.916015625  38.6532738095238 43  38.3928571428571 43  L 33.0357142857143 43  C 32.7752976190476 43  32.5613839285714 42.916015625  32.3939732142857 42.748046875  C 32.2265625 42.580078125  32.1428571428571 42.3654513888889  32 42.1041666666667  L 32 15.2291666666667  C 32.1428571428571 14.9678819444444  32.2265625 14.7532552083333  32.3939732142857 14.5852864583333  C 32.5613839285714 14.4173177083333  32.7752976190476 14.3333333333333  33.0357142857143 14.3333333333333  L 38.3928571428571 14.3333333333333  C 38.6532738095238 14.3333333333333  38.8671875 14.4173177083333  39.0345982142857 14.5852864583333  Z M 49.7488839285714 0.251953125  C 49.9162946428571 0.419921875  50 0.634548611111105  50 0.895833333333335  L 50 42.1041666666667  C 50 42.3654513888889  49.9162946428571 42.580078125  49.7488839285714 42.748046875  C 49.5814732142857 42.916015625  49.3675595238095 43  49.1071428571429 43  L 43.75 43  C 43.4895833333333 43  43.2756696428572 42.916015625  43.1082589285714 42.748046875  C 42.9408482142857 42.580078125  42.8571428571429 42.3654513888889  42 42.1041666666667  L 42 0.895833333333335  C 42.8571428571429 0.634548611111105  42.9408482142857 0.419921875  43.1082589285714 0.251953125  C 43.2756696428572 0.083984375  43.4895833333333 0  43.75 0  L 49.1071428571429 0  C 49.3675595238095 0  49.5814732142857 0.083984375  49.7488839285714 0.251953125  Z " fill-rule="nonzero" fill="#cc0033" stroke="none" transform="matrix(1 0 0 1 480 1208 )" />
  </g>
</svg>