<?xml version="1.0" encoding="utf-8"?>
<svg version="1.1" xmlns:xlink="http://www.w3.org/1999/xlink" width="40px" height="12px" xmlns="http://www.w3.org/2000/svg">
  <g transform="matrix(1 0 0 1 -75 -592 )">
    <path d="M 10.1136363636364 0.875  C 10.6439393939394 1.45833333333337  10.9090909090909 2.16666666666674  10.9090909090909 3  L 10.9090909090909 9  C 10.9090909090909 9.83333333333326  10.6439393939394 10.5416666666666  10.1136363636364 11.125  C 9.58333333333334 11.7083333333333  8.93939393939394 12  8.18181818181819 12  L 2.72727272727273 12  C 1.96969696969697 12  1.32575757575758 11.7083333333333  0.795454545454547 11.125  C 0.265151515151516 10.5416666666666  0 9.83333333333326  0 9  L 0 3  C 0 2.16666666666674  0.265151515151516 1.45833333333337  0.795454545454547 0.875  C 1.32575757575758 0.291666666666742  1.96969696969697 0  2.72727272727273 0  L 8.18181818181819 0  C 8.93939393939394 0  9.58333333333334 0.291666666666742  10.1136363636364 0.875  Z M 24.6590909090909 0.875  C 25.1893939393939 1.45833333333337  25.4545454545455 2.16666666666674  25.4545454545455 3  L 25.4545454545455 9  C 25.4545454545455 9.83333333333326  25.1893939393939 10.5416666666666  24.6590909090909 11.125  C 24.1287878787879 11.7083333333333  23.4848484848485 12  22.7272727272727 12  L 17.2727272727273 12  C 16.5151515151515 12  15.8712121212121 11.7083333333333  15.3409090909091 11.125  C 14.8106060606061 10.5416666666666  14.5454545454545 9.83333333333326  14.5454545454545 9  L 14.5454545454545 3  C 14.5454545454545 2.16666666666674  14.8106060606061 1.45833333333337  15.3409090909091 0.875  C 15.8712121212121 0.291666666666742  16.5151515151515 0  17.2727272727273 0  L 22.7272727272727 0  C 23.4848484848485 0  24.1287878787879 0.291666666666742  24.6590909090909 0.875  Z M 39.2045454545455 0.875  C 39.7348484848485 1.45833333333337  40 2.16666666666674  40 3  L 40 9  C 40 9.83333333333326  39.7348484848485 10.5416666666666  39.2045454545455 11.125  C 38.6742424242424 11.7083333333333  38.030303030303 12  37.2727272727273 12  L 31.8181818181818 12  C 31.0606060606061 12  30.4166666666667 11.7083333333333  29.8863636363636 11.125  C 29.3560606060606 10.5416666666666  29.0909090909091 9.83333333333326  29.0909090909091 9  L 29.0909090909091 3  C 29.0909090909091 2.16666666666674  29.3560606060606 1.45833333333337  29.8863636363636 0.875  C 30.4166666666667 0.291666666666742  31.0606060606061 0  31.8181818181818 0  L 37.2727272727273 0  C 38.030303030303 0  38.6742424242424 0.291666666666742  39.2045454545455 0.875  Z " fill-rule="nonzero" fill="#cccccc" stroke="none" transform="matrix(1 0 0 1 75 592 )" />
  </g>
</svg>