<?xml version="1.0" encoding="utf-8"?>
<svg version="1.1" xmlns:xlink="http://www.w3.org/1999/xlink" width="600px" height="150px" xmlns="http://www.w3.org/2000/svg">
  <g transform="matrix(1 0 0 1 -200 -50 )">
    <path d="M 200 50  L 800 50  L 800 200  L 200 200  L 200 50  " fill-rule="nonzero" fill="#cccccc" stroke="none" />
    <path d="M 211 61  L 789 61  L 789 189  L 211 189  L 211 61  " fill-rule="nonzero" fill="#ffffff" stroke="none" />
    <path d="M 523.25 95  C 516.95 95  512 90.05  512 83.75  C 512 77.45  516.95 72.5  523.25 72.5  C 529.55 72.5  534.5 77.45  534.5 83.75  C 534.5 90.05  529.55 95  523.25 95  " fill-rule="nonzero" fill="#cccccc" stroke="none" />
    <path d="M 215 185  L 215 119  L 357.5 89  L 557 167  L 671 107  L 785 167  L 785 185  L 215 185  " fill-rule="nonzero" fill="#169bd5" stroke="none" />
  </g>
</svg>