<?xml version="1.0" encoding="utf-8"?>
<svg version="1.1" xmlns:xlink="http://www.w3.org/1999/xlink" width="30px" height="20px" xmlns="http://www.w3.org/2000/svg">
  <g transform="matrix(1 0 0 1 -147 -584 )">
    <path d="M 29.443359375 16.2152777777778  C 29.814453125 16.6550925925926  30 17.1759259259259  30 17.7777777777778  C 30 18.3796296296297  29.814453125 18.9004629629629  29.443359375 19.3402777777778  C 29.072265625 19.7800925925926  28.6328125 20  28.125 20  L 1.875 20  C 1.3671875 20  0.927734375 19.7800925925926  0.556640625 19.3402777777778  C 0.185546875 18.9004629629629  0 18.3796296296297  0 17.7777777777778  C 0 17.1759259259259  0.185546875 16.6550925925926  0.556640625 16.2152777777778  L 8.35017520981097 6.97849604763144  L 8.66701980127101 6.60297653182693  L 13.681640625 0.659722222222172  C 14.052734375 0.219907407407391  14.4921875 0  15 0  C 15.5078125 0  15.947265625 0.219907407407391  16.318359375 0.659722222222172  L 29.443359375 16.2152777777778  Z " fill-rule="nonzero" fill="#333333" stroke="none" transform="matrix(1 0 0 1 147 584 )" />
  </g>
</svg>