<?xml version="1.0" encoding="utf-8"?>
<svg version="1.1" xmlns:xlink="http://www.w3.org/1999/xlink" width="32px" height="50px" xmlns="http://www.w3.org/2000/svg">
  <g transform="matrix(1 0 0 1 -768 -299 )">
    <path d="M 31.4501718213058 23.8476953907816  C 31.8167239404353 24.1816967267869  32 24.5657982631931  32 25  C 32 25.4342017368069  31.8167239404353 25.8183032732131  31.4501718213058 26.1523046092184  L 5.82817869415805 49.498997995992  C 5.46162657502862 49.8329993319973  5.04009163802982 50  4.56357388316155 50  C 4.08705612829328 50  3.66552119129437 49.8329993319973  3.29896907216494 49.498997995992  L 0.549828178694156 46.9939879759519  C 0.183276059564719 46.6599866399466  0 46.2758851035404  0 45.8416833667335  C 0 45.4074816299265  0.183276059564719 45.0233800935204  0.549828178694156 44.689378757515  L 22.1580756013745 25  L 0.549828178694156 5.31062124248496  C 0.183276059564719 4.97661990647964  0 4.59251837007349  0 4.15831663326651  C 0 3.72411489645958  0.183276059564719 3.34001336005343  0.549828178694156 3.00601202404812  L 3.29896907216494 0.501002004008001  C 3.66552119129437 0.167000668002686  4.08705612829328 0  4.56357388316155 0  C 5.04009163802982 0  5.46162657502862 0.167000668002686  5.82817869415805 0.501002004008001  L 31.4501718213058 23.8476953907816  Z " fill-rule="nonzero" fill="#cccccc" stroke="none" transform="matrix(1 0 0 1 768 299 )" />
  </g>
</svg>