<?xml version="1.0" encoding="utf-8"?>
<svg version="1.1" xmlns:xlink="http://www.w3.org/1999/xlink" width="12px" height="12px" viewBox="423 318  12 12" xmlns="http://www.w3.org/2000/svg">
  <path d="M 429 318  C 432.36 318  435 320.64  435 324  C 435 327.36  432.36 330  429 330  C 425.64 330  423 327.36  423 324  C 423 320.64  425.64 318  429 318  Z " fill-rule="nonzero" fill="#ffffff" stroke="none" />
  <path d="M 429 318.5  C 432.08 318.5  434.5 320.92  434.5 324  C 434.5 327.08  432.08 329.5  429 329.5  C 425.92 329.5  423.5 327.08  423.5 324  C 423.5 320.92  425.92 318.5  429 318.5  Z " stroke-width="1" stroke="#797979" fill="none" />
  <path d="M 429 327  C 427.32 327  426 325.68  426 324  C 426 322.32  427.32 321  429 321  C 430.68 321  432 322.32  432 324  C 432 325.68  430.68 327  429 327  " fill-rule="nonzero" fill="#797979" stroke="none" />
</svg>