<?xml version="1.0" encoding="utf-8"?>
<svg version="1.1" xmlns:xlink="http://www.w3.org/1999/xlink" width="12px" height="12px" viewBox="509 411  12 12" xmlns="http://www.w3.org/2000/svg">
  <path d="M 515 411  C 518.36 411  521 413.64  521 417  C 521 420.36  518.36 423  515 423  C 511.64 423  509 420.36  509 417  C 509 413.64  511.64 411  515 411  Z " fill-rule="nonzero" fill="#f0f0f0" stroke="none" />
  <path d="M 515 411.5  C 518.08 411.5  520.5 413.92  520.5 417  C 520.5 420.08  518.08 422.5  515 422.5  C 511.92 422.5  509.5 420.08  509.5 417  C 509.5 413.92  511.92 411.5  515 411.5  Z " stroke-width="1" stroke="#797979" fill="none" />
  <path d="M 515 420  C 513.32 420  512 418.68  512 417  C 512 415.32  513.32 414  515 414  C 516.68 414  518 415.32  518 417  C 518 418.68  516.68 420  515 420  " fill-rule="nonzero" fill="#797979" stroke="none" />
</svg>