<?xml version="1.0" encoding="utf-8"?>
<svg version="1.1" xmlns:xlink="http://www.w3.org/1999/xlink" width="12px" height="12px" viewBox="433 411  12 12" xmlns="http://www.w3.org/2000/svg">
  <path d="M 439 411  C 442.36 411  445 413.64  445 417  C 445 420.36  442.36 423  439 423  C 435.64 423  433 420.36  433 417  C 433 413.64  435.64 411  439 411  Z " fill-rule="nonzero" fill="#ffffff" stroke="none" />
  <path d="M 439 411.5  C 442.08 411.5  444.5 413.92  444.5 417  C 444.5 420.08  442.08 422.5  439 422.5  C 435.92 422.5  433.5 420.08  433.5 417  C 433.5 413.92  435.92 411.5  439 411.5  Z " stroke-width="1" stroke="#797979" fill="none" />
  <path d="M 439 420  C 437.32 420  436 418.68  436 417  C 436 415.32  437.32 414  439 414  C 440.68 414  442 415.32  442 417  C 442 418.68  440.68 420  439 420  " fill-rule="nonzero" fill="#797979" stroke="none" />
</svg>