<?xml version="1.0" encoding="utf-8"?>
<svg version="1.1" xmlns:xlink="http://www.w3.org/1999/xlink" width="12px" height="12px" viewBox="355 496  12 12" xmlns="http://www.w3.org/2000/svg">
  <path d="M 361 496  C 364.36 496  367 498.64  367 502  C 367 505.36  364.36 508  361 508  C 357.64 508  355 505.36  355 502  C 355 498.64  357.64 496  361 496  Z " fill-rule="nonzero" fill="#f0f0f0" stroke="none" />
  <path d="M 361 496.5  C 364.08 496.5  366.5 498.92  366.5 502  C 366.5 505.08  364.08 507.5  361 507.5  C 357.92 507.5  355.5 505.08  355.5 502  C 355.5 498.92  357.92 496.5  361 496.5  Z " stroke-width="1" stroke="#797979" fill="none" />
  <path d="M 361 505  C 359.32 505  358 503.68  358 502  C 358 500.32  359.32 499  361 499  C 362.68 499  364 500.32  364 502  C 364 503.68  362.68 505  361 505  " fill-rule="nonzero" fill="#797979" stroke="none" />
</svg>