<?xml version="1.0" encoding="utf-8"?>
<svg version="1.1" xmlns:xlink="http://www.w3.org/1999/xlink" width="12px" height="12px" viewBox="436 496  12 12" xmlns="http://www.w3.org/2000/svg">
  <path d="M 442 496  C 445.36 496  448 498.64  448 502  C 448 505.36  445.36 508  442 508  C 438.64 508  436 505.36  436 502  C 436 498.64  438.64 496  442 496  Z " fill-rule="nonzero" fill="#ffffff" stroke="none" />
  <path d="M 442 496.5  C 445.08 496.5  447.5 498.92  447.5 502  C 447.5 505.08  445.08 507.5  442 507.5  C 438.92 507.5  436.5 505.08  436.5 502  C 436.5 498.92  438.92 496.5  442 496.5  Z " stroke-width="1" stroke="#797979" fill="none" />
  <path d="M 442 505  C 440.32 505  439 503.68  439 502  C 439 500.32  440.32 499  442 499  C 443.68 499  445 500.32  445 502  C 445 503.68  443.68 505  442 505  " fill-rule="nonzero" fill="#797979" stroke="none" />
</svg>