<?xml version="1.0" encoding="utf-8"?>
<svg version="1.1" xmlns:xlink="http://www.w3.org/1999/xlink" width="12px" height="12px" viewBox="521 496  12 12" xmlns="http://www.w3.org/2000/svg">
  <path d="M 527 496  C 530.36 496  533 498.64  533 502  C 533 505.36  530.36 508  527 508  C 523.64 508  521 505.36  521 502  C 521 498.64  523.64 496  527 496  Z " fill-rule="nonzero" fill="#f0f0f0" stroke="none" />
  <path d="M 527 496.5  C 530.08 496.5  532.5 498.92  532.5 502  C 532.5 505.08  530.08 507.5  527 507.5  C 523.92 507.5  521.5 505.08  521.5 502  C 521.5 498.92  523.92 496.5  527 496.5  Z " stroke-width="1" stroke="#797979" fill="none" />
  <path d="M 527 505  C 525.32 505  524 503.68  524 502  C 524 500.32  525.32 499  527 499  C 528.68 499  530 500.32  530 502  C 530 503.68  528.68 505  527 505  " fill-rule="nonzero" fill="#797979" stroke="none" />
</svg>