<?xml version="1.0" encoding="utf-8"?>
<svg version="1.1" xmlns:xlink="http://www.w3.org/1999/xlink" width="12px" height="12px" viewBox="651 313  12 12" xmlns="http://www.w3.org/2000/svg">
  <path d="M 657 313  C 660.36 313  663 315.64  663 319  C 663 322.36  660.36 325  657 325  C 653.64 325  651 322.36  651 319  C 651 315.64  653.64 313  657 313  Z " fill-rule="nonzero" fill="#f0f0f0" stroke="none" />
  <path d="M 657 313.5  C 660.08 313.5  662.5 315.92  662.5 319  C 662.5 322.08  660.08 324.5  657 324.5  C 653.92 324.5  651.5 322.08  651.5 319  C 651.5 315.92  653.92 313.5  657 313.5  Z " stroke-width="1" stroke="#797979" fill="none" />
  <path d="M 657 322  C 655.32 322  654 320.68  654 319  C 654 317.32  655.32 316  657 316  C 658.68 316  660 317.32  660 319  C 660 320.68  658.68 322  657 322  " fill-rule="nonzero" fill="#797979" stroke="none" />
</svg>