<?xml version="1.0" encoding="utf-8"?>
<svg version="1.1" xmlns:xlink="http://www.w3.org/1999/xlink" width="12px" height="12px" viewBox="496 429  12 12" xmlns="http://www.w3.org/2000/svg">
  <path d="M 502 429  C 505.36 429  508 431.64  508 435  C 508 438.36  505.36 441  502 441  C 498.64 441  496 438.36  496 435  C 496 431.64  498.64 429  502 429  Z " fill-rule="nonzero" fill="#f0f0f0" stroke="none" />
  <path d="M 502 429.5  C 505.08 429.5  507.5 431.92  507.5 435  C 507.5 438.08  505.08 440.5  502 440.5  C 498.92 440.5  496.5 438.08  496.5 435  C 496.5 431.92  498.92 429.5  502 429.5  Z " stroke-width="1" stroke="#797979" fill="none" />
  <path d="M 502 438  C 500.32 438  499 436.68  499 435  C 499 433.32  500.32 432  502 432  C 503.68 432  505 433.32  505 435  C 505 436.68  503.68 438  502 438  " fill-rule="nonzero" fill="#797979" stroke="none" />
</svg>