<?xml version="1.0" encoding="utf-8"?>
<svg version="1.1" xmlns:xlink="http://www.w3.org/1999/xlink" width="30px" height="30px" xmlns="http://www.w3.org/2000/svg">
  <g transform="matrix(1 0 0 1 -460 -25 )">
    <path d="M 6.34765625 12.1372767857143  C 9.02994791666666 12.6171875  11.9140625 12.8571428571429  15 12.8571428571429  C 18.0859375 12.8571428571429  20.9700520833333 12.6171875  23.65234375 12.1372767857143  C 26.3346354166667 11.6573660714286  28.4505208333333 10.9486607142857  30 10.0111607142857  L 30 12.8571428571429  C 30 13.6272321428571  29.3294270833333 14.3415178571428  27.98828125 15  C 26.6471354166667 15.6584821428572  24.82421875 16.1802455357143  22.51953125 16.5652901785714  C 20.21484375 16.9503348214286  17.7083333333333 17.1428571428571  15 17.1428571428571  C 12.2916666666667 17.1428571428571  9.78515625 16.9503348214286  7.48046875 16.5652901785714  C 5.17578125 16.1802455357143  3.35286458333334 15.6584821428572  2.01171875 15  C 0.670572916666657 14.3415178571428  0 13.6272321428571  0 12.8571428571429  L 0 10.0111607142857  C 1.54947916666666 10.9486607142857  3.66536458333334 11.6573660714286  6.34765625 12.1372767857143  Z M 6.34765625 24.9944196428571  C 9.02994791666666 25.4743303571428  11.9140625 25.7142857142857  15 25.7142857142857  C 18.0859375 25.7142857142857  20.9700520833333 25.4743303571428  23.65234375 24.9944196428571  C 26.3346354166667 24.5145089285714  28.4505208333333 23.8058035714286  30 22.8683035714286  L 30 25.7142857142857  C 30 26.484375  29.3294270833333 27.1986607142857  27.98828125 27.8571428571429  C 26.6471354166667 28.515625  24.82421875 29.0373883928571  22.51953125 29.4224330357143  C 20.21484375 29.8074776785714  17.7083333333333 30  15 30  C 12.2916666666667 30  9.78515625 29.8074776785714  7.48046875 29.4224330357143  C 5.17578125 29.0373883928571  3.35286458333334 28.515625  2.01171875 27.8571428571429  C 0.670572916666657 27.1986607142857  0 26.484375  0 25.7142857142857  L 0 22.8683035714286  C 1.54947916666666 23.8058035714286  3.66536458333334 24.5145089285714  6.34765625 24.9944196428571  Z M 6.34765625 18.5658482142857  C 9.02994791666666 19.0457589285714  11.9140625 19.2857142857143  15 19.2857142857143  C 18.0859375 19.2857142857143  20.9700520833333 19.0457589285714  23.65234375 18.5658482142857  C 26.3346354166667 18.0859375  28.4505208333333 17.3772321428571  30 16.4397321428571  L 30 19.2857142857143  C 30 20.0558035714286  29.3294270833333 20.7700892857143  27.98828125 21.4285714285714  C 26.6471354166667 22.0870535714286  24.82421875 22.6088169642857  22.51953125 22.9938616071429  C 20.21484375 23.37890625  17.7083333333333 23.5714285714286  15 23.5714285714286  C 12.2916666666667 23.5714285714286  9.78515625 23.37890625  7.48046875 22.9938616071429  C 5.17578125 22.6088169642857  3.35286458333334 22.0870535714286  2.01171875 21.4285714285714  C 0.670572916666657 20.7700892857143  0 20.0558035714286  0 19.2857142857143  L 0 16.4397321428571  C 1.54947916666666 17.3772321428571  3.66536458333334 18.0859375  6.34765625 18.5658482142857  Z M 7.48046875 0.577566964285722  C 9.78515625 0.192522321428555  12.2916666666667 0  15 0  C 17.7083333333333 0  20.21484375 0.192522321428555  22.51953125 0.577566964285722  C 24.82421875 0.96261160714289  26.6471354166667 1.484375  27.98828125 2.14285714285711  C 29.3294270833333 2.80133928571428  30 3.515625  30 4.28571428571428  L 30 6.42857142857144  C 30 7.19866071428572  29.3294270833333 7.91294642857144  27.98828125 8.57142857142856  C 26.6471354166667 9.22991071428572  24.82421875 9.75167410714289  22.51953125 10.13671875  C 20.21484375 10.5217633928571  17.7083333333333 10.7142857142857  15 10.7142857142857  C 12.2916666666667 10.7142857142857  9.78515625 10.5217633928571  7.48046875 10.13671875  C 5.17578125 9.75167410714289  3.35286458333334 9.22991071428572  2.01171875 8.57142857142856  C 0.670572916666657 7.91294642857144  0 7.19866071428572  0 6.42857142857144  L 0 4.28571428571428  C 0 3.515625  0.670572916666657 2.80133928571428  2.01171875 2.14285714285711  C 3.35286458333334 1.484375  5.17578125 0.96261160714289  7.48046875 0.577566964285722  Z " fill-rule="nonzero" fill="#666666" stroke="none" transform="matrix(1 0 0 1 460 25 )" />
  </g>
</svg>