<?xml version="1.0" encoding="utf-8"?>
<svg version="1.1" xmlns:xlink="http://www.w3.org/1999/xlink" width="30px" height="30px" xmlns="http://www.w3.org/2000/svg">
  <g transform="matrix(1 0 0 1 -210 -25 )">
    <path d="M 8 10.7142857142857  C 8 12.265625  8.421875 13.6941964285714  9.265625 15  C 7.578125 15.0558035714286  6.19791666666666 15.7700892857143  5.125 17.1428571428571  L 3.03125 17.1428571428571  C 2.17708333333334 17.1428571428571  1.45833333333334 16.9168526785714  0.875 16.46484375  C 0.291666666666657 16.0128348214286  0 15.3515625  0 14.4810267857143  C 0 10.5412946428571  0.645833333333343 8.57142857142856  1.9375 8.57142857142856  C 2 8.57142857142856  2.2265625 8.68861607142856  2.6171875 8.92299107142856  C 3.0078125 9.15736607142856  3.515625 9.39453125  4.140625 9.63448660714286  C 4.765625 9.87444196428572  5.38541666666666 9.99441964285714  6 9.99441964285714  C 6.69791666666666 9.99441964285714  7.390625 9.86607142857144  8.078125 9.609375  C 8.02604166666666 10.0223214285714  8 10.390625  8 10.7142857142857  Z M 25.9453125 23.9313616071429  C 25.9817708333333 24.4949776785714  26 25.0725446428571  26 25.6640625  C 26 27.0033482142857  25.6197916666667 28.0608258928571  24.859375 28.8364955357143  C 24.0989583333333 29.6121651785714  23.0885416666667 30  21.828125 30  L 8.171875 30  C 6.91145833333334 30  5.90104166666666 29.6121651785714  5.140625 28.8364955357143  C 4.38020833333334 28.0608258928571  4 27.0033482142857  4 25.6640625  C 4 25.0725446428571  4.01822916666666 24.4949776785714  4.0546875 23.9313616071429  C 4.09114583333334 23.3677455357143  4.1640625 22.7594866071429  4.2734375 22.1065848214286  C 4.3828125 21.4536830357143  4.52083333333334 20.8482142857143  4.6875 20.2901785714286  C 4.85416666666666 19.7321428571429  5.078125 19.1880580357143  5.359375 18.6579241071429  C 5.640625 18.1277901785714  5.96354166666666 17.67578125  6.328125 17.3018973214286  C 6.69270833333334 16.9280133928571  7.13802083333334 16.6294642857143  7.6640625 16.40625  C 8.19010416666666 16.1830357142857  8.77083333333334 16.0714285714286  9.40625 16.0714285714286  C 9.51041666666666 16.0714285714286  9.734375 16.19140625  10.078125 16.4313616071429  C 10.421875 16.6713169642857  10.8020833333333 16.9391741071429  11.21875 17.2349330357143  C 11.6354166666667 17.5306919642857  12.1927083333333 17.7985491071429  12.890625 18.0385044642857  C 13.5885416666667 18.2784598214286  14.2916666666667 18.3984375  15 18.3984375  C 15.7083333333333 18.3984375  16.4114583333333 18.2784598214286  17.109375 18.0385044642857  C 17.8072916666667 17.7985491071429  18.3645833333333 17.5306919642857  18.78125 17.2349330357143  C 19.1979166666667 16.9391741071429  19.578125 16.6713169642857  19.921875 16.4313616071429  C 20.265625 16.19140625  20.4895833333333 16.0714285714286  20.59375 16.0714285714286  C 21.2291666666667 16.0714285714286  21.8098958333333 16.1830357142857  22.3359375 16.40625  C 22.8619791666667 16.6294642857143  23.3072916666667 16.9280133928571  23.671875 17.3018973214286  C 24.0364583333333 17.67578125  24.359375 18.1277901785714  24.640625 18.6579241071429  C 24.921875 19.1880580357143  25.1458333333333 19.7321428571429  25.3125 20.2901785714286  C 25.4791666666667 20.8482142857143  25.6171875 21.4536830357143  25.7265625 22.1065848214286  C 25.8359375 22.7594866071429  25.9088541666667 23.3677455357143  25.9453125 23.9313616071429  Z M 8.828125 1.25558035714286  C 9.609375 2.09263392857144  10 3.10267857142858  10 4.28571428571428  C 10 5.46875  9.609375 6.47879464285714  8.828125 7.31584821428572  C 8.046875 8.15290178571428  7.10416666666666 8.57142857142856  6 8.57142857142856  C 4.89583333333334 8.57142857142856  3.953125 8.15290178571428  3.171875 7.31584821428572  C 2.390625 6.47879464285714  2 5.46875  2 4.28571428571428  C 2 3.10267857142858  2.390625 2.09263392857144  3.171875 1.25558035714286  C 3.953125 0.418526785714278  4.89583333333334 0  6 0  C 7.10416666666666 0  8.046875 0.418526785714278  8.828125 1.25558035714286  Z M 19.2421875 6.16908482142856  C 20.4140625 7.42466517857144  21 8.93973214285714  21 10.7142857142857  C 21 12.4888392857143  20.4140625 14.00390625  19.2421875 15.2594866071429  C 18.0703125 16.5150669642857  16.65625 17.1428571428571  15 17.1428571428571  C 13.34375 17.1428571428571  11.9296875 16.5150669642857  10.7578125 15.2594866071429  C 9.5859375 14.00390625  9 12.4888392857143  9 10.7142857142857  C 9 8.93973214285714  9.5859375 7.42466517857144  10.7578125 6.16908482142856  C 11.9296875 4.91350446428572  13.34375 4.28571428571428  15 4.28571428571428  C 16.65625 4.28571428571428  18.0703125 4.91350446428572  19.2421875 6.16908482142856  Z M 28.0625 8.57142857142856  C 29.3541666666667 8.57142857142856  30 10.5412946428571  30 14.4810267857143  C 30 15.3515625  29.7083333333333 16.0128348214286  29.125 16.46484375  C 28.5416666666667 16.9168526785714  27.8229166666667 17.1428571428571  26.96875 17.1428571428571  L 24.875 17.1428571428571  C 23.8020833333333 15.7700892857143  22.421875 15.0558035714286  20.734375 15  C 21.578125 13.6941964285714  22 12.265625  22 10.7142857142857  C 22 10.390625  21.9739583333333 10.0223214285714  21.921875 9.609375  C 22.609375 9.86607142857144  23.3020833333333 9.99441964285714  24 9.99441964285714  C 24.6145833333333 9.99441964285714  25.234375 9.87444196428572  25.859375 9.63448660714286  C 26.484375 9.39453125  26.9921875 9.15736607142856  27.3828125 8.92299107142856  C 27.7734375 8.68861607142856  28 8.57142857142856  28.0625 8.57142857142856  Z M 26.828125 1.25558035714286  C 27.609375 2.09263392857144  28 3.10267857142858  28 4.28571428571428  C 28 5.46875  27.609375 6.47879464285714  26.828125 7.31584821428572  C 26.046875 8.15290178571428  25.1041666666667 8.57142857142856  24 8.57142857142856  C 22.8958333333333 8.57142857142856  21.953125 8.15290178571428  21.171875 7.31584821428572  C 20.390625 6.47879464285714  20 5.46875  20 4.28571428571428  C 20 3.10267857142858  20.390625 2.09263392857144  21.171875 1.25558035714286  C 21.953125 0.418526785714278  22.8958333333333 0  24 0  C 25.1041666666667 0  26.046875 0.418526785714278  26.828125 1.25558035714286  Z " fill-rule="nonzero" fill="#333333" stroke="none" transform="matrix(1 0 0 1 210 25 )" />
  </g>
</svg>