<?xml version="1.0" encoding="utf-8"?>
<svg version="1.1" xmlns:xlink="http://www.w3.org/1999/xlink" width="30px" height="30px" xmlns="http://www.w3.org/2000/svg">
  <g transform="matrix(1 0 0 1 -260 -25 )">
    <path d="M 2.71875 0  L 27.28125 0  C 27.640625 0  27.984375 0.0594844679444861  28.3125 0.17845340383343  C 28.828125 0.350297422339736  29.23828125 0.621282220753471  29.54296875 0.991407799074693  C 29.84765625 1.36153337739589  30 1.77131526768011  30 2.2207534699273  L 30 27.7792465300727  C 30 28.2286847323199  29.84765625 28.6384666226041  29.54296875 29.0085922009253  C 29.23828125 29.3787177792465  28.828125 29.6497025776603  28.3125 29.8215465961666  C 28.015625 29.9272967614012  27.671875 29.9801718440185  27.28125 29.9801718440185  C 26.53125 29.9801718440185  25.8828125 29.7686715135492  25.3359375 29.3456708526107  L 15 20.9385327164574  L 4.6640625 29.3456708526107  C 4.1015625 29.7818902842036  3.453125 30  2.71875 30  C 2.359375 30  2.015625 29.9405155320555  1.6875 29.8215465961666  C 1.171875 29.6497025776603  0.76171875 29.3787177792465  0.45703125 29.0085922009253  C 0.15234375 28.6384666226041  0 28.2286847323199  0 27.7792465300727  L 0 2.2207534699273  C 0 1.77131526768011  0.15234375 1.36153337739589  0.45703125 0.991407799074693  C 0.76171875 0.621282220753471  1.171875 0.350297422339736  1.6875 0.17845340383343  C 2.015625 0.0594844679444861  2.359375 0  2.71875 0  Z " fill-rule="nonzero" fill="#ff0000" stroke="none" transform="matrix(1 0 0 1 260 25 )" />
  </g>
</svg>