<?xml version="1.0" encoding="utf-8"?>
<svg version="1.1" xmlns:xlink="http://www.w3.org/1999/xlink" width="30px" height="30px" xmlns="http://www.w3.org/2000/svg">
  <g transform="matrix(1 0 0 1 -410 -25 )">
    <path d="M 10.0864955357143 14.5614617940199  C 10.5050223214286 14.063122923588  10.7142857142857 13.4617940199336  10.7142857142857 12.7574750830565  C 10.7142857142857 12.0531561461794  10.5050223214286 11.4518272425249  10.0864955357143 10.953488372093  C 9.66796875 10.4551495016611  9.16294642857144 10.2059800664452  8.57142857142856 10.2059800664452  C 7.97991071428572 10.2059800664452  7.47488839285717 10.4551495016611  7.05636160714283 10.953488372093  C 6.63783482142856 11.4518272425249  6.42857142857144 12.0531561461794  6.42857142857144 12.7574750830565  C 6.42857142857144 13.4617940199336  6.63783482142856 14.063122923588  7.05636160714283 14.5614617940199  C 7.47488839285717 15.0598006644518  7.97991071428572 15.3089700996678  8.57142857142856 15.3089700996678  C 9.16294642857144 15.3089700996678  9.66796875 15.0598006644518  10.0864955357143 14.5614617940199  Z M 16.5150669642857 14.5614617940199  C 16.93359375 14.063122923588  17.1428571428572 13.4617940199336  17.1428571428572 12.7574750830565  C 17.1428571428572 12.0531561461794  16.93359375 11.4518272425249  16.5150669642857 10.953488372093  C 16.0965401785714 10.4551495016611  15.5915178571428 10.2059800664452  15 10.2059800664452  C 14.4084821428572 10.2059800664452  13.9034598214286 10.4551495016611  13.4849330357143 10.953488372093  C 13.06640625 11.4518272425249  12.8571428571428 12.0531561461794  12.8571428571428 12.7574750830565  C 12.8571428571428 13.4617940199336  13.06640625 14.063122923588  13.4849330357143 14.5614617940199  C 13.9034598214286 15.0598006644518  14.4084821428572 15.3089700996678  15 15.3089700996678  C 15.5915178571428 15.3089700996678  16.0965401785714 15.0598006644518  16.5150669642857 14.5614617940199  Z M 22.9436383928572 14.5614617940199  C 23.3621651785714 14.063122923588  23.5714285714286 13.4617940199336  23.5714285714286 12.7574750830565  C 23.5714285714286 12.0531561461794  23.3621651785714 11.4518272425249  22.9436383928572 10.953488372093  C 22.5251116071428 10.4551495016611  22.0200892857143 10.2059800664452  21.4285714285714 10.2059800664452  C 20.8370535714286 10.2059800664452  20.33203125 10.4551495016611  19.9135044642857 10.953488372093  C 19.4949776785714 11.4518272425249  19.2857142857143 12.0531561461794  19.2857142857143 12.7574750830565  C 19.2857142857143 13.4617940199336  19.4949776785714 14.063122923588  19.9135044642857 14.5614617940199  C 20.33203125 15.0598006644518  20.8370535714286 15.3089700996678  21.4285714285714 15.3089700996678  C 22.0200892857143 15.3089700996678  22.5251116071428 15.0598006644518  22.9436383928572 14.5614617940199  Z M 27.9910714285714 6.3488372093023  C 29.3303571428572 8.30897009966776  30 10.4451827242525  30 12.7574750830565  C 30 15.0697674418604  29.3303571428572 17.2059800664452  27.9910714285714 19.1661129568107  C 26.6517857142857 21.1262458471761  24.8325892857143 22.6744186046512  22.5334821428572 23.8106312292359  C 20.234375 24.9468438538206  17.7232142857143 25.514950166113  15 25.514950166113  C 13.7723214285714 25.514950166113  12.5948660714286 25.3953488372093  11.4676339285714 25.156146179402  C 9.53683035714283 27.4551495016611  7.109375 28.9767441860465  4.18526785714283 29.7209302325581  C 3.60491071428572 29.8538205980066  3.125 29.9401993355482  2.74553571428572 29.9800664451827  C 2.61160714285717 29.9933554817276  2.48883928571428 29.953488372093  2.37723214285717 29.8604651162791  C 2.265625 29.7674418604651  2.19308035714283 29.6478405315614  2.15959821428572 29.5016611295681  C 2.11495535714283 29.3023255813953  2.2265625 29.0564784053157  2.49441964285717 28.7641196013289  C 2.55022321428572 28.6976744186047  2.68136160714283 28.5548172757475  2.88783482142856 28.3355481727575  C 3.09430803571428 28.1162790697675  3.23660714285717 27.9601328903655  3.31473214285717 27.8671096345515  C 3.39285714285717 27.7740863787375  3.52399553571428 27.6046511627907  3.70814732142856 27.3588039867109  C 3.89229910714283 27.1129568106313  4.02622767857144 26.9036544850499  4.10993303571428 26.7308970099668  C 4.19363839285717 26.5581395348837  4.30803571428572 26.312292358804  4.453125 25.9933554817276  C 4.59821428571428 25.6744186046512  4.70982142857144 25.3554817275748  4.78794642857144 25.0365448504983  C 4.86607142857144 24.7176079734219  4.94698660714283 24.3355481727575  5.03069196428572 23.890365448505  C 5.11439732142856 23.4451827242525  5.18415178571428 22.9634551495017  5.23995535714283 22.4451827242524  C 3.61049107142856 21.2491694352159  2.32979910714283 19.8106312292359  1.39787946428572 18.1295681063123  C 0.465959821428555 16.4485049833887  0 14.6578073089701  0 12.7574750830565  C 0 10.4451827242525  0.669642857142833 8.30897009966776  2.00892857142856 6.3488372093023  C 3.34821428571428 4.38870431893685  5.16741071428572 2.84053156146177  7.46651785714283 1.70431893687709  C 9.765625 0.568106312292343  12.2767857142857 0  15 0  C 17.7232142857143 0  20.234375 0.568106312292343  22.5334821428572 1.70431893687709  C 24.8325892857143 2.84053156146177  26.6517857142857 4.38870431893685  27.9910714285714 6.3488372093023  Z " fill-rule="nonzero" fill="#00ff33" stroke="none" transform="matrix(1 0 0 1 410 25 )" />
  </g>
</svg>