<?xml version="1.0" encoding="utf-8"?>
<svg version="1.1" xmlns:xlink="http://www.w3.org/1999/xlink" width="30px" height="30px" xmlns="http://www.w3.org/2000/svg">
  <g transform="matrix(1 0 0 1 -310 -25 )">
    <path d="M 2.30769230769231 23.0357142857143  L 2.30769230769231 27.8571428571429  L 7.5 27.8571428571429  L 7.5 23.0357142857143  L 2.30769230769231 23.0357142857143  Z M 8.65384615384616 23.0357142857143  L 8.65384615384616 27.8571428571429  L 14.4230769230769 27.8571428571429  L 14.4230769230769 23.0357142857143  L 8.65384615384616 23.0357142857143  Z M 2.30769230769231 16.6071428571429  L 2.30769230769231 21.9642857142857  L 7.5 21.9642857142857  L 7.5 16.6071428571429  L 2.30769230769231 16.6071428571429  Z M 8.65384615384616 16.6071428571429  L 8.65384615384616 21.9642857142857  L 14.4230769230769 21.9642857142857  L 14.4230769230769 16.6071428571429  L 8.65384615384616 16.6071428571429  Z M 2.30769230769231 10.7142857142857  L 2.30769230769231 15.5357142857143  L 7.5 15.5357142857143  L 7.5 10.7142857142857  L 2.30769230769231 10.7142857142857  Z M 15.5769230769231 23.0357142857143  L 15.5769230769231 27.8571428571429  L 21.3461538461538 27.8571428571429  L 21.3461538461538 23.0357142857143  L 15.5769230769231 23.0357142857143  Z M 8.65384615384616 10.7142857142857  L 8.65384615384616 15.5357142857143  L 14.4230769230769 15.5357142857143  L 14.4230769230769 10.7142857142857  L 8.65384615384616 10.7142857142857  Z M 22.5 23.0357142857143  L 22.5 27.8571428571429  L 27.6923076923077 27.8571428571429  L 27.6923076923077 23.0357142857143  L 22.5 23.0357142857143  Z M 15.5769230769231 16.6071428571429  L 15.5769230769231 21.9642857142857  L 21.3461538461538 21.9642857142857  L 21.3461538461538 16.6071428571429  L 15.5769230769231 16.6071428571429  Z M 9.05949519230769 7.87667410714289  C 9.17367788461539 7.77064732142856  9.23076923076923 7.64508928571428  9.23076923076923 7.5  L 9.23076923076923 2.67857142857144  C 9.23076923076923 2.53348214285717  9.17367788461539 2.40792410714283  9.05949519230769 2.30189732142856  C 8.9453125 2.19587053571428  8.81009615384616 2.14285714285711  8.65384615384616 2.14285714285711  L 7.5 2.14285714285711  C 7.34375 2.14285714285711  7.20853365384616 2.19587053571428  7.09435096153847 2.30189732142856  C 6.98016826923077 2.40792410714283  6.92307692307692 2.53348214285717  6.92307692307692 2.67857142857144  L 6.92307692307692 7.5  C 6.92307692307692 7.64508928571428  6.98016826923077 7.77064732142856  7.09435096153847 7.87667410714289  C 7.20853365384616 7.98270089285717  7.34375 8.03571428571428  7.5 8.03571428571428  L 8.65384615384616 8.03571428571428  C 8.81009615384616 8.03571428571428  8.9453125 7.98270089285717  9.05949519230769 7.87667410714289  Z M 22.5 16.6071428571429  L 22.5 21.9642857142857  L 27.6923076923077 21.9642857142857  L 27.6923076923077 16.6071428571429  L 22.5 16.6071428571429  Z M 15.5769230769231 10.7142857142857  L 15.5769230769231 15.5357142857143  L 21.3461538461538 15.5357142857143  L 21.3461538461538 10.7142857142857  L 15.5769230769231 10.7142857142857  Z M 22.5 10.7142857142857  L 22.5 15.5357142857143  L 27.6923076923077 15.5357142857143  L 27.6923076923077 10.7142857142857  L 22.5 10.7142857142857  Z M 22.9056490384615 7.87667410714289  C 23.0198317307692 7.77064732142856  23.0769230769231 7.64508928571428  23.0769230769231 7.5  L 23.0769230769231 2.67857142857144  C 23.0769230769231 2.53348214285717  23.0198317307692 2.40792410714283  22.9056490384615 2.30189732142856  C 22.7914663461538 2.19587053571428  22.65625 2.14285714285711  22.5 2.14285714285711  L 21.3461538461538 2.14285714285711  C 21.1899038461538 2.14285714285711  21.0546875 2.19587053571428  20.9405048076923 2.30189732142856  C 20.8263221153846 2.40792410714283  20.7692307692308 2.53348214285717  20.7692307692308 2.67857142857144  L 20.7692307692308 7.5  C 20.7692307692308 7.64508928571428  20.8263221153846 7.77064732142856  20.9405048076923 7.87667410714289  C 21.0546875 7.98270089285717  21.1899038461538 8.03571428571428  21.3461538461538 8.03571428571428  L 22.5 8.03571428571428  C 22.65625 8.03571428571428  22.7914663461538 7.98270089285717  22.9056490384615 7.87667410714289  Z M 29.3149038461538 4.921875  C 29.7716346153846 5.34598214285717  30 5.84821428571428  30 6.42857142857144  L 30 27.8571428571429  C 30 28.4375  29.7716346153846 28.9397321428572  29.3149038461538 29.3638392857143  C 28.8581730769231 29.7879464285714  28.3173076923077 30  27.6923076923077 30  L 2.30769230769231 30  C 1.68269230769231 30  1.14182692307692 29.7879464285714  0.68509615384616 29.3638392857143  C 0.228365384615387 28.9397321428572  0 28.4375  0 27.8571428571429  L 0 6.42857142857144  C 0 5.84821428571428  0.228365384615387 5.34598214285717  0.68509615384616 4.921875  C 1.14182692307692 4.49776785714283  1.68269230769231 4.28571428571428  2.30769230769231 4.28571428571428  L 4.61538461538461 4.28571428571428  L 4.61538461538461 2.67857142857144  C 4.61538461538461 1.94196428571428  4.89783653846153 1.31138392857139  5.46274038461539 0.78683035714289  C 6.02764423076923 0.262276785714278  6.70673076923077 0  7.5 0  L 8.65384615384616 0  C 9.44711538461539 0  10.1262019230769 0.262276785714278  10.6911057692308 0.78683035714289  C 11.2560096153846 1.31138392857139  11.5384615384615 1.94196428571428  11.5384615384615 2.67857142857144  L 11.5384615384615 4.28571428571428  L 18.4615384615385 4.28571428571428  L 18.4615384615385 2.67857142857144  C 18.4615384615385 1.94196428571428  18.7439903846154 1.31138392857139  19.3088942307692 0.78683035714289  C 19.8737980769231 0.262276785714278  20.5528846153846 0  21.3461538461538 0  L 22.5 0  C 23.2932692307692 0  23.9723557692308 0.262276785714278  24.5372596153846 0.78683035714289  C 25.1021634615385 1.31138392857139  25.3846153846154 1.94196428571428  25.3846153846154 2.67857142857144  L 25.3846153846154 4.28571428571428  L 27.6923076923077 4.28571428571428  C 28.3173076923077 4.28571428571428  28.8581730769231 4.49776785714283  29.3149038461538 4.921875  Z " fill-rule="nonzero" fill="#333333" stroke="none" transform="matrix(1 0 0 1 310 25 )" />
  </g>
</svg>