<?xml version="1.0" encoding="utf-8"?>
<svg version="1.1" xmlns:xlink="http://www.w3.org/1999/xlink" width="38px" height="38px" xmlns="http://www.w3.org/2000/svg">
  <g transform="matrix(1 0 0 1 -348 -516 )">
    <path d="M 8.97566765578635 21.8753709198813  L 21.8753709198813 8.97566765578635  L 29.0017804154303 16.1020771513353  L 16.1020771513353 29.0017804154303  L 8.97566765578635 21.8753709198813  Z M 16.1020771513353 31.459940652819  C 16.5080118694362 31.459940652819  16.8462908011869 31.3246290801187  17.1169139465875 31.0540059347181  L 31.0540059347181 17.1169139465875  C 31.3396636993076 16.831256181998  31.4824925816024 16.4929772502473  31.4824925816024 16.1020771513353  C 31.4824925816024 15.7111770524233  31.3396636993076 15.3728981206726  31.0540059347181 15.0872403560831  L 22.8902077151335 6.92344213649852  C 22.6195845697329 6.65281899109792  22.2813056379822 6.51750741839763  21.8753709198813 6.51750741839763  C 21.4694362017804 6.51750741839763  21.1311572700297 6.65281899109792  20.8605341246291 6.92344213649852  L 6.92344213649852 20.8605341246291  C 6.637784371909 21.1461918892186  6.49495548961424 21.4844708209693  6.49495548961424 21.8753709198813  C 6.49495548961424 22.2662710187933  6.637784371909 22.604549950544  6.92344213649852 22.8902077151335  L 15.0872403560831 31.0540059347181  C 15.3578635014837 31.3246290801187  15.6961424332344 31.459940652819  16.1020771513353 31.459940652819  Z M 38 14.6474777448071  C 38 15.4518298714144  37.7218595450049 16.1321463897132  37.1655786350148 16.6884272997033  L 16.7109792284866 37.1655786350148  C 16.1546983184965 37.7218595450049  15.4743818001978 38  14.6700296735905 38  C 13.8656775469832 38  13.1853610286845 37.7218595450049  12.6290801186944 37.1655786350148  L 9.78753709198813 34.3240356083086  C 10.6294757665678 33.482096933729  11.0504451038576 32.4597428288823  11.0504451038576 31.2569732937685  C 11.0504451038576 30.0542037586548  10.6294757665678 29.0318496538081  9.78753709198813 28.1899109792285  C 8.94559841740851 27.3479723046489  7.92324431256182 26.9270029673591  6.72047477744807 26.9270029673591  C 5.51770524233432 26.9270029673591  4.49535113748764 27.3479723046489  3.65341246290801 28.1899109792285  L 0.834421364985163 25.3483679525223  C 0.278140454995055 24.7920870425321  0 24.1117705242334  0 23.3074183976261  C 0 22.5030662710188  0.278140454995055 21.8227497527201  0.834421364985163 21.26646884273  L 21.2890207715134 0.834421364985164  C 21.8453016815035 0.278140454995052  22.5256181998022 0  23.3299703264095 0  C 24.1343224530168 0  24.8146389713155 0.278140454995052  25.3709198813056 0.834421364985164  L 28.1899109792285 3.65341246290801  C 27.3479723046489 4.49535113748763  26.9270029673591 5.51770524233432  26.9270029673591 6.72047477744807  C 26.9270029673591 7.92324431256182  27.3479723046489 8.9455984174085  28.1899109792285 9.78753709198813  C 29.0318496538081 10.6294757665678  30.0542037586548 11.0504451038576  31.2569732937685 11.0504451038576  C 32.4597428288823 11.0504451038576  33.482096933729 10.6294757665678  34.3240356083086 9.78753709198813  L 37.1655786350148 12.606528189911  C 37.7218595450049 13.1628090999011  38 13.8431256181998  38 14.6474777448071  Z " fill-rule="nonzero" fill="#ffffff" stroke="none" transform="matrix(1 0 0 1 348 516 )" />
  </g>
</svg>