<?xml version="1.0" encoding="utf-8"?>
<svg version="1.1" xmlns:xlink="http://www.w3.org/1999/xlink" width="50px" height="50px" xmlns="http://www.w3.org/2000/svg">
  <g transform="matrix(1 0 0 1 -763 -302 )">
    <path d="M 788 302  C 802 302  813 313  813 327  C 813 341  802 352  788 352  C 774 352  763 341  763 327  C 763 313  774 302  788 302  Z " fill-rule="nonzero" fill="#000000" stroke="none" />
    <path d="M 788 302.5  C 801.72 302.5  812.5 313.28  812.5 327  C 812.5 340.72  801.72 351.5  788 351.5  C 774.28 351.5  763.5 340.72  763.5 327  C 763.5 313.28  774.28 302.5  788 302.5  Z " stroke-width="1" stroke="#797979" fill="none" />
  </g>
</svg>