<?xml version="1.0" encoding="utf-8"?>
<svg version="1.1" xmlns:xlink="http://www.w3.org/1999/xlink" width="33px" height="29px" xmlns="http://www.w3.org/2000/svg">
  <g transform="matrix(1 0 0 1 -1193 -313 )">
    <path d="M 14.1109375 17.4724588302101  C 14.9703125 16.649063032368  15.4 15.6554987696385  15.4 14.4917660420216  C 15.4 13.3280333144047  14.9703125 12.3344690516752  14.1109375 11.511073253833  C 13.2515625 10.6876774559909  12.2145833333333 10.2759795570698  11 10.2759795570698  C 9.78541666666667 10.2759795570698  8.7484375 10.6876774559909  7.8890625 11.511073253833  C 7.0296875 12.3344690516752  6.6 13.3280333144047  6.6 14.4917660420216  C 6.6 15.6554987696385  7.0296875 16.649063032368  7.8890625 17.4724588302101  C 8.7484375 18.2958546280522  9.78541666666667 18.7075525269733  11 18.7075525269733  C 12.2145833333333 18.7075525269733  13.2515625 18.2958546280522  14.1109375 17.4724588302101  Z M 27.95546875 24.4136854060193  C 28.38515625 24.0019875070982  28.6 23.5052053757335  28.6 22.923339011925  C 28.6 22.3524512587545  28.3822916666667 21.8584137800492  27.946875 21.4412265758092  C 27.5114583333333 21.0240393715692  26.9958333333333 20.8154457694492  26.4 20.8154457694492  C 25.8041666666667 20.8154457694492  25.2885416666667 21.0240393715692  24.853125 21.4412265758092  C 24.4177083333333 21.8584137800492  24.2 22.3524512587545  24.2 22.923339011925  C 24.2 23.5052053757335  24.41484375 24.0019875070982  24.84453125 24.4136854060193  C 25.27421875 24.8253833049404  25.7927083333333 25.0312322544009  26.4 25.0312322544009  C 27.0072916666667 25.0312322544009  27.52578125 24.8253833049404  27.95546875 24.4136854060193  Z M 27.95546875 7.55053946621238  C 28.38515625 7.13884156729131  28.6 6.64205943592656  28.6 6.06019307211812  C 28.6 5.48930531894757  28.3822916666667 4.99526784024228  27.946875 4.57808063600227  C 27.5114583333333 4.16089343176226  26.9958333333333 3.95229982964225  26.4 3.95229982964225  C 25.8041666666667 3.95229982964225  25.2885416666667 4.16089343176226  24.853125 4.57808063600227  C 24.4177083333333 4.99526784024228  24.2 5.48930531894757  24.2 6.06019307211812  C 24.2 6.64205943592656  24.41484375 7.13884156729131  24.84453125 7.55053946621238  C 25.27421875 7.96223736513345  25.7927083333333 8.16808631459398  26.4 8.16808631459398  C 27.0072916666667 8.16808631459398  27.52578125 7.96223736513345  27.95546875 7.55053946621238  Z M 21.8796875 12.6720613287905  C 21.9598958333333 12.7653795192126  22 12.872420972932  22 12.9931856899489  L 22 16.0397501419648  C 22 16.1495362483437  21.9598958333333 16.2565777020632  21.8796875 16.3608745031232  C 21.7994791666667 16.4651713041832  21.7078125 16.5228090100322  21.6046875 16.5337876206701  L 18.940625 16.9290176036343  C 18.8145833333333 17.3132689759606  18.63125 17.7304561802006  18.390625 18.1805792163543  C 18.7802083333333 18.7075525269733  19.2958333333333 19.3388226386523  19.9375 20.0743895513913  C 20.0177083333333 20.1951542684081  20.0578125 20.3049403747871  20.0578125 20.4037478705281  C 20.0578125 20.5354911981829  20.0177083333333 20.6397879992429  19.9375 20.7166382737081  C 19.6739583333333 21.045996592845  19.2013020833333 21.5372894188908  18.51953125 22.1905167518455  C 17.8377604166667 22.8437440848003  17.3880208333333 23.1703577512777  17.1703125 23.1703577512777  C 17.0442708333333 23.1703577512777  16.9239583333333 23.1319326140451  16.809375 23.0550823395798  L 14.8328125 21.5729699034639  C 14.4088541666667 21.7815635055839  13.9677083333333 21.9517319704713  13.509375 22.0834752981261  C 13.3833333333333 23.2691652470187  13.2515625 24.1200075714556  13.1140625 24.6360022714367  C 13.0338541666667 24.8994889267462  12.8619791666667 25.0312322544009  12.5984375 25.0312322544009  L 9.4015625 25.0312322544009  C 9.27552083333333 25.0312322544009  9.1609375 24.9900624645088  9.0578125 24.9077228847246  C 8.9546875 24.8253833049404  8.89739583333333 24.7293204618588  8.8859375 24.6195343554798  L 8.490625 22.0999432140829  C 8.10104166666667 21.990157107704  7.67135416666667 21.8199886428166  7.2015625 21.5894378194208  L 5.1734375 23.0550823395798  C 5.09322916666667 23.1319326140451  4.97864583333333 23.1703577512777  4.8296875 23.1703577512777  C 4.70364583333333 23.1703577512777  4.58333333333333 23.1264433087261  4.46875 23.0386144236229  C 2.81875 21.5784592087829  1.99375 20.7001703577513  1.99375 20.4037478705281  C 1.99375 20.3049403747871  2.03385416666667 20.200643573727  2.1140625 20.0908574673481  C 2.22864583333333 19.9371569184176  2.46354166666667 19.6462237365133  2.81875 19.2180579216354  C 3.17395833333333 18.7898921067575  3.44322916666667 18.4550444823017  3.6265625 18.213515048268  C 3.36302083333333 17.7304561802006  3.1625 17.2803331440469  3.025 16.8631459398069  L 0.4125 16.4679159568427  C 0.297916666666667 16.4569373462048  0.200520833333333 16.4047889456748  0.1203125 16.3114707552527  C 0.0401041666666667 16.2181525648306  0 16.1111111111111  0 15.9903463940943  L 0 12.9437819420784  C 0 12.8339958356994  0.0401041666666667 12.7269543819799  0.1203125 12.6226575809199  C 0.200520833333333 12.5183607798599  0.2921875 12.460723074011  0.3953125 12.4497444633731  L 3.059375 12.0545144804089  C 3.18541666666667 11.6702631080825  3.36875 11.2530759038425  3.609375 10.8029528676888  C 3.21979166666667 10.2759795570698  2.70416666666667 9.64470944539087  2.0625 8.9091425326519  C 1.98229166666667 8.78837781563505  1.9421875 8.67859170925611  1.9421875 8.57978421351505  C 1.9421875 8.44804088586031  1.98229166666667 8.33825477948135  2.0625 8.25042589437819  C 2.31458333333333 7.92106757524134  2.784375 7.432519401855  3.471875 6.78478137421919  C 4.159375 6.13704334658338  4.61197916666667 5.81317433276548  4.8296875 5.81317433276548  C 4.95572916666667 5.81317433276548  5.07604166666667 5.85159946999811  5.190625 5.92844974446337  L 7.1671875 7.41056218057922  C 7.55677083333333 7.2129471890971  7.99791666666667 7.03728941889078  8.490625 6.88358886996025  C 8.61666666666667 5.69789892106758  8.7484375 4.85254590194965  8.8859375 4.34752981260647  C 8.96614583333334 4.08404315729699  9.13802083333333 3.95229982964225  9.4015625 3.95229982964225  L 12.5984375 3.95229982964225  C 12.7244791666667 3.95229982964225  12.8390625 3.99346961953436  12.9421875 4.07580919931857  C 13.0453125 4.15814877910278  13.1026041666667 4.25421162218436  13.1140625 4.36399772856332  L 13.509375 6.88358886996025  C 13.8989583333333 6.9933749763392  14.3286458333333 7.16354344122658  14.7984375 7.39409426462237  L 16.8265625 5.92844974446337  C 16.9182291666667 5.85159946999811  17.0328125 5.81317433276548  17.1703125 5.81317433276548  C 17.2963541666667 5.81317433276548  17.4166666666667 5.85708877531705  17.53125 5.94491766042022  C 19.18125 7.40507287526027  20.00625 8.28336172629188  20.00625 8.57978421351505  C 20.00625 8.66761309861821  19.9661458333333 8.77190989967821  19.8859375 8.89267461669506  C 19.7484375 9.06833238690138  19.5078125 9.36475487412455  19.1640625 9.78194207836457  C 18.8203125 10.1991292826046  18.5625 10.5284876017414  18.390625 10.7700170357751  C 18.6541666666667 11.2969903463941  18.8489583333333 11.7471133825478  18.975 12.1203861442362  L 21.5875 12.4991482112436  C 21.7020833333333 12.5211054325194  21.7994791666667 12.5787431383684  21.8796875 12.6720613287905  Z M 30.4390625 21.2600795002839  C 32.1463541666667 21.4247586598524  33 21.5949271247397  33 21.7705848949461  L 33 24.076093128904  C 33 24.2517508991104  32.1463541666667 24.4219193639977  30.4390625 24.5865985235662  C 30.3015625 24.8830210107893  30.1296875 25.1684648873746  29.9234375 25.442930153322  C 30.5078125 26.6835131554041  30.8 27.4410372894189  30.8 27.7155025553663  C 30.8 27.7594169979178  30.7770833333333 27.7978421351505  30.73125 27.8307779670642  C 29.3333333333333 28.6102593223547  28.6229166666667 29  28.6 29  C 28.5083333333333 29  28.2447916666667 28.7420026500095  27.809375 28.2260079500284  C 27.3739583333333 27.7100132500473  27.0760416666667 27.3367404883589  26.915625 27.1061896649631  C 26.6864583333333 27.1281468862389  26.5145833333333 27.1391254968768  26.4 27.1391254968768  C 26.2854166666667 27.1391254968768  26.1135416666667 27.1281468862389  25.884375 27.1061896649631  C 25.7239583333333 27.3367404883589  25.4260416666667 27.7100132500473  24.990625 28.2260079500284  C 24.5552083333333 28.7420026500095  24.2916666666667 29  24.2 29  C 24.1770833333333 29  23.4666666666667 28.6102593223547  22.06875 27.8307779670642  C 22.0229166666667 27.7978421351505  22 27.7594169979178  22 27.7155025553663  C 22 27.4410372894189  22.2921875 26.6835131554041  22.8765625 25.442930153322  C 22.6703125 25.1684648873746  22.4984375 24.8830210107893  22.3609375 24.5865985235662  C 20.6536458333333 24.4219193639977  19.8 24.2517508991104  19.8 24.076093128904  L 19.8 21.7705848949461  C 19.8 21.5949271247397  20.6536458333333 21.4247586598524  22.3609375 21.2600795002839  C 22.5098958333333 20.941699791785  22.6817708333333 20.6562559151997  22.8765625 20.4037478705281  C 22.2921875 19.163164868446  22 18.4056407344312  22 18.1311754684838  C 22 18.0872610259322  22.0229166666667 18.0488358886996  22.06875 18.0159000567859  C 22.1145833333333 17.9939428355101  22.3151041666667 17.8841567291312  22.6703125 17.6865417376491  C 23.0255208333333 17.4889267461669  23.3635416666667 17.3022903653227  23.684375 17.1266325951164  C 24.0052083333333 16.9509748249101  24.1770833333333 16.8631459398069  24.2 16.8631459398069  C 24.2916666666667 16.8631459398069  24.5552083333333 17.118398637138  24.990625 17.6289040318001  C 25.4260416666667 18.1394094264622  25.7239583333333 18.5099375354912  25.884375 18.740488358887  C 26.1135416666667 18.7185311376112  26.2854166666667 18.7075525269733  26.4 18.7075525269733  C 26.5145833333333 18.7075525269733  26.6864583333333 18.7185311376112  26.915625 18.740488358887  C 27.5 17.9610070035964  28.0270833333333 17.3462048078743  28.496875 16.8960817717206  L 28.6 16.8631459398069  C 28.6458333333333 16.8631459398069  29.35625 17.2473973121333  30.73125 18.0159000567859  C 30.7770833333333 18.0488358886996  30.8 18.0872610259322  30.8 18.1311754684838  C 30.8 18.4056407344312  30.5078125 19.163164868446  29.9234375 20.4037478705281  C 30.1182291666667 20.6562559151997  30.2901041666667 20.941699791785  30.4390625 21.2600795002839  Z M 30.4390625 4.396933560477  C 32.1463541666667 4.56161272004543  33 4.7317811849328  33 4.90743895513913  L 33 7.2129471890971  C 33 7.38860495930342  32.1463541666667 7.5587734241908  30.4390625 7.72345258375923  C 30.3015625 8.0198750709824  30.1296875 8.30531894756767  29.9234375 8.57978421351505  C 30.5078125 9.8203672155972  30.8 10.577891349612  30.8 10.8523566155593  C 30.8 10.8962710581109  30.7770833333333 10.9346961953436  30.73125 10.9676320272572  C 29.3333333333333 11.7471133825478  28.6229166666667 12.1368540601931  28.6 12.1368540601931  C 28.5083333333333 12.1368540601931  28.2447916666667 11.8788567102025  27.809375 11.3628620102215  C 27.3739583333333 10.8468673102404  27.0760416666667 10.473594548552  26.915625 10.2430437251562  C 26.6864583333333 10.265000946432  26.5145833333333 10.2759795570698  26.4 10.2759795570698  C 26.2854166666667 10.2759795570698  26.1135416666667 10.265000946432  25.884375 10.2430437251562  C 25.7239583333333 10.473594548552  25.4260416666667 10.8468673102404  24.990625 11.3628620102215  C 24.5552083333333 11.8788567102025  24.2916666666667 12.1368540601931  24.2 12.1368540601931  C 24.1770833333333 12.1368540601931  23.4666666666667 11.7471133825478  22.06875 10.9676320272572  C 22.0229166666667 10.9346961953436  22 10.8962710581109  22 10.8523566155593  C 22 10.577891349612  22.2921875 9.8203672155972  22.8765625 8.57978421351505  C 22.6703125 8.30531894756767  22.4984375 8.0198750709824  22.3609375 7.72345258375923  C 20.6536458333333 7.5587734241908  19.8 7.38860495930342  19.8 7.2129471890971  L 19.8 4.90743895513913  C 19.8 4.7317811849328  20.6536458333333 4.56161272004543  22.3609375 4.396933560477  C 22.5098958333333 4.07855385197804  22.6817708333333 3.79310997539277  22.8765625 3.54060193072118  C 22.2921875 2.30001892863903  22 1.54249479462426  22 1.26802952867689  C 22 1.22411508612531  22.0229166666667 1.18568994889268  22.06875 1.15275411697899  C 22.1145833333333 1.1307968957032  22.3151041666667 1.02101078932425  22.6703125 0.823395797842136  C 23.0255208333333 0.625780806360023  23.3635416666667 0.439144425515801  23.684375 0.263486655309483  C 24.0052083333333 0.087828885103159  24.1770833333333 0  24.2 0  C 24.2916666666667 0  24.5552083333333 0.25525269733106  24.990625 0.765758091993185  C 25.4260416666667 1.27626348665531  25.7239583333333 1.64679159568427  25.884375 1.87734241908007  C 26.1135416666667 1.85538519780428  26.2854166666667 1.84440658716638  26.4 1.84440658716638  C 26.5145833333333 1.84440658716638  26.6864583333333 1.85538519780428  26.915625 1.87734241908007  C 27.5 1.09786106378951  28.0270833333333 0.483058868067384  28.496875 0.0329358319136854  L 28.6 0  C 28.6458333333333 0  29.35625 0.384251372326328  30.73125 1.15275411697899  C 30.7770833333333 1.18568994889268  30.8 1.22411508612531  30.8 1.26802952867689  C 30.8 1.54249479462426  30.5078125 2.30001892863903  29.9234375 3.54060193072118  C 30.1182291666667 3.79310997539277  30.2901041666667 4.07855385197804  30.4390625 4.396933560477  Z " fill-rule="nonzero" fill="#ffffff" stroke="none" transform="matrix(1 0 0 1 1193 313 )" />
  </g>
</svg>