<?xml version="1.0" encoding="utf-8"?>
<svg version="1.1" xmlns:xlink="http://www.w3.org/1999/xlink" width="36px" height="32px" xmlns="http://www.w3.org/2000/svg">
  <g transform="matrix(1 0 0 1 -770 -311 )">
    <path d="M 21.328125 28.6309523809524  C 21.609375 28.4166666666667  21.75 28.1111111111111  21.75 27.7142857142857  L 21.75 26.3809523809524  L 21.75 15.2380952380952  L 21.75 10.6666666666667  L 14.25 10.6666666666667  L 14.25 15.2380952380952  L 14.25 26.3809523809524  L 14.25 27.7142857142857  C 14.25 28.1111111111111  14.390625 28.4166666666667  14.671875 28.6309523809524  C 14.953125 28.8452380952381  15.3125 28.952380952381  15.75 28.952380952381  L 20.25 28.952380952381  C 20.6875 28.952380952381  21.046875 28.8452380952381  21.328125 28.6309523809524  Z M 9.46875 6.95238095238095  C 9.90625 7.39682539682539  10.4375 7.61904761904762  11.0625 7.61904761904762  L 15.6328125 7.61904761904762  L 12.6796875 3.78571428571428  C 12.2734375 3.29365079365079  11.734375 3.04761904761905  11.0625 3.04761904761905  C 10.4375 3.04761904761905  9.90625 3.26984126984127  9.46875 3.71428571428572  C 9.03125 4.15873015873015  8.8125 4.6984126984127  8.8125 5.33333333333333  C 8.8125 5.96825396825396  9.03125 6.50793650793651  9.46875 6.95238095238095  Z M 26.53125 6.95238095238095  C 26.96875 6.50793650793651  27.1875 5.96825396825396  27.1875 5.33333333333333  C 27.1875 4.6984126984127  26.96875 4.15873015873015  26.53125 3.71428571428572  C 26.09375 3.26984126984127  25.5625 3.04761904761905  24.9375 3.04761904761905  C 24.265625 3.04761904761905  23.7265625 3.29365079365079  23.3203125 3.78571428571428  L 20.390625 7.61904761904762  L 24.9375 7.61904761904762  C 25.5625 7.61904761904762  26.09375 7.39682539682539  26.53125 6.95238095238095  Z M 35.7890625 10.8809523809524  C 35.9296875 11.0238095238095  36 11.2063492063492  36 11.4285714285714  L 36 19.047619047619  C 36 19.2698412698413  35.9296875 19.452380952381  35.7890625 19.5952380952381  C 35.6484375 19.7380952380952  35.46875 19.8095238095238  35.25 19.8095238095238  L 33 19.8095238095238  L 33 29.7142857142857  C 33 30.3492063492064  32.78125 30.8888888888889  32.34375 31.3333333333333  C 31.90625 31.7777777777778  31.375 32  30.75 32  L 5.25 32  C 4.625 32  4.09375 31.7777777777778  3.65625 31.3333333333333  C 3.21875 30.8888888888889  3 30.3492063492064  3 29.7142857142857  L 3 19.8095238095238  L 0.75 19.8095238095238  C 0.53125 19.8095238095238  0.3515625 19.7380952380952  0.2109375 19.5952380952381  C 0.0703125 19.452380952381  0 19.2698412698413  0 19.047619047619  L 0 11.4285714285714  C 0 11.2063492063492  0.0703125 11.0238095238095  0.2109375 10.8809523809524  C 0.3515625 10.7380952380952  0.53125 10.6666666666667  0.75 11  L 11.0625 11  C 9.609375 10.6666666666667  8.37109375 10.1468253968254  7.34765625 9.10714285714286  C 6.32421875 8.06746031746032  5.8125 6.80952380952381  5.8125 5.33333333333333  C 5.8125 3.85714285714286  6.32421875 2.59920634920634  7.34765625 1.55952380952381  C 8.37109375 0.519841269841269  9.609375 0  11.0625 0  C 12.734375 0  14.046875 0.611111111111107  15 1.83333333333333  L 18 5.76190476190476  L 21 1.83333333333333  C 21.953125 0.611111111111107  23.265625 0  24.9375 0  C 26.390625 0  27.62890625 0.519841269841269  28.65234375 1.55952380952381  C 29.67578125 2.59920634920634  30.1875 3.85714285714286  30.1875 5.33333333333333  C 30.1875 6.80952380952381  29.67578125 8.06746031746032  28.65234375 9.10714285714286  C 27.62890625 10.1468253968254  26.390625 10.6666666666667  24.9375 11  L 35.25 11  C 35.46875 10.6666666666667  35.6484375 10.7380952380952  35.7890625 10.8809523809524  Z " fill-rule="nonzero" fill="#ffffff" stroke="none" transform="matrix(1 0 0 1 770 311 )" />
  </g>
</svg>