<?xml version="1.0" encoding="utf-8"?>
<svg version="1.1" xmlns:xlink="http://www.w3.org/1999/xlink" width="50px" height="50px" xmlns="http://www.w3.org/2000/svg">
  <g transform="matrix(1 0 0 1 -903 -510 )">
    <path d="M 928 510  C 942 510  953 521  953 535  C 953 549  942 560  928 560  C 914 560  903 549  903 535  C 903 521  914 510  928 510  Z " fill-rule="nonzero" fill="#aaaaaa" stroke="none" />
    <path d="M 928 510.5  C 941.72 510.5  952.5 521.28  952.5 535  C 952.5 548.72  941.72 559.5  928 559.5  C 914.28 559.5  903.5 548.72  903.5 535  C 903.5 521.28  914.28 510.5  928 510.5  Z " stroke-width="1" stroke="#aaaaaa" fill="none" />
  </g>
</svg>