<?xml version="1.0" encoding="utf-8"?>
<svg version="1.1" xmlns:xlink="http://www.w3.org/1999/xlink" width="205px" height="134px" xmlns="http://www.w3.org/2000/svg">
  <g transform="matrix(1 0 0 1 -390 -725 )">
    <path d="M 390 725  L 595 725  L 595 859  L 390 859  L 390 725  " fill-rule="nonzero" fill="#cccccc" stroke="none" />
    <path d="M 399 734  L 586 734  L 586 850  L 399 850  L 399 734  " fill-rule="nonzero" fill="#ffffff" stroke="none" />
    <path d="M 506.65 765.2  C 501.022 765.2  496.6 760.778  496.6 755.15  C 496.6 749.522  501.022 745.1  506.65 745.1  C 512.278 745.1  516.7 749.522  516.7 755.15  C 516.7 760.778  512.278 765.2  506.65 765.2  " fill-rule="nonzero" fill="#cccccc" stroke="none" />
    <path d="M 403 847  L 403 787.05  L 448 759.8  L 511 804.250731707317  L 547 776.15  L 583 804.250731707317  L 583 847  L 403 847  " fill-rule="nonzero" fill="#169bd5" stroke="none" />
  </g>
</svg>