<?xml version="1.0" encoding="utf-8"?>
<svg version="1.1" xmlns:xlink="http://www.w3.org/1999/xlink" width="12px" height="12px" viewBox="568 648  12 12" xmlns="http://www.w3.org/2000/svg">
  <path d="M 574 648  C 577.36 648  580 650.64  580 654  C 580 657.36  577.36 660  574 660  C 570.64 660  568 657.36  568 654  C 568 650.64  570.64 648  574 648  Z " fill-rule="nonzero" fill="#ffffff" stroke="none" />
  <path d="M 574 648.5  C 577.08 648.5  579.5 650.92  579.5 654  C 579.5 657.08  577.08 659.5  574 659.5  C 570.92 659.5  568.5 657.08  568.5 654  C 568.5 650.92  570.92 648.5  574 648.5  Z " stroke-width="1" stroke="#797979" fill="none" />
  <path d="M 574 657  C 572.32 657  571 655.68  571 654  C 571 652.32  572.32 651  574 651  C 575.68 651  577 652.32  577 654  C 577 655.68  575.68 657  574 657  " fill-rule="nonzero" fill="#797979" stroke="none" />
</svg>