<?xml version="1.0" encoding="utf-8"?>
<svg version="1.1" xmlns:xlink="http://www.w3.org/1999/xlink" width="26px" height="25px" xmlns="http://www.w3.org/2000/svg">
  <g transform="matrix(1 0 0 1 -399 -230 )">
    <path d="M 2 19.1964285714286  L 2 23.2142857142857  L 6.5 23.2142857142857  L 6.5 19.1964285714286  L 2 19.1964285714286  Z M 7.5 19.1964285714286  L 7.5 23.2142857142857  L 12.5 23.2142857142857  L 12.5 19.1964285714286  L 7.5 19.1964285714286  Z M 2 13.8392857142857  L 2 18.3035714285714  L 6.5 18.3035714285714  L 6.5 13.8392857142857  L 2 13.8392857142857  Z M 7.5 13.8392857142857  L 7.5 18.3035714285714  L 12.5 18.3035714285714  L 12.5 13.8392857142857  L 7.5 13.8392857142857  Z M 2 8.92857142857144  L 2 12.9464285714286  L 6.5 12.9464285714286  L 6.5 8.92857142857144  L 2 8.92857142857144  Z M 13.5 19.1964285714286  L 13.5 23.2142857142857  L 18.5 23.2142857142857  L 18.5 19.1964285714286  L 13.5 19.1964285714286  Z M 7.5 8.92857142857144  L 7.5 12.9464285714286  L 12.5 12.9464285714286  L 12.5 8.92857142857144  L 7.5 8.92857142857144  Z M 19.5 19.1964285714286  L 19.5 23.2142857142857  L 24 23.2142857142857  L 24 19.1964285714286  L 19.5 19.1964285714286  Z M 13.5 13.8392857142857  L 13.5 18.3035714285714  L 18.5 18.3035714285714  L 18.5 13.8392857142857  L 13.5 13.8392857142857  Z M 7.8515625 6.56389508928567  C 7.95052083333331 6.47553943452385  8 6.37090773809518  8 6.25  L 8 2.23214285714289  C 8 2.11123511904759  7.95052083333331 2.00660342261904  7.8515625 1.91824776785711  C 7.75260416666663 1.82989211309518  7.63541666666669 1.78571428571433  7.5 1.78571428571433  L 6.5 1.78571428571433  C 6.36458333333337 1.78571428571433  6.24739583333337 1.82989211309518  6.1484375 1.91824776785711  C 6.04947916666669 2.00660342261904  6 2.11123511904759  6 2.23214285714289  L 6 6.25  C 6 6.37090773809518  6.04947916666669 6.47553943452385  6.1484375 6.56389508928567  C 6.24739583333337 6.65225074404759  6.36458333333337 6.69642857142855  6.5 6.69642857142855  L 7.5 6.69642857142855  C 7.63541666666669 6.69642857142855  7.75260416666663 6.65225074404759  7.8515625 6.56389508928567  Z M 19.5 13.8392857142857  L 19.5 18.3035714285714  L 24 18.3035714285714  L 24 13.8392857142857  L 19.5 13.8392857142857  Z M 13.5 8.92857142857144  L 13.5 12.9464285714286  L 18.5 12.9464285714286  L 18.5 8.92857142857144  L 13.5 8.92857142857144  Z M 19.5 8.92857142857144  L 19.5 12.9464285714286  L 24 12.9464285714286  L 24 8.92857142857144  L 19.5 8.92857142857144  Z M 19.8515625 6.56389508928567  C 19.9505208333333 6.47553943452385  20 6.37090773809518  20 6.25  L 20 2.23214285714289  C 20 2.11123511904759  19.9505208333333 2.00660342261904  19.8515625 1.91824776785711  C 19.7526041666666 1.82989211309518  19.6354166666666 1.78571428571433  19.5 1.78571428571433  L 18.5 1.78571428571433  C 18.3645833333334 1.78571428571433  18.2473958333334 1.82989211309518  18.1484375 1.91824776785711  C 18.0494791666667 2.00660342261904  18 2.11123511904759  18 2.23214285714289  L 18 6.25  C 18 6.37090773809518  18.0494791666667 6.47553943452385  18.1484375 6.56389508928567  C 18.2473958333334 6.65225074404759  18.3645833333334 6.69642857142855  18.5 6.69642857142855  L 19.5 6.69642857142855  C 19.6354166666666 6.69642857142855  19.7526041666666 6.65225074404759  19.8515625 6.56389508928567  Z M 25.40625 4.1015625  C 25.8020833333333 4.45498511904759  26 4.87351190476193  26 5.35714285714289  L 26 23.2142857142857  C 26 23.6979166666666  25.8020833333333 24.116443452381  25.40625 24.4698660714286  C 25.0104166666667 24.8232886904761  24.5416666666667 25  24 25  L 2 25  C 1.45833333333337 25  0.989583333333314 24.8232886904761  0.59375 24.4698660714286  C 0.197916666666686 24.116443452381  0 23.6979166666666  0 23.2142857142857  L 0 5.35714285714289  C 0 4.87351190476193  0.197916666666686 4.45498511904759  0.59375 4.1015625  C 0.989583333333314 3.74813988095241  1.45833333333337 3.57142857142856  2 3.57142857142856  L 4 3.57142857142856  L 4 2.23214285714289  C 4 1.61830357142856  4.24479166666669 1.09281994047615  4.734375 0.655691964285666  C 5.22395833333331 0.218563988095184  5.8125 0  6.5 0  L 7.5 0  C 8.1875 0  8.77604166666669 0.218563988095184  9.265625 0.655691964285666  C 9.75520833333331 1.09281994047615  10 1.61830357142856  10 2.23214285714289  L 10 3.57142857142856  L 16 3.57142857142856  L 16 2.23214285714289  C 16 1.61830357142856  16.2447916666667 1.09281994047615  16.734375 0.655691964285666  C 17.2239583333333 0.218563988095184  17.8125 0  18.5 0  L 19.5 0  C 20.1875 0  20.7760416666667 0.218563988095184  21.265625 0.655691964285666  C 21.7552083333334 1.09281994047615  22 1.61830357142856  22 2.23214285714289  L 22 3.57142857142856  L 24 3.57142857142856  C 24.5416666666667 3.57142857142856  25.0104166666667 3.74813988095241  25.40625 4.1015625  Z " fill-rule="nonzero" fill="#000000" stroke="none" transform="matrix(1 0 0 1 399 230 )" />
  </g>
</svg>