<?xml version="1.0" encoding="utf-8"?>
<svg version="1.1" xmlns:xlink="http://www.w3.org/1999/xlink" width="12px" height="12px" viewBox="340 248  12 12" xmlns="http://www.w3.org/2000/svg">
  <path d="M 346 248  C 349.36 248  352 250.64  352 254  C 352 257.36  349.36 260  346 260  C 342.64 260  340 257.36  340 254  C 340 250.64  342.64 248  346 248  Z " fill-rule="nonzero" fill="#f0f0f0" stroke="none" />
  <path d="M 346 248.5  C 349.08 248.5  351.5 250.92  351.5 254  C 351.5 257.08  349.08 259.5  346 259.5  C 342.92 259.5  340.5 257.08  340.5 254  C 340.5 250.92  342.92 248.5  346 248.5  Z " stroke-width="1" stroke="#797979" fill="none" />
  <path d="M 346 257  C 344.32 257  343 255.68  343 254  C 343 252.32  344.32 251  346 251  C 347.68 251  349 252.32  349 254  C 349 255.68  347.68 257  346 257  " fill-rule="nonzero" fill="#797979" stroke="none" />
</svg>