<?xml version="1.0" encoding="utf-8"?>
<svg version="1.1" xmlns:xlink="http://www.w3.org/1999/xlink" width="12px" height="12px" viewBox="450 247  12 12" xmlns="http://www.w3.org/2000/svg">
  <path d="M 456 247  C 459.36 247  462 249.64  462 253  C 462 256.36  459.36 259  456 259  C 452.64 259  450 256.36  450 253  C 450 249.64  452.64 247  456 247  Z " fill-rule="nonzero" fill="#f0f0f0" stroke="none" />
  <path d="M 456 247.5  C 459.08 247.5  461.5 249.92  461.5 253  C 461.5 256.08  459.08 258.5  456 258.5  C 452.92 258.5  450.5 256.08  450.5 253  C 450.5 249.92  452.92 247.5  456 247.5  Z " stroke-width="1" stroke="#797979" fill="none" />
  <path d="M 456 256  C 454.32 256  453 254.68  453 253  C 453 251.32  454.32 250  456 250  C 457.68 250  459 251.32  459 253  C 459 254.68  457.68 256  456 256  " fill-rule="nonzero" fill="#797979" stroke="none" />
</svg>