<?xml version="1.0" encoding="utf-8"?>
<svg version="1.1" xmlns:xlink="http://www.w3.org/1999/xlink" width="12px" height="12px" viewBox="340 424  12 12" xmlns="http://www.w3.org/2000/svg">
  <path d="M 346 424  C 349.36 424  352 426.64  352 430  C 352 433.36  349.36 436  346 436  C 342.64 436  340 433.36  340 430  C 340 426.64  342.64 424  346 424  Z " fill-rule="nonzero" fill="#f0f0f0" stroke="none" />
  <path d="M 346 424.5  C 349.08 424.5  351.5 426.92  351.5 430  C 351.5 433.08  349.08 435.5  346 435.5  C 342.92 435.5  340.5 433.08  340.5 430  C 340.5 426.92  342.92 424.5  346 424.5  Z " stroke-width="1" stroke="#797979" fill="none" />
  <path d="M 346 433  C 344.32 433  343 431.68  343 430  C 343 428.32  344.32 427  346 427  C 347.68 427  349 428.32  349 430  C 349 431.68  347.68 433  346 433  " fill-rule="nonzero" fill="#797979" stroke="none" />
</svg>