<?xml version="1.0" encoding="utf-8"?>
<svg version="1.1" xmlns:xlink="http://www.w3.org/1999/xlink" width="12px" height="12px" viewBox="340 382  12 12" xmlns="http://www.w3.org/2000/svg">
  <path d="M 346 382  C 349.36 382  352 384.64  352 388  C 352 391.36  349.36 394  346 394  C 342.64 394  340 391.36  340 388  C 340 384.64  342.64 382  346 382  Z " fill-rule="nonzero" fill="#ffffff" stroke="none" />
  <path d="M 346 382.5  C 349.08 382.5  351.5 384.92  351.5 388  C 351.5 391.08  349.08 393.5  346 393.5  C 342.92 393.5  340.5 391.08  340.5 388  C 340.5 384.92  342.92 382.5  346 382.5  Z " stroke-width="1" stroke="#797979" fill="none" />
  <path d="M 346 391  C 344.32 391  343 389.68  343 388  C 343 386.32  344.32 385  346 385  C 347.68 385  349 386.32  349 388  C 349 389.68  347.68 391  346 391  " fill-rule="nonzero" fill="#797979" stroke="none" />
</svg>