<?xml version="1.0" encoding="utf-8"?>
<svg version="1.1" xmlns:xlink="http://www.w3.org/1999/xlink" width="12px" height="12px" viewBox="450 383  12 12" xmlns="http://www.w3.org/2000/svg">
  <path d="M 456 383  C 459.36 383  462 385.64  462 389  C 462 392.36  459.36 395  456 395  C 452.64 395  450 392.36  450 389  C 450 385.64  452.64 383  456 383  Z " fill-rule="nonzero" fill="#f0f0f0" stroke="none" />
  <path d="M 456 383.5  C 459.08 383.5  461.5 385.92  461.5 389  C 461.5 392.08  459.08 394.5  456 394.5  C 452.92 394.5  450.5 392.08  450.5 389  C 450.5 385.92  452.92 383.5  456 383.5  Z " stroke-width="1" stroke="#797979" fill="none" />
  <path d="M 456 392  C 454.32 392  453 390.68  453 389  C 453 387.32  454.32 386  456 386  C 457.68 386  459 387.32  459 389  C 459 390.68  457.68 392  456 392  " fill-rule="nonzero" fill="#797979" stroke="none" />
</svg>