<?xml version="1.0" encoding="utf-8"?>
<svg version="1.1" xmlns:xlink="http://www.w3.org/1999/xlink" width="12px" height="12px" viewBox="550 424  12 12" xmlns="http://www.w3.org/2000/svg">
  <path d="M 556 424  C 559.36 424  562 426.64  562 430  C 562 433.36  559.36 436  556 436  C 552.64 436  550 433.36  550 430  C 550 426.64  552.64 424  556 424  Z " fill-rule="nonzero" fill="#f0f0f0" stroke="none" />
  <path d="M 556 424.5  C 559.08 424.5  561.5 426.92  561.5 430  C 561.5 433.08  559.08 435.5  556 435.5  C 552.92 435.5  550.5 433.08  550.5 430  C 550.5 426.92  552.92 424.5  556 424.5  Z " stroke-width="1" stroke="#797979" fill="none" />
  <path d="M 556 433  C 554.32 433  553 431.68  553 430  C 553 428.32  554.32 427  556 427  C 557.68 427  559 428.32  559 430  C 559 431.68  557.68 433  556 433  " fill-rule="nonzero" fill="#797979" stroke="none" />
</svg>