<?xml version="1.0" encoding="utf-8"?>
<svg version="1.1" xmlns:xlink="http://www.w3.org/1999/xlink" width="40px" height="30px" xmlns="http://www.w3.org/2000/svg">
  <g transform="matrix(1 0 0 1 -267 -111 )">
    <path d="M 26.46875 16.1612215909091  C 26.6006944444445 16.0262784090909  26.6666666666667 15.8664772727273  26.6666666666667 15.6818181818182  C 26.6666666666667 15.4829545454545  26.6041666666667 15.3196022727273  26.4791666666667 15.1917613636364  L 19.1458333333333 7.69176136363637  C 19.0208333333333 7.56392045454545  18.8611111111111 7.5  18.6666666666667 7.5  C 18.4722222222222 7.5  18.3125 7.56392045454545  18.1875 7.69176136363637  L 10.875 15.1704545454545  C 10.7361111111111 15.3409090909091  10.6666666666667 15.5113636363636  10.6666666666667 15.6818181818182  C 10.6666666666667 15.8806818181818  10.7291666666667 16.0440340909091  10.8541666666667 16.171875  C 10.9791666666667 16.2997159090909  11.1388888888889 16.3636363636364  11.3333333333333 16.3636363636364  L 16 16.3636363636364  L 16 23.8636363636364  C 16 24.0482954545455  16.0659722222222 24.2080965909091  16.1979166666667 24.3430397727273  C 16.3298611111111 24.4779829545455  16.4861111111111 24.5454545454545  16.6666666666667 24.5454545454545  L 20.6666666666667 24.5454545454545  C 20.8472222222222 24.5454545454545  21.0034722222222 24.4779829545455  21.1354166666667 24.3430397727273  C 21.2673611111111 24.2080965909091  21.3333333333333 24.0482954545455  21.3333333333333 23.8636363636364  L 21.3333333333333 16.3636363636364  L 26 16.3636363636364  C 26.1805555555555 16.3636363636364  26.3368055555555 16.2961647727273  26.46875 16.1612215909091  Z M 38.2604166666667 16.7365056818182  C 39.4201388888889 18.2208806818182  40 19.9147727272727  40 21.8181818181818  C 40 24.0767045454545  39.21875 26.0049715909091  37.65625 27.6029829545455  C 36.09375 29.2009943181818  34.2083333333333 30  32 30  L 9.33333333333331 30  C 6.76388888888891 30  4.56597222222223 29.0660511363636  2.73958333333331 27.1981534090909  C 0.913194444444457 25.3302556818182  0 23.0823863636364  0 20.4545454545455  C 0 18.6079545454545  0.486111111111114 16.9034090909091  1.45833333333334 15.3409090909091  C 2.43055555555554 13.7784090909091  3.73611111111109 12.6065340909091  5.375 11.8252840909091  C 5.34722222222223 11.3991477272727  5.33333333333331 11.09375  5.33333333333331 10.9090909090909  C 5.33333333333331 7.89772727272727  6.375 5.32670454545455  8.45833333333331 3.19602272727272  C 10.5416666666667 1.06534090909091  13.0555555555555 0  16 0  C 18.1666666666667 0  20.1493055555555 0.61789772727272  21.9479166666667 1.85369318181819  C 23.7465277777778 3.08948863636363  25.0555555555555 4.73011363636363  25.875 6.77556818181819  C 26.8611111111111 5.89488636363636  28.0138888888889 5.45454545454545  29.3333333333333 5.45454545454545  C 30.8055555555555 5.45454545454545  32.0625 5.98721590909091  33.1041666666667 7.05255681818181  C 34.1458333333333 8.11789772727272  34.6666666666667 9.40340909090909  34.6666666666667 10.9090909090909  C 34.6666666666667 11.9886363636364  34.3819444444445 12.96875  33.8125 13.8494318181818  C 35.6180555555555 14.2897727272727  37.1006944444445 15.2521306818182  38.2604166666667 16.7365056818182  Z " fill-rule="nonzero" fill="#333333" stroke="none" transform="matrix(1 0 0 1 267 111 )" />
  </g>
</svg>