<?xml version="1.0" encoding="utf-8"?>
<svg version="1.1" xmlns:xlink="http://www.w3.org/1999/xlink" width="12px" height="12px" viewBox="100 2  12 12" xmlns="http://www.w3.org/2000/svg">
  <path d="M 106 2  C 109.36 2  112 4.64  112 8  C 112 11.36  109.36 14  106 14  C 102.64 14  100 11.36  100 8  C 100 4.64  102.64 2  106 2  Z " fill-rule="nonzero" fill="#ffffff" stroke="none" />
  <path d="M 106 2.5  C 109.08 2.5  111.5 4.92  111.5 8  C 111.5 11.08  109.08 13.5  106 13.5  C 102.92 13.5  100.5 11.08  100.5 8  C 100.5 4.92  102.92 2.5  106 2.5  Z " stroke-width="1" stroke="#666666" fill="none" />
  <path d="M 106 11  C 104.32 11  103 9.68  103 8  C 103 6.32  104.32 5  106 5  C 107.68 5  109 6.32  109 8  C 109 9.68  107.68 11  106 11  " fill-rule="nonzero" fill="#666666" stroke="none" />
</svg>