<?xml version="1.0" encoding="utf-8"?>
<svg version="1.1" xmlns:xlink="http://www.w3.org/1999/xlink" width="12px" height="12px" viewBox="606 355  12 12" xmlns="http://www.w3.org/2000/svg">
  <path d="M 612 355  C 615.36 355  618 357.64  618 361  C 618 364.36  615.36 367  612 367  C 608.64 367  606 364.36  606 361  C 606 357.64  608.64 355  612 355  Z " fill-rule="nonzero" fill="#ffffff" stroke="none" />
  <path d="M 612 355.5  C 615.08 355.5  617.5 357.92  617.5 361  C 617.5 364.08  615.08 366.5  612 366.5  C 608.92 366.5  606.5 364.08  606.5 361  C 606.5 357.92  608.92 355.5  612 355.5  Z " stroke-width="1" stroke="#797979" fill="none" />
  <path d="M 612 364  C 610.32 364  609 362.68  609 361  C 609 359.32  610.32 358  612 358  C 613.68 358  615 359.32  615 361  C 615 362.68  613.68 364  612 364  " fill-rule="nonzero" fill="#797979" stroke="none" />
</svg>