<?xml version="1.0" encoding="utf-8"?>
<svg version="1.1" xmlns:xlink="http://www.w3.org/1999/xlink" width="12px" height="12px" viewBox="200 355  12 12" xmlns="http://www.w3.org/2000/svg">
  <path d="M 206 355  C 209.36 355  212 357.64  212 361  C 212 364.36  209.36 367  206 367  C 202.64 367  200 364.36  200 361  C 200 357.64  202.64 355  206 355  Z " fill-rule="nonzero" fill="#ffffff" stroke="none" />
  <path d="M 206 355.5  C 209.08 355.5  211.5 357.92  211.5 361  C 211.5 364.08  209.08 366.5  206 366.5  C 202.92 366.5  200.5 364.08  200.5 361  C 200.5 357.92  202.92 355.5  206 355.5  Z " stroke-width="1" stroke="#797979" fill="none" />
  <path d="M 206 364  C 204.32 364  203 362.68  203 361  C 203 359.32  204.32 358  206 358  C 207.68 358  209 359.32  209 361  C 209 362.68  207.68 364  206 364  " fill-rule="nonzero" fill="#797979" stroke="none" />
</svg>