<?xml version="1.0" encoding="utf-8"?>
<svg version="1.1" xmlns:xlink="http://www.w3.org/1999/xlink" width="12px" height="12px" viewBox="405 571  12 12" xmlns="http://www.w3.org/2000/svg">
  <path d="M 411 571  C 414.36 571  417 573.64  417 577  C 417 580.36  414.36 583  411 583  C 407.64 583  405 580.36  405 577  C 405 573.64  407.64 571  411 571  Z " fill-rule="nonzero" fill="#ffffff" stroke="none" />
  <path d="M 411 571.5  C 414.08 571.5  416.5 573.92  416.5 577  C 416.5 580.08  414.08 582.5  411 582.5  C 407.92 582.5  405.5 580.08  405.5 577  C 405.5 573.92  407.92 571.5  411 571.5  Z " stroke-width="1" stroke="#797979" fill="none" />
  <path d="M 411 580  C 409.32 580  408 578.68  408 577  C 408 575.32  409.32 574  411 574  C 412.68 574  414 575.32  414 577  C 414 578.68  412.68 580  411 580  " fill-rule="nonzero" fill="#797979" stroke="none" />
</svg>