<?xml version="1.0" encoding="utf-8"?>
<svg version="1.1" xmlns:xlink="http://www.w3.org/1999/xlink" width="12px" height="12px" viewBox="606 571  12 12" xmlns="http://www.w3.org/2000/svg">
  <path d="M 612 571  C 615.36 571  618 573.64  618 577  C 618 580.36  615.36 583  612 583  C 608.64 583  606 580.36  606 577  C 606 573.64  608.64 571  612 571  Z " fill-rule="nonzero" fill="#ffffff" stroke="none" />
  <path d="M 612 571.5  C 615.08 571.5  617.5 573.92  617.5 577  C 617.5 580.08  615.08 582.5  612 582.5  C 608.92 582.5  606.5 580.08  606.5 577  C 606.5 573.92  608.92 571.5  612 571.5  Z " stroke-width="1" stroke="#797979" fill="none" />
  <path d="M 612 580  C 610.32 580  609 578.68  609 577  C 609 575.32  610.32 574  612 574  C 613.68 574  615 575.32  615 577  C 615 578.68  613.68 580  612 580  " fill-rule="nonzero" fill="#797979" stroke="none" />
</svg>