<?xml version="1.0" encoding="utf-8"?>
<svg version="1.1" xmlns:xlink="http://www.w3.org/1999/xlink" width="20px" height="18px" xmlns="http://www.w3.org/2000/svg">
  <g transform="matrix(1 0 0 1 -13 -522 )">
    <path d="M 5.10638297872339 6.42857142857142  C 5.10638297872339 7.359375  5.375664893617 8.21651785714286  5.91422872340428 9  C 4.83710106382978 9.03348214285714  3.95611702127661 9.46205357142856  3.27127659574467 10.2857142857143  L 1.93484042553189 10.2857142857143  C 1.38962765957444 10.2857142857143  0.930851063829778 10.1501116071429  0.558510638297889 9.87890625  C 0.186170212765944 9.60770089285714  0 9.2109375  0 8.68861607142858  C 0 6.32477678571428  0.412234042553166 5.14285714285714  1.23670212765956 5.14285714285714  C 1.27659574468083 5.14285714285714  1.421210106383 5.21316964285714  1.67054521276594 5.35379464285714  C 1.91988031914894 5.49441964285714  2.24401595744683 5.63671875  2.64295212765956 5.78069196428572  C 3.04188829787233 5.92466517857142  3.4375 5.99665178571428  3.82978723404256 5.99665178571428  C 4.27526595744683 5.99665178571428  4.71742021276594 5.91964285714286  5.15625 5.765625  C 5.12300531914894 6.01339285714286  5.10638297872339 6.234375  5.10638297872339 6.42857142857142  Z M 16.5608377659574 14.3588169642857  C 16.5841090425532 14.6969866071429  16.5957446808511 15.0435267857143  16.5957446808511 15.3984375  C 16.5957446808511 16.2020089285714  16.3530585106383 16.8364955357143  15.8676861702128 17.3018973214286  C 15.3823138297872 17.7672991071429  14.7373670212766 18  13.9328457446809 18  L 5.21609042553195 18  C 4.41156914893617 18  3.76662234042556 17.7672991071429  3.28125 17.3018973214286  C 2.79587765957444 16.8364955357143  2.55319148936172 16.2020089285714  2.55319148936172 15.3984375  C 2.55319148936172 15.0435267857143  2.56482712765956 14.6969866071429  2.58809840425533 14.3588169642857  C 2.61136968085106 14.0206473214286  2.65791223404256 13.6556919642857  2.72772606382978 13.2639508928571  C 2.797539893617 12.8722098214286  2.88563829787233 12.5089285714286  2.99202127659572 12.1741071428571  C 3.09840425531917 11.8392857142857  3.24135638297872 11.5128348214286  3.42087765957444 11.1947544642857  C 3.60039893617022 10.8766741071429  3.80651595744683 10.60546875  4.03922872340428 10.3811383928571  C 4.27194148936172 10.1568080357143  4.55618351063828 9.97767857142858  4.89195478723406 9.84375  C 5.22772606382978 9.70982142857142  5.59840425531917 9.64285714285714  6.00398936170211 9.64285714285714  C 6.07047872340428 9.64285714285714  6.21343085106383 9.71484375  6.43284574468083 9.85881696428572  C 6.65226063829789 10.0027901785714  6.89494680851067 10.1635044642857  7.16090425531917 10.3409598214286  C 7.42686170212767 10.5184151785714  7.78257978723406 10.6791294642857  8.22805851063828 10.8231026785714  C 8.67353723404256 10.9670758928571  9.12234042553195 11.0390625  9.57446808510639 11.0390625  C 10.0265957446808 11.0390625  10.4753989361702 10.9670758928571  10.9208776595745 10.8231026785714  C 11.3663563829787 10.6791294642857  11.7220744680851 10.5184151785714  11.9880319148936 10.3409598214286  C 12.2539893617021 10.1635044642857  12.4966755319149 10.0027901785714  12.7160904255319 9.85881696428572  C 12.9355053191489 9.71484375  13.0784574468085 9.64285714285714  13.1449468085107 9.64285714285714  C 13.5505319148936 9.64285714285714  13.921210106383 9.70982142857142  14.2569813829787 9.84375  C 14.5927526595745 9.97767857142858  14.8769946808511 10.1568080357143  15.1097074468085 10.3811383928571  C 15.3424202127659 10.60546875  15.5485372340426 10.8766741071429  15.7280585106383 11.1947544642857  C 15.9075797872341 11.5128348214286  16.0505319148936 11.8392857142857  16.1569148936171 12.1741071428571  C 16.2632978723404 12.5089285714286  16.3513962765958 12.8722098214286  16.421210106383 13.2639508928571  C 16.4910239361702 13.6556919642857  16.5375664893617 14.0206473214286  16.5608377659574 14.3588169642857  Z M 5.63497340425533 0.753348214285722  C 6.13364361702128 1.25558035714286  6.38297872340428 1.86160714285714  6.38297872340428 2.57142857142858  C 6.38297872340428 3.28125  6.13364361702128 3.88727678571428  5.63497340425533 4.38950892857142  C 5.13630319148939 4.89174107142858  4.53457446808511 5.14285714285714  3.82978723404256 5.14285714285714  C 3.125 5.14285714285714  2.52327127659572 4.89174107142858  2.02460106382978 4.38950892857142  C 1.52593085106383 3.88727678571428  1.27659574468083 3.28125  1.27659574468083 2.57142857142858  C 1.27659574468083 1.86160714285714  1.52593085106383 1.25558035714286  2.02460106382978 0.753348214285722  C 2.52327127659572 0.251116071428584  3.125 0  3.82978723404256 0  C 4.53457446808511 0  5.13630319148939 0.251116071428584  5.63497340425533 0.753348214285722  Z M 12.2822473404256 3.70145089285714  C 13.0302526595745 4.45479910714286  13.4042553191489 5.36383928571428  13.4042553191489 6.42857142857142  C 13.4042553191489 7.49330357142858  13.0302526595745 8.40234375  12.2822473404256 9.15569196428572  C 11.5342420212766 9.90904017857144  10.6316489361702 10.2857142857143  9.57446808510639 10.2857142857143  C 8.51728723404256 10.2857142857143  7.61469414893617 9.90904017857144  6.86668882978722 9.15569196428572  C 6.11868351063828 8.40234375  5.74468085106383 7.49330357142858  5.74468085106383 6.42857142857142  C 5.74468085106383 5.36383928571428  6.11868351063828 4.45479910714286  6.86668882978722 3.70145089285714  C 7.61469414893617 2.94810267857142  8.51728723404256 2.57142857142858  9.57446808510639 2.57142857142858  C 10.6316489361702 2.57142857142858  11.5342420212766 2.94810267857142  12.2822473404256 3.70145089285714  Z M 17.9122340425532 5.14285714285714  C 18.7367021276596 5.14285714285714  19.1489361702128 6.32477678571428  19.1489361702128 8.68861607142858  C 19.1489361702128 9.2109375  18.9627659574468 9.60770089285714  18.5904255319149 9.87890625  C 18.218085106383 10.1501116071429  17.7593085106383 10.2857142857143  17.2140957446809 10.2857142857143  L 15.8776595744681 10.2857142857143  C 15.1928191489362 9.46205357142856  14.311835106383 9.03348214285714  13.2347074468085 9  C 13.7732712765958 8.21651785714286  14.0425531914894 7.359375  14.0425531914894 6.42857142857142  C 14.0425531914894 6.234375  14.0259308510638 6.01339285714286  13.9926861702128 5.765625  C 14.4315159574468 5.91964285714286  14.8736702127659 5.99665178571428  15.3191489361702 5.99665178571428  C 15.7114361702128 5.99665178571428  16.1070478723404 5.92466517857142  16.5059840425532 5.78069196428572  C 16.9049202127659 5.63671875  17.2290558510638 5.49441964285714  17.4783909574468 5.35379464285714  C 17.7277260638298 5.21316964285714  17.8723404255319 5.14285714285714  17.9122340425532 5.14285714285714  Z M 17.124335106383 0.753348214285722  C 17.6230053191489 1.25558035714286  17.8723404255319 1.86160714285714  17.8723404255319 2.57142857142858  C 17.8723404255319 3.28125  17.6230053191489 3.88727678571428  17.124335106383 4.38950892857142  C 16.6256648936171 4.89174107142858  16.0239361702128 5.14285714285714  15.3191489361702 5.14285714285714  C 14.6143617021277 5.14285714285714  14.0126329787234 4.89174107142858  13.5139627659574 4.38950892857142  C 13.0152925531915 3.88727678571428  12.7659574468085 3.28125  12.7659574468085 2.57142857142858  C 12.7659574468085 1.86160714285714  13.0152925531915 1.25558035714286  13.5139627659574 0.753348214285722  C 14.0126329787234 0.251116071428584  14.6143617021277 0  15.3191489361702 0  C 16.0239361702128 0  16.6256648936171 0.251116071428584  17.124335106383 0.753348214285722  Z " fill-rule="nonzero" fill="#000000" stroke="none" transform="matrix(1 0 0 1 13 522 )" />
  </g>
</svg>