<?xml version="1.0" encoding="utf-8"?>
<svg version="1.1" xmlns:xlink="http://www.w3.org/1999/xlink" width="80px" height="80px" xmlns="http://www.w3.org/2000/svg">
  <defs>
    <mask fill="white" id="clip12">
      <path d="M 60 99.5  C 38.0775 99.5  20.5 81.9225  20.5 60  L 20.5 60  C 20.5 38.0775  38.0775 20.5  60 20.5  L 60 20.5  C 81.9225 20.5  99.5 38.0775  99.5 60  L 99.5 60  C 99.5 81.9225  81.9225 99.5  60 99.5  L 60 99.5  " fill-rule="evenodd" />
    </mask>
  </defs>
  <g transform="matrix(1 0 0 1 -20 -20 )">
    <path d="M 20 20  L 100 20  L 100 100  L 20 100  L 20 20  " fill-rule="nonzero" fill="#cccccc" stroke="none" mask="url(#clip12)" />
    <path d="M 26 26  L 94 26  L 94 94  L 26 94  L 26 26  " fill-rule="nonzero" fill="#ffffff" stroke="none" mask="url(#clip12)" />
    <path d="M 67.6 44  C 64.24 44  61.6 41.36  61.6 38  C 61.6 34.64  64.24 32  67.6 32  C 70.96 32  73.6 34.64  73.6 38  C 73.6 41.36  70.96 44  67.6 44  " fill-rule="nonzero" fill="#cccccc" stroke="none" mask="url(#clip12)" />
    <path d="M 28 92  L 28 56.8  L 44 40.8  L 66.4 53.6  L 79.2 50.4  L 92 53.6  L 92 92  L 28 92  " fill-rule="nonzero" fill="#169bd5" stroke="none" mask="url(#clip12)" />
    <path d="M 60 99.5  C 38.0775 99.5  20.5 81.9225  20.5 60  L 20.5 60  C 20.5 38.0775  38.0775 20.5  60 20.5  L 60 20.5  C 81.9225 20.5  99.5 38.0775  99.5 60  L 99.5 60  C 99.5 81.9225  81.9225 99.5  60 99.5  L 60 99.5  Z " stroke-width="1" stroke="#666666" fill="none" />
  </g>
</svg>