<?xml version="1.0" encoding="utf-8"?>
<svg version="1.1" xmlns:xlink="http://www.w3.org/1999/xlink" width="20px" height="19px" xmlns="http://www.w3.org/2000/svg">
  <g transform="matrix(1 0 0 1 -129 -80 )">
    <path d="M 5.3333333333333 6.71428571428574  C 5.3333333333333 7.68645833333335  5.6145833333333 8.58169642857142  6.1770833333333 9.40000000000001  C 5.0520833333333 9.43497023809523  4.13194444444443 9.88258928571426  3.4166666666667 10.7428571428572  L 2.0208333333333 10.7428571428572  C 1.45138888888887 10.7428571428572  0.972222222222257 10.6012276785714  0.5833333333333 10.31796875  C 0.194444444444429 10.0347098214286  0 9.6203125  0 9.07477678571426  C 0 6.60587797619046  0.430555555555571 5.37142857142858  1.2916666666667 5.37142857142858  C 1.3333333333333 5.37142857142858  1.484375 5.44486607142858  1.7447916666667 5.59174107142857  C 2.0052083333333 5.73861607142858  2.34375 5.88723958333335  2.7604166666667 6.03761160714285  C 3.1770833333333 6.18798363095239  3.59027777777774 6.26316964285715  4 6.26316964285715  C 4.46527777777774 6.26316964285715  4.9270833333333 6.18273809523808  5.3854166666667 6.02187499999999  C 5.35069444444443 6.28065476190477  5.3333333333333 6.51145833333335  5.3333333333333 6.71428571428574  Z M 17.296875 14.9969866071428  C 17.3211805555556 15.3501860119048  17.3333333333333 15.7121279761905  17.3333333333333 16.0828125  C 17.3333333333333 16.9220982142857  17.0798611111111 17.5847842261905  16.5729166666667 18.0708705357143  C 16.0659722222223 18.5569568452381  15.3923611111111 18.8  14.5520833333333 18.8  L 5.4479166666667 18.8  C 4.60763888888887 18.8  3.93402777777774 18.5569568452381  3.4270833333333 18.0708705357143  C 2.92013888888887 17.5847842261905  2.6666666666667 16.9220982142857  2.6666666666667 16.0828125  C 2.6666666666667 15.7121279761905  2.67881944444443 15.3501860119048  2.703125 14.9969866071428  C 2.72743055555557 14.643787202381  2.7760416666667 14.2626116071428  2.8489583333333 13.8534598214286  C 2.921875 13.4443080357143  3.01388888888887 13.064880952381  3.125 12.7151785714286  C 3.23611111111113 12.3654761904762  3.3854166666667 12.0245163690476  3.5729166666667 11.6922991071428  C 3.7604166666667 11.3600818452381  3.97569444444443 11.0768229166667  4.21875 10.8425223214286  C 4.46180555555557 10.6082217261905  4.75868055555557 10.421130952381  5.109375 10.28125  C 5.46006944444443 10.141369047619  5.84722222222226 10.0714285714286  6.2708333333333 10.0714285714286  C 6.34027777777774 10.0714285714286  6.4895833333333 10.1466145833333  6.71875 10.2969866071428  C 6.9479166666667 10.4473586309524  7.20138888888887 10.6152157738095  7.4791666666667 10.8005580357143  C 7.75694444444443 10.985900297619  8.12847222222226 11.1537574404762  8.59375 11.3041294642857  C 9.05902777777774 11.4545014880952  9.52777777777774 11.5296875  10 11.5296875  C 10.4722222222223 11.5296875  10.9409722222223 11.4545014880952  11.40625 11.3041294642857  C 11.8715277777777 11.1537574404762  12.2430555555556 10.985900297619  12.5208333333333 10.8005580357143  C 12.7986111111111 10.6152157738095  13.0520833333333 10.4473586309524  13.28125 10.2969866071428  C 13.5104166666667 10.1466145833333  13.6597222222223 10.0714285714286  13.7291666666667 10.0714285714286  C 14.1527777777777 10.0714285714286  14.5399305555556 10.141369047619  14.890625 10.28125  C 15.2413194444444 10.421130952381  15.5381944444444 10.6082217261905  15.78125 10.8425223214286  C 16.0243055555556 11.0768229166667  16.2395833333333 11.3600818452381  16.4270833333333 11.6922991071428  C 16.6145833333333 12.0245163690476  16.7638888888889 12.3654761904762  16.875 12.7151785714286  C 16.9861111111111 13.064880952381  17.078125 13.4443080357143  17.1510416666667 13.8534598214286  C 17.2239583333333 14.2626116071428  17.2725694444444 14.643787202381  17.296875 14.9969866071428  Z M 5.8854166666667 0.786830357142847  C 6.40625 1.31138392857142  6.6666666666667 1.94434523809522  6.6666666666667 2.68571428571427  C 6.6666666666667 3.42708333333334  6.40625 4.06004464285715  5.8854166666667 4.58459821428573  C 5.3645833333333 5.10915178571426  4.73611111111113 5.37142857142858  4 5.37142857142858  C 3.26388888888887 5.37142857142858  2.6354166666667 5.10915178571426  2.1145833333333 4.58459821428573  C 1.59375 4.06004464285715  1.3333333333333 3.42708333333334  1.3333333333333 2.68571428571427  C 1.3333333333333 1.94434523809522  1.59375 1.31138392857142  2.1145833333333 0.786830357142847  C 2.6354166666667 0.262276785714263  3.26388888888887 0  4 0  C 4.73611111111113 0  5.3645833333333 0.262276785714263  5.8854166666667 0.786830357142847  Z M 12.828125 3.86595982142858  C 13.609375 4.65279017857142  14 5.60223214285716  14 6.71428571428574  C 14 7.82633928571427  13.609375 8.77578124999999  12.828125 9.56261160714284  C 12.046875 10.3494419642857  11.1041666666667 10.7428571428572  10 10.7428571428572  C 8.8958333333333 10.7428571428572  7.953125 10.3494419642857  7.171875 9.56261160714284  C 6.390625 8.77578124999999  6 7.82633928571427  6 6.71428571428574  C 6 5.60223214285716  6.390625 4.65279017857142  7.171875 3.86595982142858  C 7.953125 3.07912946428573  8.8958333333333 2.68571428571427  10 2.68571428571427  C 11.1041666666667 2.68571428571427  12.046875 3.07912946428573  12.828125 3.86595982142858  Z M 18.7083333333333 5.37142857142858  C 19.5694444444444 5.37142857142858  20 6.60587797619046  20 9.07477678571426  C 20 9.6203125  19.8055555555556 10.0347098214286  19.4166666666667 10.31796875  C 19.0277777777777 10.6012276785714  18.5486111111111 10.7428571428572  17.9791666666667 10.7428571428572  L 16.5833333333333 10.7428571428572  C 15.8680555555556 9.88258928571426  14.9479166666667 9.43497023809523  13.8229166666667 9.40000000000001  C 14.3854166666667 8.58169642857142  14.6666666666667 7.68645833333335  14.6666666666667 6.71428571428574  C 14.6666666666667 6.51145833333335  14.6493055555556 6.28065476190477  14.6145833333333 6.02187499999999  C 15.0729166666667 6.18273809523808  15.5347222222223 6.26316964285715  16 6.26316964285715  C 16.4097222222223 6.26316964285715  16.8229166666667 6.18798363095239  17.2395833333333 6.03761160714285  C 17.65625 5.88723958333335  17.9947916666667 5.73861607142858  18.2552083333333 5.59174107142857  C 18.515625 5.44486607142858  18.6666666666667 5.37142857142858  18.7083333333333 5.37142857142858  Z M 17.8854166666667 0.786830357142847  C 18.40625 1.31138392857142  18.6666666666667 1.94434523809522  18.6666666666667 2.68571428571427  C 18.6666666666667 3.42708333333334  18.40625 4.06004464285715  17.8854166666667 4.58459821428573  C 17.3645833333333 5.10915178571426  16.7361111111111 5.37142857142858  16 5.37142857142858  C 15.2638888888889 5.37142857142858  14.6354166666667 5.10915178571426  14.1145833333333 4.58459821428573  C 13.59375 4.06004464285715  13.3333333333333 3.42708333333334  13.3333333333333 2.68571428571427  C 13.3333333333333 1.94434523809522  13.59375 1.31138392857142  14.1145833333333 0.786830357142847  C 14.6354166666667 0.262276785714263  15.2638888888889 0  16 0  C 16.7361111111111 0  17.3645833333333 0.262276785714263  17.8854166666667 0.786830357142847  Z " fill-rule="nonzero" fill="#999999" stroke="none" transform="matrix(1 0 0 1 129 80 )" />
  </g>
</svg>