<?xml version="1.0" encoding="utf-8"?>
<svg version="1.1" xmlns:xlink="http://www.w3.org/1999/xlink" width="15px" height="15px" xmlns="http://www.w3.org/2000/svg">
  <g transform="matrix(1 0 0 1 -168 -187 )">
    <path d="M 9.19921875 9.19921875  C 9.98948317307691 8.40895432692304  10.3846153846152 7.45793269230768  10.3846153846152 6.34615384615385  C 10.3846153846152 5.23437500000001  9.98948317307691 4.28335336538458  9.19921875 3.49308894230772  C 8.40895432692309 2.70282451923077  7.45793269230762 2.30769230769228  6.34615384615381 2.30769230769228  C 5.234375 2.30769230769228  4.28335336538476 2.70282451923077  3.49308894230785 3.49308894230772  C 2.70282451923072 4.28335336538458  2.30769230769215 5.23437500000001  2.30769230769215 6.34615384615385  C 2.30769230769215 7.45793269230768  2.70282451923072 8.40895432692304  3.49308894230785 9.19921875  C 4.28335336538476 9.98948317307696  5.234375 10.3846153846154  6.34615384615381 10.3846153846154  C 7.45793269230762 10.3846153846154  8.40895432692309 9.98948317307696  9.19921875 9.19921875  Z M 14.6664663461538 13.0348557692308  C 14.8888221153848 13.2572115384615  15 13.5276442307692  15 13.8461538461539  C 15 14.1586538461538  14.8858173076924 14.4290865384615  14.6574519230769 14.6574519230769  C 14.4290865384614 14.8858173076923  14.1586538461538 15  13.8461538461538 15  C 13.5216346153848 15  13.2512019230769 14.8858173076923  13.0348557692309 14.6574519230769  L 9.94290865384619 11.5745192307692  C 8.8671875 12.3197115384615  7.66826923076928 12.6923076923077  6.34615384615381 12.6923076923077  C 5.48677884615381 12.6923076923077  4.66496394230785 12.5255408653846  3.88070913461524 12.1920072115384  C 3.09645432692309 11.8584735576923  2.42037259615381 11.4077524038461  1.85246394230785 10.83984375  C 1.28455528846166 10.2719350961539  0.833834134615245 9.59585336538464  0.500300480769056 8.81159855769228  C 0.166766826923094 8.02734375  0 7.20552884615384  0 6.34615384615385  C 0 5.48677884615381  0.166766826923094 4.66496394230772  0.500300480769056 3.88070913461536  C 0.833834134615245 3.09645432692307  1.28455528846166 2.42037259615385  1.85246394230785 1.85246394230772  C 2.42037259615381 1.28455528846158  3.09645432692309 0.833834134615358  3.88070913461524 0.500300480769226  C 4.66496394230785 0.166766826923066  5.48677884615381 0  6.34615384615381 0  C 7.20552884615381 0  8.02734375 0.166766826923066  8.81159855769215 0.500300480769226  C 9.59585336538476 0.833834134615358  10.2719350961538 1.28455528846158  10.83984375 1.85246394230772  C 11.4077524038462 2.42037259615385  11.8584735576922 3.09645432692307  12.1920072115383 3.88070913461536  C 12.5255408653848 4.66496394230772  12.6923076923078 5.48677884615381  12.6923076923078 6.34615384615385  C 12.6923076923078 7.66826923076923  12.3197115384614 8.86718750000001  11.5745192307691 9.94290865384615  L 14.6664663461538 13.0348557692308  Z " fill-rule="nonzero" fill="#cccccc" stroke="none" transform="matrix(1 0 0 1 168 187 )" />
  </g>
</svg>