<?xml version="1.0" encoding="utf-8"?>
<svg version="1.1" xmlns:xlink="http://www.w3.org/1999/xlink" width="12px" height="12px" viewBox="335 621.5  12 12" xmlns="http://www.w3.org/2000/svg">
  <path d="M 341 621.5  C 344.36 621.5  347 624.14  347 627.5  C 347 630.86  344.36 633.5  341 633.5  C 337.64 633.5  335 630.86  335 627.5  C 335 624.14  337.64 621.5  341 621.5  Z " fill-rule="nonzero" fill="#ffffff" stroke="none" />
  <path d="M 341 622  C 344.08 622  346.5 624.42  346.5 627.5  C 346.5 630.58  344.08 633  341 633  C 337.92 633  335.5 630.58  335.5 627.5  C 335.5 624.42  337.92 622  341 622  Z " stroke-width="1" stroke="#797979" fill="none" />
  <path d="M 341 630.5  C 339.32 630.5  338 629.18  338 627.5  C 338 625.82  339.32 624.5  341 624.5  C 342.68 624.5  344 625.82  344 627.5  C 344 629.18  342.68 630.5  341 630.5  " fill-rule="nonzero" fill="#797979" stroke="none" />
</svg>