<?xml version="1.0" encoding="utf-8"?>
<svg version="1.1" xmlns:xlink="http://www.w3.org/1999/xlink" width="12px" height="12px" viewBox="335 623  12 12" xmlns="http://www.w3.org/2000/svg">
  <path d="M 341 623  C 344.36 623  347 625.64  347 629  C 347 632.36  344.36 635  341 635  C 337.64 635  335 632.36  335 629  C 335 625.64  337.64 623  341 623  Z " fill-rule="nonzero" fill="#ffffff" stroke="none" />
  <path d="M 341 623.5  C 344.08 623.5  346.5 625.92  346.5 629  C 346.5 632.08  344.08 634.5  341 634.5  C 337.92 634.5  335.5 632.08  335.5 629  C 335.5 625.92  337.92 623.5  341 623.5  Z " stroke-width="1" stroke="#797979" fill="none" />
  <path d="M 341 632  C 339.32 632  338 630.68  338 629  C 338 627.32  339.32 626  341 626  C 342.68 626  344 627.32  344 629  C 344 630.68  342.68 632  341 632  " fill-rule="nonzero" fill="#797979" stroke="none" />
</svg>