<?xml version="1.0" encoding="utf-8"?>
<svg version="1.1" xmlns:xlink="http://www.w3.org/1999/xlink" width="12px" height="12px" viewBox="501 623  12 12" xmlns="http://www.w3.org/2000/svg">
  <path d="M 507 623  C 510.36 623  513 625.64  513 629  C 513 632.36  510.36 635  507 635  C 503.64 635  501 632.36  501 629  C 501 625.64  503.64 623  507 623  Z " fill-rule="nonzero" fill="#ffffff" stroke="none" />
  <path d="M 507 623.5  C 510.08 623.5  512.5 625.92  512.5 629  C 512.5 632.08  510.08 634.5  507 634.5  C 503.92 634.5  501.5 632.08  501.5 629  C 501.5 625.92  503.92 623.5  507 623.5  Z " stroke-width="1" stroke="#797979" fill="none" />
  <path d="M 507 632  C 505.32 632  504 630.68  504 629  C 504 627.32  505.32 626  507 626  C 508.68 626  510 627.32  510 629  C 510 630.68  508.68 632  507 632  " fill-rule="nonzero" fill="#797979" stroke="none" />
</svg>