<?xml version="1.0" encoding="utf-8"?>
<svg version="1.1" xmlns:xlink="http://www.w3.org/1999/xlink" width="12px" height="12px" viewBox="501 621.5  12 12" xmlns="http://www.w3.org/2000/svg">
  <path d="M 507 621.5  C 510.36 621.5  513 624.14  513 627.5  C 513 630.86  510.36 633.5  507 633.5  C 503.64 633.5  501 630.86  501 627.5  C 501 624.14  503.64 621.5  507 621.5  Z " fill-rule="nonzero" fill="#f0f0f0" stroke="none" />
  <path d="M 507 622  C 510.08 622  512.5 624.42  512.5 627.5  C 512.5 630.58  510.08 633  507 633  C 503.92 633  501.5 630.58  501.5 627.5  C 501.5 624.42  503.92 622  507 622  Z " stroke-width="1" stroke="#797979" fill="none" />
  <path d="M 507 630.5  C 505.32 630.5  504 629.18  504 627.5  C 504 625.82  505.32 624.5  507 624.5  C 508.68 624.5  510 625.82  510 627.5  C 510 629.18  508.68 630.5  507 630.5  " fill-rule="nonzero" fill="#797979" stroke="none" />
</svg>