<?xml version="1.0" encoding="utf-8"?>
<svg version="1.1" xmlns:xlink="http://www.w3.org/1999/xlink" width="12px" height="12px" viewBox="501 793.5  12 12" xmlns="http://www.w3.org/2000/svg">
  <path d="M 507 793.5  C 510.36 793.5  513 796.14  513 799.5  C 513 802.86  510.36 805.5  507 805.5  C 503.64 805.5  501 802.86  501 799.5  C 501 796.14  503.64 793.5  507 793.5  Z " fill-rule="nonzero" fill="#f0f0f0" stroke="none" />
  <path d="M 507 794  C 510.08 794  512.5 796.42  512.5 799.5  C 512.5 802.58  510.08 805  507 805  C 503.92 805  501.5 802.58  501.5 799.5  C 501.5 796.42  503.92 794  507 794  Z " stroke-width="1" stroke="#797979" fill="none" />
  <path d="M 507 802.5  C 505.32 802.5  504 801.18  504 799.5  C 504 797.82  505.32 796.5  507 796.5  C 508.68 796.5  510 797.82  510 799.5  C 510 801.18  508.68 802.5  507 802.5  " fill-rule="nonzero" fill="#797979" stroke="none" />
</svg>