<?xml version="1.0" encoding="utf-8"?>
<svg version="1.1" xmlns:xlink="http://www.w3.org/1999/xlink" width="12px" height="12px" viewBox="335 793.5  12 12" xmlns="http://www.w3.org/2000/svg">
  <path d="M 341 793.5  C 344.36 793.5  347 796.14  347 799.5  C 347 802.86  344.36 805.5  341 805.5  C 337.64 805.5  335 802.86  335 799.5  C 335 796.14  337.64 793.5  341 793.5  Z " fill-rule="nonzero" fill="#ffffff" stroke="none" />
  <path d="M 341 794  C 344.08 794  346.5 796.42  346.5 799.5  C 346.5 802.58  344.08 805  341 805  C 337.92 805  335.5 802.58  335.5 799.5  C 335.5 796.42  337.92 794  341 794  Z " stroke-width="1" stroke="#797979" fill="none" />
  <path d="M 341 802.5  C 339.32 802.5  338 801.18  338 799.5  C 338 797.82  339.32 796.5  341 796.5  C 342.68 796.5  344 797.82  344 799.5  C 344 801.18  342.68 802.5  341 802.5  " fill-rule="nonzero" fill="#797979" stroke="none" />
</svg>