<?xml version="1.0" encoding="utf-8"?>
<svg version="1.1" xmlns:xlink="http://www.w3.org/1999/xlink" width="220px" height="160px" xmlns="http://www.w3.org/2000/svg">
  <g transform="matrix(1 0 0 1 -580 -300 )">
    <path d="M 580 300  L 800 300  L 800 460  L 580 460  L 580 300  " fill-rule="nonzero" fill="#cccccc" stroke="none" />
    <path d="M 591 311  L 789 311  L 789 449  L 591 449  L 591 311  " fill-rule="nonzero" fill="#ffffff" stroke="none" />
    <path d="M 706.4 348  C 699.68 348  694.4 342.72  694.4 336  C 694.4 329.28  699.68 324  706.4 324  C 713.12 324  718.4 329.28  718.4 336  C 718.4 342.72  713.12 348  706.4 348  " fill-rule="nonzero" fill="#cccccc" stroke="none" />
    <path d="M 595 445  L 595 373.5  L 642.5 341  L 709 388.272727272727  L 747 360.5  L 785 388.272727272727  L 785 445  L 595 445  " fill-rule="nonzero" fill="#169bd5" stroke="none" />
  </g>
</svg>