<?xml version="1.0" encoding="utf-8"?>
<svg version="1.1" xmlns:xlink="http://www.w3.org/1999/xlink" width="10px" height="75px" preserveAspectRatio="xMidYMin meet" viewBox="802 308  8 75" xmlns="http://www.w3.org/2000/svg">
  <path d="M 806.5 308  L 806.5 373  A 5 5 0 0 1 801 378.5 L 331 378.5  A 3 3 0 0 0 328 375.5 A 3 3 0 0 0 325 378.5 L 317 378.5  A 3 3 0 0 0 314 375.5 A 3 3 0 0 0 311 378.5 L 221 378.5  A 5 5 0 0 0 216.5 383.5 L 216.5 401  " stroke-width="1" stroke="#f59a23" fill="none" />
  <path d="M 210.2 400  L 216.5 406  L 222.8 400  L 210.2 400  Z " fill-rule="nonzero" fill="#f59a23" stroke="none" />
</svg>