<?xml version="1.0" encoding="utf-8"?>
<svg version="1.1" xmlns:xlink="http://www.w3.org/1999/xlink" width="367px" height="232px" xmlns="http://www.w3.org/2000/svg">
  <g transform="matrix(1 0 0 1 -333 -432 )">
    <path d="M 334 440  A 7 7 0 0 1 341 433 L 692 433  A 7 7 0 0 1 699 440 L 699 656  A 7 7 0 0 1 692 663 L 341 663  A 7 7 0 0 1 334 656 L 334 440  Z " fill-rule="nonzero" fill="#ffffff" stroke="none" fill-opacity="0" />
    <path d="M 333.5 440  A 7.5 7.5 0 0 1 341 432.5 L 692 432.5  A 7.5 7.5 0 0 1 699.5 440 L 699.5 656  A 7.5 7.5 0 0 1 692 663.5 L 341 663.5  A 7.5 7.5 0 0 1 333.5 656 L 333.5 440  Z " stroke-width="1" stroke-dasharray="17,8" stroke="#ec808d" fill="none" stroke-dashoffset="0.5" />
  </g>
</svg>