<?xml version="1.0" encoding="utf-8"?>
<svg version="1.1" xmlns:xlink="http://www.w3.org/1999/xlink" width="12px" height="12px" viewBox="427 275  12 12" xmlns="http://www.w3.org/2000/svg">
  <path d="M 433 275  C 436.36 275  439 277.64  439 281  C 439 284.36  436.36 287  433 287  C 429.64 287  427 284.36  427 281  C 427 277.64  429.64 275  433 275  Z " fill-rule="nonzero" fill="#ffffff" stroke="none" />
  <path d="M 433 275.5  C 436.08 275.5  438.5 277.92  438.5 281  C 438.5 284.08  436.08 286.5  433 286.5  C 429.92 286.5  427.5 284.08  427.5 281  C 427.5 277.92  429.92 275.5  433 275.5  Z " stroke-width="1" stroke="#797979" fill="none" />
  <path d="M 433 284  C 431.32 284  430 282.68  430 281  C 430 279.32  431.32 278  433 278  C 434.68 278  436 279.32  436 281  C 436 282.68  434.68 284  433 284  " fill-rule="nonzero" fill="#797979" stroke="none" />
</svg>