<?xml version="1.0" encoding="utf-8"?>
<svg version="1.1" xmlns:xlink="http://www.w3.org/1999/xlink" width="12px" height="12px" viewBox="576 275  12 12" xmlns="http://www.w3.org/2000/svg">
  <path d="M 582 275  C 585.36 275  588 277.64  588 281  C 588 284.36  585.36 287  582 287  C 578.64 287  576 284.36  576 281  C 576 277.64  578.64 275  582 275  Z " fill-rule="nonzero" fill="#ffffff" stroke="none" />
  <path d="M 582 275.5  C 585.08 275.5  587.5 277.92  587.5 281  C 587.5 284.08  585.08 286.5  582 286.5  C 578.92 286.5  576.5 284.08  576.5 281  C 576.5 277.92  578.92 275.5  582 275.5  Z " stroke-width="1" stroke="#797979" fill="none" />
  <path d="M 582 284  C 580.32 284  579 282.68  579 281  C 579 279.32  580.32 278  582 278  C 583.68 278  585 279.32  585 281  C 585 282.68  583.68 284  582 284  " fill-rule="nonzero" fill="#797979" stroke="none" />
</svg>