<?xml version="1.0" encoding="utf-8"?>
<svg version="1.1" xmlns:xlink="http://www.w3.org/1999/xlink" width="255px" height="170px" xmlns="http://www.w3.org/2000/svg">
  <g transform="matrix(1 0 0 1 0 -540 )">
    <path d="M 0 540  L 255 540  L 255 710  L 0 710  L 0 540  " fill-rule="nonzero" fill="#cccccc" stroke="none" />
    <path d="M 12 552  L 243 552  L 243 698  L 12 698  L 12 552  " fill-rule="nonzero" fill="#ffffff" stroke="none" />
    <path d="M 145.35 591  C 138.21 591  132.6 585.39  132.6 578.25  C 132.6 571.11  138.21 565.5  145.35 565.5  C 152.49 565.5  158.1 571.11  158.1 578.25  C 158.1 585.39  152.49 591  145.35 591  " fill-rule="nonzero" fill="#cccccc" stroke="none" />
    <path d="M 17 694  L 17 618.65  L 72.5 584.4  L 150.2 639.2  L 194.6 604.95  L 239 639.2  L 239 694  L 17 694  " fill-rule="nonzero" fill="#169bd5" stroke="none" />
  </g>
</svg>