<?xml version="1.0" encoding="utf-8"?>
<svg version="1.1" xmlns:xlink="http://www.w3.org/1999/xlink" width="40px" height="40px" xmlns="http://www.w3.org/2000/svg">
  <defs>
    <mask fill="white" id="clip79">
      <path d="M 320 256  C 308.9 256  300 247.1  300 236  L 300 236  C 300 224.9  308.9 216  320 216  L 320 216  C 331.1 216  340 224.9  340 236  L 340 236  C 340 247.1  331.1 256  320 256  " fill-rule="evenodd" />
    </mask>
  </defs>
  <g transform="matrix(1 0 0 1 -300 -216 )">
    <path d="M 300 216  L 340 216  L 340 256  L 300 256  L 300 216  " fill-rule="nonzero" fill="#cccccc" stroke="none" mask="url(#clip79)" />
    <path d="M 303 219  L 337 219  L 337 253  L 303 253  L 303 219  " fill-rule="nonzero" fill="#ffffff" stroke="none" mask="url(#clip79)" />
    <path d="M 323.8 228  C 322.12 228  320.8 226.68  320.8 225  C 320.8 223.32  322.12 222  323.8 222  C 325.48 222  326.8 223.32  326.8 225  C 326.8 226.68  325.48 228  323.8 228  " fill-rule="nonzero" fill="#cccccc" stroke="none" mask="url(#clip79)" />
    <path d="M 304 252  L 304 234.4  L 312 226.4  L 323.2 232.8  L 329.6 231.2  L 336 232.8  L 336 252  L 304 252  " fill-rule="nonzero" fill="#169bd5" stroke="none" mask="url(#clip79)" />
  </g>
</svg>