<?xml version="1.0" encoding="utf-8"?>
<svg version="1.1" xmlns:xlink="http://www.w3.org/1999/xlink" width="11px" height="10px" xmlns="http://www.w3.org/2000/svg">
  <g transform="matrix(1 0 0 1 -464 -47 )">
    <path d="M 10.7407407407408 7.47474747474747  C 10.7407407407408 7.47474747474747  11 7.8226711560045  11 8.04713804713803  C 11 8.27160493827161  10.9135802469136 8.46240179573512  10.7407407407408 8.61952861952862  L 9.48148148148147 9.76430976430977  L 8.85185185185185 10  L 8.22222222222223 9.76430976430977  L 5.5 7.28956228956228  L 2.77777777777777 9.76430976430977  L 2.14814814814815 10  L 1.51851851851853 9.76430976430977  L 0.259259259259238 8.61952861952862  C 0.0864197530864317 8.46240179573512  0 8.04713804713803  0 8.04713804713803  L 0.259259259259238 7.47474747474747  L 2.98148148148152 5  L 0.259259259259238 2.52525252525253  C 0.0864197530864317 2.36812570145903  0 2.17732884399551  0 1.95286195286195  C 0 1.7283950617284  0.0864197530864317 1.53759820426487  0.259259259259238 1.38047138047138  L 1.51851851851853 0.235690235690228  C 1.69135802469134 0.0785634118967451  1.90123456790121 0  2.14814814814815 0  C 2.39506172839509 0  2.60493827160496 0.0785634118967451  2.77777777777777 0.235690235690228  L 5.5 2.7104377104377  L 8.22222222222223 0.235690235690228  C 8.39506172839504 0.0785634118967451  8.60493827160491 0  8.85185185185185 0  C 9.09876543209879 0  9.30864197530866 0.0785634118967451  9.48148148148147 0.235690235690228  L 10.7407407407408 1.38047138047138  C 10.9135802469136 1.53759820426487  11 1.7283950617284  11 1.95286195286195  C 11 2.17732884399551  10.9135802469136 2.36812570145903  10.7407407407408 2.52525252525253  L 8.01851851851853 5  L 10.7407407407408 7.47474747474747  Z " fill-rule="nonzero" fill="#000000" stroke="none" transform="matrix(1 0 0 1 464 47 )" />
  </g>
</svg>