<?xml version="1.0" encoding="utf-8"?>
<svg version="1.1" xmlns:xlink="http://www.w3.org/1999/xlink" width="12px" height="12px" viewBox="496 318  12 12" xmlns="http://www.w3.org/2000/svg">
  <path d="M 502 318  C 505.36 318  508 320.64  508 324  C 508 327.36  505.36 330  502 330  C 498.64 330  496 327.36  496 324  C 496 320.64  498.64 318  502 318  Z " fill-rule="nonzero" fill="#ffffff" stroke="none" />
  <path d="M 502 318.5  C 505.08 318.5  507.5 320.92  507.5 324  C 507.5 327.08  505.08 329.5  502 329.5  C 498.92 329.5  496.5 327.08  496.5 324  C 496.5 320.92  498.92 318.5  502 318.5  Z " stroke-width="1" stroke="#797979" fill="none" />
  <path d="M 502 327  C 500.32 327  499 325.68  499 324  C 499 322.32  500.32 321  502 321  C 503.68 321  505 322.32  505 324  C 505 325.68  503.68 327  502 327  " fill-rule="nonzero" fill="#797979" stroke="none" />
</svg>