<?xml version="1.0" encoding="utf-8"?>
<svg version="1.1" xmlns:xlink="http://www.w3.org/1999/xlink" width="12px" height="12px" viewBox="572 318  12 12" xmlns="http://www.w3.org/2000/svg">
  <path d="M 578 318  C 581.36 318  584 320.64  584 324  C 584 327.36  581.36 330  578 330  C 574.64 330  572 327.36  572 324  C 572 320.64  574.64 318  578 318  Z " fill-rule="nonzero" fill="#ffffff" stroke="none" />
  <path d="M 578 318.5  C 581.08 318.5  583.5 320.92  583.5 324  C 583.5 327.08  581.08 329.5  578 329.5  C 574.92 329.5  572.5 327.08  572.5 324  C 572.5 320.92  574.92 318.5  578 318.5  Z " stroke-width="1" stroke="#797979" fill="none" />
  <path d="M 578 327  C 576.32 327  575 325.68  575 324  C 575 322.32  576.32 321  578 321  C 579.68 321  581 322.32  581 324  C 581 325.68  579.68 327  578 327  " fill-rule="nonzero" fill="#797979" stroke="none" />
</svg>