<?xml version="1.0" encoding="utf-8"?>
<svg version="1.1" xmlns:xlink="http://www.w3.org/1999/xlink" width="12px" height="12px" viewBox="560 651  12 12" xmlns="http://www.w3.org/2000/svg">
  <path d="M 566 651  C 569.36 651  572 653.64  572 657  C 572 660.36  569.36 663  566 663  C 562.64 663  560 660.36  560 657  C 560 653.64  562.64 651  566 651  Z " fill-rule="nonzero" fill="#f0f0f0" stroke="none" />
  <path d="M 566 651.5  C 569.08 651.5  571.5 653.92  571.5 657  C 571.5 660.08  569.08 662.5  566 662.5  C 562.92 662.5  560.5 660.08  560.5 657  C 560.5 653.92  562.92 651.5  566 651.5  Z " stroke-width="1" stroke="#797979" fill="none" />
  <path d="M 566 660  C 564.32 660  563 658.68  563 657  C 563 655.32  564.32 654  566 654  C 567.68 654  569 655.32  569 657  C 569 658.68  567.68 660  566 660  " fill-rule="nonzero" fill="#797979" stroke="none" />
</svg>