<?xml version="1.0" encoding="utf-8"?>
<svg version="1.1" xmlns:xlink="http://www.w3.org/1999/xlink" width="200px" height="110px" xmlns="http://www.w3.org/2000/svg">
  <g>
    <path d="M 0 0  L 200 0  L 200 110  L 0 110  L 0 0  " fill-rule="nonzero" fill="#cccccc" stroke="none" />
    <path d="M 8 8  L 192 8  L 192 102  L 8 102  L 8 8  " fill-rule="nonzero" fill="#ffffff" stroke="none" />
    <path d="M 112.25 33  C 107.63 33  104 29.37  104 24.75  C 104 20.13  107.63 16.5  112.25 16.5  C 116.87 16.5  120.5 20.13  120.5 24.75  C 120.5 29.37  116.87 33  112.25 33  " fill-rule="nonzero" fill="#cccccc" stroke="none" />
    <path d="M 11 99  L 11 50.6  L 55.5 28.6  L 117.8 69.96  L 153.4 41.8  L 189 69.96  L 189 99  L 11 99  " fill-rule="nonzero" fill="#169bd5" stroke="none" />
  </g>
</svg>