<?xml version="1.0" encoding="utf-8"?>
<svg version="1.1" xmlns:xlink="http://www.w3.org/1999/xlink" width="12px" height="12px" viewBox="707 790.5  12 12" xmlns="http://www.w3.org/2000/svg">
  <path d="M 713 790.5  C 716.36 790.5  719 793.14  719 796.5  C 719 799.86  716.36 802.5  713 802.5  C 709.64 802.5  707 799.86  707 796.5  C 707 793.14  709.64 790.5  713 790.5  Z " fill-rule="nonzero" fill="#ffffff" stroke="none" />
  <path d="M 713 791  C 716.08 791  718.5 793.42  718.5 796.5  C 718.5 799.58  716.08 802  713 802  C 709.92 802  707.5 799.58  707.5 796.5  C 707.5 793.42  709.92 791  713 791  Z " stroke-width="1" stroke="#797979" fill="none" />
  <path d="M 713 799.5  C 711.32 799.5  710 798.18  710 796.5  C 710 794.82  711.32 793.5  713 793.5  C 714.68 793.5  716 794.82  716 796.5  C 716 798.18  714.68 799.5  713 799.5  " fill-rule="nonzero" fill="#797979" stroke="none" />
</svg>