<?xml version="1.0" encoding="utf-8"?>
<svg version="1.1" xmlns:xlink="http://www.w3.org/1999/xlink" width="12px" height="12px" viewBox="541 907.5  12 12" xmlns="http://www.w3.org/2000/svg">
  <path d="M 547 907.5  C 550.36 907.5  553 910.14  553 913.5  C 553 916.86  550.36 919.5  547 919.5  C 543.64 919.5  541 916.86  541 913.5  C 541 910.14  543.64 907.5  547 907.5  Z " fill-rule="nonzero" fill="#f0f0f0" stroke="none" />
  <path d="M 547 908  C 550.08 908  552.5 910.42  552.5 913.5  C 552.5 916.58  550.08 919  547 919  C 543.92 919  541.5 916.58  541.5 913.5  C 541.5 910.42  543.92 908  547 908  Z " stroke-width="1" stroke="#797979" fill="none" />
  <path d="M 547 916.5  C 545.32 916.5  544 915.18  544 913.5  C 544 911.82  545.32 910.5  547 910.5  C 548.68 910.5  550 911.82  550 913.5  C 550 915.18  548.68 916.5  547 916.5  " fill-rule="nonzero" fill="#797979" stroke="none" />
</svg>