<?xml version="1.0" encoding="utf-8"?>
<svg version="1.1" xmlns:xlink="http://www.w3.org/1999/xlink" width="12px" height="12px" viewBox="707 907.5  12 12" xmlns="http://www.w3.org/2000/svg">
  <path d="M 713 907.5  C 716.36 907.5  719 910.14  719 913.5  C 719 916.86  716.36 919.5  713 919.5  C 709.64 919.5  707 916.86  707 913.5  C 707 910.14  709.64 907.5  713 907.5  Z " fill-rule="nonzero" fill="#ffffff" stroke="none" />
  <path d="M 713 908  C 716.08 908  718.5 910.42  718.5 913.5  C 718.5 916.58  716.08 919  713 919  C 709.92 919  707.5 916.58  707.5 913.5  C 707.5 910.42  709.92 908  713 908  Z " stroke-width="1" stroke="#797979" fill="none" />
  <path d="M 713 916.5  C 711.32 916.5  710 915.18  710 913.5  C 710 911.82  711.32 910.5  713 910.5  C 714.68 910.5  716 911.82  716 913.5  C 716 915.18  714.68 916.5  713 916.5  " fill-rule="nonzero" fill="#797979" stroke="none" />
</svg>