<?xml version="1.0" encoding="utf-8"?>
<svg version="1.1" xmlns:xlink="http://www.w3.org/1999/xlink" width="12px" height="12px" viewBox="537 950.5  12 12" xmlns="http://www.w3.org/2000/svg">
  <path d="M 543 950.5  C 546.36 950.5  549 953.14  549 956.5  C 549 959.86  546.36 962.5  543 962.5  C 539.64 962.5  537 959.86  537 956.5  C 537 953.14  539.64 950.5  543 950.5  Z " fill-rule="nonzero" fill="#f0f0f0" stroke="none" />
  <path d="M 543 951  C 546.08 951  548.5 953.42  548.5 956.5  C 548.5 959.58  546.08 962  543 962  C 539.92 962  537.5 959.58  537.5 956.5  C 537.5 953.42  539.92 951  543 951  Z " stroke-width="1" stroke="#797979" fill="none" />
  <path d="M 543 959.5  C 541.32 959.5  540 958.18  540 956.5  C 540 954.82  541.32 953.5  543 953.5  C 544.68 953.5  546 954.82  546 956.5  C 546 958.18  544.68 959.5  543 959.5  " fill-rule="nonzero" fill="#797979" stroke="none" />
</svg>