<?xml version="1.0" encoding="utf-8"?>
<svg version="1.1" xmlns:xlink="http://www.w3.org/1999/xlink" width="12px" height="12px" viewBox="703 950.5  12 12" xmlns="http://www.w3.org/2000/svg">
  <path d="M 709 950.5  C 712.36 950.5  715 953.14  715 956.5  C 715 959.86  712.36 962.5  709 962.5  C 705.64 962.5  703 959.86  703 956.5  C 703 953.14  705.64 950.5  709 950.5  Z " fill-rule="nonzero" fill="#f0f0f0" stroke="none" />
  <path d="M 709 951  C 712.08 951  714.5 953.42  714.5 956.5  C 714.5 959.58  712.08 962  709 962  C 705.92 962  703.5 959.58  703.5 956.5  C 703.5 953.42  705.92 951  709 951  Z " stroke-width="1" stroke="#797979" fill="none" />
  <path d="M 709 959.5  C 707.32 959.5  706 958.18  706 956.5  C 706 954.82  707.32 953.5  709 953.5  C 710.68 953.5  712 954.82  712 956.5  C 712 958.18  710.68 959.5  709 959.5  " fill-rule="nonzero" fill="#797979" stroke="none" />
</svg>