<?xml version="1.0" encoding="utf-8"?>
<svg version="1.1" xmlns:xlink="http://www.w3.org/1999/xlink" width="12px" height="12px" viewBox="456 243  12 12" xmlns="http://www.w3.org/2000/svg">
  <path d="M 462 243  C 465.36 243  468 245.64  468 249  C 468 252.36  465.36 255  462 255  C 458.64 255  456 252.36  456 249  C 456 245.64  458.64 243  462 243  Z " fill-rule="nonzero" fill="#f0f0f0" stroke="none" />
  <path d="M 462 243.5  C 465.08 243.5  467.5 245.92  467.5 249  C 467.5 252.08  465.08 254.5  462 254.5  C 458.92 254.5  456.5 252.08  456.5 249  C 456.5 245.92  458.92 243.5  462 243.5  Z " stroke-width="1" stroke="#797979" fill="none" />
  <path d="M 462 252  C 460.32 252  459 250.68  459 249  C 459 247.32  460.32 246  462 246  C 463.68 246  465 247.32  465 249  C 465 250.68  463.68 252  462 252  " fill-rule="nonzero" fill="#797979" stroke="none" />
</svg>