<?xml version="1.0" encoding="utf-8"?>
<svg version="1.1" xmlns:xlink="http://www.w3.org/1999/xlink" width="12px" height="12px" viewBox="456 378  12 12" xmlns="http://www.w3.org/2000/svg">
  <path d="M 462 378  C 465.36 378  468 380.64  468 384  C 468 387.36  465.36 390  462 390  C 458.64 390  456 387.36  456 384  C 456 380.64  458.64 378  462 378  Z " fill-rule="nonzero" fill="#f0f0f0" stroke="none" />
  <path d="M 462 378.5  C 465.08 378.5  467.5 380.92  467.5 384  C 467.5 387.08  465.08 389.5  462 389.5  C 458.92 389.5  456.5 387.08  456.5 384  C 456.5 380.92  458.92 378.5  462 378.5  Z " stroke-width="1" stroke="#797979" fill="none" />
  <path d="M 462 387  C 460.32 387  459 385.68  459 384  C 459 382.32  460.32 381  462 381  C 463.68 381  465 382.32  465 384  C 465 385.68  463.68 387  462 387  " fill-rule="nonzero" fill="#797979" stroke="none" />
</svg>