<?xml version="1.0" encoding="utf-8"?>
<svg version="1.1" xmlns:xlink="http://www.w3.org/1999/xlink" width="12px" height="12px" viewBox="556 419  12 12" xmlns="http://www.w3.org/2000/svg">
  <path d="M 562 419  C 565.36 419  568 421.64  568 425  C 568 428.36  565.36 431  562 431  C 558.64 431  556 428.36  556 425  C 556 421.64  558.64 419  562 419  Z " fill-rule="nonzero" fill="#ffffff" stroke="none" />
  <path d="M 562 419.5  C 565.08 419.5  567.5 421.92  567.5 425  C 567.5 428.08  565.08 430.5  562 430.5  C 558.92 430.5  556.5 428.08  556.5 425  C 556.5 421.92  558.92 419.5  562 419.5  Z " stroke-width="1" stroke="#797979" fill="none" />
  <path d="M 562 428  C 560.32 428  559 426.68  559 425  C 559 423.32  560.32 422  562 422  C 563.68 422  565 423.32  565 425  C 565 426.68  563.68 428  562 428  " fill-rule="nonzero" fill="#797979" stroke="none" />
</svg>