<?xml version="1.0" encoding="utf-8"?>
<svg version="1.1" xmlns:xlink="http://www.w3.org/1999/xlink" width="12px" height="12px" viewBox="456 419  12 12" xmlns="http://www.w3.org/2000/svg">
  <path d="M 462 419  C 465.36 419  468 421.64  468 425  C 468 428.36  465.36 431  462 431  C 458.64 431  456 428.36  456 425  C 456 421.64  458.64 419  462 419  Z " fill-rule="nonzero" fill="#ffffff" stroke="none" />
  <path d="M 462 419.5  C 465.08 419.5  467.5 421.92  467.5 425  C 467.5 428.08  465.08 430.5  462 430.5  C 458.92 430.5  456.5 428.08  456.5 425  C 456.5 421.92  458.92 419.5  462 419.5  Z " stroke-width="1" stroke="#797979" fill="none" />
  <path d="M 462 428  C 460.32 428  459 426.68  459 425  C 459 423.32  460.32 422  462 422  C 463.68 422  465 423.32  465 425  C 465 426.68  463.68 428  462 428  " fill-rule="nonzero" fill="#797979" stroke="none" />
</svg>