<?xml version="1.0" encoding="utf-8"?>
<svg version="1.1" xmlns:xlink="http://www.w3.org/1999/xlink" width="12px" height="12px" viewBox="346 419  12 12" xmlns="http://www.w3.org/2000/svg">
  <path d="M 352 419  C 355.36 419  358 421.64  358 425  C 358 428.36  355.36 431  352 431  C 348.64 431  346 428.36  346 425  C 346 421.64  348.64 419  352 419  Z " fill-rule="nonzero" fill="#f0f0f0" stroke="none" />
  <path d="M 352 419.5  C 355.08 419.5  357.5 421.92  357.5 425  C 357.5 428.08  355.08 430.5  352 430.5  C 348.92 430.5  346.5 428.08  346.5 425  C 346.5 421.92  348.92 419.5  352 419.5  Z " stroke-width="1" stroke="#797979" fill="none" />
  <path d="M 352 428  C 350.32 428  349 426.68  349 425  C 349 423.32  350.32 422  352 422  C 353.68 422  355 423.32  355 425  C 355 426.68  353.68 428  352 428  " fill-rule="nonzero" fill="#797979" stroke="none" />
</svg>