<?xml version="1.0" encoding="utf-8"?>
<svg version="1.1" xmlns:xlink="http://www.w3.org/1999/xlink" width="20px" height="20px" xmlns="http://www.w3.org/2000/svg">
  <defs>
    <mask fill="white" id="clip170">
      <path d="M 19.5286195286195 14.9494949494949  C 19.8428731762065 15.263748597082  20 15.645342312009  20 16.0942760942761  C 20 16.5432098765432  19.8428731762065 16.9248035914702  19.5286195286195 17.2390572390573  L 17.2390572390572 19.5286195286195  C 16.9248035914703 19.8428731762065  16.5432098765432 20  16.0942760942761 20  C 15.645342312009 20  15.2637485970819 19.8428731762065  14.9494949494949 19.5286195286195  L 10 14.5791245791246  L 5.05050505050505 19.5286195286195  C 4.73625140291807 19.8428731762065  4.35465768799102 20  3.9057239057239 20  C 3.45679012345678 20  3.07519640852973 19.8428731762065  2.76094276094275 19.5286195286195  L 0.471380471380485 17.2390572390573  C 0.157126823793504 16.9248035914702  0 16.5432098765432  0 16.0942760942761  C 0 15.645342312009  0.157126823793504 15.263748597082  0.471380471380485 14.9494949494949  L 5.42087542087543 10  L 0.471380471380485 5.05050505050508  C 0.157126823793504 4.73625140291801  0 4.35465768799099  0 3.9057239057239  C 0 3.45679012345681  0.157126823793504 3.07519640852979  0.471380471380485 2.76094276094273  L 2.76094276094275 0.471380471380485  C 3.07519640852973 0.157126823793533  3.45679012345678 0  3.9057239057239 0  C 4.35465768799102 0  4.73625140291807 0.157126823793533  5.05050505050505 0.471380471380485  L 10 5.4208754208754  L 14.9494949494949 0.471380471380485  C 15.2637485970819 0.157126823793533  15.645342312009 0  16.0942760942761 0  C 16.5432098765432 0  16.9248035914703 0.157126823793533  17.2390572390572 0.471380471380485  L 19.5286195286195 2.76094276094273  C 19.8428731762065 3.07519640852979  20 3.45679012345681  20 3.9057239057239  C 20 4.35465768799099  19.8428731762065 4.73625140291801  19.5286195286195 5.05050505050508  L 14.5791245791246 10  L 19.5286195286195 14.9494949494949  Z " fill-rule="evenodd" />
    </mask>
  </defs>
  <g transform="matrix(1 0 0 1 -630 -511 )">
    <path d="M 19.5286195286195 14.9494949494949  C 19.8428731762065 15.263748597082  20 15.645342312009  20 16.0942760942761  C 20 16.5432098765432  19.8428731762065 16.9248035914702  19.5286195286195 17.2390572390573  L 17.2390572390572 19.5286195286195  C 16.9248035914703 19.8428731762065  16.5432098765432 20  16.0942760942761 20  C 15.645342312009 20  15.2637485970819 19.8428731762065  14.9494949494949 19.5286195286195  L 10 14.5791245791246  L 5.05050505050505 19.5286195286195  C 4.73625140291807 19.8428731762065  4.35465768799102 20  3.9057239057239 20  C 3.45679012345678 20  3.07519640852973 19.8428731762065  2.76094276094275 19.5286195286195  L 0.471380471380485 17.2390572390573  C 0.157126823793504 16.9248035914702  0 16.5432098765432  0 16.0942760942761  C 0 15.645342312009  0.157126823793504 15.263748597082  0.471380471380485 14.9494949494949  L 5.42087542087543 10  L 0.471380471380485 5.05050505050508  C 0.157126823793504 4.73625140291801  0 4.35465768799099  0 3.9057239057239  C 0 3.45679012345681  0.157126823793504 3.07519640852979  0.471380471380485 2.76094276094273  L 2.76094276094275 0.471380471380485  C 3.07519640852973 0.157126823793533  3.45679012345678 0  3.9057239057239 0  C 4.35465768799102 0  4.73625140291807 0.157126823793533  5.05050505050505 0.471380471380485  L 10 5.4208754208754  L 14.9494949494949 0.471380471380485  C 15.2637485970819 0.157126823793533  15.645342312009 0  16.0942760942761 0  C 16.5432098765432 0  16.9248035914703 0.157126823793533  17.2390572390572 0.471380471380485  L 19.5286195286195 2.76094276094273  C 19.8428731762065 3.07519640852979  20 3.45679012345681  20 3.9057239057239  C 20 4.35465768799099  19.8428731762065 4.73625140291801  19.5286195286195 5.05050505050508  L 14.5791245791246 10  L 19.5286195286195 14.9494949494949  Z " fill-rule="nonzero" fill="#ff6699" stroke="none" transform="matrix(1 0 0 1 630 511 )" />
    <path d="M 19.5286195286195 14.9494949494949  C 19.8428731762065 15.263748597082  20 15.645342312009  20 16.0942760942761  C 20 16.5432098765432  19.8428731762065 16.9248035914702  19.5286195286195 17.2390572390573  L 17.2390572390572 19.5286195286195  C 16.9248035914703 19.8428731762065  16.5432098765432 20  16.0942760942761 20  C 15.645342312009 20  15.2637485970819 19.8428731762065  14.9494949494949 19.5286195286195  L 10 14.5791245791246  L 5.05050505050505 19.5286195286195  C 4.73625140291807 19.8428731762065  4.35465768799102 20  3.9057239057239 20  C 3.45679012345678 20  3.07519640852973 19.8428731762065  2.76094276094275 19.5286195286195  L 0.471380471380485 17.2390572390573  C 0.157126823793504 16.9248035914702  0 16.5432098765432  0 16.0942760942761  C 0 15.645342312009  0.157126823793504 15.263748597082  0.471380471380485 14.9494949494949  L 5.42087542087543 10  L 0.471380471380485 5.05050505050508  C 0.157126823793504 4.73625140291801  0 4.35465768799099  0 3.9057239057239  C 0 3.45679012345681  0.157126823793504 3.07519640852979  0.471380471380485 2.76094276094273  L 2.76094276094275 0.471380471380485  C 3.07519640852973 0.157126823793533  3.45679012345678 0  3.9057239057239 0  C 4.35465768799102 0  4.73625140291807 0.157126823793533  5.05050505050505 0.471380471380485  L 10 5.4208754208754  L 14.9494949494949 0.471380471380485  C 15.2637485970819 0.157126823793533  15.645342312009 0  16.0942760942761 0  C 16.5432098765432 0  16.9248035914703 0.157126823793533  17.2390572390572 0.471380471380485  L 19.5286195286195 2.76094276094273  C 19.8428731762065 3.07519640852979  20 3.45679012345681  20 3.9057239057239  C 20 4.35465768799099  19.8428731762065 4.73625140291801  19.5286195286195 5.05050505050508  L 14.5791245791246 10  L 19.5286195286195 14.9494949494949  Z " stroke-width="2" stroke="#ffffff" fill="none" transform="matrix(1 0 0 1 630 511 )" mask="url(#clip170)" />
  </g>
</svg>