<?xml version="1.0" encoding="utf-8"?>
<svg version="1.1" xmlns:xlink="http://www.w3.org/1999/xlink" width="20px" height="20px" xmlns="http://www.w3.org/2000/svg">
  <g transform="matrix(1 0 0 1 -630 -270 )">
    <path d="M 16.4192708333334 11.4192708333333  C 16.5842013888889 11.2543402777778  16.6666666666666 11.0590277777778  16.6666666666666 10.8333333333333  L 16.6666666666666 9.16666666666666  C 16.6666666666666 8.94097222222223  16.5842013888889 8.74565972222223  16.4192708333334 8.58072916666666  C 16.2543402777778 8.41579861111114  16.0590277777778 8.33333333333334  15.8333333333334 8.33333333333334  L 11.6666666666666 8.33333333333334  L 11.6666666666666 4.16666666666666  C 11.6666666666666 3.94097222222223  11.5842013888889 3.74565972222223  11.4192708333334 3.58072916666666  C 11.2543402777778 3.41579861111114  11.0590277777778 3.33333333333334  10.8333333333334 3.33333333333334  L 9.16666666666663 3.33333333333334  C 8.94097222222217 3.33333333333334  8.74565972222217 3.41579861111114  8.58072916666663 3.58072916666666  C 8.41579861111109 3.74565972222223  8.33333333333337 3.94097222222223  8.33333333333337 4.16666666666666  L 8.33333333333337 8.33333333333334  L 4.16666666666663 8.33333333333334  C 3.94097222222217 8.33333333333334  3.74565972222217 8.41579861111114  3.58072916666663 8.58072916666666  C 3.41579861111109 8.74565972222223  3.33333333333337 8.94097222222223  3.33333333333337 9.16666666666666  L 3.33333333333337 10.8333333333333  C 3.33333333333337 11.0590277777778  3.41579861111109 11.2543402777778  3.58072916666663 11.4192708333333  C 3.74565972222217 11.5842013888889  3.94097222222217 11.6666666666667  4.16666666666663 11.6666666666667  L 8.33333333333337 11.6666666666667  L 8.33333333333337 15.8333333333333  C 8.33333333333337 16.0590277777778  8.41579861111109 16.2543402777778  8.58072916666663 16.4192708333333  C 8.74565972222217 16.5842013888889  8.94097222222217 16.6666666666667  9.16666666666663 16.6666666666667  L 10.8333333333334 16.6666666666667  C 11.0590277777778 16.6666666666667  11.2543402777778 16.5842013888889  11.4192708333334 16.4192708333333  C 11.5842013888889 16.2543402777778  11.6666666666666 16.0590277777778  11.6666666666666 15.8333333333333  L 11.6666666666666 11.6666666666667  L 15.8333333333334 11.6666666666667  C 16.0590277777778 11.6666666666667  16.2543402777778 11.5842013888889  16.4192708333334 11.4192708333333  Z M 18.8997395833334 1.10026041666666  C 19.6332465277778 1.83376736111114  20 2.71701388888886  20 3.75  L 20 16.25  C 20 17.2829861111111  19.6332465277778 18.1662326388889  18.8997395833334 18.8997395833333  C 18.1662326388889 19.6332465277778  17.2829861111111 20  16.25 20  L 3.75 20  C 2.71701388888891 20  1.83376736111109 19.6332465277778  1.10026041666663 18.8997395833333  C 0.366753472222172 18.1662326388889  0 17.2829861111111  0 16.25  L 0 3.75  C 0 2.71701388888886  0.366753472222172 1.83376736111114  1.10026041666663 1.10026041666666  C 1.83376736111109 0.366753472222229  2.71701388888891 0  3.75 0  L 16.25 0  C 17.2829861111111 0  18.1662326388889 0.366753472222229  18.8997395833334 1.10026041666666  Z " fill-rule="nonzero" fill="#cccccc" stroke="none" transform="matrix(1 0 0 1 630 270 )" />
  </g>
</svg>