<?xml version="1.0" encoding="utf-8"?>
<svg version="1.1" xmlns:xlink="http://www.w3.org/1999/xlink" width="12px" height="12px" viewBox="410 859  12 12" xmlns="http://www.w3.org/2000/svg">
  <path d="M 416 859  C 419.36 859  422 861.64  422 865  C 422 868.36  419.36 871  416 871  C 412.64 871  410 868.36  410 865  C 410 861.64  412.64 859  416 859  Z " fill-rule="nonzero" fill="#ffffff" stroke="none" />
  <path d="M 416 859.5  C 419.08 859.5  421.5 861.92  421.5 865  C 421.5 868.08  419.08 870.5  416 870.5  C 412.92 870.5  410.5 868.08  410.5 865  C 410.5 861.92  412.92 859.5  416 859.5  Z " stroke-width="1" stroke="#666666" fill="none" />
  <path d="M 416 868  C 414.32 868  413 866.68  413 865  C 413 863.32  414.32 862  416 862  C 417.68 862  419 863.32  419 865  C 419 866.68  417.68 868  416 868  " fill-rule="nonzero" fill="#666666" stroke="none" />
</svg>