<?xml version="1.0" encoding="utf-8"?>
<svg version="1.1" xmlns:xlink="http://www.w3.org/1999/xlink" width="12px" height="12px" viewBox="610 859  12 12" xmlns="http://www.w3.org/2000/svg">
  <path d="M 616 859  C 619.36 859  622 861.64  622 865  C 622 868.36  619.36 871  616 871  C 612.64 871  610 868.36  610 865  C 610 861.64  612.64 859  616 859  Z " fill-rule="nonzero" fill="#ffffff" stroke="none" />
  <path d="M 616 859.5  C 619.08 859.5  621.5 861.92  621.5 865  C 621.5 868.08  619.08 870.5  616 870.5  C 612.92 870.5  610.5 868.08  610.5 865  C 610.5 861.92  612.92 859.5  616 859.5  Z " stroke-width="1" stroke="#666666" fill="none" />
  <path d="M 616 868  C 614.32 868  613 866.68  613 865  C 613 863.32  614.32 862  616 862  C 617.68 862  619 863.32  619 865  C 619 866.68  617.68 868  616 868  " fill-rule="nonzero" fill="#666666" stroke="none" />
</svg>