<?xml version="1.0" encoding="utf-8"?>
<svg version="1.1" xmlns:xlink="http://www.w3.org/1999/xlink" width="12px" height="12px" viewBox="510 859  12 12" xmlns="http://www.w3.org/2000/svg">
  <path d="M 516 859  C 519.36 859  522 861.64  522 865  C 522 868.36  519.36 871  516 871  C 512.64 871  510 868.36  510 865  C 510 861.64  512.64 859  516 859  Z " fill-rule="nonzero" fill="#ffffff" stroke="none" />
  <path d="M 516 859.5  C 519.08 859.5  521.5 861.92  521.5 865  C 521.5 868.08  519.08 870.5  516 870.5  C 512.92 870.5  510.5 868.08  510.5 865  C 510.5 861.92  512.92 859.5  516 859.5  Z " stroke-width="1" stroke="#666666" fill="none" />
  <path d="M 516 868  C 514.32 868  513 866.68  513 865  C 513 863.32  514.32 862  516 862  C 517.68 862  519 863.32  519 865  C 519 866.68  517.68 868  516 868  " fill-rule="nonzero" fill="#666666" stroke="none" />
</svg>