<?xml version="1.0" encoding="utf-8"?>
<svg version="1.1" xmlns:xlink="http://www.w3.org/1999/xlink" width="12px" height="12px" viewBox="493 538  12 12" xmlns="http://www.w3.org/2000/svg">
  <path d="M 499 538  C 502.36 538  505 540.64  505 544  C 505 547.36  502.36 550  499 550  C 495.64 550  493 547.36  493 544  C 493 540.64  495.64 538  499 538  Z " fill-rule="nonzero" fill="#ffffff" stroke="none" />
  <path d="M 499 538.5  C 502.08 538.5  504.5 540.92  504.5 544  C 504.5 547.08  502.08 549.5  499 549.5  C 495.92 549.5  493.5 547.08  493.5 544  C 493.5 540.92  495.92 538.5  499 538.5  Z " stroke-width="1" stroke="#797979" fill="none" />
  <path d="M 499 547  C 497.32 547  496 545.68  496 544  C 496 542.32  497.32 541  499 541  C 500.68 541  502 542.32  502 544  C 502 545.68  500.68 547  499 547  " fill-rule="nonzero" fill="#797979" stroke="none" />
</svg>