<?xml version="1.0" encoding="utf-8"?>
<svg version="1.1" xmlns:xlink="http://www.w3.org/1999/xlink" width="12px" height="12px" viewBox="603 497  12 12" xmlns="http://www.w3.org/2000/svg">
  <path d="M 609 497  C 612.36 497  615 499.64  615 503  C 615 506.36  612.36 509  609 509  C 605.64 509  603 506.36  603 503  C 603 499.64  605.64 497  609 497  Z " fill-rule="nonzero" fill="#f0f0f0" stroke="none" />
  <path d="M 609 497.5  C 612.08 497.5  614.5 499.92  614.5 503  C 614.5 506.08  612.08 508.5  609 508.5  C 605.92 508.5  603.5 506.08  603.5 503  C 603.5 499.92  605.92 497.5  609 497.5  Z " stroke-width="1" stroke="#797979" fill="none" />
  <path d="M 609 506  C 607.32 506  606 504.68  606 503  C 606 501.32  607.32 500  609 500  C 610.68 500  612 501.32  612 503  C 612 504.68  610.68 506  609 506  " fill-rule="nonzero" fill="#797979" stroke="none" />
</svg>