<?xml version="1.0" encoding="utf-8"?>
<svg version="1.1" xmlns:xlink="http://www.w3.org/1999/xlink" width="12px" height="12px" viewBox="703 538  12 12" xmlns="http://www.w3.org/2000/svg">
  <path d="M 709 538  C 712.36 538  715 540.64  715 544  C 715 547.36  712.36 550  709 550  C 705.64 550  703 547.36  703 544  C 703 540.64  705.64 538  709 538  Z " fill-rule="nonzero" fill="#ffffff" stroke="none" />
  <path d="M 709 538.5  C 712.08 538.5  714.5 540.92  714.5 544  C 714.5 547.08  712.08 549.5  709 549.5  C 705.92 549.5  703.5 547.08  703.5 544  C 703.5 540.92  705.92 538.5  709 538.5  Z " stroke-width="1" stroke="#797979" fill="none" />
  <path d="M 709 547  C 707.32 547  706 545.68  706 544  C 706 542.32  707.32 541  709 541  C 710.68 541  712 542.32  712 544  C 712 545.68  710.68 547  709 547  " fill-rule="nonzero" fill="#797979" stroke="none" />
</svg>