<?xml version="1.0" encoding="utf-8"?>
<svg version="1.1" xmlns:xlink="http://www.w3.org/1999/xlink" width="17px" height="20px" xmlns="http://www.w3.org/2000/svg">
  <g transform="matrix(1 0 0 1 -776 -577 )">
    <path d="M 1.30769230769226 15.3571428571429  L 1.30769230769226 18.5714285714286  L 4.25 18.5714285714286  L 4.25 15.3571428571429  L 1.30769230769226 15.3571428571429  Z M 4.90384615384619 15.3571428571429  L 4.90384615384619 18.5714285714286  L 8.17307692307691 18.5714285714286  L 8.17307692307691 15.3571428571429  L 4.90384615384619 15.3571428571429  Z M 1.30769230769226 11.0714285714286  L 1.30769230769226 14.6428571428571  L 4.25 14.6428571428571  L 4.25 11.0714285714286  L 1.30769230769226 11.0714285714286  Z M 4.90384615384619 11.0714285714286  L 4.90384615384619 14.6428571428571  L 8.17307692307691 14.6428571428571  L 8.17307692307691 11.0714285714286  L 4.90384615384619 11.0714285714286  Z M 1.30769230769226 7.14285714285711  L 1.30769230769226 10.3571428571429  L 4.25 10.3571428571429  L 4.25 7.14285714285711  L 1.30769230769226 7.14285714285711  Z M 8.82692307692309 15.3571428571429  L 8.82692307692309 18.5714285714286  L 12.0961538461538 18.5714285714286  L 12.0961538461538 15.3571428571429  L 8.82692307692309 15.3571428571429  Z M 4.90384615384619 7.14285714285711  L 4.90384615384619 10.3571428571429  L 8.17307692307691 10.3571428571429  L 8.17307692307691 7.14285714285711  L 4.90384615384619 7.14285714285711  Z M 12.75 15.3571428571429  L 12.75 18.5714285714286  L 15.6923076923077 18.5714285714286  L 15.6923076923077 15.3571428571429  L 12.75 15.3571428571429  Z M 8.82692307692309 11.0714285714286  L 8.82692307692309 14.6428571428571  L 12.0961538461538 14.6428571428571  L 12.0961538461538 11.0714285714286  L 8.82692307692309 11.0714285714286  Z M 5.13371394230774 5.25111607142856  C 5.19841746794873 5.18043154761904  5.23076923076928 5.09672619047615  5.23076923076928 5  L 5.23076923076928 1.78571428571433  C 5.23076923076928 1.68898809523819  5.19841746794873 1.60528273809518  5.13371394230774 1.53459821428567  C 5.06901041666663 1.46391369047615  4.99238782051282 1.42857142857144  4.90384615384619 1.42857142857144  L 4.25 1.42857142857144  C 4.16145833333337 1.42857142857144  4.08483573717945 1.46391369047615  4.02013221153845 1.53459821428567  C 3.95542868589746 1.60528273809518  3.92307692307691 1.68898809523819  3.92307692307691 1.78571428571433  L 3.92307692307691 5  C 3.92307692307691 5.09672619047615  3.95542868589746 5.18043154761904  4.02013221153845 5.25111607142856  C 4.08483573717945 5.32180059523819  4.16145833333337 5.35714285714289  4.25 5.35714285714289  L 4.90384615384619 5.35714285714289  C 4.99238782051282 5.35714285714289  5.06901041666663 5.32180059523819  5.13371394230774 5.25111607142856  Z M 12.75 11.0714285714286  L 12.75 14.6428571428571  L 15.6923076923077 14.6428571428571  L 15.6923076923077 11.0714285714286  L 12.75 11.0714285714286  Z M 8.82692307692309 7.14285714285711  L 8.82692307692309 10.3571428571429  L 12.0961538461538 10.3571428571429  L 12.0961538461538 7.14285714285711  L 8.82692307692309 7.14285714285711  Z M 12.75 7.14285714285711  L 12.75 10.3571428571429  L 15.6923076923077 10.3571428571429  L 15.6923076923077 7.14285714285711  L 12.75 7.14285714285711  Z M 12.9798677884615 5.25111607142856  C 13.0445713141025 5.18043154761904  13.0769230769231 5.09672619047615  13.0769230769231 5  L 13.0769230769231 1.78571428571433  C 13.0769230769231 1.68898809523819  13.0445713141025 1.60528273809518  12.9798677884615 1.53459821428567  C 12.9151642628206 1.46391369047615  12.8385416666666 1.42857142857144  12.75 1.42857142857144  L 12.0961538461538 1.42857142857144  C 12.0076121794872 1.42857142857144  11.9309895833334 1.46391369047615  11.8662860576923 1.53459821428567  C 11.8015825320513 1.60528273809518  11.7692307692307 1.68898809523819  11.7692307692307 1.78571428571433  L 11.7692307692307 5  C 11.7692307692307 5.09672619047615  11.8015825320513 5.18043154761904  11.8662860576923 5.25111607142856  C 11.9309895833334 5.32180059523819  12.0076121794872 5.35714285714289  12.0961538461538 5.35714285714289  L 12.75 5.35714285714289  C 12.8385416666666 5.35714285714289  12.9151642628206 5.32180059523819  12.9798677884615 5.25111607142856  Z M 16.6117788461538 3.28125  C 16.8705929487179 3.56398809523819  17 3.89880952380952  17 4.28571428571433  L 17 18.5714285714286  C 17 18.9583333333334  16.8705929487179 19.2931547619048  16.6117788461538 19.5758928571429  C 16.3529647435897 19.858630952381  16.0464743589744 20  15.6923076923077 20  L 1.30769230769226 20  C 0.953525641025635 20  0.647035256410277 19.858630952381  0.388221153846189 19.5758928571429  C 0.129407051282101 19.2931547619048  0 18.9583333333334  0 18.5714285714286  L 0 4.28571428571433  C 0 3.89880952380952  0.129407051282101 3.56398809523819  0.388221153846189 3.28125  C 0.647035256410277 2.99851190476181  0.953525641025635 2.85714285714289  1.30769230769226 2.85714285714289  L 2.61538461538464 2.85714285714289  L 2.61538461538464 1.78571428571433  C 2.61538461538464 1.29464285714289  2.77544070512818 0.874255952380963  3.09555288461536 0.524553571428555  C 3.41566506410254 0.174851190476147  3.80048076923072 0  4.25 0  L 4.90384615384619 0  C 5.35336538461536 0  5.73818108974353 0.174851190476147  6.05829326923072 0.524553571428555  C 6.3784054487179 0.874255952380963  6.53846153846155 1.29464285714289  6.53846153846155 1.78571428571433  L 6.53846153846155 2.85714285714289  L 10.4615384615385 2.85714285714289  L 10.4615384615385 1.78571428571433  C 10.4615384615385 1.29464285714289  10.6215945512821 0.874255952380963  10.9417067307693 0.524553571428555  C 11.2618189102565 0.174851190476147  11.6466346153846 0  12.0961538461538 0  L 12.75 0  C 13.1995192307693 0  13.5843349358975 0.174851190476147  13.9044471153846 0.524553571428555  C 14.2245592948718 0.874255952380963  14.3846153846154 1.29464285714289  14.3846153846154 1.78571428571433  L 14.3846153846154 2.85714285714289  L 15.6923076923077 2.85714285714289  C 16.0464743589744 2.85714285714289  16.3529647435897 2.99851190476181  16.6117788461538 3.28125  Z " fill-rule="nonzero" fill="#000000" stroke="none" transform="matrix(1 0 0 1 776 577 )" />
  </g>
</svg>