<?xml version="1.0" encoding="utf-8"?>
<svg version="1.1" xmlns:xlink="http://www.w3.org/1999/xlink" width="12px" height="12px" viewBox="601 549  12 12" xmlns="http://www.w3.org/2000/svg">
  <path d="M 607 549  C 610.36 549  613 551.64  613 555  C 613 558.36  610.36 561  607 561  C 603.64 561  601 558.36  601 555  C 601 551.64  603.64 549  607 549  Z " fill-rule="nonzero" fill="#ffffff" stroke="none" />
  <path d="M 607 549.5  C 610.08 549.5  612.5 551.92  612.5 555  C 612.5 558.08  610.08 560.5  607 560.5  C 603.92 560.5  601.5 558.08  601.5 555  C 601.5 551.92  603.92 549.5  607 549.5  Z " stroke-width="1" stroke="#797979" fill="none" />
  <path d="M 607 558  C 605.32 558  604 556.68  604 555  C 604 553.32  605.32 552  607 552  C 608.68 552  610 553.32  610 555  C 610 556.68  608.68 558  607 558  " fill-rule="nonzero" fill="#797979" stroke="none" />
</svg>