<?xml version="1.0" encoding="utf-8"?>
<svg version="1.1" xmlns:xlink="http://www.w3.org/1999/xlink" width="12px" height="12px" viewBox="493 362  12 12" xmlns="http://www.w3.org/2000/svg">
  <path d="M 499 362  C 502.36 362  505 364.64  505 368  C 505 371.36  502.36 374  499 374  C 495.64 374  493 371.36  493 368  C 493 364.64  495.64 362  499 362  Z " fill-rule="nonzero" fill="#f0f0f0" stroke="none" />
  <path d="M 499 362.5  C 502.08 362.5  504.5 364.92  504.5 368  C 504.5 371.08  502.08 373.5  499 373.5  C 495.92 373.5  493.5 371.08  493.5 368  C 493.5 364.92  495.92 362.5  499 362.5  Z " stroke-width="1" stroke="#797979" fill="none" />
  <path d="M 499 371  C 497.32 371  496 369.68  496 368  C 496 366.32  497.32 365  499 365  C 500.68 365  502 366.32  502 368  C 502 369.68  500.68 371  499 371  " fill-rule="nonzero" fill="#797979" stroke="none" />
</svg>