<?xml version="1.0" encoding="utf-8"?>
<svg version="1.1" xmlns:xlink="http://www.w3.org/1999/xlink" width="12px" height="12px" viewBox="603 494  12 12" xmlns="http://www.w3.org/2000/svg">
  <path d="M 609 494  C 612.36 494  615 496.64  615 500  C 615 503.36  612.36 506  609 506  C 605.64 506  603 503.36  603 500  C 603 496.64  605.64 494  609 494  Z " fill-rule="nonzero" fill="#ffffff" stroke="none" />
  <path d="M 609 494.5  C 612.08 494.5  614.5 496.92  614.5 500  C 614.5 503.08  612.08 505.5  609 505.5  C 605.92 505.5  603.5 503.08  603.5 500  C 603.5 496.92  605.92 494.5  609 494.5  Z " stroke-width="1" stroke="#797979" fill="none" />
  <path d="M 609 503  C 607.32 503  606 501.68  606 500  C 606 498.32  607.32 497  609 497  C 610.68 497  612 498.32  612 500  C 612 501.68  610.68 503  609 503  " fill-rule="nonzero" fill="#797979" stroke="none" />
</svg>