<?xml version="1.0" encoding="utf-8"?>
<svg version="1.1" xmlns:xlink="http://www.w3.org/1999/xlink" width="12px" height="12px" viewBox="493 494  12 12" xmlns="http://www.w3.org/2000/svg">
  <path d="M 499 494  C 502.36 494  505 496.64  505 500  C 505 503.36  502.36 506  499 506  C 495.64 506  493 503.36  493 500  C 493 496.64  495.64 494  499 494  Z " fill-rule="nonzero" fill="#f0f0f0" stroke="none" />
  <path d="M 499 494.5  C 502.08 494.5  504.5 496.92  504.5 500  C 504.5 503.08  502.08 505.5  499 505.5  C 495.92 505.5  493.5 503.08  493.5 500  C 493.5 496.92  495.92 494.5  499 494.5  Z " stroke-width="1" stroke="#797979" fill="none" />
  <path d="M 499 503  C 497.32 503  496 501.68  496 500  C 496 498.32  497.32 497  499 497  C 500.68 497  502 498.32  502 500  C 502 501.68  500.68 503  499 503  " fill-rule="nonzero" fill="#797979" stroke="none" />
</svg>