<?xml version="1.0" encoding="utf-8"?>
<svg version="1.1" xmlns:xlink="http://www.w3.org/1999/xlink" width="738px" height="10px" preserveAspectRatio="xMinYMid meet" viewBox="283 729  738 8" xmlns="http://www.w3.org/2000/svg">
  <path d="M 288 733.5  L 409 733.5  A 3 3 0 0 1 412 730.5 A 3 3 0 0 1 415 733.5 L 611 733.5  A 3 3 0 0 1 614 730.5 A 3 3 0 0 1 617 733.5 L 810 733.5  A 3 3 0 0 1 813 730.5 A 3 3 0 0 1 816 733.5 L 1011 733.5  A 5 5 0 0 1 1016.5 738.5 L 1016.5 795  " stroke-width="1" stroke="#027db4" fill="none" />
  <path d="M 1010.2 794  L 1016.5 800  L 1022.8 794  L 1010.2 794  Z " fill-rule="nonzero" fill="#027db4" stroke="none" />
</svg>