<?xml version="1.0" encoding="utf-8"?>
<svg version="1.1" xmlns:xlink="http://www.w3.org/1999/xlink" width="12px" height="12px" viewBox="631 209  12 12" xmlns="http://www.w3.org/2000/svg">
  <path d="M 637 209  C 640.36 209  643 211.64  643 215  C 643 218.36  640.36 221  637 221  C 633.64 221  631 218.36  631 215  C 631 211.64  633.64 209  637 209  Z " fill-rule="nonzero" fill="#ffffff" stroke="none" />
  <path d="M 637 209.5  C 640.08 209.5  642.5 211.92  642.5 215  C 642.5 218.08  640.08 220.5  637 220.5  C 633.92 220.5  631.5 218.08  631.5 215  C 631.5 211.92  633.92 209.5  637 209.5  Z " stroke-width="1" stroke="#797979" fill="none" />
  <path d="M 637 218  C 635.32 218  634 216.68  634 215  C 634 213.32  635.32 212  637 212  C 638.68 212  640 213.32  640 215  C 640 216.68  638.68 218  637 218  " fill-rule="nonzero" fill="#797979" stroke="none" />
</svg>