<?xml version="1.0" encoding="utf-8"?>
<svg version="1.1" xmlns:xlink="http://www.w3.org/1999/xlink" width="16px" height="16px" xmlns="http://www.w3.org/2000/svg">
  <g transform="matrix(1 0 0 1 -1041 -287 )">
    <path d="M 9.8125 9.8125  C 10.6554487179487 8.96955128205124  11.076923076923 7.9551282051282  11.076923076923 6.76923076923078  C 11.076923076923 5.58333333333335  10.6554487179487 4.56891025641023  9.8125 3.72596153846157  C 8.96955128205131 2.88301282051282  7.9551282051282 2.46153846153843  6.76923076923082 2.46153846153843  C 5.58333333333328 2.46153846153843  4.56891025641033 2.88301282051282  3.72596153846164 3.72596153846157  C 2.88301282051262 4.56891025641023  2.46153846153836 5.58333333333335  2.46153846153836 6.76923076923078  C 2.46153846153836 7.9551282051282  2.88301282051262 8.96955128205124  3.72596153846164 9.8125  C 4.56891025641033 10.6554487179488  5.58333333333328 11.076923076923  6.76923076923082 11.076923076923  C 7.9551282051282 11.076923076923  8.96955128205131 10.6554487179488  9.8125 9.8125  Z M 15.6442307692308 13.9038461538462  C 15.8814102564103 14.1410256410256  16 14.4294871794872  16 14.7692307692308  C 16 15.1025641025641  15.8782051282051 15.3910256410256  15.6346153846154 15.6346153846154  C 15.3910256410256 15.8782051282051  15.1025641025641 16  14.7692307692308 16  C 14.423076923077 16  14.1346153846154 15.8782051282051  13.9038461538462 15.6346153846154  L 10.6057692307692 12.3461538461538  C 9.45833333333328 13.1410256410256  8.17948717948738 13.5384615384616  6.76923076923082 13.5384615384616  C 5.8525641025641 13.5384615384616  4.97596153846164 13.360576923077  4.13942307692295 13.0048076923077  C 3.30288461538459 12.6490384615384  2.58173076923082 12.1682692307692  1.97596153846164 11.5625  C 1.3701923076923 10.9567307692308  0.88942307692295 10.235576923077  0.53365384615377 9.39903846153843  C 0.17788461538459 8.5625  0 7.68589743589743  0 6.76923076923078  C 0 5.85256410256406  0.17788461538459 4.97596153846157  0.53365384615377 4.13942307692305  C 0.88942307692295 3.30288461538461  1.3701923076923 2.58173076923077  1.97596153846164 1.97596153846157  C 2.58173076923082 1.37019230769234  3.30288461538459 0.889423076923048  4.13942307692295 0.533653846153834  C 4.97596153846164 0.177884615384608  5.8525641025641 0  6.76923076923082 0  C 7.68589743589754 0  8.5625 0.177884615384608  9.39903846153836 0.533653846153834  C 10.235576923077 0.889423076923048  10.9567307692308 1.37019230769234  11.5625 1.97596153846157  C 12.1682692307692 2.58173076923077  12.6490384615384 3.30288461538461  13.0048076923077 4.13942307692305  C 13.360576923077 4.97596153846157  13.5384615384616 5.85256410256406  13.5384615384616 6.76923076923078  C 13.5384615384616 8.17948717948718  13.1410256410256 9.45833333333335  12.3461538461538 10.6057692307692  L 15.6442307692308 13.9038461538462  Z " fill-rule="nonzero" fill="#999999" stroke="none" transform="matrix(1 0 0 1 1041 287 )" />
  </g>
</svg>