<?xml version="1.0" encoding="utf-8"?>
<svg version="1.1" xmlns:xlink="http://www.w3.org/1999/xlink" width="29px" height="24px" xmlns="http://www.w3.org/2000/svg">
  <g transform="matrix(1 0 0 1 -200 -94 )">
    <path d="M 13.52466367713 18  L 14.4349775784753 18  L 16.3206278026906 16.0227272727273  L 13.8497757847534 13.4318181818182  L 11.9641255605381 15.4090909090909  L 11.9641255605381 16.3636363636364  L 13.52466367713 16.3636363636364  L 13.52466367713 18  Z M 21.5711883408072 6.28977272727273  C 21.7554185351271 6.09659090909091  21.7608370702541 5.90909090909091  21.5874439461883 5.72727272727273  C 21.4140508221226 5.54545454545455  21.2352391629298 5.55113636363636  21.0510089686099 5.74431818181819  L 15.3615470852018 11.7102272727273  C 15.1773168908819 11.9034090909091  15.1718983557548 12.0909090909091  15.3452914798206 12.2727272727273  C 15.5186846038864 12.4545454545455  15.6974962630792 12.4488636363636  15.8817264573991 12.2556818181818  L 21.5711883408072 6.28977272727273  Z M 22.5627802690583 15.3579545454545  C 22.7795216741405 15.4488636363636  22.8878923766816 15.6136363636364  22.8878923766816 15.8522727272727  L 22.8878923766816 19.0909090909091  C 22.8878923766816 20.4431818181818  22.4300261584455 21.5994318181818  21.5142937219731 22.5596590909091  C 20.5985612855008 23.5198863636364  19.495889387145 24  18.2062780269058 24  L 4.68161434977577 24  C 3.39200298953662 24  2.28933109118086 23.5198863636364  1.37359865470853 22.5596590909091  C 0.457866218236177 21.5994318181818  0 20.4431818181818  0 19.0909090909091  L 0 4.90909090909091  C 0 3.55681818181817  0.457866218236177 2.40056818181819  1.37359865470853 1.44034090909091  C 2.28933109118086 0.48011363636364  3.39200298953662 0  4.68161434977577 0  L 18.2062780269058 0  C 18.8890134529148 0  19.5229820627803 0.142045454545453  20.1081838565023 0.42613636363636  C 20.2707399103139 0.505681818181813  20.3682735426009 0.63636363636364  20.4007847533632 0.818181818181813  C 20.4332959641256 1.01136363636364  20.3845291479821 1.17613636363636  20.2544843049327 1.3125  L 19.4579596412556 2.14772727272727  C 19.3062406576981 2.30681818181819  19.1328475336323 2.35227272727273  18.9377802690583 2.28409090909091  C 18.6885276532138 2.21590909090909  18.4446935724962 2.18181818181819  18.2062780269058 2.18181818181819  L 4.68161434977577 2.18181818181819  C 3.96636771300447 2.18181818181819  3.35407324364724 2.44886363636364  2.84473094170403 2.98295454545455  C 2.33538863976085 3.51704545454545  2.08071748878925 4.15909090909091  2 4.90909090909091  L 2 19.0909090909091  C 2.08071748878925 19.8409090909091  2.33538863976085 20.4829545454545  2.84473094170403 21.0170454545455  C 3.35407324364724 21.5511363636364  3.96636771300447 21.8181818181818  4.68161434977577 21.8181818181818  L 18.2062780269058 21.8181818181818  C 18.9215246636771 21.8181818181818  19.5338191330344 21.5511363636364  20.0431614349776 21.0170454545455  C 20.5525037369208 20.4829545454545  20.8071748878924 19.8409090909091  20.8071748878924 19.0909090909091  L 20.8071748878924 16.9431818181818  C 20.8071748878924 16.7954545454545  20.8559417040359 16.6704545454545  20.9534753363229 16.5681818181818  L 21.9938340807175 15.4772727272727  C 22.1563901345291 15.3068181818182  22.3460388639761 15.2670454545455  22.5627802690583 15.3579545454545  Z M 10.4035874439462 14.7272727272727  L 21.3273542600897 3.27272727272727  L 26.0089686098655 8.18181818181819  L 15.085201793722 19.6363636363636  L 10.4035874439462 19.6363636363636  L 10.4035874439462 14.7272727272727  Z M 29 4.36363636363636  C 29 4.81818181818181  28.8482810164425 5.20454545454545  28.5448430493273 5.52272727272727  L 27.0493273542601 7.09090909090909  L 22.3677130044843 2.18181818181819  L 23.8632286995516 0.61363636363636  C 24.1666666666667 0.295454545454547  24.5351270553064 0.13636363636364  24.9686098654709 0.13636363636364  C 25.4020926756353 0.13636363636364  25.770553064275 0.295454545454547  26.0739910313901 0.61363636363636  L 28.5448430493273 3.20454545454545  C 28.8482810164425 3.52272727272727  29 3.90909090909091  29 4.36363636363636  Z " fill-rule="nonzero" fill="#333333" stroke="none" transform="matrix(1 0 0 1 200 94 )" />
  </g>
</svg>