<?xml version="1.0" encoding="utf-8"?>
<svg version="1.1" xmlns:xlink="http://www.w3.org/1999/xlink" width="488px" height="212px" xmlns="http://www.w3.org/2000/svg">
  <g transform="matrix(1 0 0 1 -584 -408 )">
    <path d="M 585 416  A 7 7 0 0 1 592 409 L 1064 409  A 7 7 0 0 1 1071 416 L 1071 612  A 7 7 0 0 1 1064 619 L 592 619  A 7 7 0 0 1 585 612 L 585 416  Z " fill-rule="nonzero" fill="#ffffff" stroke="none" fill-opacity="0" />
    <path d="M 584.5 416  A 7.5 7.5 0 0 1 592 408.5 L 1064 408.5  A 7.5 7.5 0 0 1 1071.5 416 L 1071.5 612  A 7.5 7.5 0 0 1 1064 619.5 L 592 619.5  A 7.5 7.5 0 0 1 584.5 612 L 584.5 416  Z " stroke-width="1" stroke-dasharray="17,8" stroke="#ec808d" fill="none" stroke-dashoffset="0.5" />
  </g>
</svg>