<?xml version="1.0" encoding="utf-8"?>
<svg version="1.1" xmlns:xlink="http://www.w3.org/1999/xlink" width="400px" height="240px" xmlns="http://www.w3.org/2000/svg">
  <g transform="matrix(1 0 0 1 -144 -408 )">
    <path d="M 145 416  A 7 7 0 0 1 152 409 L 536 409  A 7 7 0 0 1 543 416 L 543 640  A 7 7 0 0 1 536 647 L 152 647  A 7 7 0 0 1 145 640 L 145 416  Z " fill-rule="nonzero" fill="#ffffff" stroke="none" fill-opacity="0" />
    <path d="M 144.5 416  A 7.5 7.5 0 0 1 152 408.5 L 536 408.5  A 7.5 7.5 0 0 1 543.5 416 L 543.5 640  A 7.5 7.5 0 0 1 536 647.5 L 152 647.5  A 7.5 7.5 0 0 1 144.5 640 L 144.5 416  Z " stroke-width="1" stroke-dasharray="17,8" stroke="#ec808d" fill="none" stroke-dashoffset="0.5" />
  </g>
</svg>