<?xml version="1.0" encoding="utf-8"?>
<svg version="1.1" xmlns:xlink="http://www.w3.org/1999/xlink" width="624px" height="248px" xmlns="http://www.w3.org/2000/svg">
  <g transform="matrix(1 0 0 1 -680 -72 )">
    <path d="M 681 80  A 7 7 0 0 1 688 73 L 1296 73  A 7 7 0 0 1 1303 80 L 1303 312  A 7 7 0 0 1 1296 319 L 688 319  A 7 7 0 0 1 681 312 L 681 80  Z " fill-rule="nonzero" fill="#ffffff" stroke="none" fill-opacity="0" />
    <path d="M 680.5 80  A 7.5 7.5 0 0 1 688 72.5 L 1296 72.5  A 7.5 7.5 0 0 1 1303.5 80 L 1303.5 312  A 7.5 7.5 0 0 1 1296 319.5 L 688 319.5  A 7.5 7.5 0 0 1 680.5 312 L 680.5 80  Z " stroke-width="1" stroke-dasharray="17,8" stroke="#ec808d" fill="none" stroke-dashoffset="0.5" />
  </g>
</svg>