<?xml version="1.0" encoding="utf-8"?>
<svg version="1.1" xmlns:xlink="http://www.w3.org/1999/xlink" width="160px" height="190px" xmlns="http://www.w3.org/2000/svg">
  <g transform="matrix(1 0 0 1 -1416 -106 )">
    <path d="M 1417 114  A 7 7 0 0 1 1424 107 L 1568 107  A 7 7 0 0 1 1575 114 L 1575 288  A 7 7 0 0 1 1568 295 L 1424 295  A 7 7 0 0 1 1417 288 L 1417 114  Z " fill-rule="nonzero" fill="#ffffff" stroke="none" fill-opacity="0" />
    <path d="M 1416.5 114  A 7.5 7.5 0 0 1 1424 106.5 L 1568 106.5  A 7.5 7.5 0 0 1 1575.5 114 L 1575.5 288  A 7.5 7.5 0 0 1 1568 295.5 L 1424 295.5  A 7.5 7.5 0 0 1 1416.5 288 L 1416.5 114  Z " stroke-width="1" stroke-dasharray="17,8" stroke="#ec808d" fill="none" stroke-dashoffset="0.5" />
  </g>
</svg>