<?xml version="1.0" encoding="utf-8"?>
<svg version="1.1" xmlns:xlink="http://www.w3.org/1999/xlink" width="168px" height="248px" xmlns="http://www.w3.org/2000/svg">
  <g transform="matrix(1 0 0 1 -312 -72 )">
    <path d="M 313 80  A 7 7 0 0 1 320 73 L 472 73  A 7 7 0 0 1 479 80 L 479 312  A 7 7 0 0 1 472 319 L 320 319  A 7 7 0 0 1 313 312 L 313 80  Z " fill-rule="nonzero" fill="#ffffff" stroke="none" fill-opacity="0" />
    <path d="M 312.5 80  A 7.5 7.5 0 0 1 320 72.5 L 472 72.5  A 7.5 7.5 0 0 1 479.5 80 L 479.5 312  A 7.5 7.5 0 0 1 472 319.5 L 320 319.5  A 7.5 7.5 0 0 1 312.5 312 L 312.5 80  Z " stroke-width="1" stroke-dasharray="17,8" stroke="#ec808d" fill="none" stroke-dashoffset="0.5" />
  </g>
</svg>