<?xml version="1.0" encoding="utf-8"?>
<svg version="1.1" xmlns:xlink="http://www.w3.org/1999/xlink" width="480px" height="200px" xmlns="http://www.w3.org/2000/svg">
  <g transform="matrix(1 0 0 1 -312 -552 )">
    <path d="M 313 560  A 7 7 0 0 1 320 553 L 784 553  A 7 7 0 0 1 791 560 L 791 744  A 7 7 0 0 1 784 751 L 320 751  A 7 7 0 0 1 313 744 L 313 560  Z " fill-rule="nonzero" fill="#ffffff" stroke="none" fill-opacity="0" />
    <path d="M 312.5 560  A 7.5 7.5 0 0 1 320 552.5 L 784 552.5  A 7.5 7.5 0 0 1 791.5 560 L 791.5 744  A 7.5 7.5 0 0 1 784 751.5 L 320 751.5  A 7.5 7.5 0 0 1 312.5 744 L 312.5 560  Z " stroke-width="1" stroke-dasharray="17,8" stroke="#ec808d" fill="none" stroke-dashoffset="0.5" />
  </g>
</svg>