<?xml version="1.0" encoding="utf-8"?>
<svg version="1.1" xmlns:xlink="http://www.w3.org/1999/xlink" width="80px" height="80px" xmlns="http://www.w3.org/2000/svg">
  <g transform="matrix(1 0 0 1 -592 -608 )">
    <path d="M 594 616  A 6 6 0 0 1 600 610 L 664 610  A 6 6 0 0 1 670 616 L 670 680  A 6 6 0 0 1 664 686 L 600 686  A 6 6 0 0 1 594 680 L 594 616  Z " fill-rule="nonzero" fill="#ffffff" stroke="none" fill-opacity="0" />
    <path d="M 593 616  A 7 7 0 0 1 600 609 L 664 609  A 7 7 0 0 1 671 616 L 671 680  A 7 7 0 0 1 664 687 L 600 687  A 7 7 0 0 1 593 680 L 593 616  Z " stroke-width="2" stroke-dasharray="18,8" stroke="#5d7092" fill="none" />
  </g>
</svg>