<?xml version="1.0" encoding="utf-8"?>
<svg version="1.1" xmlns:xlink="http://www.w3.org/1999/xlink" width="10px" height="57px" preserveAspectRatio="xMidYMin meet" viewBox="660 504  8 57" xmlns="http://www.w3.org/2000/svg">
  <path d="M 632.5 602  L 632.5 561  A 5 5 0 0 1 637.5 556.5 L 659 556.5  A 5 5 0 0 0 664.5 551.5 L 664.5 510  " stroke-width="1" stroke="#027db4" fill="none" />
  <path d="M 628.8 604.1  L 632.5 608  L 636.2 604.1  L 632.5 600.3  L 628.8 604.1  Z M 634.8 604.1  L 632.5 606.6  L 630.2 604.1  L 632.5 601.7  L 634.8 604.1  Z M 668.2 507.9  L 664.5 504  L 660.8 507.9  L 664.5 511.7  L 668.2 507.9  Z M 662.2 507.9  L 664.5 505.4  L 666.8 507.9  L 664.5 510.3  L 662.2 507.9  Z " fill-rule="nonzero" fill="#027db4" stroke="none" />
</svg>