<?xml version="1.0" encoding="utf-8"?>
<svg version="1.1" xmlns:xlink="http://www.w3.org/1999/xlink" width="10px" height="57px" preserveAspectRatio="xMidYMin meet" viewBox="748 504  8 57" xmlns="http://www.w3.org/2000/svg">
  <path d="M 720.5 602  L 720.5 561  A 5 5 0 0 1 725.5 556.5 L 747 556.5  A 5 5 0 0 0 752.5 551.5 L 752.5 510  " stroke-width="1" stroke="#027db4" fill="none" />
  <path d="M 716.8 604.1  L 720.5 608  L 724.2 604.1  L 720.5 600.3  L 716.8 604.1  Z M 722.8 604.1  L 720.5 606.6  L 718.2 604.1  L 720.5 601.7  L 722.8 604.1  Z M 756.2 507.9  L 752.5 504  L 748.8 507.9  L 752.5 511.7  L 756.2 507.9  Z M 750.2 507.9  L 752.5 505.4  L 754.8 507.9  L 752.5 510.3  L 750.2 507.9  Z " fill-rule="nonzero" fill="#027db4" stroke="none" />
</svg>