<?xml version="1.0" encoding="utf-8"?>
<svg version="1.1" xmlns:xlink="http://www.w3.org/1999/xlink" width="10px" height="29px" preserveAspectRatio="xMidYMin meet" viewBox="1090 355  8 29" xmlns="http://www.w3.org/2000/svg">
  <defs>
    <mask fill="white" id="clip68">
      <path d="M 1137.5 348  L 1208.5 348  L 1208.5 372  L 1137.5 372  Z M 1085 295  L 1229 295  L 1229 393  L 1085 393  Z " fill-rule="evenodd" />
    </mask>
  </defs>
  <path d="M 1094.5 378  L 1094.5 365  A 5 5 0 0 1 1099.5 360.5 L 1215 360.5  A 5 5 0 0 0 1220.5 355.5 L 1220.5 310  " stroke-width="1" stroke="#027db4" fill="none" mask="url(#clip68)" />
  <path d="M 1090.8 380.1  L 1094.5 384  L 1098.2 380.1  L 1094.5 376.3  L 1090.8 380.1  Z M 1096.8 380.1  L 1094.5 382.6  L 1092.2 380.1  L 1094.5 377.7  L 1096.8 380.1  Z M 1224.2 307.9  L 1220.5 304  L 1216.8 307.9  L 1220.5 311.7  L 1224.2 307.9  Z M 1218.2 307.9  L 1220.5 305.4  L 1222.8 307.9  L 1220.5 310.3  L 1218.2 307.9  Z " fill-rule="nonzero" fill="#027db4" stroke="none" mask="url(#clip68)" />
</svg>