<?xml version="1.0" encoding="utf-8"?>
<svg version="1.1" xmlns:xlink="http://www.w3.org/1999/xlink" width="18px" height="19px" preserveAspectRatio="xMidYMin meet" viewBox="464 374  16 19" xmlns="http://www.w3.org/2000/svg">
  <defs>
    <mask fill="white" id="clip81">
      <path d="M 658.5 332  L 729.5 332  L 729.5 356  L 658.5 356  Z M 463 295  L 925 295  L 925 393  L 463 393  Z " fill-rule="evenodd" />
    </mask>
  </defs>
  <path d="M 472.5 378  L 472.5 349  A 5 5 0 0 1 477.5 344.5 L 911 344.5  A 5 5 0 0 0 916.5 339.5 L 916.5 310  " stroke-width="1" stroke="#027db4" fill="none" mask="url(#clip81)" />
  <path d="M 468.8 380.1  L 472.5 384  L 476.2 380.1  L 472.5 376.3  L 468.8 380.1  Z M 474.8 380.1  L 472.5 382.6  L 470.2 380.1  L 472.5 377.7  L 474.8 380.1  Z M 920.2 307.9  L 916.5 304  L 912.8 307.9  L 916.5 311.7  L 920.2 307.9  Z M 914.2 307.9  L 916.5 305.4  L 918.8 307.9  L 916.5 310.3  L 914.2 307.9  Z " fill-rule="nonzero" fill="#027db4" stroke="none" mask="url(#clip81)" />
</svg>