<?xml version="1.0" encoding="utf-8"?>
<svg version="1.1" xmlns:xlink="http://www.w3.org/1999/xlink" width="180px" height="200px" xmlns="http://www.w3.org/2000/svg">
  <g transform="matrix(1 0 0 1 -808 -552 )">
    <path d="M 809 560  A 7 7 0 0 1 816 553 L 980 553  A 7 7 0 0 1 987 560 L 987 744  A 7 7 0 0 1 980 751 L 816 751  A 7 7 0 0 1 809 744 L 809 560  Z " fill-rule="nonzero" fill="#ffffff" stroke="none" fill-opacity="0" />
    <path d="M 808.5 560  A 7.5 7.5 0 0 1 816 552.5 L 980 552.5  A 7.5 7.5 0 0 1 987.5 560 L 987.5 744  A 7.5 7.5 0 0 1 980 751.5 L 816 751.5  A 7.5 7.5 0 0 1 808.5 744 L 808.5 560  Z " stroke-width="1" stroke-dasharray="17,8" stroke="#ec808d" fill="none" stroke-dashoffset="0.5" />
  </g>
</svg>