<?xml version="1.0" encoding="utf-8"?>
<svg version="1.1" xmlns:xlink="http://www.w3.org/1999/xlink" width="10px" height="57px" preserveAspectRatio="xMidYMin meet" viewBox="540 551  8 57" xmlns="http://www.w3.org/2000/svg">
  <path d="M 544.5 602  L 544.5 561  A 5 5 0 0 1 549.5 556.5 L 571 556.5  A 5 5 0 0 0 576.5 551.5 L 576.5 510  " stroke-width="1" stroke="#027db4" fill="none" />
  <path d="M 540.8 604.1  L 544.5 608  L 548.2 604.1  L 544.5 600.3  L 540.8 604.1  Z M 546.8 604.1  L 544.5 606.6  L 542.2 604.1  L 544.5 601.7  L 546.8 604.1  Z M 580.2 507.9  L 576.5 504  L 572.8 507.9  L 576.5 511.7  L 580.2 507.9  Z M 574.2 507.9  L 576.5 505.4  L 578.8 507.9  L 576.5 510.3  L 574.2 507.9  Z " fill-rule="nonzero" fill="#027db4" stroke="none" />
</svg>