<?xml version="1.0" encoding="utf-8"?>
<svg version="1.1" xmlns:xlink="http://www.w3.org/1999/xlink" width="10px" height="29px" preserveAspectRatio="xMidYMin meet" viewBox="748 355  8 29" xmlns="http://www.w3.org/2000/svg">
  <defs>
    <mask fill="white" id="clip35">
      <path d="M 890.13 348  L 961.87 348  L 961.87 372  L 890.13 372  Z M 743 295  L 1077 295  L 1077 393  L 743 393  Z " fill-rule="evenodd" />
    </mask>
  </defs>
  <path d="M 752.5 378  L 752.5 365  A 5 5 0 0 1 757.5 360.5 L 1063 360.5  A 5 5 0 0 0 1068.5 355.5 L 1068.5 310  " stroke-width="1" stroke="#027db4" fill="none" mask="url(#clip35)" />
  <path d="M 748.8 380.1  L 752.5 384  L 756.2 380.1  L 752.5 376.3  L 748.8 380.1  Z M 754.8 380.1  L 752.5 382.6  L 750.2 380.1  L 752.5 377.7  L 754.8 380.1  Z M 1072.2 307.9  L 1068.5 304  L 1064.8 307.9  L 1068.5 311.7  L 1072.2 307.9  Z M 1066.2 307.9  L 1068.5 305.4  L 1070.8 307.9  L 1068.5 310.3  L 1066.2 307.9  Z " fill-rule="nonzero" fill="#027db4" stroke="none" mask="url(#clip35)" />
</svg>