<?xml version="1.0" encoding="utf-8"?>
<svg version="1.1" xmlns:xlink="http://www.w3.org/1999/xlink" width="398px" height="10px" preserveAspectRatio="xMinYMid meet" viewBox="371 324  398 8" xmlns="http://www.w3.org/2000/svg">
  <defs>
    <mask fill="white" id="clip46">
      <path d="M 518.5 316  L 589.5 316  L 589.5 340  L 518.5 340  Z M 367 295  L 773 295  L 773 393  L 367 393  Z " fill-rule="evenodd" />
    </mask>
  </defs>
  <path d="M 376.5 378  L 376.5 333  A 5 5 0 0 1 381.5 328.5 L 759 328.5  A 5 5 0 0 0 764.5 323.5 L 764.5 310  " stroke-width="1" stroke="#027db4" fill="none" mask="url(#clip46)" />
  <path d="M 372.8 380.1  L 376.5 384  L 380.2 380.1  L 376.5 376.3  L 372.8 380.1  Z M 378.8 380.1  L 376.5 382.6  L 374.2 380.1  L 376.5 377.7  L 378.8 380.1  Z M 768.2 307.9  L 764.5 304  L 760.8 307.9  L 764.5 311.7  L 768.2 307.9  Z M 762.2 307.9  L 764.5 305.4  L 766.8 307.9  L 764.5 310.3  L 762.2 307.9  Z " fill-rule="nonzero" fill="#027db4" stroke="none" mask="url(#clip46)" />
</svg>