<?xml version="1.0" encoding="utf-8"?>
<svg version="1.1" xmlns:xlink="http://www.w3.org/1999/xlink" width="82px" height="10px" preserveAspectRatio="xMinYMid meet" viewBox="319 254  82 8" xmlns="http://www.w3.org/2000/svg">
  <defs>
    <mask fill="white" id="clip58">
      <path d="M 308.5 273  L 339.5 273  L 339.5 339  L 308.5 339  Z M 308.5 239  L 405 239  L 405 393  L 308.5 393  Z " fill-rule="evenodd" />
    </mask>
  </defs>
  <path d="M 376.5 378  L 376.5 349  A 5 5 0 0 0 371.5 344.5 L 329 344.5  A 5 5 0 0 1 324.5 339.5 L 324.5 263  A 5 5 0 0 1 329.5 258.5 L 391 258.5  A 5 5 0 0 0 396.5 253.5 " stroke-width="1" stroke="#ff3399" fill="none" mask="url(#clip58)" />
  <path d="M 372.8 380.1  L 376.5 384  L 380.2 380.1  L 376.5 376.3  L 372.8 380.1  Z M 378.8 380.1  L 376.5 382.6  L 374.2 380.1  L 376.5 377.7  L 378.8 380.1  Z M 400.2 251.9  L 396.5 248  L 392.8 251.9  L 396.5 255.7  L 400.2 251.9  Z M 394.2 251.9  L 396.5 249.4  L 398.8 251.9  L 396.5 254.3  L 394.2 251.9  Z " fill-rule="nonzero" fill="#ff3399" stroke="none" mask="url(#clip58)" />
</svg>