<?xml version="1.0" encoding="utf-8"?>
<svg version="1.1" xmlns:xlink="http://www.w3.org/1999/xlink" width="80px" height="120px" xmlns="http://www.w3.org/2000/svg">
  <g transform="matrix(1 0 0 1 -536 -384 )">
    <path d="M 538 392  A 6 6 0 0 1 544 386 L 608 386  A 6 6 0 0 1 614 392 L 614 496  A 6 6 0 0 1 608 502 L 544 502  A 6 6 0 0 1 538 496 L 538 392  Z " fill-rule="nonzero" fill="#5d7092" stroke="none" fill-opacity="0.329411764705882" />
    <path d="M 537 392  A 7 7 0 0 1 544 385 L 608 385  A 7 7 0 0 1 615 392 L 615 496  A 7 7 0 0 1 608 503 L 544 503  A 7 7 0 0 1 537 496 L 537 392  Z " stroke-width="2" stroke-dasharray="18,8" stroke="#5d7092" fill="none" />
  </g>
</svg>