<?xml version="1.0" encoding="utf-8"?>
<svg version="1.1" xmlns:xlink="http://www.w3.org/1999/xlink" width="18px" height="19px" preserveAspectRatio="xMidYMin meet" viewBox="464 495  16 19" xmlns="http://www.w3.org/2000/svg">
  <path d="M 440.5 690  L 440.5 561  A 5 5 0 0 1 445.5 556.5 L 467 556.5  A 5 5 0 0 0 472.5 551.5 L 472.5 510  " stroke-width="1" stroke="#027db4" fill="none" />
  <path d="M 436.8 692.1  L 440.5 696  L 444.2 692.1  L 440.5 688.3  L 436.8 692.1  Z M 442.8 692.1  L 440.5 694.6  L 438.2 692.1  L 440.5 689.7  L 442.8 692.1  Z M 476.2 507.9  L 472.5 504  L 468.8 507.9  L 472.5 511.7  L 476.2 507.9  Z M 470.2 507.9  L 472.5 505.4  L 474.8 507.9  L 472.5 510.3  L 470.2 507.9  Z " fill-rule="nonzero" fill="#027db4" stroke="none" />
</svg>