<?xml version="1.0" encoding="utf-8"?>
<svg version="1.1" xmlns:xlink="http://www.w3.org/1999/xlink" width="86px" height="10px" preserveAspectRatio="xMinYMid meet" viewBox="391 340  86 8" xmlns="http://www.w3.org/2000/svg">
  <defs>
    <mask fill="white" id="clip30">
      <path d="M 403.5 332  L 464.5 332  L 464.5 356  L 403.5 356  Z M 387 295  L 481 295  L 481 393  L 387 393  Z " fill-rule="evenodd" />
    </mask>
  </defs>
  <path d="M 472.5 378  L 472.5 349  A 5 5 0 0 0 467.5 344.5 L 401 344.5  A 5 5 0 0 1 396.5 339 L 396.5 331  A 3 3 0 0 0 399.5 328 A 3 3 0 0 0 396.5 325 L 396.5 310  " stroke-width="1" stroke="#ff3399" fill="none" mask="url(#clip30)" />
  <path d="M 468.8 380.1  L 472.5 384  L 476.2 380.1  L 472.5 376.3  L 468.8 380.1  Z M 474.8 380.1  L 472.5 382.6  L 470.2 380.1  L 472.5 377.7  L 474.8 380.1  Z M 400.2 307.9  L 396.5 304  L 392.8 307.9  L 396.5 311.7  L 400.2 307.9  Z M 394.2 307.9  L 396.5 305.4  L 398.8 307.9  L 396.5 310.3  L 394.2 307.9  Z " fill-rule="nonzero" fill="#ff3399" stroke="none" mask="url(#clip30)" />
</svg>