<?xml version="1.0" encoding="utf-8"?>
<svg version="1.1" xmlns:xlink="http://www.w3.org/1999/xlink" width="168px" height="136px" xmlns="http://www.w3.org/2000/svg">
  <g transform="matrix(1 0 0 1 -528 -944 )">
    <path d="M 529 952  A 7 7 0 0 1 536 945 L 688 945  A 7 7 0 0 1 695 952 L 695 1072  A 7 7 0 0 1 688 1079 L 536 1079  A 7 7 0 0 1 529 1072 L 529 952  Z " fill-rule="nonzero" fill="#ffffff" stroke="none" fill-opacity="0" />
    <path d="M 528.5 952  A 7.5 7.5 0 0 1 536 944.5 L 688 944.5  A 7.5 7.5 0 0 1 695.5 952 L 695.5 1072  A 7.5 7.5 0 0 1 688 1079.5 L 536 1079.5  A 7.5 7.5 0 0 1 528.5 1072 L 528.5 952  Z " stroke-width="1" stroke-dasharray="17,8" stroke="#ec808d" fill="none" stroke-dashoffset="0.5" />
  </g>
</svg>