<?xml version="1.0" encoding="utf-8"?>
<svg version="1.1" xmlns:xlink="http://www.w3.org/1999/xlink" width="168px" height="136px" xmlns="http://www.w3.org/2000/svg">
  <g transform="matrix(1 0 0 1 -528 -808 )">
    <path d="M 529 816  A 7 7 0 0 1 536 809 L 688 809  A 7 7 0 0 1 695 816 L 695 936  A 7 7 0 0 1 688 943 L 536 943  A 7 7 0 0 1 529 936 L 529 816  Z " fill-rule="nonzero" fill="#ffffff" stroke="none" fill-opacity="0" />
    <path d="M 528.5 816  A 7.5 7.5 0 0 1 536 808.5 L 688 808.5  A 7.5 7.5 0 0 1 695.5 816 L 695.5 936  A 7.5 7.5 0 0 1 688 943.5 L 536 943.5  A 7.5 7.5 0 0 1 528.5 936 L 528.5 816  Z " stroke-width="1" stroke-dasharray="17,8" stroke="#ec808d" fill="none" stroke-dashoffset="0.5" />
  </g>
</svg>