<?xml version="1.0" encoding="utf-8"?>
<svg version="1.1" xmlns:xlink="http://www.w3.org/1999/xlink" width="70px" height="70px" xmlns="http://www.w3.org/2000/svg">
  <defs>
    <mask fill="white" id="clip60">
      <path d="M 100 80  C 80.575 80  65 64.425  65 45  L 65 45  C 65 25.575  80.575 10  100 10  L 100 10  C 119.425 10  135 25.575  135 45  L 135 45  C 135 64.425  119.425 80  100 80  " fill-rule="evenodd" />
    </mask>
  </defs>
  <g transform="matrix(1 0 0 1 -65 -10 )">
    <path d="M 65 10  L 135 10  L 135 80  L 65 80  L 65 10  " fill-rule="nonzero" fill="#cccccc" stroke="none" mask="url(#clip60)" />
    <path d="M 70 15  L 130 15  L 130 75  L 70 75  L 70 15  " fill-rule="nonzero" fill="#ffffff" stroke="none" mask="url(#clip60)" />
    <path d="M 106.65 31  C 103.71 31  101.4 28.69  101.4 25.75  C 101.4 22.81  103.71 20.5  106.65 20.5  C 109.59 20.5  111.9 22.81  111.9 25.75  C 111.9 28.69  109.59 31  106.65 31  " fill-rule="nonzero" fill="#cccccc" stroke="none" mask="url(#clip60)" />
    <path d="M 72 73  L 72 42.2  L 86 28.2  L 105.6 39.4  L 116.8 36.6  L 128 39.4  L 128 73  L 72 73  " fill-rule="nonzero" fill="#169bd5" stroke="none" mask="url(#clip60)" />
  </g>
</svg>