<?xml version="1.0" encoding="utf-8"?>
<svg version="1.1" xmlns:xlink="http://www.w3.org/1999/xlink" width="140px" height="70px" xmlns="http://www.w3.org/2000/svg">
  <g transform="matrix(1 0 0 1 -510 -600 )">
    <path d="M 510 600  L 650 600  L 650 670  L 510 670  L 510 600  " fill-rule="nonzero" fill="#cccccc" stroke="none" />
    <path d="M 515 605  L 645 605  L 645 665  L 515 665  L 515 605  " fill-rule="nonzero" fill="#ffffff" stroke="none" />
    <path d="M 588.05 621  C 585.11 621  582.8 618.69  582.8 615.75  C 582.8 612.81  585.11 610.5  588.05 610.5  C 590.99 610.5  593.3 612.81  593.3 615.75  C 593.3 618.69  590.99 621  588.05 621  " fill-rule="nonzero" fill="#cccccc" stroke="none" />
    <path d="M 517 663  L 517 632.2  L 548.5 618.2  L 592.6 646.2  L 617.8 626.6  L 643 646.2  L 643 663  L 517 663  " fill-rule="nonzero" fill="#169bd5" stroke="none" />
  </g>
</svg>