<?xml version="1.0" encoding="utf-8"?>
<svg version="1.1" xmlns:xlink="http://www.w3.org/1999/xlink" width="52px" height="40px" xmlns="http://www.w3.org/2000/svg">
  <g transform="matrix(1 0 0 1 -601 -517 )">
    <path d="M 24.2511210762332 30  L 25.8834080717488 30  L 29.2645739910314 26.7045454545454  L 24.8340807174887 22.3863636363636  L 21.4529147982063 25.6818181818182  L 21.4529147982063 27.2727272727273  L 24.2511210762332 27.2727272727273  L 24.2511210762332 30  Z M 38.6793721973095 10.4829545454546  C 39.0097159940209 10.1609848484848  39.0194319880418 9.84848484848482  38.7085201793723 9.54545454545456  C 38.3976083707024 9.24242424242425  38.0769805680119 9.25189393939394  37.7466367713006 9.57386363636368  L 27.5448430493274 19.5170454545454  C 27.2144992526158 19.8390151515152  27.2047832585949 20.1515151515152  27.5156950672645 20.4545454545454  C 27.8266068759343 20.7575757575758  28.1472346786248 20.7481060606061  28.4775784753364 20.4261363636364  L 38.6793721973095 10.4829545454546  Z M 40.4573991031391 25.5965909090909  C 40.8460388639761 25.7481060606061  41.0403587443946 26.0227272727273  41.0403587443946 26.4204545454546  L 41.0403587443946 31.8181818181818  C 41.0403587443946 34.0719696969697  40.2193572496263 35.999053030303  38.5773542600897 37.5994318181818  C 36.9353512705532 39.1998106060607  34.9581464872945 40  32.6457399103139 40  L 8.39461883408069 40  C 6.0822122571002 40  4.1050074738414 39.1998106060607  2.46300448430486 37.5994318181818  C 0.821001494768325 35.999053030303  0 34.0719696969697  0 31.8181818181818  L 0 8.18181818181819  C 0 5.92803030303031  0.821001494768325 4.000946969697  2.46300448430486 2.40056818181819  C 4.1050074738414 0.80018939393932  6.0822122571002 0  8.39461883408069 0  L 32.6457399103139 0  C 33.8699551569506 0  35.0067264573992 0.236742424242436  36.0560538116592 0.710227272727252  C 36.347533632287 0.842803030303003  36.5224215246636 1.06060606060606  36.5807174887892 1.36363636363643  C 36.6390134529148 1.68560606060606  36.5515695067265 1.96022727272725  36.3183856502242 2.1875  L 34.890134529148 3.57954545454544  C 34.618086696562 3.844696969697  34.3071748878924 3.92045454545456  33.9573991031391 3.80681818181819  C 33.5104633781765 3.69318181818181  33.0732436472346 3.63636363636357  32.6457399103139 4  L 8.39461883408069 4  C 7.11210762331848 3.63636363636357  6.0142002989536 4.08143939393932  5.1008968609865 4.97159090909093  C 4.18759342301951 5.86174242424244  3.7309417040359 6.93181818181819  4 8.18181818181819  L 4 31.8181818181818  C 3.7309417040359 33.0681818181818  4.18759342301951 34.1382575757576  5.1008968609865 35.0284090909091  C 6.0142002989536 35.9185606060607  7.11210762331848 36.3636363636363  8.39461883408069 36  L 32.6457399103139 36  C 33.9282511210763 36.3636363636363  35.026158445441 35.9185606060607  35.9394618834081 35.0284090909091  C 36.8527653213752 34.1382575757576  37.3094170403587 33.0681818181818  37.3094170403587 31.8181818181818  L 37.3094170403587 28.2386363636364  C 37.3094170403587 27.9924242424242  37.396860986547 27.7840909090909  37.5717488789237 27.6136363636364  L 39.4372197309416 25.7954545454546  C 39.7286995515694 25.5113636363636  40.068759342302 25.4450757575758  40.4573991031391 25.5965909090909  Z M 18.6547085201795 24.5454545454546  L 38.2421524663677 5.45454545454544  L 46.6367713004485 13.6363636363637  L 27.0493273542602 32.7272727272727  L 18.6547085201795 32.7272727272727  L 18.6547085201795 24.5454545454546  Z M 52 7.27272727272725  C 52 8.030303030303  51.7279521674141 8.67424242424244  51.1838565022422 9.20454545454544  L 48.5022421524664 11.8181818181818  L 40.1076233183855 3.63636363636357  L 42.7892376681615 1.02272727272725  C 43.3333333333334 0.492424242424249  43.9940209267564 0.227272727272748  44.7713004484306 0.227272727272748  C 45.5485799701046 0.227272727272748  46.2092675635275 0.492424242424249  46.7533632286994 1.02272727272725  L 51.1838565022422 5.34090909090907  C 51.7279521674141 5.87121212121207  52 6.5151515151515  52 7.27272727272725  Z " fill-rule="nonzero" fill="#333333" stroke="none" transform="matrix(1 0 0 1 601 517 )" />
  </g>
</svg>