<?xml version="1.0" encoding="utf-8"?>
<svg version="1.1" xmlns:xlink="http://www.w3.org/1999/xlink" width="12px" height="12px" viewBox="338 697  12 12" xmlns="http://www.w3.org/2000/svg">
  <path d="M 344 697  C 347.36 697  350 699.64  350 703  C 350 706.36  347.36 709  344 709  C 340.64 709  338 706.36  338 703  C 338 699.64  340.64 697  344 697  Z " fill-rule="nonzero" fill="#f0f0f0" stroke="none" />
  <path d="M 344 697.5  C 347.08 697.5  349.5 699.92  349.5 703  C 349.5 706.08  347.08 708.5  344 708.5  C 340.92 708.5  338.5 706.08  338.5 703  C 338.5 699.92  340.92 697.5  344 697.5  Z " stroke-width="1" stroke="#797979" fill="none" />
  <path d="M 344 706  C 342.32 706  341 704.68  341 703  C 341 701.32  342.32 700  344 700  C 345.68 700  347 701.32  347 703  C 347 704.68  345.68 706  344 706  " fill-rule="nonzero" fill="#797979" stroke="none" />
</svg>