<?xml version="1.0" encoding="utf-8"?>
<svg version="1.1" xmlns:xlink="http://www.w3.org/1999/xlink" width="12px" height="12px" viewBox="448 697  12 12" xmlns="http://www.w3.org/2000/svg">
  <path d="M 454 697  C 457.36 697  460 699.64  460 703  C 460 706.36  457.36 709  454 709  C 450.64 709  448 706.36  448 703  C 448 699.64  450.64 697  454 697  Z " fill-rule="nonzero" fill="#ffffff" stroke="none" />
  <path d="M 454 697.5  C 457.08 697.5  459.5 699.92  459.5 703  C 459.5 706.08  457.08 708.5  454 708.5  C 450.92 708.5  448.5 706.08  448.5 703  C 448.5 699.92  450.92 697.5  454 697.5  Z " stroke-width="1" stroke="#797979" fill="none" />
  <path d="M 454 706  C 452.32 706  451 704.68  451 703  C 451 701.32  452.32 700  454 700  C 455.68 700  457 701.32  457 703  C 457 704.68  455.68 706  454 706  " fill-rule="nonzero" fill="#797979" stroke="none" />
</svg>