<?xml version="1.0" encoding="utf-8"?>
<svg version="1.1" xmlns:xlink="http://www.w3.org/1999/xlink" width="400px" height="300px" xmlns="http://www.w3.org/2000/svg">
  <g transform="matrix(1 0 0 1 -300 -160 )">
    <path d="M 300 160  L 700 160  L 700 460  L 300 460  L 300 160  " fill-rule="nonzero" fill="#cccccc" stroke="none" />
    <path d="M 321 181  L 679 181  L 679 439  L 321 439  L 321 181  " fill-rule="nonzero" fill="#ffffff" stroke="none" />
    <path d="M 530.5 250  C 517.9 250  508 240.1  508 227.5  C 508 214.9  517.9 205  530.5 205  C 543.1 205  553 214.9  553 227.5  C 553 240.1  543.1 250  530.5 250  " fill-rule="nonzero" fill="#cccccc" stroke="none" />
    <path d="M 329 432  L 329 298.35  L 414.75 237.6  L 534.8 322.65  L 603.4 274.05  L 672 322.65  L 672 432  L 329 432  " fill-rule="nonzero" fill="#169bd5" stroke="none" />
  </g>
</svg>