<?xml version="1.0" encoding="utf-8"?>
<svg version="1.1" xmlns:xlink="http://www.w3.org/1999/xlink" width="600px" height="400px" xmlns="http://www.w3.org/2000/svg">
  <g transform="matrix(1 0 0 1 -100 -370 )">
    <path d="M 100 370  L 700 370  L 700 770  L 100 770  L 100 370  " fill-rule="nonzero" fill="#cccccc" stroke="none" />
    <path d="M 128 398  L 672 398  L 672 742  L 128 742  L 128 398  " fill-rule="nonzero" fill="#ffffff" stroke="none" />
    <path d="M 442 490  C 425.2 490  412 476.8  412 460  C 412 443.2  425.2 430  442 430  C 458.8 430  472 443.2  472 460  C 472 476.8  458.8 490  442 490  " fill-rule="nonzero" fill="#cccccc" stroke="none" />
    <path d="M 138 732  L 138 553.8  L 269 472.8  L 452.4 602.4  L 557.2 521.4  L 662 602.4  L 662 732  L 138 732  " fill-rule="nonzero" fill="#169bd5" stroke="none" />
  </g>
</svg>