<?xml version="1.0" encoding="utf-8"?>
<svg version="1.1" xmlns:xlink="http://www.w3.org/1999/xlink" width="20px" height="13px" xmlns="http://www.w3.org/2000/svg">
  <g transform="matrix(1 0 0 1 0 -13 )">
    <path d="M 14.2782022664835 9.642094017094  C 15.712640224359 8.77670940170943  16.9056204212454 7.6139601139601  17.8571428571429 6.15384615384616  C 16.7696886446886 4.47293447293448  15.4067937271062 3.21581196581195  13.7684581043956 2.38247863247864  C 14.2048706501831 3.12321937321937  14.4230769230769 3.92450142450143  14.4230769230769 4.7863247863248  C 14.4230769230769 6.1039886039886  13.9526814331502 7.23112535612537  13.0118904532967 8.16773504273505  C 12.0710994734432 9.10434472934472  10.9389308608059 9.5726495726496  9.61538461538458 9.5726495726496  C 8.29183836996333 9.5726495726496  7.15966975732601 9.10434472934472  6.21887877747253 8.16773504273505  C 5.27808779761904 7.23112535612537  4.80769230769232 6.1039886039886  4.80769230769232 4.7863247863248  C 4.80769230769232 3.92450142450143  5.02589858058604 3.12321937321937  5.46231112637361 2.38247863247864  C 3.82397550366301 3.21581196581195  2.46108058608058 4.47293447293448  1.37362637362639 6.15384615384616  C 2.3251488095238 7.6139601139601  3.51812900641028 8.77670940170943  4.95256696428567 9.642094017094  C 6.38700492216117 10.5074786324786  7.94127747252747 10.940170940171  9.61538461538458 10.940170940171  C 11.2894917582418 10.940170940171  12.8437643086081 10.5074786324786  14.2782022664835 9.642094017094  Z M 9.98025412087912 2.41452991452991  C 10.0804143772894 2.31481481481482  10.1304945054945 2.19373219373219  10.1304945054945 2.05128205128204  C 10.1304945054945 1.9088319088319  10.0804143772894 1.78774928774929  9.98025412087912 1.68803418803419  C 9.88009386446885 1.5883190883191  9.75847069597069 1.53846153846153  9.61538461538458 1.53846153846153  C 8.72109661172158 1.53846153846153  7.95379750457874 1.85719373219374  7.31348729395609 2.49465811965811  C 6.67317708333337 3.13212250712252  6.35302197802196 3.8960113960114  6.35302197802196 4.7863247863248  C 6.35302197802196 4.92877492877494  6.4031021062271 5.04985754985755  6.50326236263737 5.14957264957263  C 6.60342261904765 5.24928774928775  6.72504578754581 5.29914529914532  6.86813186813185 5.29914529914532  C 7.01121794871796 5.29914529914532  7.13284111721612 5.24928774928775  7.23300137362639 5.14957264957263  C 7.33316163003667 5.04985754985755  7.38324175824175 4.92877492877494  7.38324175824175 4.7863247863248  C 7.38324175824175 4.17378917378919  7.60144803113553 3.65028490028492  8.03786057692309 3.21581196581195  C 8.4742731227106 2.78133903133903  9.00011446886447 2.56410256410255  9.61538461538458 2.56410256410255  C 9.75847069597069 2.56410256410255  9.88009386446885 2.51424501424502  9.98025412087912 2.41452991452991  Z M 19.0161401098901 5.41666666666666  C 19.1592261904762 5.66595441595442  19.2307692307692 5.91168091168092  19.2307692307692 6.15384615384616  C 19.2307692307692 6.3960113960114  19.1592261904762 6.64173789173792  19.0161401098901 6.89102564102566  C 18.0145375457876 8.52920227920229  16.6677398122711 9.84152421652423  14.9757469093407 10.8279914529915  C 13.2837540064103 11.8144586894587  11.4969665750916 12.3076923076923  9.61538461538458 12.3076923076923  C 7.73380265567766 12.3076923076923  5.94701522435901 11.8126780626781  4.25502232142856 10.8226495726496  C 2.56302941849816 9.83262108262109  1.21623168498166 8.52207977207979  0.214629120879124 6.89102564102566  C 0.0715430402930224 6.64173789173792  0 6.3960113960114  0 6.15384615384616  C 0 5.91168091168092  0.0715430402930224 5.66595441595442  0.214629120879124 5.41666666666666  C 1.21623168498166 3.78561253561256  2.56302941849816 2.47507122507123  4.25502232142856 1.48504273504274  C 5.94701522435901 0.495014245014261  7.73380265567766 0  9.61538461538458 0  C 11.4969665750916 0  13.2837540064103 0.495014245014261  14.9757469093407 1.48504273504274  C 16.6677398122711 2.47507122507123  18.0145375457876 3.78561253561256  19.0161401098901 5.41666666666666  Z " fill-rule="nonzero" fill="#999999" stroke="none" transform="matrix(1 0 0 1 0 13 )" />
  </g>
</svg>