<?xml version="1.0" encoding="utf-8"?>
<svg version="1.1" xmlns:xlink="http://www.w3.org/1999/xlink" width="16px" height="15px" xmlns="http://www.w3.org/2000/svg">
  <g transform="matrix(1 0 0 1 0 -13 )">
    <path d="M 8.93652561247214 12.2085652834008  C 8.99220489977725 12.1532768218623  9.02004454342983 12.0848937246963  9.02004454342983 12.0034159919028  L 9.02004454342983 10.344762145749  C 9.02004454342983 10.2632844129555  8.99220489977725 10.1949013157894  8.93652561247214 10.139612854251  C 8.88084632516703 10.0843243927125  8.81491032704255 10.0566801619433  8.73871761809869 10.0566801619433  L 7.05075606611183 10.0566801619433  C 6.97456335716797 10.0566801619433  6.90862735904349 10.0843243927125  6.85294807173838 10.139612854251  C 6.79726878443327 10.1949013157894  6.76942914078069 10.2632844129555  6.76942914078069 10.344762145749  L 6.76942914078069 12.0034159919028  C 6.76942914078069 12.0848937246963  6.79726878443327 12.1532768218623  6.85294807173838 12.2085652834008  C 6.90862735904349 12.2638537449392  6.97456335716797 12.2914979757085  7.05075606611183 12.2914979757085  L 8.73871761809869 12.2914979757085  C 8.81491032704255 12.2914979757085  8.88084632516703 12.2638537449392  8.93652561247214 12.2085652834008  Z M 8.91015121322238 8.88252783400809  C 8.96583050052749 8.84469888663968  8.9966006329856 8.7966852226721  9.00246161059664 8.73848684210523  L 9.1607080060954 4.73152834008096  C 9.1607080060954 4.66169028340083  9.13140311804011 4.60640182186232  9.07279334192944 4.56566295546561  C 8.9966006329856 4.50164473684211  8.92626890165278 4.46963562753035  8.86179814793107 4.46963562753035  L 6.92767553627945 4.46963562753035  C 6.86320478255774 4.46963562753035  6.79287305122492 4.50164473684211  6.71668034228111 4.56566295546561  C 6.65807056617041 4.60640182186232  6.62876567811512 4.66751012145747  6.62876567811512 4.74898785425101  L 6.77822060719728 8.73848684210523  C 6.77822060719728 8.7966852226721  6.80752549525261 8.84469888663968  6.86613527136328 8.88252783400809  C 6.92474504747392 8.92035678137654  6.99507677880669 8.9392712550607  7.07713046536162 8.9392712550607  L 8.7035517524323 8.9392712550607  C 8.7856054389872 8.9392712550607  8.85447192591724 8.92035678137654  8.91015121322238 8.88252783400809  Z M 8.46618215918417 0.157135627530366  C 8.64201148751613 0.261892712550605  8.77974446137614 0.404478744939269  8.87938108076426 0.584893724696371  L 15.6312272887118 12.8763917004048  C 15.836361505099 13.2430414979757  15.830500527488 13.6096912955465  15.6136443558785 13.9763410931174  C 15.5140077364904 14.1451163967611  15.3777400070332 14.2789726720648  15.2048411675067 14.3779099190283  C 15.0319423279803 14.4768471659919  14.8458562888289 14.5263157894737  14.6465830500528 14.5263157894737  L 1.14289063415777 14.5263157894737  C 0.943617395381551 14.5263157894737  0.757531356230203 14.4768471659919  0.584632516703806 14.3779099190283  C 0.411733677177352 14.2789726720648  0.275465947720079 14.1451163967611  0.175829328331986 13.9763410931174  C -0.0410268432774785 13.6096912955465  -0.0468878208885144 13.2430414979757  0.158246395498765 12.8763917004048  L 6.91009260344626 0.584893724696371  C 7.00972922283438 0.404478744939269  7.14746219669439 0.261892712550605  7.32329152502635 0.157135627530366  C 7.49912085335833 0.0523785425101266  7.68960262571798 0  7.89473684210526 0  C 8.09987105849254 0  8.29035283085219 0.0523785425101266  8.46618215918417 0.157135627530366  Z " fill-rule="nonzero" fill="#cccccc" stroke="none" transform="matrix(1 0 0 1 0 13 )" />
  </g>
</svg>