<?xml version="1.0" encoding="utf-8"?>
<svg version="1.1" xmlns:xlink="http://www.w3.org/1999/xlink" width="20px" height="20px" xmlns="http://www.w3.org/2000/svg">
  <g transform="matrix(1 0 0 1 0 -11 )">
    <path d="M 2.96250000000001 15.76875  C 3.12083333333334 15.6145833333333  3.2 15.425  3.2 15.2  C 3.2 14.9833333333333  3.12083333333334 14.7958333333333  2.96250000000001 14.6375  C 2.80416666666667 14.4791666666667  2.61666666666666 14.4  2.40000000000001 14.4  C 2.175 14.4  1.98541666666667 14.4791666666667  1.83125 14.6375  C 1.67708333333333 14.7958333333333  1.59999999999999 14.9833333333333  1.59999999999999 15.2  C 1.59999999999999 15.425  1.67708333333333 15.6145833333333  1.83125 15.76875  C 1.98541666666667 15.9229166666667  2.175 16  2.40000000000001 16  C 2.61666666666666 16  2.80416666666667 15.9229166666667  2.96250000000001 15.76875  Z M 4.96250000000001 8.2375  C 5.12083333333334 8.39583333333334  5.2 8.58333333333334  5.2 8.8  L 5.2 16.8  C 5.2 17.0166666666667  5.12083333333334 17.2041666666667  4.96250000000001 17.3625  C 4.80416666666667 17.5208333333333  4.61666666666667 17.6  4.40000000000001 17.6  L 0.799999999999997 17.6  C 0.583333333333329 17.6  0.395833333333329 17.5208333333333  0.237499999999997 17.3625  C 0.0791666666666657 17.2041666666667  0 17.0166666666667  0 16.8  L 0 8.8  C 0 8.58333333333334  0.0791666666666657 8.39583333333334  0.237499999999997 8.2375  C 0.395833333333329 8.07916666666667  0.583333333333329 8  0.799999999999997 8  L 4.40000000000001 8  C 4.61666666666667 8  4.80416666666667 8.07916666666667  4.96250000000001 8.2375  Z M 19.2875 7.1125  C 19.7625 7.5875  20 8.15  20 8.8  C 20 9.51666666666667  19.7708333333333 10.1375  19.3125 10.6625  C 19.4375 11.0291666666667  19.5 11.3458333333333  19.5 11.6125  C 19.525 12.2458333333333  19.3458333333333 12.8166666666667  18.9625 13.325  C 19.1041666666667 13.7916666666667  19.1041666666667 14.2791666666667  18.9625 14.7875  C 18.8375 15.2625  18.6125 15.6541666666667  18.2875 15.9625  C 18.3625 16.8958333333333  18.1583333333333 17.65  17.675 18.225  C 17.1416666666667 18.8583333333333  16.3208333333333 19.1833333333333  15.2125 19.2  L 14.7625 19.2  L 13.8125 19.2  L 13.6 19.2  C 13.05 19.2  12.45 19.1354166666667  11.8 19.00625  C 11.15 18.8770833333333  10.64375 18.75625  10.28125 18.64375  C 9.91874999999999 18.53125  9.41666666666666 18.3666666666667  8.77500000000001 18.15  C 7.75 17.7916666666667  7.09166666666667 17.6083333333333  6.8 17.6  C 6.58333333333333 17.5916666666667  6.39583333333333 17.5104166666667  6.2375 17.35625  C 6.07916666666667 17.2020833333333  6 17.0166666666667  6 16.8  L 6 8.7875  C 6 8.57916666666667  6.075 8.39791666666667  6.22499999999999 8.24375  C 6.375 8.08958333333334  6.55416666666667 8.00416666666666  6.7625 7.9875  C 6.96250000000001 7.97083333333333  7.27916666666667 7.725  7.71250000000001 7.25  C 8.14583333333334 6.775  8.56666666666666 6.27083333333333  8.97499999999999 5.7375  C 9.54166666666666 5.0125  9.96250000000001 4.5125  10.2375 4.2375  C 10.3875 4.0875  10.5166666666667 3.8875  10.625 3.6375  C 10.7333333333333 3.3875  10.80625 3.18541666666667  10.84375 3.03125  C 10.88125 2.87708333333333  10.9375 2.625  11.0125 2.275  C 11.0708333333333 1.95  11.1229166666667 1.69583333333333  11.16875 1.5125  C 11.2145833333333 1.32916666666667  11.2958333333333 1.1125  11.4125 0.862499999999997  C 11.5291666666667 0.612499999999997  11.6708333333333 0.404166666666669  11.8375 0.237499999999997  C 11.9958333333333 0.0791666666666657  12.1833333333333 0  12.4 0  C 12.7833333333333 0  13.1270833333333 0.0437500000000028  13.43125 0.131250000000001  C 13.7354166666667 0.21875  13.9854166666667 0.327083333333334  14.18125 0.456250000000004  C 14.3770833333333 0.585416666666667  14.54375 0.754166666666663  14.68125 0.962499999999999  C 14.81875 1.17083333333333  14.91875 1.35833333333333  14.98125 1.525  C 15.04375 1.69166666666666  15.09375 1.9  15.13125 2.15  C 15.16875 2.4  15.1895833333333 2.5875  15.19375 2.7125  C 15.1979166666667 2.8375  15.2 3  15.2 3.2  C 15.2 3.51666666666667  15.1604166666667 3.83333333333333  15.08125 4.15  C 15.0020833333333 4.46666666666667  14.9229166666667 4.71666666666667  14.84375 4.9  C 14.7645833333333 5.08333333333333  14.65 5.31666666666667  14.5 5.6  C 14.475 5.65  14.4333333333333 5.725  14.375 5.825  C 14.3166666666667 5.925  14.2708333333333 6.01666666666667  14.2375 6.1  C 14.2041666666667 6.18333333333333  14.1708333333333 6.28333333333333  14.1375 6.4  L 17.6 6.4  C 18.25 6.4  18.8125 6.6375  19.2875 7.1125  Z " fill-rule="nonzero" fill="#cccccc" stroke="none" transform="matrix(1 0 0 1 0 11 )" />
  </g>
</svg>