<?xml version="1.0" encoding="utf-8"?>
<svg version="1.1" xmlns:xlink="http://www.w3.org/1999/xlink" width="20px" height="22px" xmlns="http://www.w3.org/2000/svg">
  <g transform="matrix(1 0 0 1 0 -8 )">
    <path d="M 3.0859375 18.1464255852842  C 3.25086805555554 17.9809434225195  3.33333333333337 17.7849777034559  3.33333333333337 17.5585284280936  C 3.33333333333337 17.3320791527313  3.25086805555554 17.1361134336678  3.0859375 16.970631270903  C 2.92100694444446 16.8051491081382  2.72569444444446 16.7224080267558  2.5 16.7224080267558  C 2.27430555555554 16.7224080267558  2.07899305555554 16.8051491081382  1.9140625 16.970631270903  C 1.74913194444446 17.1361134336678  1.66666666666663 17.3320791527313  1.66666666666663 17.5585284280936  C 1.66666666666663 17.7849777034559  1.74913194444446 17.9809434225195  1.9140625 18.1464255852842  C 2.07899305555554 18.311907748049  2.27430555555554 18.3946488294314  2.5 18.3946488294314  C 2.72569444444446 18.3946488294314  2.92100694444446 18.311907748049  3.0859375 18.1464255852842  Z M 18.0533854166666 11.0916596989966  C 18.2400173611111 10.6910186733556  18.3333333333334 10.3382803790412  18.3333333333334 10.0334448160535  C 18.3333333333334 9.58925585284283  18.1640625 9.19950181159419  17.8255208333334 8.86418269230768  C 17.4869791666666 8.52886357302117  17.1006944444445 8.36120401337791  16.6666666666666 8.36120401337791  L 12.0833333333334 8.36120401337791  C 12.0833333333334 7.85604793756966  12.2916666666666 7.16145833333331  12.7083333333334 6.27743520066889  C 13.125 5.39341206800447  13.3333333333334 4.69446767001114  13.3333333333334 4.18060200668896  C 13.3333333333334 3.32706243032328  13.1944444444445 2.69561733556299  12.9166666666666 2.28626672240802  C 12.6388888888889 1.8769161092531  12.0833333333334 1.67224080267562  11.25 1.67224080267562  C 11.0243055555555 1.89869007803793  10.859375 2.26884754738018  10.7552083333334 2.78271321070235  C 10.6510416666666 3.29657887402453  10.5186631944445 3.84310549052395  10.3580729166666 4.42229306020067  C 10.1974826388889 5.00148062987739  9.93923611111114 5.47833054626528  9.58333333333337 5.85284280936452  C 9.39236111111114 6.05316332218501  9.05815972222223 6.44944955406913  8.58072916666663 7.0417015050167  C 8.54600694444446 7.08524944258636  8.44618055555554 7.21589325529544  8.28125 7.43363294314378  C 8.11631944444446 7.65137263099217  7.97960069444446 7.82991917502784  7.87109375 7.96927257525084  C 7.76258680555554 8.10862597547379  7.61284722222223 8.29370471014488  7.421875 8.52450877926418  C 7.23090277777777 8.75531284838348  7.05729166666663 8.94692377369006  6.90104166666663 9.09934155518391  C 6.74479166666663 9.25175933667776  6.57769097222223 9.40635451505017  6.39973958333337 9.56312709030095  C 6.22178819444446 9.71989966555185  6.04817708333337 9.83747909698997  5.87890625 9.91586538461536  C 5.70963541666663 9.99425167224081  5.55555555555554 10.0334448160535  5.41666666666663 10.0334448160535  L 5 10.0334448160535  L 5 18.3946488294314  L 5.41666666666663 18.3946488294314  C 5.52951388888886 18.3946488294314  5.66623263888886 18.4077132107023  5.82682291666663 18.4338419732441  C 5.98741319444446 18.4599707357859  6.13064236111114 18.4882768952062  6.25651041666663 18.518760451505  C 6.38237847222223 18.5492440078037  6.54730902777777 18.5971467391304  6.75130208333337 18.6624686454849  C 6.95529513888886 18.7277905518395  7.10720486111114 18.7778706800445  7.20703125 18.8127090301003  C 7.30685763888886 18.8475473801561  7.4609375 18.9019823021181  7.66927083333337 18.9760137959866  C 7.87760416666663 19.050045289855  8.00347222222223 19.0957706243032  8.046875 19.1131897993311  C 9.87847222222223 19.7489896878483  11.3628472222222 20.0668896321069  12.5 20.0668896321069  L 14.0755208333334 20.0668896321069  C 15.7421875 20.0668896321069  16.5755208333334 19.3396390746934  16.5755208333334 17.8851379598662  C 16.5755208333334 17.6586886845039  16.5538194444445 17.4148202341137  16.5104166666666 17.1535326086956  C 16.7708333333334 17.0141792084726  16.9769965277778 16.7855525362319  17.12890625 16.4676525919732  C 17.2808159722222 16.1497526477146  17.3567708333334 15.8296753065774  17.3567708333334 15.5074205685619  C 17.3567708333334 15.1851658305462  17.2786458333334 14.8846850613155  17.1223958333334 14.6059782608696  C 17.5824652777778 14.1704988851728  17.8125 13.6522784280936  17.8125 13.0513168896321  C 17.8125 12.8335772017837  17.7690972222222 12.591886148272  17.6822916666666 12.326243729097  C 17.5954861111111 12.0606013099219  17.4869791666666 11.853748606466  17.3567708333334 11.7056856187291  C 17.6345486111111 11.6969760312152  17.8667534722222 11.4923007246377  18.0533854166666 11.0916596989966  Z M 19.0104166666666 7.68185618729098  C 19.6701388888889 8.34378483835002  20 9.12329292084729  20 10.0203804347826  C 20 10.7955337235229  19.7873263888889 11.5053651059086  19.3619791666666 12.1498745819397  C 19.4401041666666 12.4372909698996  19.4791666666666 12.7377717391304  19.4791666666666 13.0513168896321  C 19.4791666666666 13.7219551282051  19.3142361111111 14.3490454292084  18.984375 14.9325877926422  C 19.0104166666666 15.1154891304348  19.0234375 15.3027452619843  19.0234375 15.4943561872909  C 19.0234375 16.3740245261984  18.7630208333334 17.1491778149386  18.2421875 17.8198160535117  C 18.2508680555555 19.0304487179487  17.8819444444445 19.9863259476031  17.1354166666666 20.6874477424749  C 16.3888888888889 21.3885695373467  15.4036458333334 21.7391304347826  14.1796875 21.7391304347826  L 13.7109375 21.7391304347826  L 12.5 21.7391304347826  C 11.6666666666666 21.7391304347826  10.8441840277778 21.6411475752508  10.0325520833334 21.4451818561872  C 9.22092013888886 21.2492161371237  8.28125 20.9639771460423  7.21354166666663 20.5894648829431  C 6.20659722222223 20.2410813823857  5.60763888888886 20.0668896321069  5.41666666666663 20.0668896321069  L 1.66666666666663 20.0668896321069  C 1.20659722222223 20.0668896321069  0.813802083333371 19.9035848662207  0.48828125 19.5769753344482  C 0.162760416666629 19.2503658026756  0 18.85625696767  0 18.3946488294314  L 0 10.0334448160535  C 0 9.57183667781493  0.162760416666629 9.17772784280936  0.48828125 8.85111831103677  C 0.813802083333371 8.52450877926418  1.20659722222223 8.36120401337791  1.66666666666663 8.36120401337791  L 5.234375 8.36120401337791  C 5.546875 8.1521739130435  6.14149305555554 7.47718088071343  7.01822916666663 6.33622491638795  C 7.52170138888886 5.68300585284283  7.98611111111114 5.12559225195093  8.41145833333337 4.66398411371239  C 8.61979166666663 4.44624442586399  8.77387152777777 4.07390955964325  8.87369791666663 3.54697951505017  C 8.97352430555554 3.02004947045708  9.10590277777777 2.46916806020067  9.27083333333337 1.89433528428094  C 9.43576388888886 1.31950250836121  9.70486111111114 0.849184782608688  10.078125 0.483382107023431  C 10.4166666666666 0.161127369007829  10.8072916666666 0  11.25 0  C 11.9791666666666 0  12.6345486111111 0.141530797101439  13.2161458333334 0.424592391304373  C 13.7977430555555 0.70765398550725  14.2404513888889 1.14966555183946  14.5442708333334 1.75062709030101  C 14.8480902777778 2.35158862876256  15 3.16158026755852  15 4.18060200668896  C 15 4.99059364548492  14.7916666666666 5.82671404682276  14.375 6.6889632107023  L 16.6666666666666 6.6889632107023  C 17.5694444444445 6.6889632107023  18.3506944444445 7.01992753623188  19.0104166666666 7.68185618729098  Z " fill-rule="nonzero" fill="#000000" stroke="none" transform="matrix(1 0 0 1 0 8 )" />
  </g>
</svg>