<?xml version="1.0" encoding="utf-8"?>
<svg version="1.1" xmlns:xlink="http://www.w3.org/1999/xlink" width="20px" height="16px" xmlns="http://www.w3.org/2000/svg">
  <g transform="matrix(1 0 0 1 0 -12 )">
    <path d="M 1.42857142857142 7.59999999999999  C 2.67113095238096 9.54523809523809  4.25967261904762 10.9589285714286  6.19419642857142 11.8410714285714  L 7.06473214285714 10.2464285714286  C 6.41741071428572 9.77142857142857  5.91145833333334 9.17202380952381  5.546875 8.44821428571427  C 5.18229166666666 7.72440476190476  5 6.95912698412698  5 6.15238095238095  C 5 5.24007936507937  5.22693452380952 4.39186507936506  5.68080357142858 3.60773809523809  C 3.97693452380952 4.48988095238096  2.5595238095238 5.82063492063492  1.42857142857142 7.59999999999999  Z M 10.3794642857143 3.64166666666665  C 10.483630952381 3.5361111111111  10.5357142857143 3.40793650793651  10.5357142857143 3.25714285714287  C 10.5357142857143 3.10634920634919  10.483630952381 2.97817460317461  10.3794642857143 2.87261904761905  C 10.2752976190476 2.7670634920635  10.1488095238095 2.71428571428572  10 2.71428571428572  C 9.06994047619048 2.71428571428572  8.2719494047619 3.05168650793649  7.60602678571428 3.7264880952381  C 6.94010416666666 4.40128968253967  6.60714285714286 5.20992063492062  6.60714285714286 6.15238095238095  C 6.60714285714286 6.3031746031746  6.6592261904762 6.43134920634921  6.76339285714286 6.53690476190476  C 6.86755952380952 6.64246031746032  6.99404761904762 6.6952380952381  7.14285714285714 6.6952380952381  C 7.29166666666666 6.6952380952381  7.41815476190476 6.64246031746032  7.52232142857142 6.53690476190476  C 7.6264880952381 6.43134920634921  7.67857142857142 6.3031746031746  7.67857142857142 6.15238095238095  C 7.67857142857142 5.50396825396825  7.90550595238096 4.94980158730158  8.359375 4.48988095238096  C 8.81324404761904 4.02996031746031  9.36011904761904 3.79999999999998  10 3.80000000000001  C 10.1488095238095 3.79999999999998  10.2752976190476 3.74722222222221  10.3794642857143 3.64166666666665  Z M 14.4084821428571 0.791666666666657  C 14.5275297619048 0.867063492063494  14.5870535714286 0.968849206349205  14.5870535714286 1.09702380952382  C 14.5870535714286 1.1498015873016  14.5833333333333 1.18373015873016  14.5758928571429 1.19880952380953  C 13.7872023809524 2.62380952380951  12.6116071428571 4.76130952380953  11.0491071428571 7.61130952380952  C 9.48660714285714 10.4613095238095  8.31473214285714 12.5950396825397  7.53348214285714 14.0125  L 6.98660714285714 15.0190476190476  C 6.91220238095238 15.1396825396825  6.80803571428572 15.2  6.67410714285714 15.2  C 6.58482142857142 15.2  6.08630952380952 14.9361111111111  5.17857142857142 14.4083333333333  C 5.0595238095238 14.3329365079365  5 14.2273809523809  5 14.0916666666667  C 5 14.0011904761905  5.16369047619048 13.6732142857143  5.49107142857142 13.1077380952381  C 4.42708333333334 12.6176587301587  3.4468005952381 11.9654761904762  2.55022321428572 11.1511904761905  C 1.65364583333334 10.3369047619047  0.877976190476204 9.41329365079363  0.223214285714278 8.38035714285712  C 0.0744047619047592 8.14662698412698  0 7.88650793650794  0 7.59999999999999  C 0 7.31349206349205  0.0744047619047592 7.05337301587301  0.223214285714278 6.81964285714287  C 1.36160714285714 5.04781746031745  2.77529761904762 3.64920634920634  4.46428571428572 2.62380952380951  C 6.1532738095238 1.59841269841269  7.9985119047619 1.08571428571429  10 1.08571428571429  C 10.6622023809524 1.08571428571429  11.3318452380952 1.1498015873016  12.0089285714286 1.27797619047618  L 12.6116071428571 0.180952380952391  C 12.6860119047619 0.0603174603174637  12.7901785714286 0  12.9241071428571 0  C 12.9613095238095 0  13.0282738095238 0.0226190476190595  13.125 0.0678571428571502  C 13.2217261904762 0.113095238095241  13.3370535714286 0.171527777777783  13.4709821428571 0.243154761904776  C 13.6049107142857 0.314781746031741  13.7276785714286 0.384523809523813  13.8392857142857 0.452380952380963  C 13.9508928571429 0.520238095238085  14.0680803571429 0.589980158730157  14.1908482142857 0.66160714285715  C 14.3136160714286 0.733234126984115  14.3861607142857 0.776587301587313  14.4084821428571 0.791666666666657  Z M 14.9107142857143 5.20238095238096  C 14.9702380952381 5.54166666666666  15 5.85833333333332  15 6.15238095238095  C 15 7.20039682539681  14.7061011904762 8.15605158730159  14.1183035714286 9.01934523809524  C 13.530505952381 9.88263888888889  12.7529761904762 10.5027777777778  11.7857142857143 10.8797619047619  L 14.9107142857143 5.20238095238096  Z M 19.7767857142857 6.81964285714287  C 19.9255952380952 7.07599206349207  20 7.33611111111111  20 7.59999999999999  C 20 7.86388888888888  19.9255952380952 8.12400793650792  19.7767857142857 8.38035714285712  C 19.4866071428571 8.86289682539683  19.0811011904762 9.40952380952379  18.5602678571429 10.0202380952381  C 17.4441964285714 11.3170634920635  16.1514136904762 12.3236111111111  14.6819196428571 13.0398809523809  C 13.2124255952381 13.7561507936508  11.6517857142857 14.1142857142857  10 14.1142857142857  L 10.8258928571429 12.6214285714286  C 12.4032738095238 12.4857142857143  13.8634672619048 11.969246031746  15.2064732142857 11.0720238095238  C 16.5494791666667 10.1748015873016  17.671130952381 9.01746031746032  18.5714285714286 7.59999999999999  C 17.7157738095238 6.25039682539682  16.6666666666667 5.1420634920635  15.4241071428571 4.27500000000001  L 16.1272321428571 3.00833333333333  C 16.8340773809524 3.49087301587301  17.5130208333333 4.06765873015871  18.1640625 4.73869047619047  C 18.8151041666667 5.40972222222223  19.3526785714286 6.10337301587302  19.7767857142857 6.81964285714287  Z " fill-rule="nonzero" fill="#999999" stroke="none" transform="matrix(1 0 0 1 0 12 )" />
  </g>
</svg>