<?xml version="1.0" encoding="utf-8"?>
<svg version="1.1" xmlns:xlink="http://www.w3.org/1999/xlink" width="20px" height="20px" xmlns="http://www.w3.org/2000/svg">
  <g transform="matrix(1 0 0 1 0 -10 )">
    <path d="M 19.3269230769231 6.88393194706993  C 19.7756410256411 6.95652173913044  20 7.14202898550724  20 7.44045368620039  C 20 7.61789540012603  19.8958333333333 7.81146817895399  19.6875 8.02117202268431  L 15.3245192307692 12.3039697542533  L 16.3581730769231 18.3531190926276  C 16.3661858974359 18.4095778197857  16.3701923076923 18.4902331442974  16.3701923076923 18.5950850661625  C 16.3701923076923 18.764461247637  16.328125 18.9076244486452  16.2439903846154 19.0245746691871  C 16.1598557692308 19.1415248897291  16.0376602564103 19.2  15.8774038461539 19.2  C 15.7251602564103 19.2  15.5649038461539 19.151606805293  15.3966346153846 19.054820415879  L 10 16.1996219281663  L 4.60336538461536 19.054820415879  C 4.42708333333331 19.151606805293  4.26682692307691 19.2  4.12259615384613 19.2  C 3.95432692307691 19.2  3.828125 19.1415248897291  3.74399038461536 19.0245746691871  C 3.65985576923077 18.9076244486452  3.61778846153845 18.764461247637  3.61778846153845 18.5950850661625  C 3.61778846153845 18.5466918714556  3.62580128205127 18.4660365469439  3.64182692307691 18.3531190926276  L 4.67548076923077 12.3039697542533  L 0.300480769230774 8.02117202268431  C 0.100160256410277 7.80340264650283  0 7.60982986767488  0 7.44045368620039  C 0 7.14202898550724  0.22435897435895 6.95652173913044  0.673076923076906 6.88393194706993  L 6.70673076923077 6.00075614366727  L 9.41105769230768 0.496030245746681  C 9.56330128205127 0.165343415248913  9.75961538461536 0  10 0  C 10.2403846153846 0  10.4366987179487 0.165343415248913  10.5889423076923 0.496030245746681  L 13.2932692307692 6.00075614366727  L 19.3269230769231 6.88393194706993  Z " fill-rule="nonzero" fill="#cccccc" stroke="none" transform="matrix(1 0 0 1 0 10 )" />
  </g>
</svg>