<?xml version="1.0" encoding="utf-8"?>
<svg version="1.1" xmlns:xlink="http://www.w3.org/1999/xlink" width="24px" height="20px" xmlns="http://www.w3.org/2000/svg">
  <g transform="matrix(1 0 0 1 -50 -10 )">
    <path d="M 6.37637867647058 5.37297221046688  C 6.56786151960785 5.18404100249214  6.66360294117646 4.93149010203604  6.66360294117646 4.61531950909855  C 6.66360294117646 4.29914891616116  6.56786151960785 4.04467014623592  6.37637867647058 3.85188319932286  C 6.18489583333334 3.65909625240982  5.93213848039215 3.56270277895331  5.61810661764707 3.56270277895331  C 5.28875612745099 3.56270277895331  4.99770220588235 3.66102412187897  4.74494485294119 3.85766680773031  C 4.4921875 4.0543094935816  4.36580882352942 4.30686039403767  4.36580882352942 4.61531950909855  C 4.36580882352942 4.91606714628301  4.4921875 5.1647623078008  4.74494485294119 5.36140499365214  C 4.99770220588235 5.55804767950343  5.28875612745099 5.65636902242912  5.61810661764707 5.65636902242912  C 5.93213848039215 5.65636902242912  6.18489583333334 5.56190341844172  6.37637867647058 5.37297221046688  Z M 14.9069393382353 11.0698264917478  C 15.1022518382353 10.9001739784643  15.1999080882353 10.703531292613  15.1999080882353 10.4798984341938  C 15.1999080882353 10.2639770536512  15.1022518382353 10.0711901067381  14.9069393382353 9.90153759345463  C 14.7116268382353 9.73188508017114  14.4607843137255 9.64705882352939  14.1544117647059 9.64705882352939  C 13.9476102941177 9.64705882352939  13.7580422794118 9.73381294964028  13.5857077205882 9.907321201862  C 13.4133731617647 10.0808294540838  13.3272058823529 10.2716885315277  13.3272058823529 10.4798984341938  C 13.3272058823529 10.6958198147364  13.4133731617647 10.8905346311186  13.5857077205882 11.0640428833404  C 13.7580422794118 11.2375511355621  13.9476102941177 11.324305261673  14.1544117647059 11.324305261673  C 14.4607843137255 11.324305261673  14.7116268382353 11.2394790050313  14.9069393382353 11.0698264917478  Z M 12.20703125 5.37297221046688  C 12.3946844362745 5.18404100249214  12.4885110294118 4.93149010203604  12.4885110294118 4.61531950909855  C 12.4885110294118 4.29914891616116  12.3946844362745 4.04467014623592  12.20703125 3.85188319932286  C 12.0193780637255 3.65909625240982  11.7685355392157 3.56270277895331  11.4545036764706 3.56270277895331  C 11.1251531862745 3.56270277895331  10.8340992647059 3.66102412187897  10.5813419117647 3.85766680773031  C 10.3285845588235 4.0543094935816  10.2022058823529 4.30686039403767  10.2022058823529 4.61531950909855  C 10.2022058823529 4.91606714628301  10.3285845588235 5.1647623078008  10.5813419117647 5.36140499365214  C 10.8340992647059 5.55804767950343  11.1251531862745 5.65636902242912  11.4545036764706 5.65636902242912  C 11.7685355392157 5.65636902242912  12.0193780637255 5.56190341844172  12.20703125 5.37297221046688  Z M 19.4852941176471 11.0698264917478  C 19.6844362745098 10.9001739784643  19.7840073529412 10.703531292613  19.7840073529412 10.4798984341938  C 19.7840073529412 10.2639770536512  19.6844362745098 10.0711901067381  19.4852941176471 9.90153759345463  C 19.2861519607843 9.73188508017114  19.0372242647059 9.64705882352939  18.7385110294118 9.64705882352939  C 18.5317095588235 9.64705882352939  18.3421415441177 9.73381294964028  18.1698069852941 9.907321201862  C 17.9974724264706 10.0808294540838  17.9113051470588 10.2716885315277  17.9113051470588 10.4798984341938  C 17.9113051470588 10.6958198147364  17.9974724264706 10.8905346311186  18.1698069852941 11.0640428833404  C 18.3421415441177 11.2375511355621  18.5317095588235 11.324305261673  18.7385110294118 11.324305261673  C 19.0372242647059 11.324305261673  19.2861519607843 11.2394790050313  19.4852941176471 11.0698264917478  Z M 15.1596966911765 2.8744533784737  C 15.9677542892157 3.77284055108856  16.4905024509804 4.77726054450559  16.7279411764706 5.8877133587248  C 16.4905024509804 5.85686744721872  16.2224264705882 5.84144449146567  15.9237132352941 5.84144449146567  C 14.6292892156863 5.84144449146567  13.4382659313725 6.13833638971172  12.3506433823529 6.73212018620393  C 11.2630208333333 7.32590398269622  10.4070925245098 8.12982555132362  9.78285845588235 9.14388489208631  C 9.15862438725489 10.157944232849  8.84650735294119 11.266469177599  8.84650735294119 12.4694597263366  C 8.84650735294119 13.0709550007053  8.93458946078431 13.657027319321  9.11075367647058 14.2276766821836  C 8.84267769607843 14.2508111158132  8.58226102941177 14.262378332628  8.32950367647058 14.262378332628  C 8.13036151960785 14.262378332628  7.93887867647058 14.2565947242206  7.75505514705881 14.2450275074058  C 7.57123161764707 14.233460290591  7.36060049019608 14.2083979874923  7.12316176470588 14.1698405981097  C 6.88572303921569 14.1312832087271  6.71530330882354 14.1042930361593  6.61190257352942 14.0888700804063  C 6.5085018382353 14.0734471246532  6.29978553921569 14.0329618658014  5.98575367647058 13.967414303851  C 5.67172181372547 13.9018667419006  5.48023897058823 13.8613814830488  5.41130514705881 13.8459585272958  L 2.5045955882353 15.3149950627733  L 3.33180147058823 12.7933417971505  C 1.11060049019608 11.2279117882165  0 9.33859970846851  0 7.12540555790656  C 0 5.82216579677433  0.373391544117652 4.6230309869751  1.12017463235293 3.52800112850895  C 1.86695772058823 2.4329712700428  2.87798713235293 1.57121361734144  4.15326286764707 0.942728170404848  C 5.42853860294119 0.314242723468254  6.82061887254901 0  8.32950367647058 0  C 9.67754289215688 0  10.9509037990196 0.254478769925242  12.1495863970588 0.763436309775699  C 13.3482689950981 1.27239384962616  14.3516390931372 1.97606620585884  15.1596966911765 2.8744533784737  Z M 22.5471047794118 9.32896036112285  C 23.2019761029412 10.2659049231203  23.5294117647059 11.2818921333521  23.5294117647059 12.3769219918183  C 23.5294117647059 13.2791649033714  23.2670802696078 14.1409225560728  22.7424172794118 14.9621949499224  C 22.2177542892157 15.7834673437721  21.5073529411765 16.5295528283256  20.6112132352941 17.200451403583  L 21.2431066176471 19.2941176470588  L 18.9568014705882 18.0332910142474  C 17.8079044117647 18.3186156956787  16.9730392156863 18.4612780363944  16.4522058823529 18.4612780363944  C 15.1577818627451 18.4612780363944  13.9667585784314 18.189448441247  12.8791360294118 17.6457892509521  C 11.7915134803922 17.1021300606573  10.9355851715686 16.3637560539803  10.3113511029412 15.4306672309211  C 9.6871170343137 14.4975784078619  9.375 13.479663328161  9.375 12.3769219918183  C 9.375 11.2741806554756  9.6871170343137 10.2562655757746  10.3113511029412 9.32317675271545  C 10.9355851715686 8.39008792965629  11.7915134803922 7.65171392297924  12.8791360294118 7.10805473268445  C 13.9667585784314 6.5643955423896  15.1577818627451 6.29256594724217  16.4522058823529 6.29256594724217  C 17.6853553921569 6.29256594724217  18.8457414215686 6.5643955423896  19.9333639705882 7.10805473268445  C 21.0209865196078 7.65171392297924  21.8922334558823 8.39201579912537  22.5471047794118 9.32896036112285  Z " fill-rule="nonzero" fill="#999999" stroke="none" transform="matrix(1 0 0 1 50 10 )" />
  </g>
</svg>