<?xml version="1.0" encoding="utf-8"?>
<svg version="1.1" xmlns:xlink="http://www.w3.org/1999/xlink" width="20px" height="20px" xmlns="http://www.w3.org/2000/svg">
  <g transform="matrix(1 0 0 1 -142 -10 )">
    <path d="M 0 14.1964285714286  C 0 12.1502976190476  0.937585421412308 10.4166666666667  2.8127562642369 8.99553571428572  C 2.75322703113136 8.85416666666666  2.72346241457859 8.66071428571428  2.72346241457859 8.41517857142858  C 2.72346241457859 8.26636904761904  2.76438876233865 8.08407738095238  2.84624145785878 7.86830357142858  C 2.92809415337888 7.65252976190476  3.01738800303721 7.48511904761904  3.11412300683372 7.36607142857142  C 3.10668185269552 7.20238095238096  3.13458618071374 7.00520833333334  3.19783599088839 6.77455357142858  C 3.26108580106302 6.5438988095238  3.34479878511769 6.38392857142858  3.44897494305238 6.29464285714286  C 3.44897494305238 5.26041666666666  3.79312832194381 4.18712797619048  4.48143507972665 3.07477678571428  C 5.16974183750949 1.9624255952381  5.97896735003798 1.18303571428572  6.90911161731208 0.736607142857139  C 7.94343204252087 0.245535714285722  9.14889901290812 0  10.5255125284738 0  C 11.5151860288535 0  12.5048595292331 0.204613095238102  13.4945330296127 0.613839285714278  C 13.8591495823842 0.770089285714278  14.1940015186029 0.948660714285722  14.4990888382688 1.14955357142858  C 14.8041761579347 1.35044642857142  15.0683371298405 1.55877976190476  15.2915717539863 1.77455357142858  C 15.5148063781321 1.99032738095238  15.7194381169324 2.24330357142858  15.9054669703872 2.53348214285714  C 16.0914958238421 2.82366071428572  16.2477600607441 3.09895833333334  16.3742596810934 3.359375  C 16.5007593014427 3.61979166666666  16.6216780561883 3.93415178571428  16.7370159453303 4.30245535714286  C 16.8523538344723 4.67075892857142  16.9472285497342 5.00372023809524  17.0216400911162 5.30133928571428  C 17.0960516324981 5.59895833333334  17.1779043280182 5.96354166666666  17.2671981776765 6.39508928571428  L 17.2783599088838 6.45089285714286  C 17.6876233864844 7.06845238095238  17.8922551252847 7.6264880952381  17.8922551252847 8.125  C 17.8922551252847 8.22916666666666  17.8587699316629 8.37797619047618  17.7917995444191 8.57142857142858  C 17.7248291571754 8.76488095238096  17.6913439635535 8.90625  17.6913439635535 8.99553571428572  C 17.6913439635535 9.0029761904762  17.6969248291572 9.01599702380952  17.7080865603644 9.03459821428572  C 17.7192482915717 9.0531994047619  17.7322703113136 9.0718005952381  17.74715261959 9.09040178571428  C 17.7620349278664 9.10900297619048  17.7694760820046 9.1220238095238  17.7694760820046 9.12946428571428  C 18.3424449506454 9.97767857142858  18.7907744874715 10.7756696428571  19.1144646924829 11.5234375  C 19.4381548974943 12.2712053571429  19.6 13.046875  19.6 13.8504464285714  C 19.6 14.1703869047619  19.5274487471526 14.5424107142857  19.3823462414579 14.9665178571429  C 19.2372437357631 15.390625  19.0307517084282 15.6026785714286  18.7628701594533 15.6026785714286  C 18.6958997722096 15.6026785714286  18.6233485193622 15.5747767857143  18.5452164009112 15.5189732142857  C 18.4670842824601 15.4631696428571  18.3963933181473 15.3980654761905  18.3331435079727 15.3236607142857  C 18.269893697798 15.249255952381  18.1992027334852 15.1525297619048  18.1210706150342 15.0334821428571  C 18.0429384965831 14.9144345238095  17.9834092634776 14.8158482142857  17.9424829157175 14.7377232142857  C 17.9015565679575 14.6595982142857  17.8513287775247 14.5628720238095  17.7917995444191 14.4475446428571  C 17.7322703113136 14.3322172619048  17.6987851176917 14.2671130952381  17.6913439635535 14.2522321428571  C 17.6839028094153 14.2447916666667  17.672741078208 14.2410714285714  17.6578587699317 14.2410714285714  L 17.6020501138952 14.2857142857143  C 17.1630220197418 15.4315476190476  16.6719058466211 16.2611607142857  16.128701594533 16.7745535714286  C 16.2775246772969 16.9233630952381  16.5063401670463 17.0665922619048  16.8151480637813 17.2042410714286  C 17.1239559605163 17.3418898809524  17.380675778284 17.4962797619048  17.5853075170843 17.6674107142857  C 17.7899392558846 17.8385416666667  17.9220197418375 18.0803571428571  17.9815489749431 18.3928571428571  C 17.9666666666667 18.422619047619  17.9517843583903 18.4821428571429  17.9369020501139 18.5714285714286  C 17.9220197418375 18.6607142857143  17.8959757023538 18.7276785714286  17.8587699316629 18.7723214285714  C 17.3825360668185 19.4940476190476  16.2589217919514 19.8549107142857  14.4879271070615 19.8549107142857  C 14.0935459377373 19.8549107142857  13.6824221716021 19.8214285714286  13.254555808656 19.7544642857143  C 12.8266894457099 19.6875  12.4620728929385 19.6130952380952  12.1607061503417 19.53125  C 11.8593394077449 19.4494047619048  11.4705391040243 19.3377976190476  10.9943052391799 19.1964285714286  C 10.8826879271071 19.1592261904762  10.7971146545178 19.1331845238095  10.7375854214123 19.1183035714286  C 10.6334092634776 19.0885416666667  10.4622627182992 19.0718005952381  10.224145785877 19.0680803571429  C 9.98602885345483 19.0643601190476  9.83720577069096 19.0587797619048  9.77767653758542 19.0513392857143  C 9.47258921791951 19.3861607142857  8.9982156416097 19.6279761904762  8.35455580865604 19.7767857142857  C 7.71089597570236 19.9255952380952  7.0839787395596 20  6.4738041002278 20  C 6.21336370539103 20  5.95664388762339 19.9944196428571  5.70364464692483 19.9832589285714  C 5.45064540622627 19.9720982142857  5.10463173880029 19.9386160714286  4.66560364464692 19.8828125  C 4.22657555049355 19.8270089285714  3.8507972665148 19.750744047619  3.53826879271071 19.6540178571429  C 3.22574031890662 19.5572916666667  2.94855732725892 19.4084821428571  2.70671981776766 19.2075892857143  C 2.46488230827637 19.0066964285714  2.34396355353076 18.7686011904762  2.34396355353076 18.4933035714286  C 2.34396355353076 18.1956845238095  2.38116932422173 17.9743303571429  2.45558086560365 17.8292410714286  C 2.52999240698557 17.6841517857143  2.68253606681853 17.5037202380952  2.9132118451025 17.2879464285714  C 2.99506454062262 17.2730654761905  3.14574791192103 17.2247023809524  3.36526195899773 17.1428571428571  C 3.58477600607441 17.0610119047619  3.76894457099468 17.016369047619  3.91776765375855 17.0089285714286  C 3.94753227031131 17.0089285714286  3.99962034927867 17.0014880952381  4.07403189066059 16.9866071428571  C 4.08891419893698 16.9717261904762  4.09635535307518 16.9568452380952  4.09635535307518 16.9419642857143  L 4.07403189066059 16.9084821428571  C 3.71685649202735 16.8266369047619  3.31503416856492 16.4341517857143  2.86856492027334 15.7310267857143  C 2.42209567198177 15.0279017857143  2.15049354593774 14.4456845238095  2.05375854214122 13.984375  L 1.99794988610478 13.9508928571429  C 1.96818526955201 13.9508928571429  1.92353834472286 14.0252976190476  1.86400911161732 14.1741071428571  C 1.73006833712984 14.4791666666667  1.52729688686409 14.7563244047619  1.25569476082003 15.0055803571429  C 0.984092634776005 15.2548363095238  0.695747911921046 15.3943452380952  0.390660592255131 15.4241071428571  L 0.379498861047836 15.4241071428571  C 0.349734244495068 15.4241071428571  0.327410782080477 15.4073660714286  0.312528473804093 15.3738839285714  C 0.297646165527709 15.3404017857143  0.279043280182236 15.3199404761905  0.256719817767646 15.3125  C 0.0855732725892153 14.9107142857143  0 14.5386904761905  0 14.1964285714286  Z " fill-rule="nonzero" fill="#999999" stroke="none" transform="matrix(1 0 0 1 142 10 )" />
  </g>
</svg>