<?xml version="1.0" encoding="utf-8"?>
<svg version="1.1" xmlns:xlink="http://www.w3.org/1999/xlink" width="20px" height="16px" xmlns="http://www.w3.org/2000/svg">
  <g transform="matrix(1 0 0 1 0 -12 )">
    <path d="M 4.32332806740391 4.33531353135314  C 4.58662453923117 4.07128712871287  4.71827277514481 3.75269526952695  4.71827277514481 3.37953795379539  C 4.71827277514481 3.0063806380638  4.58662453923117 2.68778877887789  4.32332806740391 2.42376237623762  C 4.06003159557662 2.15973597359735  3.74232051957171 2.02772277227723  3.37019483938914 2.02772277227723  C 2.99806915920661 2.02772277227723  2.6803580832017 2.15973597359735  2.41706161137441 2.42376237623762  C 2.15376513954712 2.68778877887789  2.0221169036335 3.0063806380638  2.0221169036335 3.37953795379539  C 2.0221169036335 3.75269526952695  2.15376513954712 4.07128712871287  2.41706161137441 4.33531353135314  C 2.6803580832017 4.59933993399341  2.99806915920661 4.73135313531353  3.37019483938914 4.73135313531353  C 3.74232051957171 4.73135313531353  4.06003159557662 4.59933993399341  4.32332806740391 4.33531353135314  Z M 15.5660874144286 8.50165016501651  C 15.8258732666316 8.77623762376237  15.955766192733 9.09658965896591  15.955766192733 9.46270627062705  C 15.955766192733 9.83586358635864  15.8258732666316 10.152695269527  15.5660874144286 10.413201320132  L 10.3949447077409 15.6092409240924  C 10.1211163770406 15.8697469746975  9.80164999122346 16  9.43654555028962 16  C 9.06441987010709 16  8.74846410391433 15.8697469746975  8.48867825171143 15.6092409240924  L 0.958399157451282 8.04752475247525  C 0.691592065999657 7.78701870187018  0.465157100228197 7.43146314631463  0.279094260136901 6.98085808580859  C 0.0930314200456337 6.53025302530253  0 6.11837183718373  0 5.74521452145214  L 0 1.35181518151816  C 0 0.985698569856993  0.133403545725827 0.668866886688676  0.400210637177452 0.401320132013211  C 0.667017728629105 0.133773377337718  0.982973494821834 0  1.34807793575567 0  L 5.72933122696156 0  C 6.1014569071441 0  6.51219940319467 0.0932893289328831  6.96155871511323 0.279867986798678  C 7.41091802703178 0.466446644664472  7.76900122871686 0.693509350935102  8.03580832016851 0.961056105610567  L 15.5660874144286 8.50165016501651  Z M 19.6103212216956 8.50165016501651  C 19.8701070738985 8.77623762376237  20 9.09658965896591  20 9.46270627062705  C 20 9.83586358635864  19.8701070738985 10.152695269527  19.6103212216956 10.413201320132  L 14.4391785150079 15.6092409240924  C 14.1653501843075 15.8697469746975  13.8458837984904 16  13.4807793575566 16  C 13.2280147446024 16  13.020888186765 15.9507150715071  12.8593996840442 15.8521452145214  C 12.6979111813235 15.7535753575358  12.5118483412322 15.5951595159516  12.3012111637704 15.376897689769  L 17.2511848341232 10.413201320132  C 17.5109706863261 10.152695269527  17.6408636124276 9.83586358635864  17.6408636124276 9.46270627062705  C 17.6408636124276 9.09658965896591  17.5109706863261 8.77623762376237  17.2511848341232 8.50165016501651  L 9.7209057398631 0.961056105610567  C 9.45409864841145 0.693509350935102  9.09601544672634 0.466446644664472  8.64665613480778 0.279867986798678  C 8.19729682288923 0.0932893289328831  7.78655432683868 0  7.41442864665615 0  L 9.77356503422854 0  C 10.1456907144111 0  10.5564332104616 0.0932893289328831  11.0057925223802 0.279867986798678  C 11.4551518342988 0.466446644664472  11.8132350359838 0.693509350935102  12.0800421274355 0.961056105610567  L 19.6103212216956 8.50165016501651  Z " fill-rule="nonzero" fill="#999999" stroke="none" transform="matrix(1 0 0 1 0 12 )" />
  </g>
</svg>