<?xml version="1.0" encoding="utf-8"?>
<svg version="1.1" xmlns:xlink="http://www.w3.org/1999/xlink" width="25px" height="20px" xmlns="http://www.w3.org/2000/svg">
  <g transform="matrix(1 0 0 1 -95 -10 )">
    <path d="M 8.54015616285557 15.9986225895317  C 8.91662018962634 15.874655647383  9.20710169176425 15.6565656565657  9.4116006692694 15.3443526170799  C 9.60680423870605 15.0321395775941  9.65792898308237 14.7153351698806  9.56497490239821 14.3939393939394  C 9.47202082171407 14.0725436179982  9.26287414017474 13.8429752066116  8.93753485778029 13.7052341597796  C 8.62149098345418 13.5766758494031  8.28220858895705 13.5720844811754  7.91968767428889 13.6914600550964  C 7.55716675962077 13.8108356290174  7.2783045175683 14.0220385674931  7.08310094813163 14.3250688705234  C 6.87860197062648 14.6372819100092  6.81818181818178 14.9517906336088  6.90184049079755 15.2685950413223  C 6.98549916341329 15.5853994490358  7.18535043688419 15.8172635445363  7.50139431121028 15.9641873278237  C 7.81743818553636 16.1111111111111  8.16369213608476 16.1225895316804  8.54015616285557 15.9986225895317  Z M 10.4155047406582 13.9325068870524  C 10.5549358616843 13.8820018365473  10.6571853504369 13.7970615243343  10.7222532069158 13.6776859504132  C 10.7966164714631 13.5583103764922  10.8128834355828 13.4366391184573  10.771054099275 13.3126721763085  C 10.7292247629671 13.1887052341598  10.6478899423685 13.1037649219467  10.5270496374791 13.0578512396694  C 10.3969139245213 13.0119375573921  10.2644543595464 13.014233241506  10.1296709425544 13.064738292011  C 9.99488752556238 13.1152433425161  9.89496188882691 13.2001836547291  9.82989403234802 13.3195592286501  C 9.67187209518499 13.6042240587695  9.73229224762969 13.8108356290174  10.0111544896821 13.9393939393939  C 10.1412902026399 13.9853076216713  10.2760736196319 13.9830119375574  10.4155047406582 13.9325068870524  Z M 13.1134969325154 12.5275482093664  C 13.555028815765 13.3585858585859  13.5666480758505 14.2332415059687  13.1483547127719 15.1515151515152  C 12.7300613496932 16.0881542699724  11.9957241122885 16.7768595041322  10.9453430005577 17.2176308539945  C 9.89496188882691 17.6584022038568  8.85387618516455 17.7134986225895  7.82208588957053 17.3829201101928  C 6.82747722625024 17.070707070707  6.1419408812047 16.489898989899  5.76547685443393 15.6404958677686  C 5.38901282766312 14.7910927456382  5.4192229038855 13.9302112029384  5.85610708310094 13.0578512396694  C 6.29299126231643 12.2038567493113  6.99711842349876 11.5656565656565  7.96848856664809 11.1432506887052  C 8.93985870979733 10.7208448117539  9.91820040899796 10.633608815427  10.9035136642498 10.8815426997245  C 11.9353039598438 11.147842056933  12.6719650492657 11.6965105601469  13.1134969325154 12.5275482093664  Z M 15.6511433351924 16.5909090909091  C 17.0129206172151 15.5027548209367  17.6287414017475 14.2883379247016  17.4986056887897 12.9476584022038  C 17.414947016174 12.0661157024794  17.0013013571296 11.2855831037649  16.2576687116564 10.6060606060606  C 15.5140360661833 9.92653810835628  14.5449897750511 9.42607897153351  13.3505298382599 9.10468319559229  C 12.1560699014687 8.78328741965106  10.8802751440788 8.68686868686871  9.52314556609031 8.8154269972452  C 7.45026956683398 9.02662993572085  5.73294292619443 9.67630853994493  4.37116564417181 10.7644628099173  C 3.00938836214911 11.8526170798898  2.39356757761669 13.0670339761249  2.52370329057447 14.4077134986226  C 2.60736196319016 15.2892561983471  3.02100762223461 16.0697887970616  3.76464026770776 16.7493112947658  C 4.50827291318092 17.4288337924702  5.47731920431312 17.929292929293  6.67177914110431 18.2506887052342  C 7.86623907789556 18.5720844811754  9.14203383528536 18.6685032139577  10.4991634132738 18.5399449035813  C 12.5720394125302 18.3287419651056  14.2893660531698 17.6790633608815  15.6511433351924 16.5909090909091  Z M 21.319018404908 11.3980716253444  C 21.6350622792341 11.8801652892562  21.7930842163971 12.415059687787  21.7930842163971 13.0027548209367  C 21.7930842163971 13.6271808999081  21.6211191671314 14.2676767676767  21.2771890686001 14.9242424242424  C 20.9332589700688 15.5808080808081  20.4266592303402 16.2098255280073  19.7573898494144 16.8112947658402  C 19.0881204684886 17.4127640036731  18.3049823387247 17.9522497704316  17.4079754601227 18.4297520661157  C 16.5109685815207 18.9072543617999  15.4605874697899 19.2883379247016  14.2568321249303 19.5730027548209  C 13.0530767800707 19.8576675849403  11.7958728388177 20  10.4852203011712 20  C 9.17456776352481 20  7.89644915411785 19.846189164371  6.65086447295039 19.5385674931129  C 5.40527979178285 19.2309458218549  4.28750697155607 18.8039485766758  3.29754601226995 18.2575757575758  C 2.30758505298382 17.7112029384757  1.5105038111173 17.0179063360882  0.906302286670382 16.1776859504132  C 0.302100762223461 15.3374655647383  0 14.4214876033058  0 13.4297520661157  C 0 12.3737373737374  0.323015430377382 11.2488521579431  0.969046291132173 10.0550964187327  C 1.61507715188696 8.86134067952247  2.53299869864287 7.67676767676767  3.72281093139989 6.50137741046834  C 5.29373489496186 4.94949494949495  6.88092582264361 3.86593204775025  8.48438371444507 3.25068870523415  C 10.0878416062465 2.63544536271809  11.2335006506785 2.66758494031222  11.9213608477412 3.34710743801651  C 12.5255623721881 3.93480257116622  12.6185164528723 4.89439853076215  12.2002230897937 6.22589531680438  C 12.16304145752 6.35445362718087  12.1583937534858 6.44628099173553  12.186279977691 6.50137741046834  C 12.2141662018963 6.55647382920108  12.2606432422384 6.58861340679522  12.3257110987172 6.59779614325066  C 12.3907789551961 6.60697887970613  12.4581706636921 6.60468319559229  12.5278862242052 6.59090909090907  C 12.5976017847184 6.57713498622593  12.6603457891802 6.56106519742883  12.7161182375906 6.54269972451795  L 12.7997769102063 6.5151515151515  C 14.0918386317159 5.97337006427915  15.2351738241309 5.70247933884298  16.2297824874512 5.70247933884298  C 17.2243911507715 5.70247933884298  17.9354898680052 5.9825528007346  18.3630786391522 6.54269972451795  C 18.7813720022309 7.12121212121212  18.7813720022309 7.9384756657484  18.3630786391522 8.99449035812671  C 18.3444878230154 9.11386593204776  18.3235731548615 9.20569329660239  18.3003346346904 9.26997245179066  C 18.2770961145195 9.33425160697885  18.2980107826734 9.39164370982553  18.3630786391522 9.44214876033058  C 18.4281464956312 9.49265381083563  18.4839189440416 9.52708907254362  18.5303959843837 9.54545454545453  C 18.5768730247258 9.56382001836545  18.6558839933073 9.59136822773189  18.7674288901283 9.62809917355372  C 19.2972671500279 9.7933884297521  19.7759806655512 10.0091827364554  20.2035694366982 10.2754820936639  C 20.6311582078453 10.5417814508723  21.0029745305819 10.9159779614325  21.319018404908 11.3980716253444  Z M 19.3530395984384 3.50550964187329  C 19.9014686744748 3.67539026629936  20.3708867819297 3.97612488521582  20.7612939208031 4.4077134986226  C 21.1517010596765 4.83930211202937  21.4050009295408 5.3374655647383  21.5211935303959 5.90220385674934  C 21.6373861312512 6.46694214876035  21.6071760550288 7.00642791551886  21.430563301729 7.52066115702476  C 21.3562000371817 7.73186409550044  21.2190927681726 7.88797061524335  21.0192414947016 7.98898071625345  C 20.8193902212307 8.08999081726355  20.6125673917085 8.10835629017447  20.398773006135 8.0440771349862  C 20.1849786205614 7.97061524334254  20.0269566833984 7.83516988062445  19.9247071946459 7.63774104683193  C 19.8224577058933 7.44031221303948  19.8038668897565 7.23599632690542  19.8689347462354 7.02479338842977  C 20.0548429076036 6.44628099173553  19.9432980107827 5.93663911845732  19.5343000557725 5.49586776859508  C 19.1253021007622 5.05509641873283  18.6279977691021 4.89439853076215  18.042387060792 5.01377410468322  C 17.8192972671501 5.05968778696052  17.6101505856107 5.02295684113869  17.414947016174 4.90358126721765  C 17.2197434467373 4.78420569329657  17.1035508458822 4.6143250688705  17.0663692136085 4.39393939393938  C 17.0198921732664 4.17355371900825  17.0570738055401 3.9692378328742  17.1779141104295 3.78099173553721  C 17.2987544153188 3.59274563820014  17.4707194645845 3.47566574839306  17.6938092582265 3.4297520661157  C 18.2515337423313 3.31037649219468  18.8046105224019 3.33562901744722  19.3530395984384 3.50550964187329  Z M 20.3848298940324 0.309917355371908  C 21.5095742703105 0.654269972451743  22.4762967094255 1.27180899908177  23.2849972113776 2.1625344352617  C 24.0936977133296 3.0440771349862  24.6165644171779 4.06565656565652  24.8535973229224 5.22727272727275  C 25.0906302286671 6.38888888888886  25.0278862242052 7.49770431588615  24.6653653095371 8.55371900826447  C 24.5817066369214 8.80165289256198  24.4236846997583 8.98530762167127  24.191299498048 9.10468319559229  C 23.9589142963376 9.22405876951331  23.7172336865589 9.24242424242422  23.4662576687116 9.15977961432509  C 23.2152816508645 9.07713498622593  23.0293734894962 8.92102846648299  22.9085331846068 8.6914600550964  C 22.7876928797174 8.46189164370983  22.7644543595464 8.2231404958678  22.8388176240937 7.97520661157023  C 23.0990890500093 7.22222222222223  23.1455660903514 6.43250688705237  22.9782487451199 5.60606060606062  C 22.8109313998885 4.77961432506888  22.4391150771519 4.05417814508723  21.8627997769102 3.4297520661157  C 21.2864844766685 2.79614325068871  20.5986242796059 2.35766758494032  19.7992191857222 2.1143250688705  C 18.9998140918387 1.87098255280077  18.1957612939208 1.83195592286501  17.3870607919687 1.99724517906333  C 17.1267893660531 2.05234159779616  16.8851087562744 2.0087235996327  16.6620189626325 1.86639118457299  C 16.4389291689905 1.72405876951331  16.2994980479643 1.52433425160694  16.2437255995538 1.26721763085399  C 16.1879531511433 1.01010101010104  16.2321063394683 0.773645546372848  16.3761851645287 0.557851239669418  C 16.5202639895892 0.342056932965988  16.7224391150771 0.206611570247901  16.9827105409927 0.151515151515156  C 18.1260457334077 -0.0872359963268821  19.2600855177542 -0.0344352617079835  20.3848298940324 0.309917355371908  Z " fill-rule="nonzero" fill="#999999" stroke="none" transform="matrix(1 0 0 1 95 10 )" />
  </g>
</svg>