<?xml version="1.0" encoding="utf-8"?>
<svg version="1.1" xmlns:xlink="http://www.w3.org/1999/xlink" width="17px" height="20px" xmlns="http://www.w3.org/2000/svg">
  <g transform="matrix(1 0 0 1 -183 -10 )">
    <path d="M 7.72292950034222 5.0251256281407  C 7.86511521788731 4.34766424716173  7.9362080766598 3.80420621626652  7.9362080766598 3.39475153545504  C 7.9362080766598 3.21608040201005  7.92872461784162 3.07277126372603  7.91375770020534 2.96482412060303  C 7.89879078256899 2.85687697748  7.86698608259184 2.74520751907687  7.81834360027375 2.62981574539364  C 7.76970111795572 2.51442397171041  7.69112480036506 2.42881072026802  7.58261464750171 2.37297599106645  C 7.47410449463837 2.31714126186489  7.33378964179786 2.28922389726409  7.16167008898015 2.28922389726409  C 6.86981519507185 2.28922389726409  6.57796030116356 2.37483714870649  6.28610540725532 2.54606365159128  C 5.50034223134838 2.97785222408336  4.90540725530457 3.68695328494323  4.50130047912387 4.67336683417085  C 4.09719370294317 5.65978038339847  3.89514031485282 6.66294435138656  3.89514031485282 7.68285873813511  C 3.89514031485282 8.01042248278429  3.92694501483004 8.32868043923321  3.99055441478441 8.63763260748186  C 4.05416381473879 8.94658477573051  4.15331964407937 9.2462311557789  4.28802190280629 9.53657174762702  C 4.42272416153321 9.82691233947514  4.61916495550992 10.0595570444817  4.87734428473647 10.2345058626466  C 5.13552361396302 10.4094546808115  5.44047456080307 10.4969290898939  5.79219712525668 10.4969290898939  C 5.82213096052931 10.4969290898939  5.88948208989274 10.498790247534  5.99425051334703 10.5025125628141  C 6.09901893680126 10.5062348780942  6.17385352498286 10.5062348780942  6.21875427789183 10.5025125628141  C 6.26365503080081 10.498790247534  6.32352270134612 10.4876233016936  6.39835728952772 10.4690117252931  C 6.47319187770933 10.4504001488926  6.52931781884553 10.4187604690117  6.56673511293633 10.3740926856505  C 6.60415240702713 10.3294249022892  6.6303445128907 10.2698678578076  6.64531143052704 10.1954215522055  C 6.76504677161762 9.62218499906942  6.94464978325345 8.76046901172529  7.1841204654346 7.61027359017308  C 7.42359114761575 6.4600781686209  7.60319415925164 5.59836218127674  7.72292950034222 5.0251256281407  Z M 15.7152635181382 9.41931881630373  C 16.1717545060461 10.1302810348037  16.4 10.5639307649358  16.4 10.7202680067002  C 16.4 10.7723804206216  16.3719370294319 10.822631676903  16.3158110882957 10.8710217755444  C 16.2596851471595 10.9194118741858  16.2016883413187 10.9436069235064  16.1418206707734 10.9436069235064  L 16.07446954141 10.9324399776661  C 15.9098334474104 10.9101060859855  15.6778462240474 10.8691606179043  15.378507871321 10.8096035734227  C 15.0791695185945 10.750046528941  14.8097650011408 10.7035175879397  14.5702943189596 10.6700167504188  C 14.3308236367785 10.6365159128978  14.0950946840064 10.6197654941374  13.8631074606434 10.6197654941374  C 12.6133698380105 10.6197654941374  11.3000228154232 10.9659408151871  9.92306639288159 11.6582914572864  C 9.81081451060913 11.7178485017681  9.73223819301847 11.8183510143309  9.6873374401095 11.9597989949749  C 9.6125028519279 12.2278056951424  9.52083048140543 12.6205099571934  9.41232032854208 13.1379117811279  C 9.30381017567873 13.6553136050624  9.21962126397443 14.0294062907128  9.15975359342917 14.2601898380793  C 8.98763404061145 14.9376512190583  8.72571298197579 15.605806811837  8.37399041752224 16.2646566164154  C 8.02226785306868 16.9235064209939  7.60132329454711 17.535827284571  7.11115674195753 18.1016192071469  C 6.620990189368 18.6674111297227  6.04289299566506 19.1252559091755  5.37686516084875 19.4751535455053  C 4.71083732603239 19.8250511818351  4.01861738535251 20  3.30020533880901 20  C 2.28993839835726 20  1.48733744010951 19.6891866741113  0.892402464065697 19.0675600223339  C 0.29746748802188 18.4459333705565  0 17.6288851665736  0 16.6164154103853  C 0 16.2218499906942  0.0729637234770735 15.786339102922  0.21889117043122 15.3098827470687  C 0.364818617385367 14.8334263912153  0.600547570157403 14.3997766610832  0.92607802874744 14.0089335566722  C 1.25160848733742 13.6180904522613  1.61642710472279 13.4226689000558  2.02053388090349 13.4226689000558  C 2.30490531599361 13.4226689000558  2.75391284508328 13.5473664619393  3.36755646817249 13.7967615857063  C 3.98120009126171 14.0461567094733  4.29176363221535 14.2750790991997  4.29924709103352 14.4835287548855  C 4.29924709103352 14.4909733854458  4.23750855578373 14.5375023264471  4.11403148528404 14.6231155778895  C 3.99055441478441 14.7087288293318  3.84275610312568 14.8241206030151  3.67063655030802 14.9692908989391  C 3.4985169974903 15.1144611948632  3.32639744467258 15.2801042248279  3.15427789185492 15.466219988833  C 2.9821583390372 15.6523357528383  2.83623089208305 15.8793969849246  2.71649555099248 16.1474036850921  C 2.5967602099019 16.4154103852596  2.53689253935659 16.6908617159874  2.53689253935659 16.9737576772753  C 2.53689253935659 17.2194304857621  2.59863107460643 17.4167131956077  2.72210814510606 17.5656058068118  C 2.84558521560575 17.714498418016  3.02705909194617 17.7889447236181  3.26652977412732 17.7889447236181  C 3.60328542094453 17.7889447236181  3.9213324207164 17.6716917922948  4.22067077344286 17.4371859296483  C 4.52000912616927 17.2026800670017  4.76883413187312 16.9123394751535  4.96714579055441 16.5661641541039  C 5.1654574492357 16.2199888330542  5.34506046087154 15.8272845710032  5.50595482546203 15.3880513679509  C 5.66684919005246 14.9488181648986  5.78845539584756 14.5505304299274  5.87077344284734 14.1931881630374  C 5.95309148984711 13.8358458961474  6.01295916039243 13.500837520938  6.05037645448323 13.1881630374093  L 6.05037645448323 13.0876605248465  C 6.05037645448323 13.072771263726  6.03728040155141 13.0597431602457  6.0110882956879 13.0485762144054  C 5.98489618982433 13.0374092685651  5.95309148984711 13.0318257956449  5.91567419575631 13.0318257956449  L 5.80342231348391 13.0318257956449  C 5.80342231348391 13.0318257956449  5.76600501939311 13.0336869532849  5.6911704312115 13.0374092685651  C 5.6163358430299 13.0411315838452  5.59388546657539 13.0429927414852  5.62381930184802 13.0429927414852  C 3.92507415012545 13.0429927414852  2.60798539812913 12.5870091196724  1.67255304585899 11.6750418760469  C 0.737120693588849 10.7630746324214  0.269404517453779 9.46584775730506  0.269404517453779 7.78336125069794  C 0.269404517453779 6.97934115019541  0.398494182067054 6.15670947329238  0.656673511293661 5.31546621998882  C 0.914852840520211 4.47422296668529  1.27405886379194 3.69253675786339  1.73429158110883 2.97040759352316  C 2.19452429842573 2.24827842918296  2.77823408624232 1.62479061976549  3.48542094455854 1.09994416527081  C 4.19260780287476 0.575097710776106  4.95779146703171 0.241950493206787  5.78097193702945 0.100502512562826  C 6.1701117955738 0.0335008375209327  6.56673511293633 0  6.97084188911703 0  C 9.76965548710928 0  11.1690622861054 1.34003350083754  11.1690622861054 4.02010050251255  C 11.1690622861054 4.74967429741298  11.0268765685603 5.76586636888143  10.7425051334702 7.06867671691793  C 10.4581336983801 8.37148706495441  10.2972393337896 9.1568955890564  10.2598220396988 9.42490228922389  L 10.2934976043805 9.45840312674483  C 11.0493269450148 9.03405918481295  11.732192562172 8.70649544016379  12.3420944558521 8.47571189279731  C 12.9519963495323 8.24492834543085  13.5787360255533 8.12953657174762  14.2223134839151 8.12953657174762  C 14.3869495779147 8.12953657174762  14.5852612365959 8.17792667038898  14.8172484599589 8.27470686767168  C 14.959434177504 8.32681928159315  15.2587725302304 8.70835659780383  15.7152635181382 9.41931881630373  Z " fill-rule="nonzero" fill="#999999" stroke="none" transform="matrix(1 0 0 1 183 10 )" />
  </g>
</svg>