<?xml version="1.0" encoding="utf-8"?>
<svg version="1.1" xmlns:xlink="http://www.w3.org/1999/xlink" width="40px" height="40px" xmlns="http://www.w3.org/2000/svg">
  <g transform="matrix(1 0 0 1 -300 -326 )">
    <path d="M 320 326  C 331.2 326  340 334.8  340 346  C 340 357.2  331.2 366  320 366  C 308.8 366  300 357.2  300 346  C 300 334.8  308.8 326  320 326  Z " fill-rule="nonzero" fill="#f2f2f2" stroke="none" />
    <path d="M 320 326.5  C 330.92 326.5  339.5 335.08  339.5 346  C 339.5 356.92  330.92 365.5  320 365.5  C 309.08 365.5  300.5 356.92  300.5 346  C 300.5 335.08  309.08 326.5  320 326.5  Z " stroke-width="1" stroke="#f2f2f2" fill="none" />
  </g>
</svg>