<?xml version="1.0" encoding="utf-8"?>
<svg version="1.1" xmlns:xlink="http://www.w3.org/1999/xlink" width="12px" height="12px" viewBox="622 810  12 12" xmlns="http://www.w3.org/2000/svg">
  <path d="M 628 810  C 631.36 810  634 812.64  634 816  C 634 819.36  631.36 822  628 822  C 624.64 822  622 819.36  622 816  C 622 812.64  624.64 810  628 810  Z " fill-rule="nonzero" fill="#ffffff" stroke="none" />
  <path d="M 628 810.5  C 631.08 810.5  633.5 812.92  633.5 816  C 633.5 819.08  631.08 821.5  628 821.5  C 624.92 821.5  622.5 819.08  622.5 816  C 622.5 812.92  624.92 810.5  628 810.5  Z " stroke-width="1" stroke="#797979" fill="none" />
  <path d="M 628 819  C 626.32 819  625 817.68  625 816  C 625 814.32  626.32 813  628 813  C 629.68 813  631 814.32  631 816  C 631 817.68  629.68 819  628 819  " fill-rule="nonzero" fill="#797979" stroke="none" />
</svg>