<?xml version="1.0" encoding="utf-8"?>
<svg version="1.1" xmlns:xlink="http://www.w3.org/1999/xlink" width="12px" height="12px" viewBox="499 605  12 12" xmlns="http://www.w3.org/2000/svg">
  <path d="M 505 605  C 508.36 605  511 607.64  511 611  C 511 614.36  508.36 617  505 617  C 501.64 617  499 614.36  499 611  C 499 607.64  501.64 605  505 605  Z " fill-rule="nonzero" fill="#ffffff" stroke="none" />
  <path d="M 505 605.5  C 508.08 605.5  510.5 607.92  510.5 611  C 510.5 614.08  508.08 616.5  505 616.5  C 501.92 616.5  499.5 614.08  499.5 611  C 499.5 607.92  501.92 605.5  505 605.5  Z " stroke-width="1" stroke="#797979" fill="none" />
  <path d="M 505 614  C 503.32 614  502 612.68  502 611  C 502 609.32  503.32 608  505 608  C 506.68 608  508 609.32  508 611  C 508 612.68  506.68 614  505 614  " fill-rule="nonzero" fill="#797979" stroke="none" />
</svg>