<?xml version="1.0" encoding="utf-8"?>
<svg version="1.1" xmlns:xlink="http://www.w3.org/1999/xlink" width="12px" height="12px" viewBox="246 361  12 12" xmlns="http://www.w3.org/2000/svg">
  <path d="M 252 361  C 255.36 361  258 363.64  258 367  C 258 370.36  255.36 373  252 373  C 248.64 373  246 370.36  246 367  C 246 363.64  248.64 361  252 361  Z " fill-rule="nonzero" fill="#f0f0f0" stroke="none" />
  <path d="M 252 361.5  C 255.08 361.5  257.5 363.92  257.5 367  C 257.5 370.08  255.08 372.5  252 372.5  C 248.92 372.5  246.5 370.08  246.5 367  C 246.5 363.92  248.92 361.5  252 361.5  Z " stroke-width="1" stroke="#797979" fill="none" />
  <path d="M 252 370  C 250.32 370  249 368.68  249 367  C 249 365.32  250.32 364  252 364  C 253.68 364  255 365.32  255 367  C 255 368.68  253.68 370  252 370  " fill-rule="nonzero" fill="#797979" stroke="none" />
</svg>