<?xml version="1.0" encoding="utf-8"?>
<svg version="1.1" xmlns:xlink="http://www.w3.org/1999/xlink" width="12px" height="12px" viewBox="106 361  12 12" xmlns="http://www.w3.org/2000/svg">
  <path d="M 112 361  C 115.36 361  118 363.64  118 367  C 118 370.36  115.36 373  112 373  C 108.64 373  106 370.36  106 367  C 106 363.64  108.64 361  112 361  Z " fill-rule="nonzero" fill="#f0f0f0" stroke="none" />
  <path d="M 112 361.5  C 115.08 361.5  117.5 363.92  117.5 367  C 117.5 370.08  115.08 372.5  112 372.5  C 108.92 372.5  106.5 370.08  106.5 367  C 106.5 363.92  108.92 361.5  112 361.5  Z " stroke-width="1" stroke="#797979" fill="none" />
  <path d="M 112 370  C 110.32 370  109 368.68  109 367  C 109 365.32  110.32 364  112 364  C 113.68 364  115 365.32  115 367  C 115 368.68  113.68 370  112 370  " fill-rule="nonzero" fill="#797979" stroke="none" />
</svg>