<?xml version="1.0" encoding="utf-8"?>
<svg version="1.1" xmlns:xlink="http://www.w3.org/1999/xlink" width="12px" height="12px" viewBox="482 810  12 12" xmlns="http://www.w3.org/2000/svg">
  <path d="M 488 810  C 491.36 810  494 812.64  494 816  C 494 819.36  491.36 822  488 822  C 484.64 822  482 819.36  482 816  C 482 812.64  484.64 810  488 810  Z " fill-rule="nonzero" fill="#f0f0f0" stroke="none" />
  <path d="M 488 810.5  C 491.08 810.5  493.5 812.92  493.5 816  C 493.5 819.08  491.08 821.5  488 821.5  C 484.92 821.5  482.5 819.08  482.5 816  C 482.5 812.92  484.92 810.5  488 810.5  Z " stroke-width="1" stroke="#797979" fill="none" />
  <path d="M 488 819  C 486.32 819  485 817.68  485 816  C 485 814.32  486.32 813  488 813  C 489.68 813  491 814.32  491 816  C 491 817.68  489.68 819  488 819  " fill-rule="nonzero" fill="#797979" stroke="none" />
</svg>