<?xml version="1.0" encoding="utf-8"?>
<svg version="1.1" xmlns:xlink="http://www.w3.org/1999/xlink" width="12px" height="12px" viewBox="624 605  12 12" xmlns="http://www.w3.org/2000/svg">
  <path d="M 630 605  C 633.36 605  636 607.64  636 611  C 636 614.36  633.36 617  630 617  C 626.64 617  624 614.36  624 611  C 624 607.64  626.64 605  630 605  Z " fill-rule="nonzero" fill="#ffffff" stroke="none" />
  <path d="M 630 605.5  C 633.08 605.5  635.5 607.92  635.5 611  C 635.5 614.08  633.08 616.5  630 616.5  C 626.92 616.5  624.5 614.08  624.5 611  C 624.5 607.92  626.92 605.5  630 605.5  Z " stroke-width="1" stroke="#797979" fill="none" />
  <path d="M 630 614  C 628.32 614  627 612.68  627 611  C 627 609.32  628.32 608  630 608  C 631.68 608  633 609.32  633 611  C 633 612.68  631.68 614  630 614  " fill-rule="nonzero" fill="#797979" stroke="none" />
</svg>