<?xml version="1.0" encoding="utf-8"?>
<svg version="1.1" xmlns:xlink="http://www.w3.org/1999/xlink" width="12px" height="12px" viewBox="499 375  12 12" xmlns="http://www.w3.org/2000/svg">
  <path d="M 505 375  C 508.36 375  511 377.64  511 381  C 511 384.36  508.36 387  505 387  C 501.64 387  499 384.36  499 381  C 499 377.64  501.64 375  505 375  Z " fill-rule="nonzero" fill="#ffffff" stroke="none" />
  <path d="M 505 375.5  C 508.08 375.5  510.5 377.92  510.5 381  C 510.5 384.08  508.08 386.5  505 386.5  C 501.92 386.5  499.5 384.08  499.5 381  C 499.5 377.92  501.92 375.5  505 375.5  Z " stroke-width="1" stroke="#797979" fill="none" />
  <path d="M 505 384  C 503.32 384  502 382.68  502 381  C 502 379.32  503.32 378  505 378  C 506.68 378  508 379.32  508 381  C 508 382.68  506.68 384  505 384  " fill-rule="nonzero" fill="#797979" stroke="none" />
</svg>