<?xml version="1.0" encoding="utf-8"?>
<svg version="1.1" xmlns:xlink="http://www.w3.org/1999/xlink" width="12px" height="12px" viewBox="145 532  12 12" xmlns="http://www.w3.org/2000/svg">
  <path d="M 151 532  C 154.36 532  157 534.64  157 538  C 157 541.36  154.36 544  151 544  C 147.64 544  145 541.36  145 538  C 145 534.64  147.64 532  151 532  Z " fill-rule="nonzero" fill="#f0f0f0" stroke="none" />
  <path d="M 151 532.5  C 154.08 532.5  156.5 534.92  156.5 538  C 156.5 541.08  154.08 543.5  151 543.5  C 147.92 543.5  145.5 541.08  145.5 538  C 145.5 534.92  147.92 532.5  151 532.5  Z " stroke-width="1" stroke="#797979" fill="none" />
  <path d="M 151 541  C 149.32 541  148 539.68  148 538  C 148 536.32  149.32 535  151 535  C 152.68 535  154 536.32  154 538  C 154 539.68  152.68 541  151 541  " fill-rule="nonzero" fill="#797979" stroke="none" />
</svg>