<?xml version="1.0" encoding="utf-8"?>
<svg version="1.1" xmlns:xlink="http://www.w3.org/1999/xlink" width="12px" height="12px" viewBox="285 532  12 12" xmlns="http://www.w3.org/2000/svg">
  <path d="M 291 532  C 294.36 532  297 534.64  297 538  C 297 541.36  294.36 544  291 544  C 287.64 544  285 541.36  285 538  C 285 534.64  287.64 532  291 532  Z " fill-rule="nonzero" fill="#ffffff" stroke="none" />
  <path d="M 291 532.5  C 294.08 532.5  296.5 534.92  296.5 538  C 296.5 541.08  294.08 543.5  291 543.5  C 287.92 543.5  285.5 541.08  285.5 538  C 285.5 534.92  287.92 532.5  291 532.5  Z " stroke-width="1" stroke="#797979" fill="none" />
  <path d="M 291 541  C 289.32 541  288 539.68  288 538  C 288 536.32  289.32 535  291 535  C 292.68 535  294 536.32  294 538  C 294 539.68  292.68 541  291 541  " fill-rule="nonzero" fill="#797979" stroke="none" />
</svg>