<?xml version="1.0" encoding="utf-8"?>
<svg version="1.1" xmlns:xlink="http://www.w3.org/1999/xlink" width="12px" height="12px" viewBox="184 196  12 12" xmlns="http://www.w3.org/2000/svg">
  <path d="M 190 196  C 193.36 196  196 198.64  196 202  C 196 205.36  193.36 208  190 208  C 186.64 208  184 205.36  184 202  C 184 198.64  186.64 196  190 196  Z " fill-rule="nonzero" fill="#f0f0f0" stroke="none" />
  <path d="M 190 196.5  C 193.08 196.5  195.5 198.92  195.5 202  C 195.5 205.08  193.08 207.5  190 207.5  C 186.92 207.5  184.5 205.08  184.5 202  C 184.5 198.92  186.92 196.5  190 196.5  Z " stroke-width="1" stroke="#797979" fill="none" />
  <path d="M 190 205  C 188.32 205  187 203.68  187 202  C 187 200.32  188.32 199  190 199  C 191.68 199  193 200.32  193 202  C 193 203.68  191.68 205  190 205  " fill-rule="nonzero" fill="#797979" stroke="none" />
</svg>