<?xml version="1.0" encoding="utf-8"?>
<svg version="1.1" xmlns:xlink="http://www.w3.org/1999/xlink" width="12px" height="12px" viewBox="3 23  12 12" xmlns="http://www.w3.org/2000/svg">
  <path d="M 9 23  C 12.36 23  15 25.64  15 29  C 15 32.36  12.36 35  9 35  C 5.64 35  3 32.36  3 29  C 3 25.64  5.64 23  9 23  Z " fill-rule="nonzero" fill="#f0f0f0" stroke="none" />
  <path d="M 9 23.5  C 12.08 23.5  14.5 25.92  14.5 29  C 14.5 32.08  12.08 34.5  9 34.5  C 5.92 34.5  3.5 32.08  3.5 29  C 3.5 25.92  5.92 23.5  9 23.5  Z " stroke-width="1" stroke="#797979" fill="none" />
  <path d="M 9 32  C 7.32 32  6 30.68  6 29  C 6 27.32  7.32 26  9 26  C 10.68 26  12 27.32  12 29  C 12 30.68  10.68 32  9 32  " fill-rule="nonzero" fill="#797979" stroke="none" />
</svg>