<?xml version="1.0" encoding="utf-8"?>
<svg version="1.1" xmlns:xlink="http://www.w3.org/1999/xlink" width="12px" height="12px" viewBox="203 21.5  12 12" xmlns="http://www.w3.org/2000/svg">
  <path d="M 209 21.5  C 212.36 21.5  215 24.14  215 27.5  C 215 30.86  212.36 33.5  209 33.5  C 205.64 33.5  203 30.86  203 27.5  C 203 24.14  205.64 21.5  209 21.5  Z " fill-rule="nonzero" fill="#ffffff" stroke="none" />
  <path d="M 209 22  C 212.08 22  214.5 24.42  214.5 27.5  C 214.5 30.58  212.08 33  209 33  C 205.92 33  203.5 30.58  203.5 27.5  C 203.5 24.42  205.92 22  209 22  Z " stroke-width="1" stroke="#797979" fill="none" />
  <path d="M 209 30.5  C 207.32 30.5  206 29.18  206 27.5  C 206 25.82  207.32 24.5  209 24.5  C 210.68 24.5  212 25.82  212 27.5  C 212 29.18  210.68 30.5  209 30.5  " fill-rule="nonzero" fill="#797979" stroke="none" />
</svg>