<?xml version="1.0" encoding="utf-8"?>
<svg version="1.1" xmlns:xlink="http://www.w3.org/1999/xlink" width="12px" height="12px" viewBox="103 23  12 12" xmlns="http://www.w3.org/2000/svg">
  <path d="M 109 23  C 112.36 23  115 25.64  115 29  C 115 32.36  112.36 35  109 35  C 105.64 35  103 32.36  103 29  C 103 25.64  105.64 23  109 23  Z " fill-rule="nonzero" fill="#ffffff" stroke="none" />
  <path d="M 109 23.5  C 112.08 23.5  114.5 25.92  114.5 29  C 114.5 32.08  112.08 34.5  109 34.5  C 105.92 34.5  103.5 32.08  103.5 29  C 103.5 25.92  105.92 23.5  109 23.5  Z " stroke-width="1" stroke="#797979" fill="none" />
  <path d="M 109 32  C 107.32 32  106 30.68  106 29  C 106 27.32  107.32 26  109 26  C 110.68 26  112 27.32  112 29  C 112 30.68  110.68 32  109 32  " fill-rule="nonzero" fill="#797979" stroke="none" />
</svg>