<?xml version="1.0" encoding="utf-8"?>
<svg version="1.1" xmlns:xlink="http://www.w3.org/1999/xlink" width="12px" height="12px" viewBox="286 196  12 12" xmlns="http://www.w3.org/2000/svg">
  <path d="M 292 196  C 295.36 196  298 198.64  298 202  C 298 205.36  295.36 208  292 208  C 288.64 208  286 205.36  286 202  C 286 198.64  288.64 196  292 196  Z " fill-rule="nonzero" fill="#ffffff" stroke="none" />
  <path d="M 292 196.5  C 295.08 196.5  297.5 198.92  297.5 202  C 297.5 205.08  295.08 207.5  292 207.5  C 288.92 207.5  286.5 205.08  286.5 202  C 286.5 198.92  288.92 196.5  292 196.5  Z " stroke-width="1" stroke="#797979" fill="none" />
  <path d="M 292 205  C 290.32 205  289 203.68  289 202  C 289 200.32  290.32 199  292 199  C 293.68 199  295 200.32  295 202  C 295 203.68  293.68 205  292 205  " fill-rule="nonzero" fill="#797979" stroke="none" />
</svg>