<?xml version="1.0" encoding="utf-8"?>
<svg version="1.1" xmlns:xlink="http://www.w3.org/1999/xlink" width="12px" height="12px" viewBox="203 23  12 12" xmlns="http://www.w3.org/2000/svg">
  <path d="M 209 23  C 212.36 23  215 25.64  215 29  C 215 32.36  212.36 35  209 35  C 205.64 35  203 32.36  203 29  C 203 25.64  205.64 23  209 23  Z " fill-rule="nonzero" fill="#ffffff" stroke="none" />
  <path d="M 209 23.5  C 212.08 23.5  214.5 25.92  214.5 29  C 214.5 32.08  212.08 34.5  209 34.5  C 205.92 34.5  203.5 32.08  203.5 29  C 203.5 25.92  205.92 23.5  209 23.5  Z " stroke-width="1" stroke="#797979" fill="none" />
  <path d="M 209 32  C 207.32 32  206 30.68  206 29  C 206 27.32  207.32 26  209 26  C 210.68 26  212 27.32  212 29  C 212 30.68  210.68 32  209 32  " fill-rule="nonzero" fill="#797979" stroke="none" />
</svg>