<?xml version="1.0" encoding="utf-8"?>
<svg version="1.1" xmlns:xlink="http://www.w3.org/1999/xlink" width="12px" height="12px" viewBox="248 355  12 12" xmlns="http://www.w3.org/2000/svg">
  <path d="M 254 355  C 257.36 355  260 357.64  260 361  C 260 364.36  257.36 367  254 367  C 250.64 367  248 364.36  248 361  C 248 357.64  250.64 355  254 355  Z " fill-rule="nonzero" fill="#f0f0f0" stroke="none" />
  <path d="M 254 355.5  C 257.08 355.5  259.5 357.92  259.5 361  C 259.5 364.08  257.08 366.5  254 366.5  C 250.92 366.5  248.5 364.08  248.5 361  C 248.5 357.92  250.92 355.5  254 355.5  Z " stroke-width="1" stroke="#797979" fill="none" />
  <path d="M 254 364  C 252.32 364  251 362.68  251 361  C 251 359.32  252.32 358  254 358  C 255.68 358  257 359.32  257 361  C 257 362.68  255.68 364  254 364  " fill-rule="nonzero" fill="#797979" stroke="none" />
</svg>