<?xml version="1.0" encoding="utf-8"?>
<svg version="1.1" xmlns:xlink="http://www.w3.org/1999/xlink" width="12px" height="12px" viewBox="181 355  12 12" xmlns="http://www.w3.org/2000/svg">
  <path d="M 187 355  C 190.36 355  193 357.64  193 361  C 193 364.36  190.36 367  187 367  C 183.64 367  181 364.36  181 361  C 181 357.64  183.64 355  187 355  Z " fill-rule="nonzero" fill="#ffffff" stroke="none" />
  <path d="M 187 355.5  C 190.08 355.5  192.5 357.92  192.5 361  C 192.5 364.08  190.08 366.5  187 366.5  C 183.92 366.5  181.5 364.08  181.5 361  C 181.5 357.92  183.92 355.5  187 355.5  Z " stroke-width="1" stroke="#797979" fill="none" />
  <path d="M 187 364  C 185.32 364  184 362.68  184 361  C 184 359.32  185.32 358  187 358  C 188.68 358  190 359.32  190 361  C 190 362.68  188.68 364  187 364  " fill-rule="nonzero" fill="#797979" stroke="none" />
</svg>