<?xml version="1.0" encoding="utf-8"?>
<svg version="1.1" xmlns:xlink="http://www.w3.org/1999/xlink" width="12px" height="12px" viewBox="151 502  12 12" xmlns="http://www.w3.org/2000/svg">
  <path d="M 157 502  C 160.36 502  163 504.64  163 508  C 163 511.36  160.36 514  157 514  C 153.64 514  151 511.36  151 508  C 151 504.64  153.64 502  157 502  Z " fill-rule="nonzero" fill="#f0f0f0" stroke="none" />
  <path d="M 157 502.5  C 160.08 502.5  162.5 504.92  162.5 508  C 162.5 511.08  160.08 513.5  157 513.5  C 153.92 513.5  151.5 511.08  151.5 508  C 151.5 504.92  153.92 502.5  157 502.5  Z " stroke-width="1" stroke="#797979" fill="none" />
  <path d="M 157 511  C 155.32 511  154 509.68  154 508  C 154 506.32  155.32 505  157 505  C 158.68 505  160 506.32  160 508  C 160 509.68  158.68 511  157 511  " fill-rule="nonzero" fill="#797979" stroke="none" />
</svg>