<?xml version="1.0" encoding="utf-8"?>
<svg version="1.1" xmlns:xlink="http://www.w3.org/1999/xlink" width="12px" height="12px" viewBox="291 502  12 12" xmlns="http://www.w3.org/2000/svg">
  <path d="M 297 502  C 300.36 502  303 504.64  303 508  C 303 511.36  300.36 514  297 514  C 293.64 514  291 511.36  291 508  C 291 504.64  293.64 502  297 502  Z " fill-rule="nonzero" fill="#ffffff" stroke="none" />
  <path d="M 297 502.5  C 300.08 502.5  302.5 504.92  302.5 508  C 302.5 511.08  300.08 513.5  297 513.5  C 293.92 513.5  291.5 511.08  291.5 508  C 291.5 504.92  293.92 502.5  297 502.5  Z " stroke-width="1" stroke="#797979" fill="none" />
  <path d="M 297 511  C 295.32 511  294 509.68  294 508  C 294 506.32  295.32 505  297 505  C 298.68 505  300 506.32  300 508  C 300 509.68  298.68 511  297 511  " fill-rule="nonzero" fill="#797979" stroke="none" />
</svg>