<?xml version="1.0" encoding="utf-8"?>
<svg version="1.1" xmlns:xlink="http://www.w3.org/1999/xlink" width="12px" height="12px" viewBox="153 192  12 12" xmlns="http://www.w3.org/2000/svg">
  <path d="M 159 192  C 162.36 192  165 194.64  165 198  C 165 201.36  162.36 204  159 204  C 155.64 204  153 201.36  153 198  C 153 194.64  155.64 192  159 192  Z " fill-rule="nonzero" fill="#ffffff" stroke="none" />
  <path d="M 159 192.5  C 162.08 192.5  164.5 194.92  164.5 198  C 164.5 201.08  162.08 203.5  159 203.5  C 155.92 203.5  153.5 201.08  153.5 198  C 153.5 194.92  155.92 192.5  159 192.5  Z " stroke-width="1" stroke="#797979" fill="none" />
  <path d="M 159 201  C 157.32 201  156 199.68  156 198  C 156 196.32  157.32 195  159 195  C 160.68 195  162 196.32  162 198  C 162 199.68  160.68 201  159 201  " fill-rule="nonzero" fill="#797979" stroke="none" />
</svg>