<?xml version="1.0" encoding="utf-8"?>
<svg version="1.1" xmlns:xlink="http://www.w3.org/1999/xlink" width="12px" height="12px" viewBox="255 192  12 12" xmlns="http://www.w3.org/2000/svg">
  <path d="M 261 192  C 264.36 192  267 194.64  267 198  C 267 201.36  264.36 204  261 204  C 257.64 204  255 201.36  255 198  C 255 194.64  257.64 192  261 192  Z " fill-rule="nonzero" fill="#ffffff" stroke="none" />
  <path d="M 261 192.5  C 264.08 192.5  266.5 194.92  266.5 198  C 266.5 201.08  264.08 203.5  261 203.5  C 257.92 203.5  255.5 201.08  255.5 198  C 255.5 194.92  257.92 192.5  261 192.5  Z " stroke-width="1" stroke="#797979" fill="none" />
  <path d="M 261 201  C 259.32 201  258 199.68  258 198  C 258 196.32  259.32 195  261 195  C 262.68 195  264 196.32  264 198  C 264 199.68  262.68 201  261 201  " fill-rule="nonzero" fill="#797979" stroke="none" />
</svg>