<?xml version="1.0" encoding="utf-8"?>
<svg version="1.1" xmlns:xlink="http://www.w3.org/1999/xlink" width="20px" height="20px" preserveAspectRatio="xMinYMid meet" viewBox="881 1023  20 18" xmlns="http://www.w3.org/2000/svg">
  <defs>
    <mask fill="white" id="clip105">
      <path d="M 489.5 978  L 562.5 978  L 562.5 1006  L 489.5 1006  Z M 288 816  L 906 816  L 906 1042  L 288 1042  Z " fill-rule="evenodd" />
    </mask>
  </defs>
  <path d="M 288 819  L 307 819  A 5 5 0 0 1 312 824 L 312 987  A 5 5 0 0 0 317 992 L 779 992  A 5 5 0 0 1 784 997 L 784 1027  A 5 5 0 0 0 789 1032 L 797 1032  A 3 3 0 0 1 800 1029 A 3 3 0 0 1 803 1032 L 819 1032  A 3 3 0 0 1 822 1029 A 3 3 0 0 1 825 1032 L 841 1032  A 3 3 0 0 1 844 1029 A 3 3 0 0 1 847 1032 L 861 1032  A 3 3 0 0 1 864 1029 A 3 3 0 0 1 867 1032 L 890 1032  " stroke-width="2" stroke-dasharray="34,16" stroke="#f59a23" fill="none" mask="url(#clip105)" />
  <path d="M 889 1039.6  L 896 1032  L 889 1024.4  L 889 1039.6  Z " fill-rule="nonzero" fill="#f59a23" stroke="none" mask="url(#clip105)" />
</svg>