<?xml version="1.0" encoding="utf-8"?>
<svg version="1.1" xmlns:xlink="http://www.w3.org/1999/xlink" width="45px" height="10px" preserveAspectRatio="xMinYMid meet" viewBox="1115 868  45 8" xmlns="http://www.w3.org/2000/svg">
  <defs>
    <mask fill="white" id="clip181">
      <path d="M 806.5 1266  L 879.5 1266  L 879.5 1294  L 806.5 1294  Z M 288 862  L 1170 862  L 1170 1294  L 288 1294  Z " fill-rule="evenodd" />
    </mask>
  </defs>
  <path d="M 288 1110  L 307 1110  A 5 5 0 0 1 312 1115 L 312 1275  A 5 5 0 0 0 317 1280 L 567 1280  A 3 3 0 0 1 570 1277 A 3 3 0 0 1 573 1280 L 861 1280  A 3 3 0 0 1 864 1277 A 3 3 0 0 1 867 1280 L 1069 1280  A 3 3 0 0 1 1072 1277 A 3 3 0 0 1 1075 1280 L 1115 1280  A 5 5 0 0 0 1120 1275 L 1120 877  A 5 5 0 0 1 1125 872 L 1154 872  " stroke-width="2" stroke-dasharray="34,16" stroke="#f59a23" fill="none" mask="url(#clip181)" />
  <path d="M 1153 879.6  L 1160 872  L 1153 864.4  L 1153 879.6  Z " fill-rule="nonzero" fill="#f59a23" stroke="none" mask="url(#clip181)" />
</svg>