<?xml version="1.0" encoding="utf-8"?>
<svg version="1.1" xmlns:xlink="http://www.w3.org/1999/xlink" width="20px" height="20px" preserveAspectRatio="xMinYMid meet" viewBox="1145 1447  20 18" xmlns="http://www.w3.org/2000/svg">
  <defs>
    <mask fill="white" id="clip58">
      <path d="M 657.5 1546  L 730.5 1546  L 730.5 1574  L 657.5 1574  Z M 288 1393  L 1170 1393  L 1170 1574  L 288 1574  Z " fill-rule="evenodd" />
    </mask>
  </defs>
  <path d="M 288 1396  L 317 1396  A 5 5 0 0 1 322 1401 L 322 1555  A 5 5 0 0 0 327 1560 L 861 1560  A 3 3 0 0 1 864 1557 A 3 3 0 0 1 867 1560 L 877 1560  A 3 3 0 0 1 880 1557 A 3 3 0 0 1 883 1560 L 1096 1560  A 3 3 0 0 1 1099 1557 A 3 3 0 0 1 1102 1560 L 1120 1560  A 5 5 0 0 0 1125 1555 L 1125 1461  A 5 5 0 0 1 1130 1456 L 1154 1456  " stroke-width="2" stroke-dasharray="34,16" stroke="#f59a23" fill="none" mask="url(#clip58)" />
  <path d="M 1153 1463.6  L 1160 1456  L 1153 1448.4  L 1153 1463.6  Z " fill-rule="nonzero" fill="#f59a23" stroke="none" mask="url(#clip58)" />
</svg>