<?xml version="1.0" encoding="utf-8"?>
<svg version="1.1" xmlns:xlink="http://www.w3.org/1999/xlink" width="30px" height="30px" xmlns="http://www.w3.org/2000/svg">
  <g transform="matrix(1 0 0 1 -10 -195 )">
    <path d="M 0 21.2946428571429  C 0 18.2254464285714  1.40637813211845 15.625  4.21913439635534 13.4933035714286  C 4.12984054669704 13.28125  4.08519362186792 12.9910714285714  4.08519362186792 12.6227678571429  C 4.08519362186792 12.3995535714286  4.146583143508 12.1261160714286  4.26936218678816 11.8024553571429  C 4.39214123006832 11.4787946428571  4.5260820045558 11.2276785714286  4.67118451025055 11.0491071428571  C 4.66002277904329 10.8035714285714  4.7018792710706 10.5078125  4.79675398633259 10.1618303571429  C 4.89162870159453 9.81584821428569  5.01719817767651 9.57589285714289  5.17346241457858 9.44196428571428  C 5.17346241457858 7.890625  5.68969248291569 6.28069196428572  6.72215261958996 4.61216517857142  C 7.75461275626424 2.94363839285717  8.96845102505699 1.77455357142858  10.3636674259681 1.10491071428572  C 11.9151480637813 0.368303571428584  13.7233485193622 0  15.7882687927107 0  C 17.2727790432802 0  18.7572892938497 0.306919642857167  20.2417995444191 0.920758928571416  C 20.7887243735763 1.15513392857142  21.2910022779043 1.42299107142858  21.7486332574032 1.72433035714289  C 22.206264236902 2.02566964285711  22.6025056947608 2.33816964285714  22.9373576309795 2.66183035714289  C 23.2722095671982 2.98549107142856  23.5791571753986 3.36495535714289  23.8582004555809 3.80022321428569  C 24.1372437357631 4.23549107142858  24.3716400911161 4.6484375  24.5613895216401 5.0390625  C 24.751138952164 5.4296875  24.9325170842824 5.90122767857142  25.1055239179954 6.45368303571428  C 25.2785307517084 7.00613839285711  25.4208428246013 7.50558035714286  25.5324601366743 7.95200892857142  C 25.6440774487472 8.3984375  25.7668564920273 8.9453125  25.9007972665148 9.59263392857142  L 25.9175398633257 9.67633928571428  C 26.5314350797266 10.6026785714286  26.8383826879272 11.4397321428572  26.8383826879272 12.1875  C 26.8383826879272 12.34375  26.7881548974943 12.5669642857143  26.6876993166287 12.8571428571429  C 26.5872437357631 13.1473214285714  26.5370159453303 13.359375  26.5370159453303 13.4933035714286  C 26.5370159453303 13.5044642857143  26.5453872437358 13.5239955357143  26.5621298405467 13.5518973214286  C 26.5788724373576 13.5797991071428  26.5984054669703 13.6077008928572  26.6207289293849 13.6356026785714  C 26.6430523917995 13.6635044642857  26.6542141230069 13.6830357142857  26.6542141230069 13.6941964285714  C 27.5136674259682 14.9665178571429  28.1861617312073 16.1635044642857  28.6716970387243 17.28515625  C 29.1572323462415 18.4068080357143  29.4 19.5703125  29.4 20.7756696428571  C 29.4 21.2555803571428  29.2911731207289 21.8136160714286  29.0735193621868 22.4497767857143  C 28.8558656036446 23.0859375  28.5461275626424 23.4040178571429  28.1443052391799 23.4040178571429  C 28.0438496583143 23.4040178571429  27.9350227790433 23.3621651785714  27.8178246013667 23.2784598214286  C 27.7006264236902 23.1947544642857  27.5945899772209 23.0970982142857  27.499715261959 22.9854910714286  C 27.404840546697 22.8738839285714  27.2988041002278 22.7287946428571  27.1816059225513 22.5502232142857  C 27.0644077448747 22.3716517857143  26.9751138952164 22.2237723214286  26.9137243735763 22.1065848214286  C 26.8523348519362 21.9893973214286  26.776993166287 21.8443080357143  26.6876993166287 21.6713169642857  C 26.5984054669703 21.4983258928571  26.5481776765376 21.4006696428572  26.5370159453303 21.3783482142857  C 26.525854214123 21.3671875  26.5091116173121 21.3616071428571  26.4867881548975 21.3616071428571  L 26.4030751708428 21.4285714285714  C 25.7445330296127 23.1473214285714  25.0078587699317 24.3917410714286  24.1930523917995 25.1618303571429  C 24.4162870159453 25.3850446428572  24.7595102505695 25.5998883928571  25.222722095672 25.8063616071429  C 25.6859339407745 26.0128348214286  26.071013667426 26.2444196428571  26.3779612756264 26.5011160714286  C 26.6849088838269 26.7578125  26.8830296127563 27.1205357142857  26.9723234624146 27.5892857142857  C 26.95 27.6339285714286  26.9276765375854 27.7232142857143  26.9053530751709 27.8571428571429  C 26.8830296127563 27.9910714285714  26.8439635535308 28.0915178571429  26.7881548974943 28.1584821428571  C 26.0738041002278 29.2410714285714  24.3883826879271 29.7823660714286  21.7318906605922 29.7823660714286  C 21.1403189066059 29.7823660714286  20.5236332574032 29.7321428571429  19.881833712984 29.6316964285714  C 19.2400341685649 29.53125  18.6931093394077 29.4196428571429  18.2410592255126 29.296875  C 17.7890091116173 29.1741071428571  17.2058086560364 29.0066964285714  16.4914578587699 28.7946428571429  C 16.3240318906606 28.7388392857143  16.1956719817767 28.6997767857143  16.1063781321184 28.6774553571429  C 15.9501138952164 28.6328125  15.6933940774488 28.6077008928572  15.3362186788155 28.6021205357143  C 14.9790432801822 28.5965401785714  14.7558086560364 28.5881696428571  14.6665148063781 28.5770089285714  C 14.2088838268793 29.0792410714286  13.4973234624146 29.4419642857143  12.5318337129841 29.6651785714286  C 11.5663439635535 29.8883928571429  10.6259681093394 30  9.71070615034171 30  C 9.32004555808658 30  8.93496583143508 29.9916294642857  8.55546697038722 29.9748883928571  C 8.17596810933941 29.9581473214286  7.65694760820043 29.9079241071429  6.99840546697038 29.82421875  C 6.33986332574034 29.7405133928571  5.77619589977223 29.6261160714286  5.30740318906606 29.4810267857143  C 4.8386104783599 29.3359375  4.42283599088842 29.1127232142857  4.06007972665151 28.8113839285714  C 3.69732346241454 28.5100446428571  3.51594533029612 28.1529017857143  3.51594533029612 27.7399553571429  C 3.51594533029612 27.2935267857143  3.57175398633262 26.9614955357143  3.68337129840546 26.7438616071429  C 3.79498861047836 26.5262276785714  4.02380410022778 26.2555803571429  4.36981776765373 25.9319196428571  C 4.49259681093395 25.9095982142857  4.71862186788155 25.8370535714286  5.0478929384966 25.7142857142857  C 5.3771640091116 25.5915178571428  5.65341685649202 25.5245535714286  5.8766514806378 25.5133928571429  C 5.92129840546698 25.5133928571429  5.99943052391802 25.5022321428572  6.11104783599092 25.4799107142857  C 6.13337129840545 25.4575892857143  6.14453302961277 25.4352678571429  6.14453302961277 25.4129464285714  L 6.11104783599092 25.3627232142857  C 5.57528473804103 25.2399553571428  4.97255125284738 24.6512276785714  4.30284738041001 23.5965401785714  C 3.63314350797265 22.5418526785714  3.22574031890662 21.6685267857143  3.08063781321187 20.9765625  L 2.99692482915714 20.9263392857143  C 2.95227790432801 20.9263392857143  2.8853075170843 21.0379464285714  2.796013667426 21.2611607142857  C 2.59510250569474 21.71875  2.29094533029615 22.1344866071428  1.88354214123007 22.5083705357143  C 1.47613895216398 22.8822544642857  1.0436218678816 23.0915178571429  0.585990888382696 23.1361607142857  L 0.569248291571739 23.1361607142857  C 0.524601366742615 23.1361607142857  0.491116173120702 23.1110491071429  0.468792710706111 23.0608258928571  C 0.446469248291578 23.0106026785714  0.418564920273354 22.9799107142857  0.385079726651497 22.96875  C 0.128359908883795 22.3660714285714  0 21.8080357142857  0 21.2946428571429  Z " fill-rule="nonzero" fill="#999999" stroke="none" transform="matrix(1 0 0 1 10 195 )" />
  </g>
</svg>