<?xml version="1.0" encoding="utf-8"?>
<svg version="1.1" xmlns:xlink="http://www.w3.org/1999/xlink" width="30px" height="25px" xmlns="http://www.w3.org/2000/svg">
  <g transform="matrix(1 0 0 1 -10 -80 )">
    <path d="M 7.97047334558823 6.7162152630836  C 8.20982689950984 6.48005125311516  8.32950367647061 6.16436262754505  8.32950367647061 5.76914938637319  C 8.32950367647061 5.37393614520144  8.20982689950984 5.0558376827949  7.97047334558823 4.81485399915357  C 7.73111979166669 4.57387031551229  7.41517310049016 4.45337847369163  7.02263327205884 4.45337847369163  C 6.61094515931376 4.45337847369163  6.24712775735293 4.57628015234872  5.93118106617646 4.82208350966289  C 5.615234375 5.06788686697701  5.45726102941177 5.3835754925471  5.45726102941177 5.76914938637319  C 5.45726102941177 6.14508393285377  5.615234375 6.45595288475101  5.93118106617646 6.70175624206519  C 6.24712775735293 6.9475595993793  6.61094515931376 7.07046127803639  7.02263327205884 7.07046127803639  C 7.41517310049016 7.07046127803639  7.73111979166669 6.95237927305214  7.97047334558823 6.7162152630836  Z M 18.6336741727941 13.8372831146847  C 18.8778147977941 13.6252174730804  18.9998851102941 13.3794141157662  18.9998851102941 13.0998730427422  C 18.9998851102941 12.829971317064  18.8778147977941 12.5889876334226  18.6336741727941 12.3769219918183  C 18.3895335477941 12.1648563502139  18.0759803921569 12.0588235294117  17.6930147058824 12.0588235294117  C 17.4345128676471 12.0588235294117  17.1975528492647 12.1672661870504  16.9821346507353 12.3841515023275  C 16.7667164522059 12.6010368176047  16.6590073529412 12.8396106644096  16.6590073529412 13.0998730427422  C 16.6590073529412 13.3697747684205  16.7667164522059 13.6131682888983  16.9821346507353 13.8300536041755  C 17.1975528492647 14.0469389194527  17.4345128676471 14.1553815770912  17.6930147058824 14.1553815770912  C 18.0759803921569 14.1553815770912  18.3895335477941 14.0493487562891  18.6336741727941 13.8372831146847  Z M 15.2587890625 6.7162152630836  C 15.4933555453431 6.48005125311516  15.6106387867647 6.16436262754505  15.6106387867647 5.76914938637319  C 15.6106387867647 5.37393614520144  15.4933555453431 5.0558376827949  15.2587890625 4.81485399915357  C 15.0242225796569 4.57387031551229  14.7106694240196 4.45337847369163  14.3181295955882 4.45337847369163  C 13.9064414828431 4.45337847369163  13.5426240808824 4.57628015234872  13.2266773897059 4.82208350966289  C 12.9107306985294 5.06788686697701  12.7527573529412 5.3835754925471  12.7527573529412 5.76914938637319  C 12.7527573529412 6.14508393285377  12.9107306985294 6.45595288475101  13.2266773897059 6.70175624206519  C 13.5426240808824 6.9475595993793  13.9064414828431 7.07046127803639  14.3181295955882 7.07046127803639  C 14.7106694240196 7.07046127803639  15.0242225796569 6.95237927305214  15.2587890625 6.7162152630836  Z M 24.3566176470588 13.8372831146847  C 24.6055453431372 13.6252174730804  24.7300091911765 13.3794141157662  24.7300091911765 13.0998730427422  C 24.7300091911765 12.829971317064  24.6055453431372 12.5889876334226  24.3566176470588 12.3769219918183  C 24.1076899509804 12.1648563502139  23.7965303308824 12.0588235294117  23.4231387867647 12.0588235294117  C 23.1646369485294 12.0588235294117  22.9276769301471 12.1672661870504  22.7122587316176 12.3841515023275  C 22.4968405330882 12.6010368176047  22.3891314338235 12.8396106644096  22.3891314338235 13.0998730427422  C 22.3891314338235 13.3697747684205  22.4968405330882 13.6131682888983  22.7122587316176 13.8300536041755  C 22.9276769301471 14.0469389194527  23.1646369485294 14.1553815770912  23.4231387867647 14.1553815770912  C 23.7965303308824 14.1553815770912  24.1076899509804 14.0493487562891  24.3566176470588 13.8372831146847  Z M 18.9496208639706 3.59306672309214  C 19.9596928615196 4.71605068886072  20.6131280637255 5.97157568063199  20.9099264705882 7.35964169840599  C 20.6131280637255 7.32108430902341  20.2780330882353 7.3018056143321  19.9046415441176 7.3018056143321  C 18.2866115196078 7.3018056143321  16.7978324142157 7.67292048713966  15.4383042279412 8.41515023275491  C 14.0787760416667 9.15737997837027  13.0088656556372 10.1622819391545  12.2285730698529 11.4298561151079  C 11.4482804840686 12.6974302910613  11.0581341911765 14.0830864719988  11.0581341911765 15.5868246579207  C 11.0581341911765 16.3386937508816  11.1682368259804 17.0712841491513  11.3884420955882 17.7845958527296  C 11.053347120098 17.8135138947665  10.7278262867647 17.827972915785  10.4118795955882 17.827972915785  C 10.1629518995098 17.827972915785  9.92359834558823 17.8207434052757  9.69381893382354 17.8062843842573  C 9.46403952205884 17.7918253632388  9.20075061274508 17.7604974843654  8.90395220588238 17.7123007476371  C 8.60715379901961 17.6641040109089  8.39412913602939 17.6303662951991  8.26487821691177 17.6110876005078  C 8.13562729779414 17.5918089058165  7.87473192401961 17.5412023322518  7.48219209558823 17.4592678798138  C 7.08965226715685 17.3773334273757  6.8502987132353 17.326726853811  6.76413143382354 17.3074481591197  L 3.13074448529414 19.1437438284666  L 4.1647518382353 15.9916772464382  C 1.38825061274508 14.0348897352706  0 11.6732496355856  0 8.9067569473832  C 0 7.27770724596792  0.466739430147072 5.77878873371887  1.40021829044116 4.4100014106362  C 2.3336971507353 3.0412140875535  3.59748391544116 1.9640170216768  5.19157858455884 1.17841021300606  C 6.78567325367646 0.392803404335325  8.52577359068624 0  10.4118795955882 0  C 12.0969286151961 0  13.6886297487745 0.318098462406567  15.1869829963235 0.954295387219616  C 16.6853362438726 1.59049231203269  17.9395488664215 2.47008275732355  18.9496208639706 3.59306672309214  Z M 28.1838809742647 11.6612004514036  C 29.0024701286765 12.8323811539004  29.4117647058824 14.1023651666901  29.4117647058824 15.4711524897729  C 29.4117647058824 16.5989561292143  29.0838503370098 17.6761531950909  28.4280215992647 18.702743687403  C 27.7721928615196 19.7293341797151  26.8841911764706 20.661941035407  25.7640165441176 21.5005642544787  L 26.5538832720588 24.1176470588235  L 23.6960018382353 22.5416137678093  C 22.2598805147059 22.8982696195984  21.2162990196078 23.076597545493  20.5652573529412 23.076597545493  C 18.9472273284314 23.076597545493  17.4584482230392 22.7368105515587  16.0989200367647 22.0572365636902  C 14.7393918504902 21.3776625758217  13.6694814644608 20.4546950674754  12.8891888786765 19.2883340386514  C 12.1088962928922 18.1219730098274  11.71875 16.8495791602012  11.71875 15.4711524897729  C 11.71875 14.0927258193445  12.1088962928922 12.8203319697183  12.8891888786765 11.6539709408943  C 13.6694814644608 10.4876099120704  14.7393918504902 9.56464240372406  16.0989200367647 8.88506841585556  C 17.4584482230392 8.20549442798699  18.9472273284314 7.86570743405269  20.5652573529412 7.86570743405269  C 22.1066942401961 7.86570743405269  23.5571767769608 8.20549442798699  24.9167049632353 8.88506841585556  C 26.2762331495098 9.56464240372406  27.3652918198529 10.4900197489067  28.1838809742647 11.6612004514036  Z " fill-rule="nonzero" fill="#999999" stroke="none" transform="matrix(1 0 0 1 10 80 )" />
  </g>
</svg>