<?xml version="1.0" encoding="utf-8"?>
<svg version="1.1" xmlns:xlink="http://www.w3.org/1999/xlink" width="30px" height="24px" xmlns="http://www.w3.org/2000/svg">
  <g transform="matrix(1 0 0 1 -10 -136 )">
    <path d="M 10.2481873954267 19.198347107438  C 10.6999442275516 19.0495867768595  11.0485220301171 18.7878787878788  11.2939208031233 18.4132231404959  C 11.5281650864472 18.038567493113  11.5895147796988 17.6584022038567  11.4779698828779 17.2727272727273  C 11.3664249860569 16.8870523415978  11.1154489682097 16.6115702479339  10.7250418293364 16.4462809917356  C 10.345789180145 16.2920110192837  9.93865030674846 16.2865013774105  9.50362520914666 16.4297520661157  C 9.06860011154492 16.5730027548209  8.73396542108196 16.8264462809917  8.49972113775794 17.1900826446281  C 8.25432236475177 17.564738292011  8.18181818181813 17.9421487603306  8.28220858895708 18.3223140495868  C 8.38259899609596 18.7024793388429  8.62242052426103 18.9807162534435  9.00167317345233 19.1570247933884  C 9.38092582264363 19.3333333333334  9.79643056330173 19.3471074380165  10.2481873954267 19.198347107438  Z M 12.4986056887898 16.7190082644628  C 12.6659230340212 16.6584022038568  12.7886224205242 16.5564738292011  12.866703848299 16.4132231404959  C 12.9559397657557 16.2699724517906  12.9754601226994 16.1239669421488  12.92526491913 15.9752066115702  C 12.8750697155605 15.8264462809918  12.7774679308422 15.7245179063361  12.6324595649749 15.6694214876033  C 12.4762967094255 15.6143250688705  12.3173452314557 15.6170798898071  12.1556051310652 15.6776859504133  C 11.9938650306748 15.7382920110193  11.8739542665923 15.840220385675  11.7958728388176 15.9834710743801  C 11.606246514222 16.3250688705235  11.6787506971556 16.5730027548209  12.0133853876185 16.7272727272727  C 12.1695482431679 16.7823691460055  12.3312883435583 16.7796143250689  12.4986056887898 16.7190082644628  Z M 15.7361963190185 15.0330578512397  C 16.266034578918 16.0303030303031  16.2799776910206 17.0798898071625  15.7780256553263 18.1818181818182  C 15.2760736196319 19.3057851239669  14.3948689347462 20.1322314049586  13.1344116006692 20.6611570247935  C 11.8739542665923 21.1900826446281  10.6246514221975 21.2561983471074  9.38650306748463 20.8595041322314  C 8.19297267150029 20.4848484848484  7.37032905744564 19.7878787878788  6.9185722253207 18.7685950413223  C 6.46681539319576 17.7493112947658  6.50306748466261 16.7162534435261  7.02732849972114 15.6694214876033  C 7.55158951477972 14.6446280991735  8.3965421081985 13.8787878787878  9.56218627997771 13.3719008264463  C 10.7278304517568 12.8650137741046  11.9018404907976 12.7603305785124  13.0842163970998 13.0578512396694  C 14.3223647518126 13.3774104683196  15.2063580591188 14.0358126721763  15.7361963190185 15.0330578512397  Z M 18.7813720022309 19.9090909090909  C 20.4155047406582 18.603305785124  21.154489682097 17.1460055096419  20.9983268265477 15.5371900826446  C 20.8979364194088 14.4793388429752  20.4015616285555 13.5426997245179  19.5092024539877 12.7272727272727  C 18.61684327942 11.9118457300276  17.4539877300613 11.3112947658402  16.0206358059119 10.9256198347107  C 14.5872838817624 10.5399449035813  13.0563301728946 10.4242424242424  11.4277746793084 10.5785123966942  C 8.94032348020079 10.831955922865  6.8795315114333 11.6115702479339  5.24539877300617 12.9173553719008  C 3.61126603457893 14.2231404958678  2.87228109314003 15.6804407713499  3.02844394868936 17.2892561983471  C 3.12883435582819 18.3471074380165  3.62520914668153 19.2837465564739  4.51756832124931 20.099173553719  C 5.4099274958171 20.9146005509642  6.57278304517575 21.5151515151516  8.00613496932516 21.900826446281  C 9.43948689347468 22.2865013774105  10.9704406023424 22.4022038567493  12.5989960959286 22.2479338842975  C 15.0864472950363 21.9944903581267  17.1472392638037 21.2148760330578  18.7813720022309 19.9090909090909  Z M 25.5828220858896 13.6776859504133  C 25.9620747350809 14.2561983471075  26.1517010596766 14.8980716253444  26.1517010596766 15.603305785124  C 26.1517010596766 16.3526170798897  25.9453430005577 17.1212121212121  25.5326268823201 17.9090909090909  C 25.1199107640825 18.6969696969697  24.5119910764083 19.4517906336088  23.7088678192973 20.1735537190082  C 22.9057445621863 20.8953168044077  21.9659788064696 21.5426997245179  20.8895705521472 22.1157024793388  C 19.8131622978249 22.6887052341598  18.5527049637479 23.1460055096419  17.1081985499163 23.4876033057851  C 15.6636921360848 23.8292011019284  14.1550474065812 24  12.5822643614054 24  C 11.0094813162298 24  9.47573898494142 23.8154269972452  7.98103736754047 23.4462809917355  C 6.4863357501394 23.0771349862259  5.14500836586728 22.564738292011  3.95705521472394 21.9090909090909  C 2.76910206358059 21.2534435261708  1.81260457334076 20.4214876033058  1.08756274400446 19.4132231404959  C 0.362520914668153 18.404958677686  0 17.305785123967  0 16.1157024793388  C 0 14.8484848484848  0.387618516452847 13.4986225895317  1.1628555493586 12.0661157024793  C 1.93809258226435 10.633608815427  3.03959843837146 9.21212121212119  4.46737311767987 7.801652892562  C 6.35248187395422 5.93939393939394  8.25711098717233 4.6391184573003  10.1812604573341 3.90082644628097  C 12.1054099274958 3.1625344352617  13.4802007808142 3.20110192837467  14.3056330172894 4.01652892561981  C 15.0306748466257 4.72176308539946  15.1422197434468 5.87327823691459  14.6402677077524 7.47107438016525  C 14.5956497490239 7.62534435261705  14.590072504183 7.73553719008265  14.6235359732293 7.801652892562  C 14.6569994422755 7.8677685950413  14.712771890686 7.90633608815426  14.7908533184606 7.91735537190078  C 14.8689347462354 7.92837465564736  14.9498047964306 7.92561983471074  15.0334634690463 7.90909090909088  C 15.117122141662 7.89256198347113  15.1924149470162 7.87327823691459  15.2593418851087 7.85123966942155  L 15.3597322922476 7.81818181818181  C 16.9102063580591 7.16804407713499  18.2822085889571 6.84297520661158  19.4757389849414 6.84297520661158  C 20.6692693809258 6.84297520661158  21.5225878416063 7.17906336088151  22.0356943669827 7.85123966942155  C 22.537646402677 8.54545454545456  22.537646402677 9.52617079889808  22.0356943669827 10.793388429752  C 22.0133853876185 10.9366391184573  21.9882877858338 11.0468319559229  21.9604015616285 11.1239669421488  C 21.9325153374234 11.2011019283746  21.957612939208 11.2699724517906  22.0356943669827 11.3305785123967  C 22.1137757947574 11.3911845730028  22.18070273285 11.4325068870523  22.2364751812605 11.4545454545454  C 22.292247629671 11.4765840220385  22.3870607919688 11.5096418732783  22.5209146681539 11.5537190082645  C 23.1567205800334 11.7520661157025  23.7311767986615 12.0110192837465  24.2442833240379 12.3305785123967  C 24.7573898494144 12.6501377410468  25.2035694366983 13.099173553719  25.5828220858896 13.6776859504133  Z M 23.223647518126 4.20661157024796  C 23.8817624093697 4.41046831955924  24.4450641383157 4.771349862259  24.9135527049637 5.28925619834712  C 25.3820412716118 5.80716253443524  25.686001115449 6.40495867768595  25.8254322364751 7.08264462809922  C 25.9648633575014 7.76033057851242  25.9286112660346 8.40771349862263  25.7166759620748 9.02479338842971  C 25.627440044618 9.27823691460054  25.4629113218071 9.46556473829202  25.223089793642 9.58677685950414  C 24.9832682654769 9.70798898071627  24.7350808700502 9.73002754820936  24.478527607362 9.65289256198344  C 24.2219743446737 9.56473829201104  24.0323480200781 9.40220385674934  23.909648633575 9.16528925619832  C 23.786949247072 8.92837465564736  23.7646402677078 8.68319559228649  23.8427216954825 8.42975206611573  C 24.0658114891244 7.73553719008265  23.9319576129392 7.1239669421488  23.441160066927 6.5950413223141  C 22.9503625209147 6.06611570247941  22.3535973229225 5.87327823691459  21.6508644729503 6.01652892561987  C 21.3831567205801 6.07162534435264  21.1321807027329 6.02754820936644  20.8979364194088 5.88429752066116  C 20.6636921360848 5.74104683195588  20.5242610150586 5.5371900826446  20.4796430563302 5.27272727272725  C 20.4238706079197 5.0082644628099  20.4684885666481 4.76308539944904  20.6134969325154 4.53719008264466  C 20.7585052983825 4.31129476584016  20.9648633575014 4.17079889807167  21.2325711098717 4.11570247933884  C 21.9018404907976 3.97245179063361  22.5655326268823 4.00275482093667  23.223647518126 4.20661157024796  Z M 24.4617958728388 0.371900826446279  C 25.8114891243725 0.785123966942081  26.9715560513106 1.52617079889814  27.9419966536531 2.59504132231405  C 28.9124372559955 3.65289256198344  29.5398773006135 4.87878787878782  29.8243167875069 6.27272727272731  C 30.1087562744005 7.66666666666663  30.0334634690463 8.99724517906338  29.5984383714445 10.2644628099173  C 29.4980479643056 10.5619834710744  29.30842163971 10.7823691460055  29.0295593976576 10.9256198347107  C 28.7506971556052 11.068870523416  28.4606804238707 11.0909090909091  28.159509202454 10.9917355371901  C 27.8583379810374 10.8925619834711  27.6352481873955 10.7052341597796  27.4902398215281 10.4297520661157  C 27.3452314556609 10.1542699724518  27.3173452314557 9.86776859504135  27.4065811489125 9.57024793388427  C 27.7189068600111 8.66666666666669  27.7746793084216 7.71900826446284  27.5738984941439 6.72727272727275  C 27.3731176798662 5.73553719008265  26.9269380925822 4.86501377410468  26.2353597322922 4.11570247933884  C 25.5437813720022 3.35537190082647  24.718349135527 2.82920110192839  23.7590630228667 2.5371900826446  C 22.7997769102064 2.24517906336092  21.834913552705 2.198347107438  20.8644729503625 2.39669421487599  C 20.5521472392638 2.4628099173554  20.2621305075293 2.41046831955924  19.994422755159 2.23966942148758  C 19.7267150027886 2.06887052341597  19.5593976575572 1.82920110192833  19.4924707194646 1.52066115702479  C 19.425543781372 1.21212121212125  19.478527607362 0.928374655647417  19.6514221974345 0.669421487603302  C 19.824316787507 0.410468319559186  20.0669269380925 0.247933884297481  20.3792526491913 0.181818181818187  C 21.7512548800892 -0.104683195592258  23.1121026213051 -0.0413223140495802  24.4617958728388 0.371900826446279  Z " fill-rule="nonzero" fill="#999999" stroke="none" transform="matrix(1 0 0 1 10 136 )" />
  </g>
</svg>