<?xml version="1.0" encoding="utf-8"?>
<svg version="1.1" xmlns:xlink="http://www.w3.org/1999/xlink" width="80px" height="24px" xmlns="http://www.w3.org/2000/svg">
  <g transform="matrix(1 0 0 1 -944 -352 )">
    <path d="M 945 356  A 3 3 0 0 1 948 353 L 1020 353  A 3 3 0 0 1 1023 356 L 1023 372  A 3 3 0 0 1 1020 375 L 948 375  A 3 3 0 0 1 945 372 L 945 356  Z " fill-rule="nonzero" fill="#f5f5f5" stroke="none" fill-opacity="0" />
    <path d="M 944.5 356  A 3.5 3.5 0 0 1 948 352.5 L 1020 352.5  A 3.5 3.5 0 0 1 1023.5 356 L 1023.5 372  A 3.5 3.5 0 0 1 1020 375.5 L 948 375.5  A 3.5 3.5 0 0 1 944.5 372 L 944.5 356  Z " stroke-width="1" stroke-dasharray="9,4" stroke="#d9d9d9" fill="none" stroke-dashoffset="0.5" />
  </g>
</svg>