<?xml version="1.0" encoding="utf-8"?>
<svg version="1.1" xmlns:xlink="http://www.w3.org/1999/xlink" width="9px" height="12px" xmlns="http://www.w3.org/2000/svg">
  <g transform="matrix(1 0 0 1 -977 -115 )">
    <path d="M 8.78787878787875 8.96969696969697  C 8.92929292929296 9.15824915824916  9 9.38720538720538  9 9.65656565656566  C 9 9.92592592592592  8.92929292929296 10.1548821548822  8.78787878787875 10.3434343434343  L 7.75757575757575 11.7171717171717  C 7.61616161616166 11.9057239057239  7.44444444444446 12  7.24242424242425 12  C 7.04040404040404 12  6.86868686868684 11.9057239057239  6.72727272727275 11.7171717171717  L 4.5 8.74747474747474  L 2.27272727272725 11.7171717171717  C 2.13131313131316 11.9057239057239  1.95959595959596 12  1.75757575757575 12  C 1.55555555555554 12  1.38383838383834 11.9057239057239  1.24242424242425 11.7171717171717  L 0.212121212121247 10.3434343434343  C 0.0707070707070443 10.1548821548822  0 9.92592592592592  0 9.65656565656566  C 0 9.38720538720538  0.0707070707070443 9.15824915824916  0.212121212121247 8.96969696969697  L 2.43939393939399 6  L 0.212121212121247 3.03030303030303  C 0.0707070707070443 2.84175084175084  0 2.61279461279462  0 2.34343434343434  C 0 2.07407407407408  0.0707070707070443 1.84511784511784  0.212121212121247 1.65656565656566  L 1.24242424242425 0.282828282828277  C 1.38383838383834 0.094276094276097  1.55555555555554 0  1.75757575757575 0  C 1.95959595959596 0  2.13131313131316 0.094276094276097  2.27272727272725 0.282828282828277  L 4.5 3.25252525252526  L 6.72727272727275 0.282828282828277  C 6.86868686868684 0.094276094276097  7.04040404040404 0  7.24242424242425 0  C 7.44444444444446 0  7.61616161616166 0.094276094276097  7.75757575757575 0.282828282828277  L 8.78787878787875 1.65656565656566  C 8.92929292929296 1.84511784511784  9 2.07407407407408  9 2.34343434343434  C 9 2.61279461279462  8.92929292929296 2.84175084175084  8.78787878787875 3.03030303030303  L 6.56060606060601 6  L 8.78787878787875 8.96969696969697  Z " fill-rule="nonzero" fill="#333333" stroke="none" transform="matrix(1 0 0 1 977 115 )" />
  </g>
</svg>