<?xml version="1.0" encoding="utf-8"?>
<svg version="1.1" xmlns:xlink="http://www.w3.org/1999/xlink" width="12px" height="16px" xmlns="http://www.w3.org/2000/svg">
  <g transform="matrix(1 0 0 1 -818 -113 )">
    <path d="M 7.359375 9.8125  C 7.99158653846155 8.96955128205128  8.30769230769226 7.9551282051282  8.30769230769226 6.76923076923077  C 8.30769230769226 5.58333333333333  7.99158653846155 4.56891025641025  7.359375 3.72596153846153  C 6.72716346153845 2.88301282051282  5.96634615384619 2.46153846153847  5.07692307692309 2.46153846153847  C 4.1875 2.46153846153847  3.42668269230774 2.88301282051282  2.79447115384619 3.72596153846153  C 2.16225961538464 4.56891025641025  1.84615384615381 5.58333333333333  1.84615384615381 6.76923076923077  C 1.84615384615381 7.9551282051282  2.16225961538464 8.96955128205128  2.79447115384619 9.8125  C 3.42668269230774 10.6554487179487  4.1875 11.0769230769231  5.07692307692309 11.0769230769231  C 5.96634615384619 11.0769230769231  6.72716346153845 10.6554487179487  7.359375 9.8125  Z M 11.7331730769231 13.9038461538462  C 11.9110576923077 14.1410256410256  12 14.4294871794872  12 14.7692307692308  C 12 15.1025641025641  11.9086538461538 15.3910256410256  11.7259615384615 15.6346153846154  C 11.5432692307693 15.8782051282051  11.3269230769231 16  11.0769230769231 16  C 10.8173076923077 16  10.6009615384615 15.8782051282051  10.4278846153846 15.6346153846154  L 7.95432692307691 12.3461538461538  C 7.09375 13.1410256410256  6.13461538461536 13.5384615384615  5.07692307692309 13.5384615384615  C 4.38942307692309 13.5384615384615  3.73197115384619 13.3605769230769  3.10456730769226 13.0048076923077  C 2.47716346153845 12.6490384615385  1.93629807692309 12.1682692307692  1.48197115384619 11.5625  C 1.02764423076928 10.9567307692308  0.667067307692264 10.2355769230769  0.400240384615358 9.39903846153847  C 0.133413461538453 8.5625  0 7.68589743589743  0 6.76923076923077  C 0 5.8525641025641  0.133413461538453 4.97596153846153  0.400240384615358 4.13942307692308  C 0.667067307692264 3.30288461538461  1.02764423076928 2.58173076923077  1.48197115384619 1.97596153846153  C 1.93629807692309 1.37019230769231  2.47716346153845 0.88942307692308  3.10456730769226 0.53365384615384  C 3.73197115384619 0.177884615384613  4.38942307692309 0  5.07692307692309 0  C 5.76442307692309 0  6.421875 0.177884615384613  7.04927884615381 0.53365384615384  C 7.67668269230774 0.88942307692308  8.21754807692309 1.37019230769231  8.671875 1.97596153846153  C 9.12620192307691 2.58173076923077  9.48677884615381 3.30288461538461  9.75360576923072 4.13942307692308  C 10.0204326923077 4.97596153846153  10.1538461538462 5.8525641025641  10.1538461538462 6.76923076923077  C 10.1538461538462 8.17948717948718  9.85576923076928 9.45833333333333  9.25961538461536 10.6057692307692  L 11.7331730769231 13.9038461538462  Z " fill-rule="nonzero" fill="#999999" stroke="none" transform="matrix(1 0 0 1 818 113 )" />
  </g>
</svg>