<?xml version="1.0" encoding="utf-8"?>
<svg version="1.1" xmlns:xlink="http://www.w3.org/1999/xlink" width="200px" height="113px" xmlns="http://www.w3.org/2000/svg">
  <g>
    <path d="M 0 0  L 200 0  L 200 113  L 0 113  L 0 0  " fill-rule="nonzero" fill="#cccccc" stroke="none" />
    <path d="M 8 8  L 192 8  L 192 105  L 8 105  L 8 8  " fill-rule="nonzero" fill="#ffffff" stroke="none" />
    <path d="M 112.475 33.9  C 107.729 33.9  104 30.171  104 25.425  C 104 20.679  107.729 16.95  112.475 16.95  C 117.221 16.95  120.95 20.679  120.95 25.425  C 120.95 30.171  117.221 33.9  112.475 33.9  " fill-rule="nonzero" fill="#cccccc" stroke="none" />
    <path d="M 11 102  L 11 51.95  L 55.5 29.2  L 117.8 71.151  L 153.4 42.85  L 189 71.151  L 189 102  L 11 102  " fill-rule="nonzero" fill="#169bd5" stroke="none" />
  </g>
</svg>