<?xml version="1.0" encoding="utf-8"?>
<svg version="1.1" xmlns:xlink="http://www.w3.org/1999/xlink" width="500px" height="150px" xmlns="http://www.w3.org/2000/svg">
  <g transform="matrix(1 0 0 1 -250 -91 )">
    <path d="M 250 91  L 750 91  L 750 241  L 250 241  L 250 91  " fill-rule="nonzero" fill="#cccccc" stroke="none" />
    <path d="M 261 102  L 739 102  L 739 230  L 261 230  L 261 102  " fill-rule="nonzero" fill="#ffffff" stroke="none" />
    <path d="M 521.25 136  C 514.95 136  510 131.05  510 124.75  C 510 118.45  514.95 113.5  521.25 113.5  C 527.55 113.5  532.5 118.45  532.5 124.75  C 532.5 131.05  527.55 136  521.25 136  " fill-rule="nonzero" fill="#cccccc" stroke="none" />
    <path d="M 265 226  L 265 160  L 382.5 130  L 547 204.4  L 641 148  L 735 204.4  L 735 226  L 265 226  " fill-rule="nonzero" fill="#169bd5" stroke="none" />
  </g>
</svg>