<?xml version="1.0" encoding="utf-8"?>
<svg version="1.1" xmlns:xlink="http://www.w3.org/1999/xlink" width="12px" height="12px" viewBox="501 532  12 12" xmlns="http://www.w3.org/2000/svg">
  <path d="M 507 532  C 510.36 532  513 534.64  513 538  C 513 541.36  510.36 544  507 544  C 503.64 544  501 541.36  501 538  C 501 534.64  503.64 532  507 532  Z " fill-rule="nonzero" fill="#f0f0f0" stroke="none" />
  <path d="M 507 532.5  C 510.08 532.5  512.5 534.92  512.5 538  C 512.5 541.08  510.08 543.5  507 543.5  C 503.92 543.5  501.5 541.08  501.5 538  C 501.5 534.92  503.92 532.5  507 532.5  Z " stroke-width="1" stroke="#797979" fill="none" />
  <path d="M 507 541  C 505.32 541  504 539.68  504 538  C 504 536.32  505.32 535  507 535  C 508.68 535  510 536.32  510 538  C 510 539.68  508.68 541  507 541  " fill-rule="nonzero" fill="#797979" stroke="none" />
</svg>