<?xml version="1.0" encoding="utf-8"?>
<svg version="1.1" xmlns:xlink="http://www.w3.org/1999/xlink" width="12px" height="12px" viewBox="586 532  12 12" xmlns="http://www.w3.org/2000/svg">
  <path d="M 592 532  C 595.36 532  598 534.64  598 538  C 598 541.36  595.36 544  592 544  C 588.64 544  586 541.36  586 538  C 586 534.64  588.64 532  592 532  Z " fill-rule="nonzero" fill="#ffffff" stroke="none" />
  <path d="M 592 532.5  C 595.08 532.5  597.5 534.92  597.5 538  C 597.5 541.08  595.08 543.5  592 543.5  C 588.92 543.5  586.5 541.08  586.5 538  C 586.5 534.92  588.92 532.5  592 532.5  Z " stroke-width="1" stroke="#797979" fill="none" />
  <path d="M 592 541  C 590.32 541  589 539.68  589 538  C 589 536.32  590.32 535  592 535  C 593.68 535  595 536.32  595 538  C 595 539.68  593.68 541  592 541  " fill-rule="nonzero" fill="#797979" stroke="none" />
</svg>