<?xml version="1.0" encoding="utf-8"?>
<svg version="1.1" xmlns:xlink="http://www.w3.org/1999/xlink" width="12px" height="12px" viewBox="420 532  12 12" xmlns="http://www.w3.org/2000/svg">
  <path d="M 426 532  C 429.36 532  432 534.64  432 538  C 432 541.36  429.36 544  426 544  C 422.64 544  420 541.36  420 538  C 420 534.64  422.64 532  426 532  Z " fill-rule="nonzero" fill="#ffffff" stroke="none" />
  <path d="M 426 532.5  C 429.08 532.5  431.5 534.92  431.5 538  C 431.5 541.08  429.08 543.5  426 543.5  C 422.92 543.5  420.5 541.08  420.5 538  C 420.5 534.92  422.92 532.5  426 532.5  Z " stroke-width="1" stroke="#797979" fill="none" />
  <path d="M 426 541  C 424.32 541  423 539.68  423 538  C 423 536.32  424.32 535  426 535  C 427.68 535  429 536.32  429 538  C 429 539.68  427.68 541  426 541  " fill-rule="nonzero" fill="#797979" stroke="none" />
</svg>