<?xml version="1.0" encoding="utf-8"?>
<svg version="1.1" xmlns:xlink="http://www.w3.org/1999/xlink" width="85px" height="80px" xmlns="http://www.w3.org/2000/svg">
  <g>
    <path d="M 1 4  A 3 3 0 0 1 4 1 L 81 1  A 3 3 0 0 1 84 4 L 84 76  A 3 3 0 0 1 81 79 L 4 79  A 3 3 0 0 1 1 76 L 1 4  Z " fill-rule="nonzero" fill="#ffffff" stroke="none" />
    <path d="M 0.5 4  A 3.5 3.5 0 0 1 4 0.5 L 81 0.5  A 3.5 3.5 0 0 1 84.5 4 L 84.5 76  A 3.5 3.5 0 0 1 81 79.5 L 4 79.5  A 3.5 3.5 0 0 1 0.5 76 L 0.5 4  Z " stroke-width="1" stroke-dasharray="3,1" stroke="#000000" fill="none" stroke-opacity="0.149019607843137" stroke-dashoffset="0.5" />
  </g>
</svg>