<?xml version="1.0" encoding="utf-8"?>
<svg version="1.1" xmlns:xlink="http://www.w3.org/1999/xlink" width="12px" height="12px" viewBox="575 313  12 12" xmlns="http://www.w3.org/2000/svg">
  <path d="M 581 313  C 584.36 313  587 315.64  587 319  C 587 322.36  584.36 325  581 325  C 577.64 325  575 322.36  575 319  C 575 315.64  577.64 313  581 313  Z " fill-rule="nonzero" fill="#f0f0f0" stroke="none" />
  <path d="M 581 313.5  C 584.08 313.5  586.5 315.92  586.5 319  C 586.5 322.08  584.08 324.5  581 324.5  C 577.92 324.5  575.5 322.08  575.5 319  C 575.5 315.92  577.92 313.5  581 313.5  Z " stroke-width="1" stroke="#797979" fill="none" />
  <path d="M 581 322  C 579.32 322  578 320.68  578 319  C 578 317.32  579.32 316  581 316  C 582.68 316  584 317.32  584 319  C 584 320.68  582.68 322  581 322  " fill-rule="nonzero" fill="#797979" stroke="none" />
</svg>