<?xml version="1.0" encoding="utf-8"?>
<svg version="1.1" xmlns:xlink="http://www.w3.org/1999/xlink" width="12px" height="12px" viewBox="679 511  12 12" xmlns="http://www.w3.org/2000/svg">
  <path d="M 685 511  C 688.36 511  691 513.64  691 517  C 691 520.36  688.36 523  685 523  C 681.64 523  679 520.36  679 517  C 679 513.64  681.64 511  685 511  Z " fill-rule="nonzero" fill="#f0f0f0" stroke="none" />
  <path d="M 685 511.5  C 688.08 511.5  690.5 513.92  690.5 517  C 690.5 520.08  688.08 522.5  685 522.5  C 681.92 522.5  679.5 520.08  679.5 517  C 679.5 513.92  681.92 511.5  685 511.5  Z " stroke-width="1" stroke="#797979" fill="none" />
  <path d="M 685 520  C 683.32 520  682 518.68  682 517  C 682 515.32  683.32 514  685 514  C 686.68 514  688 515.32  688 517  C 688 518.68  686.68 520  685 520  " fill-rule="nonzero" fill="#797979" stroke="none" />
</svg>