<?xml version="1.0" encoding="utf-8"?>
<svg version="1.1" xmlns:xlink="http://www.w3.org/1999/xlink" width="12px" height="12px" viewBox="743 512  12 12" xmlns="http://www.w3.org/2000/svg">
  <path d="M 749 512  C 752.36 512  755 514.64  755 518  C 755 521.36  752.36 524  749 524  C 745.64 524  743 521.36  743 518  C 743 514.64  745.64 512  749 512  Z " fill-rule="nonzero" fill="#f0f0f0" stroke="none" />
  <path d="M 749 512.5  C 752.08 512.5  754.5 514.92  754.5 518  C 754.5 521.08  752.08 523.5  749 523.5  C 745.92 523.5  743.5 521.08  743.5 518  C 743.5 514.92  745.92 512.5  749 512.5  Z " stroke-width="1" stroke="#797979" fill="none" />
  <path d="M 749 521  C 747.32 521  746 519.68  746 518  C 746 516.32  747.32 515  749 515  C 750.68 515  752 516.32  752 518  C 752 519.68  750.68 521  749 521  " fill-rule="nonzero" fill="#797979" stroke="none" />
</svg>