<?xml version="1.0" encoding="utf-8"?>
<svg version="1.1" xmlns:xlink="http://www.w3.org/1999/xlink" width="12px" height="12px" viewBox="614 365  12 12" xmlns="http://www.w3.org/2000/svg">
  <path d="M 620 365  C 623.36 365  626 367.64  626 371  C 626 374.36  623.36 377  620 377  C 616.64 377  614 374.36  614 371  C 614 367.64  616.64 365  620 365  Z " fill-rule="nonzero" fill="#ffffff" stroke="none" />
  <path d="M 620 365.5  C 623.08 365.5  625.5 367.92  625.5 371  C 625.5 374.08  623.08 376.5  620 376.5  C 616.92 376.5  614.5 374.08  614.5 371  C 614.5 367.92  616.92 365.5  620 365.5  Z " stroke-width="1" stroke="#797979" fill="none" />
  <path d="M 620 374  C 618.32 374  617 372.68  617 371  C 617 369.32  618.32 368  620 368  C 621.68 368  623 369.32  623 371  C 623 372.68  621.68 374  620 374  " fill-rule="nonzero" fill="#797979" stroke="none" />
</svg>