<?xml version="1.0" encoding="utf-8"?>
<svg version="1.1" xmlns:xlink="http://www.w3.org/1999/xlink" width="20px" height="20px" xmlns="http://www.w3.org/2000/svg">
  <g transform="matrix(1 0 0 1 -960 -5 )">
    <path d="M 12.265625 12.265625  C 13.3193108974359 11.2119391025641  13.8461538461538 9.94391025641025  13.8461538461538 8.46153846153847  C 13.8461538461538 6.97916666666669  13.3193108974359 5.71113782051279  12.265625 4.65745192307696  C 11.2119391025641 3.60376602564102  9.94391025641028 3.07692307692304  8.46153846153845 3.07692307692304  C 6.97916666666669 3.07692307692304  5.71113782051282 3.60376602564102  4.65745192307696 4.65745192307696  C 3.60376602564099 5.71113782051279  3.07692307692304 6.97916666666669  3.07692307692304 8.46153846153847  C 3.07692307692304 9.94391025641025  3.60376602564099 11.2119391025641  4.65745192307696 12.265625  C 5.71113782051282 13.3193108974359  6.97916666666669 13.8461538461538  8.46153846153845 13.8461538461538  C 9.94391025641028 13.8461538461538  11.2119391025641 13.3193108974359  12.265625 12.265625  Z M 19.5552884615385 17.3798076923077  C 19.8517628205128 17.676282051282  20 18.036858974359  20 18.4615384615385  C 20 18.8782051282051  19.8477564102565 19.238782051282  19.5432692307692 19.5432692307692  C 19.238782051282 19.8477564102564  18.8782051282052 20  18.4615384615385 20  C 18.0288461538462 20  17.6682692307692 19.8477564102564  17.3798076923077 19.5432692307692  L 13.2572115384615 15.4326923076923  C 11.8229166666667 16.426282051282  10.224358974359 16.923076923077  8.46153846153845 16.923076923077  C 7.3157051282052 16.923076923077  6.21995192307696 16.7007211538462  5.17427884615381 16.2560096153846  C 4.12860576923077 15.811298076923  3.22716346153845 15.2103365384615  2.46995192307696 14.453125  C 1.71274038461542 13.6959134615385  1.11177884615381 12.7944711538462  0.667067307692264 11.748798076923  C 0.222355769230774 10.703125  0 9.60737179487178  0 8.46153846153847  C 0 7.31570512820508  0.222355769230774 6.21995192307696  0.667067307692264 5.17427884615381  C 1.11177884615381 4.12860576923076  1.71274038461542 3.22716346153847  2.46995192307696 2.46995192307696  C 3.22716346153845 1.71274038461543  4.12860576923077 1.11177884615381  5.17427884615381 0.667067307692292  C 6.21995192307696 0.222355769230759  7.3157051282052 0  8.46153846153845 0  C 9.60737179487177 0  10.703125 0.222355769230759  11.748798076923 0.667067307692292  C 12.7944711538462 1.11177884615381  13.6959134615385 1.71274038461543  14.453125 2.46995192307696  C 15.2103365384615 3.22716346153847  15.811298076923 4.12860576923076  16.2560096153846 5.17427884615381  C 16.7007211538462 6.21995192307696  16.923076923077 7.31570512820508  16.923076923077 8.46153846153847  C 16.923076923077 10.224358974359  16.426282051282 11.8229166666667  15.4326923076923 13.2572115384615  L 19.5552884615385 17.3798076923077  Z " fill-rule="nonzero" fill="#cccccc" stroke="none" transform="matrix(1 0 0 1 960 5 )" />
  </g>
</svg>