<?xml version="1.0" encoding="utf-8"?>
<svg version="1.1" xmlns:xlink="http://www.w3.org/1999/xlink" width="20px" height="19px" xmlns="http://www.w3.org/2000/svg">
  <g transform="matrix(1 0 0 1 -960 -35 )">
    <path d="M 12.265625 11.65234375  C 13.3193108974359 10.6513421474359  13.8461538461538 9.44671474358974  13.8461538461538 8.03846153846155  C 13.8461538461538 6.63020833333335  13.3193108974359 5.42558092948715  12.265625 4.42457932692312  C 11.2119391025641 3.42357772435897  9.94391025641028 2.92307692307688  8.46153846153845 2.92307692307688  C 6.97916666666674 2.92307692307688  5.71113782051282 3.42357772435897  4.65745192307691 4.42457932692312  C 3.60376602564099 5.42558092948715  3.07692307692309 6.63020833333335  3.07692307692309 8.03846153846155  C 3.07692307692309 9.44671474358974  3.60376602564099 10.6513421474359  4.65745192307691 11.65234375  C 5.71113782051282 12.6533453525641  6.97916666666674 13.1538461538461  8.46153846153845 13.1538461538461  C 9.94391025641028 13.1538461538461  11.2119391025641 12.6533453525641  12.265625 11.65234375  Z M 19.5552884615385 16.5108173076923  C 19.8517628205128 16.7924679487179  20 17.135016025641  20 17.5384615384615  C 20 17.9342948717948  19.8477564102565 18.2768429487179  19.5432692307693 18.5661057692308  C 19.238782051282 18.8553685897436  18.8782051282052 19  18.4615384615385 19  C 18.0288461538462 19  17.6682692307693 18.8553685897436  17.3798076923077 18.5661057692308  L 13.2572115384615 14.6610576923077  C 11.8229166666667 15.6049679487179  10.224358974359 16.0769230769231  8.46153846153845 16.0769230769231  C 7.3157051282052 16.0769230769231  6.21995192307691 15.8656850961539  5.17427884615381 15.4432091346153  C 4.12860576923072 15.0207331730769  3.22716346153845 14.4498197115385  2.46995192307691 13.73046875  C 1.71274038461547 13.0111177884615  1.11177884615381 12.1547475961539  0.667067307692264 11.1613581730769  C 0.222355769230717 10.16796875  0 9.12700320512819  0 8.03846153846155  C 0 6.94991987179483  0.222355769230717 5.90895432692312  0.667067307692264 4.91556490384612  C 1.11177884615381 3.92217548076922  1.71274038461547 3.06580528846155  2.46995192307691 2.34645432692312  C 3.22716346153845 1.62710336538466  4.12860576923072 1.05618990384612  5.17427884615381 0.633713942307679  C 6.21995192307691 0.211237980769219  7.3157051282052 0  8.46153846153845 0  C 9.60737179487182 0  10.703125 0.211237980769219  11.7487980769231 0.633713942307679  C 12.7944711538462 1.05618990384612  13.6959134615385 1.62710336538466  14.453125 2.34645432692312  C 15.2103365384615 3.06580528846155  15.8112980769231 3.92217548076922  16.2560096153845 4.91556490384612  C 16.7007211538462 5.90895432692312  16.9230769230769 6.94991987179483  16.9230769230769 8.03846153846155  C 16.9230769230769 9.71314102564103  16.426282051282 11.2317708333334  15.4326923076923 12.5943509615385  L 19.5552884615385 16.5108173076923  Z " fill-rule="nonzero" fill="#cccccc" stroke="none" transform="matrix(1 0 0 1 960 35 )" />
  </g>
</svg>