<?xml version="1.0" encoding="utf-8"?>
<svg version="1.1" xmlns:xlink="http://www.w3.org/1999/xlink" width="9px" height="15px" xmlns="http://www.w3.org/2000/svg">
  <g transform="matrix(1 0 0 1 -569 -38 )">
    <path d="M 8.89480519480526 3.42013888888891  C 8.99610389610393 3.51273148148152  9.01558441558439 3.61400462962956  8.95324675324673 3.72395833333337  C 8.88311688311683 3.83391203703707  8.77012987012984 3.88888888888891  8.61428571428564 3.88888888888891  L 6 3.88888888888891  L 6 14.7222222222223  C 5.99610389610393 14.8032407407408  5.96103896103898 14.8697916666667  5.89090909090908 14.921875  C 5.82077922077929 14.9739583333334  5.73116883116882 15  5.62207792207789 15  L 3.37792207792211 15  C 3.26883116883118 15  3.17922077922071 14.9739583333334  3.10909090909092 14.921875  C 3.03896103896102 14.8697916666667  3.00389610389607 14.8032407407408  3 14.7222222222223  L 3 3.88888888888891  L 0.385714285714243 3.88888888888891  C 0.222077922077915 3.88888888888891  0.109090909090924 3.83391203703707  0.0467532467532692 3.72395833333337  C -0.0155844155843852 3.61400462962956  0.00389610389606787 3.51273148148152  0.105194805194742 3.42013888888891  L 4.19610389610386 0.0868055555555429  C 4.27402597402602 0.0289351851852189  4.36363636363637 0  4.46493506493505 0  C 4.57402597402597 0  4.66753246753251 0.0289351851852189  4.74545454545455 0.0868055555555429  L 8.89480519480526 3.42013888888891  Z " fill-rule="nonzero" fill="#ffffff" stroke="none" transform="matrix(1 0 0 1 569 38 )" />
  </g>
</svg>