<?xml version="1.0" encoding="utf-8"?>
<svg version="1.1" xmlns:xlink="http://www.w3.org/1999/xlink" width="9px" height="15px" xmlns="http://www.w3.org/2000/svg">
  <g transform="matrix(1 0 0 1 -560 -38 )">
    <path d="M 8.61428571428564 11.1111111111111  C 8.77792207792209 11.1111111111111  8.89090909090908 11.1660879629629  8.95324675324673 11.2760416666666  C 9.01558441558439 11.3859953703704  8.99610389610393 11.4872685185185  8.89480519480526 11.5798611111111  L 4.80389610389614 14.9131944444445  C 4.72597402597398 14.9710648148148  4.63636363636363 15  4.53506493506495 15  C 4.42597402597403 15  4.33246753246749 14.9710648148148  4.25454545454545 14.9131944444445  L 0.105194805194742 11.5798611111111  C 0.00389610389606787 11.4872685185185  -0.0155844155843852 11.3859953703704  0.0467532467532692 11.2760416666666  C 0.116883116883173 11.1660879629629  0.229870129870164 11.1111111111111  0.385714285714243 11.1111111111111  L 3 11.1111111111111  L 3 0.277777777777715  C 3.00389610389607 0.196759259259238  3.03896103896102 0.130208333333258  3.10909090909092 0.078125  C 3.17922077922071 0.0260416666666288  3.26883116883118 0  3.37792207792211 0  L 5.62207792207789 0  C 5.73116883116882 0  5.82077922077929 0.0260416666666288  5.89090909090908 0.078125  C 5.96103896103898 0.130208333333258  5.99610389610393 0.196759259259238  6 0.277777777777715  L 6 11.1111111111111  L 8.61428571428564 11.1111111111111  Z " fill-rule="nonzero" fill="#ff6699" stroke="none" transform="matrix(1 0 0 1 560 38 )" />
  </g>
</svg>