<?xml version="1.0" encoding="utf-8"?>
<svg version="1.1" xmlns:xlink="http://www.w3.org/1999/xlink" width="10px" height="18px" xmlns="http://www.w3.org/2000/svg">
  <g transform="matrix(1 0 0 1 -160 -14 )">
    <path d="M 9.82817869415805 8.22334323820053  C 9.94272623138602 8.33851611268511  10 8.47096491834242  10 8.62068965517244  C 10 8.77041439200241  9.94272623138602 8.90286319765971  9.82817869415805 9.0180360721443  L 1.82130584192441 17.0686199986179  C 1.70675830469645 17.1837928731025  1.57502863688433 17.2413793103448  1.42611683848799 17.2413793103448  C 1.27720504009164 17.2413793103448  1.14547537227952 17.1837928731025  1.03092783505156 17.0686199986179  L 0.171821305841945 16.2048234399834  C 0.0572737686139817 16.0896505654988  0 15.9572017598415  0 15.8074770230115  C 0 15.6577522861816  0.0572737686139817 15.5253034805243  0.171821305841945 15.4101306060397  L 6.92439862542955 8.62068965517244  L 0.171821305841945 1.83124870430515  C 0.0572737686139817 1.71607582982057  0 1.58362702416326  0 1.4339022873333  C 0 1.28417755050333  0.0572737686139817 1.15172874484603  0.171821305841945 1.03655587036144  L 1.03092783505156 0.172759311726907  C 1.14547537227952 0.0575864372423212  1.27720504009164 0  1.42611683848799 0  C 1.57502863688433 0  1.70675830469645 0.0575864372423212  1.82130584192441 0.172759311726907  L 9.82817869415805 8.22334323820053  Z " fill-rule="nonzero" fill="#cccccc" stroke="none" transform="matrix(1 0 0 1 160 14 )" />
  </g>
</svg>