<?xml version="1.0" encoding="utf-8"?>
<svg version="1.1" xmlns:xlink="http://www.w3.org/1999/xlink" width="17px" height="10px" xmlns="http://www.w3.org/2000/svg">
  <g transform="matrix(1 0 0 1 -123 -18 )">
    <path d="M 16.499665998664 0.996563573883122  C 16.6109997773324 1.1072928598702  16.6666666666667 1.23463153875528  16.6666666666667 1.3785796105384  C 16.6666666666667 1.52252768232151  16.6109997773324 1.64986636120659  16.499665998664 1.76059564719358  L 8.71743486973952 9.50057273768618  C 8.60610109107108 9.61130202367315  8.47806724560229 9.66666666666669  8.33333333333337 9.66666666666669  C 8.1885994210644 9.66666666666669  8.06056557559566 9.61130202367315  7.94923179692717 9.50057273768618  L 0.167000668002686 1.76059564719358  C 0.0556668893342476 1.64986636120659  0 1.52252768232151  0 1.3785796105384  C 0 1.23463153875528  0.0556668893342476 1.1072928598702  0.167000668002686 0.996563573883122  L 1.002004008016 0.16609392898053  C 1.1133377866845 0.0553646429935384  1.24137163215323 0  1.38610554442221 0  C 1.53083945669113 0  1.65887330215992 0.0553646429935384  1.77020708082836 0.16609392898053  L 8.33333333333337 6.69358533791524  L 14.8964595858383 0.16609392898053  C 15.0077933645068 0.0553646429935384  15.1358272099756 0  15.2805611222445 0  C 15.4252950345135 0  15.5533288799822 0.0553646429935384  15.6646626586507 0.16609392898053  L 16.499665998664 0.996563573883122  Z " fill-rule="nonzero" fill="#e4e4e4" stroke="none" transform="matrix(1 0 0 1 123 18 )" />
  </g>
</svg>