<?xml version="1.0" encoding="utf-8"?>
<svg version="1.1" xmlns:xlink="http://www.w3.org/1999/xlink" width="25px" height="20px" xmlns="http://www.w3.org/2000/svg">
  <g transform="matrix(1 0 0 1 -35 0 )">
    <path d="M 6.56715769862308 14.9431818181818  C 6.82043650793662 15.2083333333334  6.94707591259294 15.530303030303  6.94707591259294 15.9090909090909  L 6.94707591259294 18.6363636363636  C 6.94707591259294 19.0151515151515  6.82043650793662 19.3371212121212  6.56715769862308 19.6022727272727  C 6.31387888930976 19.8674242424242  6.00632604942939 20  5.64449917898196 20  L 1.3025767336112 20  C 0.940749863163774 20  0.633197023283174 19.8674242424242  0.379918213969859 19.6022727272727  C 0.126639404656544 19.3371212121212  0 19.0151515151515  0 18.6363636363636  L 0 15.9090909090909  C 0 15.530303030303  0.126639404656544 15.2083333333334  0.379918213969859 14.9431818181818  C 0.633197023283174 14.6780303030303  0.940749863163774 14.5454545454546  1.3025767336112 14.5454545454546  L 5.64449917898196 14.5454545454546  C 6.00632604942939 14.5454545454546  6.31387888930976 14.6780303030303  6.56715769862308 14.9431818181818  Z M 6.56715769862308 7.6704545454545  C 6.82043650793662 7.93560606060612  6.94707591259294 8.25757575757575  6.94707591259294 8.63636363636363  L 6.94707591259294 11.3636363636364  C 6.94707591259294 11.7424242424242  6.82043650793662 12.0643939393939  6.56715769862308 12.3295454545454  C 6.31387888930976 12.594696969697  6.00632604942939 12.7272727272727  5.64449917898196 12.7272727272727  L 1.3025767336112 12.7272727272727  C 0.940749863163774 12.7272727272727  0.633197023283174 12.594696969697  0.379918213969859 12.3295454545454  C 0.126639404656544 12.0643939393939  0 11.7424242424242  0 11.3636363636364  L 0 8.63636363636363  C 0 8.25757575757575  0.126639404656544 7.93560606060612  0.379918213969859 7.6704545454545  C 0.633197023283174 7.405303030303  0.940749863163774 7.27272727272725  1.3025767336112 7.27272727272725  L 5.64449917898196 7.27272727272725  C 6.00632604942939 7.27272727272725  6.31387888930976 7.405303030303  6.56715769862308 7.6704545454545  Z M 23.9348474801061 14.9431818181818  C 24.1881262894192 15.2083333333334  24.3147656940757 15.530303030303  24.3147656940757 15.9090909090909  L 24.3147656940757 18.6363636363636  C 24.3147656940757 19.0151515151515  24.1881262894192 19.3371212121212  23.9348474801061 19.6022727272727  C 23.6815686707926 19.8674242424242  23.3740158309124 20  23.0121889604648 20  L 9.98642162435249 20  C 9.62459475390506 20  9.31704191402468 19.8674242424242  9.06376310471114 19.6022727272727  C 8.81048429539806 19.3371212121212  8.68384489074128 19.0151515151515  8.68384489074128 18.6363636363636  L 8.68384489074128 15.9090909090909  C 8.68384489074128 15.530303030303  8.81048429539806 15.2083333333334  9.06376310471114 14.9431818181818  C 9.31704191402468 14.6780303030303  9.62459475390506 14.5454545454546  9.98642162435249 14.5454545454546  L 23.0121889604648 14.5454545454546  C 23.3740158309124 14.5454545454546  23.6815686707926 14.6780303030303  23.9348474801061 14.9431818181818  Z M 6.56715769862308 0.397727272727252  C 6.82043650793662 0.66287878787881  6.94707591259294 0.984848484848499  6.94707591259294 1.36363636363637  L 6.94707591259294 4.09090909090912  C 6.94707591259294 4.469696969697  6.82043650793662 4.79166666666663  6.56715769862308 5.05681818181819  C 6.31387888930976 5.32196969696969  6.00632604942939 5.4545454545455  5.64449917898196 5.4545454545455  L 1.3025767336112 5.4545454545455  C 0.940749863163774 5.4545454545455  0.633197023283174 5.32196969696969  0.379918213969859 5.05681818181819  C 0.126639404656544 4.79166666666663  0 4.469696969697  0 4.09090909090912  L 0 1.36363636363637  C 0 0.984848484848499  0.126639404656544 0.66287878787881  0.379918213969859 0.397727272727252  C 0.633197023283174 0.132575757575751  0.940749863163774 0  1.3025767336112 0  L 5.64449917898196 0  C 6.00632604942939 0  6.31387888930976 0.132575757575751  6.56715769862308 0.397727272727252  Z M 23.9348474801061 7.6704545454545  C 24.1881262894192 7.93560606060612  24.3147656940757 8.25757575757575  24.3147656940757 8.63636363636363  L 24.3147656940757 11.3636363636364  C 24.3147656940757 11.7424242424242  24.1881262894192 12.0643939393939  23.9348474801061 12.3295454545454  C 23.6815686707926 12.594696969697  23.3740158309124 12.7272727272727  23.0121889604648 12.7272727272727  L 9.98642162435249 12.7272727272727  C 9.62459475390506 12.7272727272727  9.31704191402468 12.594696969697  9.06376310471114 12.3295454545454  C 8.81048429539806 12.0643939393939  8.68384489074128 11.7424242424242  8.68384489074128 11.3636363636364  L 8.68384489074128 8.63636363636363  C 8.68384489074128 8.25757575757575  8.81048429539806 7.93560606060612  9.06376310471114 7.6704545454545  C 9.31704191402468 7.405303030303  9.62459475390506 7.27272727272725  9.98642162435249 7.27272727272725  L 23.0121889604648 7.27272727272725  C 23.3740158309124 7.27272727272725  23.6815686707926 7.405303030303  23.9348474801061 7.6704545454545  Z M 23.9348474801061 0.397727272727252  C 24.1881262894192 0.66287878787881  24.3147656940757 0.984848484848499  24.3147656940757 1.36363636363637  L 24.3147656940757 4.09090909090912  C 24.3147656940757 4.469696969697  24.1881262894192 4.79166666666663  23.9348474801061 5.05681818181819  C 23.6815686707926 5.32196969696969  23.3740158309124 5.4545454545455  23.0121889604648 5.4545454545455  L 9.98642162435249 5.4545454545455  C 9.62459475390506 5.4545454545455  9.31704191402468 5.32196969696969  9.06376310471114 5.05681818181819  C 8.81048429539806 4.79166666666663  8.68384489074128 4.469696969697  8.68384489074128 4.09090909090912  L 8.68384489074128 1.36363636363637  C 8.68384489074128 0.984848484848499  8.81048429539806 0.66287878787881  9.06376310471114 0.397727272727252  C 9.31704191402468 0.132575757575751  9.62459475390506 0  9.98642162435249 0  L 23.0121889604648 0  C 23.3740158309124 0  23.6815686707926 0.132575757575751  23.9348474801061 0.397727272727252  Z " fill-rule="nonzero" fill="#bcbcbc" stroke="none" transform="matrix(1 0 0 1 35 0 )" />
  </g>
</svg>