<?xml version="1.0" encoding="utf-8"?>
<svg version="1.1" xmlns:xlink="http://www.w3.org/1999/xlink" width="25px" height="20px" xmlns="http://www.w3.org/2000/svg">
  <g>
    <path d="M 10.6387150657984 11.4488636363637  C 11.007912483607 11.8087121212121  11.1925111925113 12.2348484848485  11.1925111925113 12.7272727272727  L 11.1925111925113 18.1818181818182  C 11.1925111925113 18.6742424242424  11.007912483607 19.1003787878788  10.6387150657984 19.4602272727272  C 10.2695176479899 19.8200757575757  9.83231017953244 20  9.32709266042616 20  L 1.86541853208519 20  C 1.36020101297868 20  0.922993544521432 19.8200757575757  0.553796126712768 19.4602272727272  C 0.184598708904332 19.1003787878788  0 18.6742424242424  0 18.1818181818182  L 0 12.7272727272727  C 0 12.2348484848485  0.184598708904332 11.8087121212121  0.553796126712768 11.4488636363637  C 0.922993544521432 11.0890151515152  1.36020101297868 10.9090909090909  1.86541853208519 10.9090909090909  L 9.32709266042616 10.9090909090909  C 9.83231017953244 10.9090909090909  10.2695176479899 11.0890151515152  10.6387150657984 11.4488636363637  Z M 10.6387150657984 0.539772727272748  C 11.007912483607 0.899621212121247  11.1925111925113 1.32575757575759  11.1925111925113 1.81818181818178  L 11.1925111925113 7.27272727272725  C 11.1925111925113 7.7651515151515  11.007912483607 8.19128787878788  10.6387150657984 8.55113636363635  C 10.2695176479899 8.91098484848482  9.83231017953244 9.09090909090912  9.32709266042616 9.09090909090912  L 1.86541853208519 9.09090909090912  C 1.36020101297868 9.09090909090912  0.922993544521432 8.91098484848482  0.553796126712768 8.55113636363635  C 0.184598708904332 8.19128787878788  0 7.7651515151515  0 7.27272727272725  L 0 1.81818181818178  C 0 1.32575757575759  0.184598708904332 0.899621212121247  0.553796126712768 0.539772727272748  C 0.922993544521432 0.179924242424221  1.36020101297868 0  1.86541853208519 0  L 9.32709266042616 0  C 9.83231017953244 0  10.2695176479899 0.179924242424221  10.6387150657984 0.539772727272748  Z M 23.6966447903949 11.4488636363637  C 24.0658422082035 11.8087121212121  24.2504409171077 12.2348484848485  24.2504409171077 12.7272727272727  L 24.2504409171077 18.1818181818182  C 24.2504409171077 18.6742424242424  24.0658422082035 19.1003787878788  23.6966447903949 19.4602272727272  C 23.3274473725864 19.8200757575757  22.8902399041287 20  22.3850223850222 20  L 14.9233482566817 20  C 14.4181307375752 20  13.9809232691177 19.8200757575757  13.6117258513093 19.4602272727272  C 13.2425284335006 19.1003787878788  13.0579297245965 18.6742424242424  13.0579297245965 18.1818181818182  L 13.0579297245965 12.7272727272727  C 13.0579297245965 12.2348484848485  13.2425284335006 11.8087121212121  13.6117258513093 11.4488636363637  C 13.9809232691177 11.0890151515152  14.4181307375752 10.9090909090909  14.9233482566817 10.9090909090909  L 22.3850223850222 10.9090909090909  C 22.8902399041287 10.9090909090909  23.3274473725864 11.0890151515152  23.6966447903949 11.4488636363637  Z M 23.6966447903949 0.539772727272748  C 24.0658422082035 0.899621212121247  24.2504409171077 1.32575757575759  24.2504409171077 1.81818181818178  L 24.2504409171077 7.27272727272725  C 24.2504409171077 7.7651515151515  24.0658422082035 8.19128787878788  23.6966447903949 8.55113636363635  C 23.3274473725864 8.91098484848482  22.8902399041287 9.09090909090912  22.3850223850222 9.09090909090912  L 14.9233482566817 9.09090909090912  C 14.4181307375752 9.09090909090912  13.9809232691177 8.91098484848482  13.6117258513093 8.55113636363635  C 13.2425284335006 8.19128787878788  13.0579297245965 7.7651515151515  13.0579297245965 7.27272727272725  L 13.0579297245965 1.81818181818178  C 13.0579297245965 1.32575757575759  13.2425284335006 0.899621212121247  13.6117258513093 0.539772727272748  C 13.9809232691177 0.179924242424221  14.4181307375752 0  14.9233482566817 0  L 22.3850223850222 0  C 22.8902399041287 0  23.3274473725864 0.179924242424221  23.6966447903949 0.539772727272748  Z " fill-rule="nonzero" fill="#e4e4e4" stroke="none" />
  </g>
</svg>