<?xml version="1.0" encoding="utf-8"?>
<svg version="1.1" xmlns:xlink="http://www.w3.org/1999/xlink" width="12px" height="12px" viewBox="700 344  12 12" xmlns="http://www.w3.org/2000/svg">
  <path d="M 706 344  C 709.36 344  712 346.64  712 350  C 712 353.36  709.36 356  706 356  C 702.64 356  700 353.36  700 350  C 700 346.64  702.64 344  706 344  Z " fill-rule="nonzero" fill="#ffffff" stroke="none" />
  <path d="M 706 344.5  C 709.08 344.5  711.5 346.92  711.5 350  C 711.5 353.08  709.08 355.5  706 355.5  C 702.92 355.5  700.5 353.08  700.5 350  C 700.5 346.92  702.92 344.5  706 344.5  Z " stroke-width="1" stroke="#666666" fill="none" />
  <path d="M 706 353  C 704.32 353  703 351.68  703 350  C 703 348.32  704.32 347  706 347  C 707.68 347  709 348.32  709 350  C 709 351.68  707.68 353  706 353  " fill-rule="nonzero" fill="#666666" stroke="none" />
</svg>