<?xml version="1.0" encoding="utf-8"?>
<svg version="1.1" xmlns:xlink="http://www.w3.org/1999/xlink" width="80px" height="80px" xmlns="http://www.w3.org/2000/svg">
  <defs>
    <mask fill="white" id="clip115">
      <path d="M 640 279.5  C 618.0775 279.5  600.5 261.9225  600.5 240  L 600.5 240  C 600.5 218.0775  618.0775 200.5  640 200.5  L 640 200.5  C 661.9225 200.5  679.5 218.0775  679.5 240  L 679.5 240  C 679.5 261.9225  661.9225 279.5  640 279.5  L 640 279.5  " fill-rule="evenodd" />
    </mask>
  </defs>
  <g transform="matrix(1 0 0 1 -600 -200 )">
    <path d="M 600 200  L 680 200  L 680 280  L 600 280  L 600 200  " fill-rule="nonzero" fill="#cccccc" stroke="none" mask="url(#clip115)" />
    <path d="M 606 206  L 674 206  L 674 274  L 606 274  L 606 206  " fill-rule="nonzero" fill="#ffffff" stroke="none" mask="url(#clip115)" />
    <path d="M 647.6 224  C 644.24 224  641.6 221.36  641.6 218  C 641.6 214.64  644.24 212  647.6 212  C 650.96 212  653.6 214.64  653.6 218  C 653.6 221.36  650.96 224  647.6 224  " fill-rule="nonzero" fill="#cccccc" stroke="none" mask="url(#clip115)" />
    <path d="M 608 272  L 608 236.8  L 624 220.8  L 646.4 233.6  L 659.2 230.4  L 672 233.6  L 672 272  L 608 272  " fill-rule="nonzero" fill="#169bd5" stroke="none" mask="url(#clip115)" />
    <path d="M 640 279.5  C 618.0775 279.5  600.5 261.9225  600.5 240  L 600.5 240  C 600.5 218.0775  618.0775 200.5  640 200.5  L 640 200.5  C 661.9225 200.5  679.5 218.0775  679.5 240  L 679.5 240  C 679.5 261.9225  661.9225 279.5  640 279.5  L 640 279.5  Z " stroke-width="1" stroke="#333333" fill="none" />
  </g>
</svg>