<?xml version="1.0" encoding="utf-8"?>
<svg version="1.1" xmlns:xlink="http://www.w3.org/1999/xlink" width="120px" height="120px" xmlns="http://www.w3.org/2000/svg">
  <g transform="matrix(1 0 0 1 -798 -300 )">
    <path d="M 858 300  C 891.6 300  918 326.4  918 360  C 918 393.6  891.6 420  858 420  C 824.4 420  798 393.6  798 360  C 798 326.4  824.4 300  858 300  Z " fill-rule="nonzero" fill="#ffffff" stroke="none" />
    <path d="M 858 300.5  C 891.32 300.5  917.5 326.68  917.5 360  C 917.5 393.32  891.32 419.5  858 419.5  C 824.68 419.5  798.5 393.32  798.5 360  C 798.5 326.68  824.68 300.5  858 300.5  Z " stroke-width="1" stroke="#666666" fill="none" />
  </g>
</svg>