<?xml version="1.0" encoding="utf-8"?>
<svg version="1.1" xmlns:xlink="http://www.w3.org/1999/xlink" width="12px" height="12px" viewBox="539 397  12 12" xmlns="http://www.w3.org/2000/svg">
  <path d="M 545 397  C 548.36 397  551 399.64  551 403  C 551 406.36  548.36 409  545 409  C 541.64 409  539 406.36  539 403  C 539 399.64  541.64 397  545 397  Z " fill-rule="nonzero" fill="#ffffff" stroke="none" />
  <path d="M 545 397.5  C 548.08 397.5  550.5 399.92  550.5 403  C 550.5 406.08  548.08 408.5  545 408.5  C 541.92 408.5  539.5 406.08  539.5 403  C 539.5 399.92  541.92 397.5  545 397.5  Z " stroke-width="1" stroke="#797979" fill="none" />
  <path d="M 545 406  C 543.32 406  542 404.68  542 403  C 542 401.32  543.32 400  545 400  C 546.68 400  548 401.32  548 403  C 548 404.68  546.68 406  545 406  " fill-rule="nonzero" fill="#797979" stroke="none" />
</svg>