<?xml version="1.0" encoding="utf-8"?>
<svg version="1.1" xmlns:xlink="http://www.w3.org/1999/xlink" width="12px" height="12px" viewBox="620 397  12 12" xmlns="http://www.w3.org/2000/svg">
  <path d="M 626 397  C 629.36 397  632 399.64  632 403  C 632 406.36  629.36 409  626 409  C 622.64 409  620 406.36  620 403  C 620 399.64  622.64 397  626 397  Z " fill-rule="nonzero" fill="#f0f0f0" stroke="none" />
  <path d="M 626 397.5  C 629.08 397.5  631.5 399.92  631.5 403  C 631.5 406.08  629.08 408.5  626 408.5  C 622.92 408.5  620.5 406.08  620.5 403  C 620.5 399.92  622.92 397.5  626 397.5  Z " stroke-width="1" stroke="#797979" fill="none" />
  <path d="M 626 406  C 624.32 406  623 404.68  623 403  C 623 401.32  624.32 400  626 400  C 627.68 400  629 401.32  629 403  C 629 404.68  627.68 406  626 406  " fill-rule="nonzero" fill="#797979" stroke="none" />
</svg>