<?xml version="1.0" encoding="utf-8"?>
<svg version="1.1" xmlns:xlink="http://www.w3.org/1999/xlink" width="50px" height="50px" xmlns="http://www.w3.org/2000/svg">
  <g transform="matrix(1 0 0 1 -1184 -176 )">
    <path d="M 1209 176  C 1223 176  1234 187  1234 201  C 1234 215  1223 226  1209 226  C 1195 226  1184 215  1184 201  C 1184 187  1195 176  1209 176  Z " fill-rule="nonzero" fill="#000000" stroke="none" />
    <path d="M 1209 176.5  C 1222.72 176.5  1233.5 187.28  1233.5 201  C 1233.5 214.72  1222.72 225.5  1209 225.5  C 1195.28 225.5  1184.5 214.72  1184.5 201  C 1184.5 187.28  1195.28 176.5  1209 176.5  Z " stroke-width="1" stroke="#797979" fill="none" />
  </g>
</svg>