<?xml version="1.0" encoding="utf-8"?>
<svg version="1.1" xmlns:xlink="http://www.w3.org/1999/xlink" width="180px" height="100px" xmlns="http://www.w3.org/2000/svg">
  <g>
    <path d="M 0 0  L 180 0  L 180 100  L 0 100  L 0 0  " fill-rule="nonzero" fill="#cccccc" stroke="none" />
    <path d="M 7 7  L 173 7  L 173 93  L 7 93  L 7 7  " fill-rule="nonzero" fill="#ffffff" stroke="none" />
    <path d="M 101.1 30  C 96.9 30  93.6 26.7  93.6 22.5  C 93.6 18.3  96.9 15  101.1 15  C 105.3 15  108.6 18.3  108.6 22.5  C 108.6 26.7  105.3 30  101.1 30  " fill-rule="nonzero" fill="#cccccc" stroke="none" />
    <path d="M 10 91  L 10 46.45  L 50.25 26.2  L 106.6 64  L 138.8 38.35  L 171 64  L 171 91  L 10 91  " fill-rule="nonzero" fill="#169bd5" stroke="none" />
  </g>
</svg>