<?xml version="1.0" encoding="utf-8"?>
<svg version="1.1" xmlns:xlink="http://www.w3.org/1999/xlink" width="19px" height="20px" xmlns="http://www.w3.org/2000/svg">
  <g transform="matrix(1 0 0 1 -14 -10 )">
    <path d="M 3.5625 0  L 15.4375 0  C 16.4188368055555 0  17.2579210069445 0.366753472222214  17.9547526041667 1.10026041666667  C 18.6515842013889 1.83376736111111  19 2.71701388888889  19 3.75  L 19 16.25  C 19 17.2829861111111  18.6515842013889 18.1662326388889  17.9547526041667 18.8997395833333  C 17.2579210069445 19.6332465277778  16.4188368055555 20  15.4375 20  L 3.5625 20  C 2.58116319444444 20  1.74207899305556 19.6332465277778  1.04524739583333 18.8997395833333  C 0.348415798611114 18.1662326388889  0 17.2829861111111  0 16.25  L 0 3.75  C 0 2.71701388888889  0.348415798611114 1.83376736111111  1.04524739583333 1.10026041666667  C 1.74207899305556 0.366753472222214  2.58116319444444 0  3.5625 0  Z M 7.8671875 11.953125  C 8.37847222222223 11.4149305555556  8.63411458333333 10.7638888888889  8.63411458333333 10  C 8.63411458333333 9.23611111111111  8.37847222222223 8.58506944444444  7.8671875 8.046875  C 7.35590277777777 7.50868055555556  6.73741319444444 7.23958333333333  6.01171875 7.23958333333333  C 5.28602430555556 7.23958333333333  4.66753472222223 7.50868055555556  4.15625 8.046875  C 3.64496527777777 8.58506944444444  3.38932291666667 9.23611111111111  3.38932291666667 10  C 3.38932291666667 10.7638888888889  3.64496527777777 11.4149305555556  4.15625 11.953125  C 4.66753472222223 12.4913194444444  5.28602430555556 12.7604166666667  6.01171875 12.7604166666667  C 6.73741319444444 12.7604166666667  7.35590277777777 12.4913194444444  7.8671875 11.953125  Z M 14.84375 11.953125  C 15.3550347222222 11.4149305555556  15.6106770833333 10.7638888888889  15.6106770833333 10  C 15.6106770833333 9.23611111111111  15.3550347222222 8.58506944444444  14.84375 8.046875  C 14.3324652777778 7.50868055555556  13.7139756944444 7.23958333333333  12.98828125 7.23958333333333  C 12.2625868055556 7.23958333333333  11.6440972222222 7.50868055555556  11.1328125 8.046875  C 10.6215277777778 8.58506944444444  10.3658854166667 9.23611111111111  10.3658854166667 10  C 10.3658854166667 10.7638888888889  10.6215277777778 11.4149305555556  11.1328125 11.953125  C 11.6440972222222 12.4913194444444  12.2625868055556 12.7604166666667  12.98828125 12.7604166666667  C 13.7139756944444 12.7604166666667  14.3324652777778 12.4913194444444  14.84375 11.953125  Z " fill-rule="nonzero" fill="#bcbcbc" stroke="none" transform="matrix(1 0 0 1 14 10 )" />
  </g>
</svg>