<?xml version="1.0" encoding="utf-8"?>
<svg version="1.1" xmlns:xlink="http://www.w3.org/1999/xlink" width="32px" height="28px" xmlns="http://www.w3.org/2000/svg">
  <g transform="matrix(1 0 0 1 -351 -331 )">
    <path d="M 4 16  L 4 24  L 16 24  L 16 16  L 4 16  Z M 20 10.5  L 20 16  L 28 16  L 28 4  L 16 4  L 16 8  L 17.5 8  C 18.1875 8  18.7760416666667 8.24479166666666  19.265625 8.734375  C 19.7552083333333 9.22395833333333  20 9.8125  20 10.5  Z M 31.265625 0.734375000000001  C 31.7552083333333 1.22395833333333  32 1.8125  32 2.5  L 32 17.5  C 32 18.1875  31.7552083333333 18.7760416666667  31.265625 19.265625  C 30.7760416666667 19.7552083333333  30.1875 20  29.5 20  L 20 20  L 20 25.5  C 20 26.1875  19.7552083333333 26.7760416666667  19.265625 27.265625  C 18.7760416666667 27.7552083333333  18.1875 28  17.5 28  L 2.5 28  C 1.8125 28  1.22395833333333 27.7552083333333  0.734375 27.265625  C 0.244791666666667 26.7760416666667  0 26.1875  0 25.5  L 0 10.5  C 0 9.8125  0.244791666666667 9.22395833333333  0.734375 8.734375  C 1.22395833333333 8.24479166666666  1.8125 8  2.5 8  L 12 8  L 12 2.5  C 12 1.8125  12.2447916666667 1.22395833333333  12.734375 0.734375000000001  C 13.2239583333333 0.244791666666667  13.8125 0  14.5 0  L 29.5 0  C 30.1875 0  30.7760416666667 0.244791666666667  31.265625 0.734375000000001  Z " fill-rule="nonzero" fill="#ffffff" stroke="none" transform="matrix(1 0 0 1 351 331 )" />
  </g>
</svg>