<?xml version="1.0" encoding="utf-8"?>
<svg version="1.1" xmlns:xlink="http://www.w3.org/1999/xlink" width="12px" height="12px" viewBox="609 533  12 12" xmlns="http://www.w3.org/2000/svg">
  <path d="M 615 533  C 618.36 533  621 535.64  621 539  C 621 542.36  618.36 545  615 545  C 611.64 545  609 542.36  609 539  C 609 535.64  611.64 533  615 533  Z " fill-rule="nonzero" fill="#f0f0f0" stroke="none" />
  <path d="M 615 533.5  C 618.08 533.5  620.5 535.92  620.5 539  C 620.5 542.08  618.08 544.5  615 544.5  C 611.92 544.5  609.5 542.08  609.5 539  C 609.5 535.92  611.92 533.5  615 533.5  Z " stroke-width="1" stroke="#797979" fill="none" />
  <path d="M 615 542  C 613.32 542  612 540.68  612 539  C 612 537.32  613.32 536  615 536  C 616.68 536  618 537.32  618 539  C 618 540.68  616.68 542  615 542  " fill-rule="nonzero" fill="#797979" stroke="none" />
</svg>