<?xml version="1.0" encoding="utf-8"?>
<svg version="1.1" xmlns:xlink="http://www.w3.org/1999/xlink" width="12px" height="12px" viewBox="499 533  12 12" xmlns="http://www.w3.org/2000/svg">
  <path d="M 505 533  C 508.36 533  511 535.64  511 539  C 511 542.36  508.36 545  505 545  C 501.64 545  499 542.36  499 539  C 499 535.64  501.64 533  505 533  Z " fill-rule="nonzero" fill="#f0f0f0" stroke="none" />
  <path d="M 505 533.5  C 508.08 533.5  510.5 535.92  510.5 539  C 510.5 542.08  508.08 544.5  505 544.5  C 501.92 544.5  499.5 542.08  499.5 539  C 499.5 535.92  501.92 533.5  505 533.5  Z " stroke-width="1" stroke="#797979" fill="none" />
  <path d="M 505 542  C 503.32 542  502 540.68  502 539  C 502 537.32  503.32 536  505 536  C 506.68 536  508 537.32  508 539  C 508 540.68  506.68 542  505 542  " fill-rule="nonzero" fill="#797979" stroke="none" />
</svg>