<?xml version="1.0" encoding="utf-8"?>
<svg version="1.1" xmlns:xlink="http://www.w3.org/1999/xlink" width="12px" height="12px" viewBox="709 533  12 12" xmlns="http://www.w3.org/2000/svg">
  <path d="M 715 533  C 718.36 533  721 535.64  721 539  C 721 542.36  718.36 545  715 545  C 711.64 545  709 542.36  709 539  C 709 535.64  711.64 533  715 533  Z " fill-rule="nonzero" fill="#ffffff" stroke="none" />
  <path d="M 715 533.5  C 718.08 533.5  720.5 535.92  720.5 539  C 720.5 542.08  718.08 544.5  715 544.5  C 711.92 544.5  709.5 542.08  709.5 539  C 709.5 535.92  711.92 533.5  715 533.5  Z " stroke-width="1" stroke="#797979" fill="none" />
  <path d="M 715 542  C 713.32 542  712 540.68  712 539  C 712 537.32  713.32 536  715 536  C 716.68 536  718 537.32  718 539  C 718 540.68  716.68 542  715 542  " fill-rule="nonzero" fill="#797979" stroke="none" />
</svg>