<?xml version="1.0" encoding="utf-8"?>
<svg version="1.1" xmlns:xlink="http://www.w3.org/1999/xlink" width="12px" height="12px" viewBox="499 358  12 12" xmlns="http://www.w3.org/2000/svg">
  <path d="M 505 358  C 508.36 358  511 360.64  511 364  C 511 367.36  508.36 370  505 370  C 501.64 370  499 367.36  499 364  C 499 360.64  501.64 358  505 358  Z " fill-rule="nonzero" fill="#f0f0f0" stroke="none" />
  <path d="M 505 358.5  C 508.08 358.5  510.5 360.92  510.5 364  C 510.5 367.08  508.08 369.5  505 369.5  C 501.92 369.5  499.5 367.08  499.5 364  C 499.5 360.92  501.92 358.5  505 358.5  Z " stroke-width="1" stroke="#797979" fill="none" />
  <path d="M 505 367  C 503.32 367  502 365.68  502 364  C 502 362.32  503.32 361  505 361  C 506.68 361  508 362.32  508 364  C 508 365.68  506.68 367  505 367  " fill-rule="nonzero" fill="#797979" stroke="none" />
</svg>