<?xml version="1.0" encoding="utf-8"?>
<svg version="1.1" xmlns:xlink="http://www.w3.org/1999/xlink" width="12px" height="12px" viewBox="582 488  12 12" xmlns="http://www.w3.org/2000/svg">
  <path d="M 588 488  C 591.36 488  594 490.64  594 494  C 594 497.36  591.36 500  588 500  C 584.64 500  582 497.36  582 494  C 582 490.64  584.64 488  588 488  Z " fill-rule="nonzero" fill="#f0f0f0" stroke="none" />
  <path d="M 588 488.5  C 591.08 488.5  593.5 490.92  593.5 494  C 593.5 497.08  591.08 499.5  588 499.5  C 584.92 499.5  582.5 497.08  582.5 494  C 582.5 490.92  584.92 488.5  588 488.5  Z " stroke-width="1" stroke="#797979" fill="none" />
  <path d="M 588 497  C 586.32 497  585 495.68  585 494  C 585 492.32  586.32 491  588 491  C 589.68 491  591 492.32  591 494  C 591 495.68  589.68 497  588 497  " fill-rule="nonzero" fill="#797979" stroke="none" />
</svg>