<?xml version="1.0" encoding="utf-8"?>
<svg version="1.1" xmlns:xlink="http://www.w3.org/1999/xlink" width="12px" height="12px" viewBox="499 488  12 12" xmlns="http://www.w3.org/2000/svg">
  <path d="M 505 488  C 508.36 488  511 490.64  511 494  C 511 497.36  508.36 500  505 500  C 501.64 500  499 497.36  499 494  C 499 490.64  501.64 488  505 488  Z " fill-rule="nonzero" fill="#f0f0f0" stroke="none" />
  <path d="M 505 488.5  C 508.08 488.5  510.5 490.92  510.5 494  C 510.5 497.08  508.08 499.5  505 499.5  C 501.92 499.5  499.5 497.08  499.5 494  C 499.5 490.92  501.92 488.5  505 488.5  Z " stroke-width="1" stroke="#797979" fill="none" />
  <path d="M 505 497  C 503.32 497  502 495.68  502 494  C 502 492.32  503.32 491  505 491  C 506.68 491  508 492.32  508 494  C 508 495.68  506.68 497  505 497  " fill-rule="nonzero" fill="#797979" stroke="none" />
</svg>