<?xml version="1.0" encoding="utf-8"?>
<svg version="1.1" xmlns:xlink="http://www.w3.org/1999/xlink" width="17px" height="23px" xmlns="http://www.w3.org/2000/svg">
  <g transform="matrix(1 0 0 1 -360 -327 )">
    <path d="M 10.0662525879917 20.5571142284569  C 10.1835748792271 20.7107548430193  10.2422360248447 20.8874415497662  10.2422360248447 21.0871743486974  C 10.2422360248447 21.2869071476286  10.1835748792271 21.4635938543754  10.0662525879917 21.6172344689379  L 9.18633540372673 22.7695390781563  C 9.06901311249135 22.9231796927187  8.93409247757074 23  8.7815734989648 23  C 8.62905452035886 23  8.49413388543826 22.9231796927187  8.37681159420288 22.7695390781563  L 0.175983436853016 12.0300601202405  C 0.0586611456176911 11.876419505678  0 11.6997327989312  0 11.5  C 0 11.3002672010688  0.0586611456176911 11.123580494322  0.175983436853016 10.9699398797595  L 8.37681159420288 0.230460921843701  C 8.49413388543826 0.0768203072812526  8.62905452035886 0  8.7815734989648 0  C 8.93409247757074 0  9.06901311249135 0.0768203072812526  9.18633540372673 0.230460921843701  L 10.0662525879917 1.38276553106215  C 10.1835748792271 1.5364061456246  10.2422360248447 1.7130928523714  10.2422360248447 1.91282565130263  C 10.2422360248447 2.11255845023379  10.1835748792271 2.28924515698066  10.0662525879917 2.4428857715431  L 3.15010351966873 11.5  L 10.0662525879917 20.5571142284569  Z M 16.824016563147 20.5571142284569  C 16.9413388543823 20.7107548430193  17 20.8874415497662  17 21.0871743486974  C 17 21.2869071476286  16.9413388543823 21.4635938543754  16.824016563147 21.6172344689379  L 15.944099378882 22.7695390781563  C 15.8267770876466 22.9231796927187  15.691856452726 23  15.5393374741201 23  C 15.3868184955141 23  15.2518978605935 22.9231796927187  15.1345755693582 22.7695390781563  L 6.9337474120083 12.0300601202405  C 6.81642512077292 11.876419505678  6.75776397515529 11.6997327989312  6.75776397515529 11.5  C 6.75776397515529 11.3002672010688  6.81642512077292 11.123580494322  6.9337474120083 10.9699398797595  L 15.1345755693582 0.230460921843701  C 15.2518978605935 0.0768203072812526  15.3868184955141 0  15.5393374741201 0  C 15.691856452726 0  15.8267770876466 0.0768203072812526  15.944099378882 0.230460921843701  L 16.824016563147 1.38276553106215  C 16.9413388543823 1.5364061456246  17 1.7130928523714  17 1.91282565130263  C 17 2.11255845023379  16.9413388543823 2.28924515698066  16.824016563147 2.4428857715431  L 9.90786749482402 11.5  L 16.824016563147 20.5571142284569  Z " fill-rule="nonzero" fill="#333333" stroke="none" transform="matrix(1 0 0 1 360 327 )" />
  </g>
</svg>