<?xml version="1.0" encoding="utf-8"?>
<svg version="1.1" xmlns:xlink="http://www.w3.org/1999/xlink" width="20px" height="23px" xmlns="http://www.w3.org/2000/svg">
  <g transform="matrix(1 0 0 1 -519 -327 )">
    <path d="M 11.8426501035196 10.9699398797595  C 11.9806763285025 11.123580494322  12.0496894409938 11.3002672010688  12.0496894409938 11.5  C 12.0496894409938 11.6997327989312  11.9806763285025 11.876419505678  11.8426501035196 12.0300601202405  L 2.19461697722568 22.7695390781563  C 2.05659075224298 22.9231796927187  1.89786059351275 23  1.7184265010352 23  C 1.53899240855765 23  1.38026224982741 22.9231796927187  1.24223602484471 22.7695390781563  L 0.207039337474157 21.6172344689379  C 0.0690131124913478 21.4635938543754  0 21.2869071476286  0 21.0871743486974  C 0 20.8874415497662  0.0690131124913478 20.7107548430193  0.207039337474157 20.5571142284569  L 8.34368530020708 11.5  L 0.207039337474157 2.4428857715431  C 0.0690131124913478 2.28924515698066  0 2.11255845023379  0 1.91282565130263  C 0 1.7130928523714  0.0690131124913478 1.5364061456246  0.207039337474157 1.38276553106215  L 1.24223602484471 0.230460921843701  C 1.38026224982741 0.0768203072812526  1.53899240855765 0  1.7184265010352 0  C 1.89786059351275 0  2.05659075224298 0.0768203072812526  2.19461697722568 0.230460921843701  L 11.8426501035196 10.9699398797595  Z M 19.7929606625258 10.9699398797595  C 19.9309868875087 11.123580494322  20 11.3002672010688  20 11.5  C 20 11.6997327989312  19.9309868875087 11.876419505678  19.7929606625258 12.0300601202405  L 10.1449275362319 22.7695390781563  C 10.0069013112492 22.9231796927187  9.84817115251894 23  9.66873706004139 23  C 9.48930296756384 23  9.33057280883372 22.9231796927187  9.19254658385091 22.7695390781563  L 8.15734989648035 21.6172344689379  C 8.01932367149755 21.4635938543754  7.9503105590062 21.2869071476286  7.9503105590062 21.0871743486974  C 7.9503105590062 20.8874415497662  8.01932367149755 20.7107548430193  8.15734989648035 20.5571142284569  L 16.2939958592133 11.5  L 8.15734989648035 2.4428857715431  C 8.01932367149755 2.28924515698066  7.9503105590062 2.11255845023379  7.9503105590062 1.91282565130263  C 7.9503105590062 1.7130928523714  8.01932367149755 1.5364061456246  8.15734989648035 1.38276553106215  L 9.19254658385091 0.230460921843701  C 9.33057280883372 0.0768203072812526  9.48930296756384 0  9.66873706004139 0  C 9.84817115251894 0  10.0069013112492 0.0768203072812526  10.1449275362319 0.230460921843701  L 19.7929606625258 10.9699398797595  Z " fill-rule="nonzero" fill="#333333" stroke="none" transform="matrix(1 0 0 1 519 327 )" />
  </g>
</svg>