<?xml version="1.0" encoding="utf-8"?>
<svg version="1.1" xmlns:xlink="http://www.w3.org/1999/xlink" width="300px" height="170px" xmlns="http://www.w3.org/2000/svg">
  <g transform="matrix(1 0 0 1 -413 -275 )">
    <path d="M 413 275  L 713 275  L 713 445  L 413 445  L 413 275  " fill-rule="nonzero" fill="#cccccc" stroke="none" />
    <path d="M 425 287  L 701 287  L 701 433  L 425 433  L 425 287  " fill-rule="nonzero" fill="#ffffff" stroke="none" />
    <path d="M 581.75 326  C 574.61 326  569 320.39  569 313.25  C 569 306.11  574.61 300.5  581.75 300.5  C 588.89 300.5  594.5 306.11  594.5 313.25  C 594.5 320.39  588.89 326  581.75 326  " fill-rule="nonzero" fill="#cccccc" stroke="none" />
    <path d="M 430 429  L 430 353.65  L 496.75 319.4  L 590.2 382.42  L 643.6 339.95  L 697 382.42  L 697 429  L 430 429  " fill-rule="nonzero" fill="#169bd5" stroke="none" />
  </g>
</svg>