<?xml version="1.0" encoding="utf-8"?>
<svg version="1.1" xmlns:xlink="http://www.w3.org/1999/xlink" width="25px" height="25px" xmlns="http://www.w3.org/2000/svg">
  <defs>
    <mask fill="white" id="clip29">
      <path d="M 30.5 24.5  C 23.84 24.5  18.5 19.16  18.5 12.5  L 18.5 12.5  C 18.5 5.84  23.84 0.5  30.5 0.5  L 30.5 0.5  C 37.16 0.5  42.5 5.84  42.5 12.5  L 42.5 12.5  C 42.5 19.16  37.16 24.5  30.5 24.5  L 30.5 24.5  " fill-rule="evenodd" />
    </mask>
  </defs>
  <g transform="matrix(1 0 0 1 -18 0 )">
    <path d="M 18 0  L 43 0  L 43 25  L 18 25  L 18 0  " fill-rule="nonzero" fill="#cccccc" stroke="none" mask="url(#clip29)" />
    <path d="M 20 2  L 41 2  L 41 23  L 20 23  L 20 2  " fill-rule="nonzero" fill="#ffffff" stroke="none" mask="url(#clip29)" />
    <path d="M 32.875 7.5  C 31.825 7.5  31 6.675  31 5.625  C 31 4.575  31.825 3.75  32.875 3.75  C 33.925 3.75  34.75 4.575  34.75 5.625  C 34.75 6.675  33.925 7.5  32.875 7.5  " fill-rule="nonzero" fill="#cccccc" stroke="none" mask="url(#clip29)" />
    <path d="M 21 23  L 21 12  L 26 7  L 33 11  L 37 10  L 41 11  L 41 23  L 21 23  " fill-rule="nonzero" fill="#169bd5" stroke="none" mask="url(#clip29)" />
    <path d="M 30.5 24.5  C 23.84 24.5  18.5 19.16  18.5 12.5  L 18.5 12.5  C 18.5 5.84  23.84 0.5  30.5 0.5  L 30.5 0.5  C 37.16 0.5  42.5 5.84  42.5 12.5  L 42.5 12.5  C 42.5 19.16  37.16 24.5  30.5 24.5  L 30.5 24.5  Z " stroke-width="1" stroke="#333333" fill="none" />
  </g>
</svg>