<?xml version="1.0" encoding="utf-8"?>
<svg version="1.1" xmlns:xlink="http://www.w3.org/1999/xlink" width="25px" height="20px" xmlns="http://www.w3.org/2000/svg">
  <g transform="matrix(1 0 0 1 -18 -3 )">
    <path d="M 18.3314732142858 3.52909865152592  C 19.2057291666667 4.61781405251955  19.6428571428571 5.80340667139817  19.6428571428571 7.08587650816185  C 19.6428571428571 8.36834634492547  19.2057291666667 9.55393896380414  18.3314732142858 10.6426543647977  C 17.4572172619048 11.7313697657913  16.264415922619 12.5917317246274  14.7530691964287 13.2237402413059  C 13.2417224702381 13.8557487579844  11.5978422619048 14.1717530163237  9.82142857142867 14.1717530163237  C 9.02157738095229 14.1717530163237  8.203125 14.097941802697  7.36607142857133 13.9503193754436  C 6.21279761904771 14.7622427253371  4.92001488095229 15.3527324343507  3.48772321428578 15.7217885024841  C 3.15290178571422 15.8048261178141  2.75297619047615 15.8786373314408  2.28794642857133 15.9432221433641  L 2.24609375 15.9432221433641  C 2.14378720238096 15.9432221433641  2.0484561011906 15.9063165365508  1.96010044642867 15.8325053229241  C 1.87174479166674 15.7586941092974  1.81826636904771 15.6618168914124  1.79966517857133 15.5418736692691  C 1.79036458333326 15.514194464159  1.78571428571422 15.4842086586232  1.78571428571422 15.4519162526615  C 1.78571428571422 15.4196238466998  1.78803943452385 15.389638041164  1.79268973214289 15.361958836054  C 1.79734002976193 15.334279630944  1.806640625 15.3066004258339  1.82059151785711 15.278921220724  L 1.85546875 15.2097232079489  C 1.85546875 15.2097232079489  1.87174479166674 15.1843506032647  1.904296875 15.1336053938964  C 1.93684895833326 15.0828601845281  1.9554501488094 15.0597941802697  1.96010044642867 15.0644073811214  C 1.96475074404771 15.069020581973  1.98567708333326 15.0459545777147  2.02287946428578 14.9952093683463  C 2.06008184523807 14.944464158978  2.07868303571422 14.9237047551455  2.07868303571422 14.9329311568489  C 2.12518601190482 14.8775727466288  2.23214285714289 14.7622427253371  2.39955357142867 14.5869410929738  C 2.56696428571422 14.4116394606104  2.6878720238094 14.2755500354862  2.76227678571422 14.1786728176011  C 2.83668154761904 14.0817955997161  2.94131324404771 13.9480127750177  3.076171875 13.7773243435061  C 3.21103050595229 13.6066359119944  3.32728794642867 13.4290276792051  3.42494419642867 13.2444996451384  C 3.52260044642867 13.0599716110717  3.61793154761904 12.8569907735983  3.7109375 12.6355571327183  C 2.55766369047615 11.971256210078  1.65085565476193 11.1547196593329  0.99051339285711 10.1859474804827  C 0.330171130952294 9.21717530163235  0 8.18381831085882  0 7.08587650816185  C 0 5.80340667139817  0.437127976190595 4.61781405251955  1.31138392857133 3.52909865152592  C 2.18563988095229 2.44038325053235  3.37844122023807 1.58002129169622  4.88978794642867 0.94801277501773  C 6.40113467261904 0.316004258339245  8.04501488095229 0  9.82142857142867 0  C 11.5978422619048 0  13.2417224702381 0.316004258339245  14.7530691964287 0.94801277501773  C 16.264415922619 1.58002129169622  17.4572172619048 2.44038325053235  18.3314732142858 3.52909865152592  Z M 23.9536830357142 7.44570617459189  C 24.6512276785713 8.43293115684887  25 9.49396735273249  25 10.6288147622428  C 25 11.735982966643  24.6698288690477 12.7716465578425  24.0094866071429 13.7358055358411  C 23.3491443452381 14.6999645138396  22.4423363095239 15.514194464159  21.2890625 16.1784953867992  C 21.382068452381 16.3999290276792  21.4773995535713 16.6029098651526  21.5750558035713 16.7874378992193  C 21.6727120535713 16.971965933286  21.7889694940477 17.1495741660753  21.923828125 17.320262597587  C 22.0586867559523 17.4909510290987  22.163318452381 17.6247338537971  22.2377232142858 17.7216110716821  C 22.3121279761906 17.8184882895671  22.4330357142858 17.9545777146913  22.6004464285713 18.1298793470547  C 22.7678571428571 18.3051809794181  22.8748139880952 18.4205110007098  22.9213169642858 18.4758694109298  C 22.9306175595239 18.4850958126331  22.94921875 18.5058552164655  22.9771205357142 18.5381476224272  C 23.0050223214287 18.5704400283889  23.0259486607142 18.5935060326473  23.0398995535713 18.6073456352023  C 23.0538504464287 18.6211852377572  23.0724516369048 18.6442512420156  23.095703125 18.6765436479773  C 23.1189546130952 18.708836053939  23.1352306547619 18.7342086586231  23.14453125 18.7526614620298  L 23.1794084821429 18.8218594748049  C 23.1794084821429 18.8218594748049  23.188709077381 18.8495386799148  23.2073102678571 18.9048970901349  C 23.2259114583333 18.9602555003549  23.2282366071429 18.9902413058907  23.2142857142858 18.9948545067424  C 23.2003348214287 18.999467707594  23.1956845238094 19.0294535131299  23.2003348214287 19.0848119233499  C 23.1724330357142 19.2139815471966  23.1119791666667 19.3154719659333  23.0189732142858 19.38928317956  C 22.9259672619048 19.4630943931867  22.8236607142858 19.4953867991484  22.7120535714287 19.486160397445  C 22.2470238095239 19.4215755855217  21.8470982142858 19.347764371895  21.5122767857142 19.264726756565  C 20.0799851190477 18.8956706884316  18.7872023809523 18.3051809794181  17.6339285714287 17.4932576295245  C 16.796875 17.6408800567779  15.9784226190477 17.7146912704045  15.1785714285713 17.7146912704045  C 12.6581101190477 17.7146912704045  10.4631696428571 17.1057487579844  8.59375 15.8878637331442  C 9.1331845238094 15.9247693399574  9.54241071428578 15.9432221433641  9.82142857142867 15.9432221433641  C 11.3188244047619 15.9432221433641  12.7557663690477 15.7356281050391  14.1322544642858 15.320440028389  C 15.5087425595239 14.9052519517389  16.7364211309523 14.3101490418737  17.8152901785713 13.5351312987935  C 18.9778645833333 12.6863023420866  19.8707217261906 11.708303761533  20.4938616071429 10.6011355571327  C 21.1170014880952 9.49396735273249  21.4285714285713 8.32221433640882  21.4285714285713 7.08587650816185  C 21.4285714285713 6.37544357700497  21.3216145833333 5.67423704755143  21.1077008928571 4.98225691980129  C 22.3074776785713 5.63733144073817  23.2561383928571 6.45848119233496  23.9536830357142 7.44570617459189  Z " fill-rule="nonzero" fill="#999999" stroke="none" transform="matrix(1 0 0 1 18 3 )" />
  </g>
</svg>