<?xml version="1.0" encoding="utf-8"?>
<svg version="1.1" xmlns:xlink="http://www.w3.org/1999/xlink" width="29px" height="29px" xmlns="http://www.w3.org/2000/svg">
  <g transform="matrix(1 0 0 1 -500 -111 )">
    <path d="M 28.5017182130584 13.8316633266533  C 28.8339060710194 14.0253841015364  29 14.248162992652  29 14.5  C 29 14.751837007348  28.8339060710194 14.9746158984636  28.5017182130584 15.1683366733467  L 5.28178694158078 28.7094188376753  C 4.94959908361972 28.9031396125584  4.5675830469645 29  4.13573883161513 29  C 3.70389461626576 29  3.32187857961054 28.9031396125584  2.98969072164948 28.7094188376753  L 0.498281786941561 27.2565130260521  C 0.166093928980501 27.062792251169  0 26.8400133600534  0 26.5881763527054  C 0 26.3363393453574  0.166093928980501 26.1135604542418  0.498281786941561 25.9198396793587  L 20.0807560137457 14.5  L 0.498281786941561 3.08016032064128  C 0.166093928980501 2.88643954575818  0 2.66366065464261  0 2.41182364729458  C 0 2.15998663994657  0.166093928980501 1.93720774883099  0.498281786941561 1.7434869739479  L 2.98969072164948 0.290581162324656  C 3.32187857961054 0.0968603874415521  3.70389461626576 0  4.13573883161513 0  C 4.5675830469645 0  4.94959908361972 0.0968603874415521  5.28178694158078 0.290581162324656  L 28.5017182130584 13.8316633266533  Z " fill-rule="nonzero" fill="#76a5db" stroke="none" transform="matrix(1 0 0 1 500 111 )" />
  </g>
</svg>