<?xml version="1.0" encoding="utf-8"?>
<svg version="1.1" xmlns:xlink="http://www.w3.org/1999/xlink" width="12px" height="12px" viewBox="349 514  12 12" xmlns="http://www.w3.org/2000/svg">
  <path d="M 355 514  C 358.36 514  361 516.64  361 520  C 361 523.36  358.36 526  355 526  C 351.64 526  349 523.36  349 520  C 349 516.64  351.64 514  355 514  Z " fill-rule="nonzero" fill="#f0f0f0" stroke="none" />
  <path d="M 355 514.5  C 358.08 514.5  360.5 516.92  360.5 520  C 360.5 523.08  358.08 525.5  355 525.5  C 351.92 525.5  349.5 523.08  349.5 520  C 349.5 516.92  351.92 514.5  355 514.5  Z " stroke-width="1" stroke="#797979" fill="none" />
  <path d="M 355 523  C 353.32 523  352 521.68  352 520  C 352 518.32  353.32 517  355 517  C 356.68 517  358 518.32  358 520  C 358 521.68  356.68 523  355 523  " fill-rule="nonzero" fill="#797979" stroke="none" />
</svg>