<?xml version="1.0" encoding="utf-8"?>
<svg version="1.1" xmlns:xlink="http://www.w3.org/1999/xlink" width="12px" height="12px" viewBox="459 604  12 12" xmlns="http://www.w3.org/2000/svg">
  <path d="M 465 604  C 468.36 604  471 606.64  471 610  C 471 613.36  468.36 616  465 616  C 461.64 616  459 613.36  459 610  C 459 606.64  461.64 604  465 604  Z " fill-rule="nonzero" fill="#f0f0f0" stroke="none" />
  <path d="M 465 604.5  C 468.08 604.5  470.5 606.92  470.5 610  C 470.5 613.08  468.08 615.5  465 615.5  C 461.92 615.5  459.5 613.08  459.5 610  C 459.5 606.92  461.92 604.5  465 604.5  Z " stroke-width="1" stroke="#797979" fill="none" />
  <path d="M 465 613  C 463.32 613  462 611.68  462 610  C 462 608.32  463.32 607  465 607  C 466.68 607  468 608.32  468 610  C 468 611.68  466.68 613  465 613  " fill-rule="nonzero" fill="#797979" stroke="none" />
</svg>