<?xml version="1.0" encoding="utf-8"?>
<svg version="1.1" xmlns:xlink="http://www.w3.org/1999/xlink" width="12px" height="12px" viewBox="349 553  12 12" xmlns="http://www.w3.org/2000/svg">
  <path d="M 355 553  C 358.36 553  361 555.64  361 559  C 361 562.36  358.36 565  355 565  C 351.64 565  349 562.36  349 559  C 349 555.64  351.64 553  355 553  Z " fill-rule="nonzero" fill="#ffffff" stroke="none" />
  <path d="M 355 553.5  C 358.08 553.5  360.5 555.92  360.5 559  C 360.5 562.08  358.08 564.5  355 564.5  C 351.92 564.5  349.5 562.08  349.5 559  C 349.5 555.92  351.92 553.5  355 553.5  Z " stroke-width="1" stroke="#797979" fill="none" />
  <path d="M 355 562  C 353.32 562  352 560.68  352 559  C 352 557.32  353.32 556  355 556  C 356.68 556  358 557.32  358 559  C 358 560.68  356.68 562  355 562  " fill-rule="nonzero" fill="#797979" stroke="none" />
</svg>